<svg id="레이어_1" data-name="레이어 1" xmlns="http://www.w3.org/2000/svg" viewBox="0 0 1920 1080"><defs><style>.cls-1{fill:#bfbfbf;}</style></defs><path class="cls-1" d="M227.3,375.33c2.34-2.75,5.59-4.34,4.72-8.36-.18-.82.52-1.92,1.3-1.66,2.75.91,3.69-1.13,5.41-2.51,6.3-5,18.88.45,20.94,8.26,1.49,5.65-.1,11.23,1.06,16.8,1.06,5.11.75,5.17,4.3,9.74,0-4.68,2-7.78,4.53-10.92s3.85-7.19,2.31-11.39c-1.08-2.94-.11-6-.81-8.92-.56-2.35,1.32-3.53,2.78-5,3.33-3.29,3-4.61-1.16-6.58-4.37-2.06-4.44-2.11-1.6-6.13a63,63,0,0,0,5.42-10.15,12,12,0,0,1,3.5-4.88,110,110,0,0,1,12.35-8.44c3.89-2.1,8.22-3.42,12.75-1.1,2.42,1.24,4.45-.13,5.8-2,1.54-2.09,3.15-4.28,3.71-6.9a28.37,28.37,0,0,1,2.91-8c-1.73-1.38-4.41.47-5.44-2-.88-2.11,0-3.92,1-5.75a24.8,24.8,0,0,0,2.11-6.31c1.15-4.93,4.2-6.32,8.75-7.73,8.2-2.54,14.75,2.47,22.1,3.58,5,.75,9.49,1.33,14.76.18a72.29,72.29,0,0,0,16.31-6.05c1.59-.78,2.76-1.5,3.27-3.18,1-3.25,4.13-4.85,6-7.52s5.79-2.87,8.24-.89a57.89,57.89,0,0,0,8.23,5c2.26,1.29,4.45,2.87,4.7,5.93.21,2.44,1.83,2.38,3.51,1.61s4.09-1.44,5.27-2.88c2.69-3.25,5.42-3,8.54-1.12.85.5,1.6,1.45,2.64.42a3,3,0,0,0,.92-3.3c-.62-1.79-2.08-2.95-3.21-4.37-3.59-4.46-3.46-6,.07-10.45,1.87-2.33,3.92-4.54,3.62-8a5.16,5.16,0,0,1,2.81-5,2.73,2.73,0,0,1,2.9-.11c.8.57.59,1.46.17,2.16-1.12,1.93,0,2.89,1.43,3.95,6.28,4.57,6.91,7.68,2.3,13.83-1.82,2.43-2.39,4.1.3,6,.44.32,1,1.19.9,1.42-2.26,3.82.84,7.45.29,11.15-.29,1.94.5,3,2,4,4.19,2.66,6.08,6.11,2.71,11,2.12-.31,2.5-1.54,3.05-2.59,1.62-3.12,3.93-4.64,7.43-3,2.11,1,3.41-.17,4.83-1.43a48.13,48.13,0,0,1,4.28-3.38c1.44-1,3-.68,3.53.89,1.26,3.66,4.2,6.86,2.16,11.42-1.44,3.23-.22,7.24-2,10.58-.27.51-.07,1.42-.44,1.73-4,3.33-3.14,7.32-1.94,11.55a12.81,12.81,0,0,1-.1,4.81,10.12,10.12,0,0,0,2.69,8.41c1.92,2.11,4.11,3.88,4.06,7.11-.07,3.89-.17,7.85-2.38,11.14-3.34,5-6.19,10-5.91,16.21.08,1.75-2.24,2.43-1.71,4.7,2.42-.19,3-1.95,3.9-3.78,1.72-3.64,2.18-3.81,5.2-1.52a19.86,19.86,0,0,0,5.95,2.93,10.55,10.55,0,0,1,7.11,6.57c2.16,5.14,9,6.91,14,4,2.35-1.36,4.26-1.89,6.71-.45,2.6,1.53,5.12.74,7.31-1.08A17.37,17.37,0,0,1,524,383.16a2,2,0,0,0,2-1,2.26,2.26,0,0,0-.85-2.69c-.89-.81-2-1.42-2.84-2.26s-1.1-2.11.22-2.4c2.83-.64,2.55-2.14,1.39-3.92-1.53-2.36-1-4.25,1.15-5.75s1.82-3.24.76-5.26a59.9,59.9,0,0,1-3.92-8.21c-2-5.8-1.44-11.24,1.6-16.87,2.44-4.5,6.47-8.33,6.83-13.87a2.78,2.78,0,0,1,.46-1.12c1.31-2.17,5.51-4.52,6.5-3.46,2.44,2.63-.28,4.51-1.53,6.25-3.59,5-3.86,6.59-.58,11.8a7,7,0,0,1,1.11,3.36,3,3,0,0,0,3.23,3c3.29.17,5.63,1.92,7.77,4.25,1.34,1.46,3.82,7.69,3.6,9.86-.72,7.19-.62,7.16,5.39,10.43,1.71.94,2.43,1,4-.44,2-1.81,4.42-.8,4.68,2a7.59,7.59,0,0,0,3.51,6c.82.59,1.84,1.24,1.84,2.3,0,4.64,3.38,5.94,6.87,7.31a13.44,13.44,0,0,1,3.57,2.23c1.66,1.35,3.17,2.16,5.48,1.2,2.55-1.05,3.73,1.05,3,2.87-1.52,3.9-1.24,8.47-4.4,11.77-2,2.09-.54,3.2,1.39,4a9.23,9.23,0,0,0,1.77.33c3.8.79,4.79,1.59,4.11,5.06-.75,3.9-.52,7.1,2.61,9.91,1.46,1.31,1.13,3.23.71,5.13-1.07,4.91.94,6.76,5.79,5.59,1.5-.36,2.63-2.1,4.43-1.26,1,.9.52,1.87.19,2.8-.73,2,.23,3.37,2.09,3.52,4.87.37,9.13,4.35,14.58,1.9,2.47-1.12,4.84.85,5.52,3.47,1.32,5.12,6.47,8.36,6.61,14.08a2.42,2.42,0,0,0,3.15,2.13c4.33-1.55,7.23,1.48,10.66,2.89.27,1.62-1,2.62-1.59,3.81-1.27,2.55-2.4,8-2,10.94.41,2.72-.62,4.52-3.49,4.28-3.32-.27-3,1.32-3.18,3.53-.31,3.28,0,7.13-5,7.58-1.61.14-2.52,1.92-3.23,3.41-.43.92-.68,1.92-1.14,2.81-1.6,3.08-4.67,4.73-6.74,3.69-2.9-1.47-4.65-5.24-3.66-8.2a12.05,12.05,0,0,1,1.73-3.19c1.81-2.44,2.88-4.88.83-7.74-.88-1.22-.55-2.19.74-3,3.1-2,2.24-4.77,1.77-7.43-1.92-.81-2.91.37-4,1.21-.81.62-1.65,1.46-2.69,1.21-6-1.43-9.47,1.93-12.57,6.21a9.85,9.85,0,0,1-.78.93,2.19,2.19,0,0,1-2.1.92c-1.2-.3-1.28-1.32-1.45-2.36-.84-5.13-.92-5.15-5.33-2.66-1.06.59-2.64.9-3.11,1.8-2.58,4.94-7,4.84-11.69,5.27-2.52.23-4.72.63-6.86-1s-4.36-1.78-6,.24c-3.74,4.62-9.66,4.19-14.36,6.57-1.87.95-3.62.1-4.57-1.77-.64-1.25-1-2.66-1.5-4-.87-2.12-.26-3.36,2-2.58s3-.54,3.36-2.2c.45-2-.61-3.12-2.48-3.45s-3.61-.35-5.39-.7c-2.55-.49-3.2-1.94-2.09-4.33,2-4.29,1.77-5.73-1.33-9-2.57-2.71-5.85-4.32-9.11-5.94a6.41,6.41,0,0,0-6.39.28c-2.22,1.29-2.07,3-1.47,5.21.68,2.57-1.36,4.13-3.24,5.32-2.77,1.76-3,4-2,6.79,1.27,3.4,1.66,7.08,3.52,10.3a7.52,7.52,0,0,1,1,5.27c-1.15,6-5,8.1-9.82,4.52-8.48-6.27-16.86-3.47-25.3-.55-2.28.79-3.21,4.5-2.38,7.31,1.4,4.72.52,5.69-4.25,7.08a61.67,61.67,0,0,1-17,2.73c-4,0-8.15,1.16-9.58,5.71-2.11,0-1.19-2.11-2.43-2.53-1.52-.51-2.1.79-3.05,1.44-1.65,1.16-3.43,2.15-5,3.38-1.14.89-2,2.12-1.26,3.69a3,3,0,0,0,2.93,1.81,28.45,28.45,0,0,1,3-.35c1.56.11,2.33,1.14,1.25,2.42-1.42,1.69-3.11,3.74-5.34,3.73-6.67,0-7.35,6-9.61,9.81-1.46,2.45-2.1,6-3,9-.43,1.5-.18,3.61-2.41,3.62a5.2,5.2,0,0,1-5.11-3.61,3.89,3.89,0,0,1-.27-1.78,6.14,6.14,0,0,0-1.58-5c-1.69-2-1.56-3.07,1.15-4.49s2.89-5,2.52-7.5a19.46,19.46,0,0,0-7.24-12.16A5.32,5.32,0,0,0,414,516c-1.71.66-.77,2.33-.55,3.71.54,3.4-4.1,7.13-8.06,6.37a25,25,0,0,1-5-2c-3.55-1.57-6.8-.14-6.93,3.6a8.71,8.71,0,0,1-2.45,6c-1.88,2.21-2.8,5.35-3.78,8.2-1.6,4.66-1.48,4.7-6.12,6.35.81,3.53,3.3,5.91,5.73,8.3s3.67,4.92,1.06,7.94c-1.24,1.43-.75,3-.66,4.63.34,5.92-1,7.66-6.65,6.86-6.78-.95-10.51,3.22-14.29,7.42-1.35,1.49-.6,3.05,1.32,3.79A19.65,19.65,0,0,1,380,600.75c1.16,4,8,6.48,11.71,4.45,1.95-1.07,3.8-2.29,5.73-3.4,1.37-.79,3.48-.36,4.27-2,1-2-1.44-2.57-2.13-3.91-.91-1.76-.13-2.9,1.51-3.13,4.4-.6,5.94-3.79,7-7.39.77-2.51,2.07-4.33,4.75-5a10.35,10.35,0,0,0,2.74-1.28c5.38-3.3,5.37-3.32,10.53,0,2.68-3.53,5.5-6.93,9.78-8.71,1.6-.67,2.42-1.5,1.76-3.72-1.23-4.1-.19-7.46,1.77-8.06s4.82,2.12,6,6.38c.41,1.42.81,2.67,2.15,3.47a8.19,8.19,0,0,1,3.65,6.07c.63,3.79,2.92,5.56,6.3,6.54a28.29,28.29,0,0,1,4.52,1.78c2.06,1,3.76,2.11,5.51-.82,1.34-2.23,3.38-1.13,4.28.7,1.76,3.56,4.56,4.44,8.07,3.62s5-3.69,5.94-7c.67-2.37-.31-3.91-1.9-5.33s-3.43-2.85-5-4.41c-1.75-1.71-1.31-3.8-.28-5.61s2.48.83,4.1-.2c-.62-2-2.26-3-4.1-3.81a4.6,4.6,0,0,1-2.9-4.28,3.36,3.36,0,0,1,1.89-3.51,2.77,2.77,0,0,1,3.33.68,22.2,22.2,0,0,1,4.57,5.63,5.75,5.75,0,0,0,4,3.41c2.06.44,3.66-.09,4.15-2.36a11.69,11.69,0,0,0,.27-5.42c-1.27-4.85.53-8.88,3.84-12.12,3.09-3,4.8-5.94,2.24-10.11-.88-1.44-1.16-3.1.52-4.35,3.56-2.66,7.11-5.34,10.75-7.89,1-.69,2.32-1,3.31.13s.38,2.32-.44,3.27c-1,1.22-2.25,2.33-3.34,3.52a7,7,0,0,0-2.24,4.85c0,1.27-.94,3.18,1.09,3.54a3.19,3.19,0,0,0,3.8-2.29c.36-1.16.59-2.35,1-3.5.55-1.64,1.62-3,3.4-3.09,6.77-.48,10.64-5.55,14.34-10,2.5-3,5-4.7,8.44-4.66,2.45,0,4.17-.3,5-3.24.82,2.66,1.91,4.44,3.89,5.69,3.5,2.19,4.31,5.6,4,9.51-.22,2.78-.79,5.61.58,8.91.74-2.48.32-4.66,1.19-6.67,2.06-4.75,1.92-4.81,7.28-5,3.9-.15,4.59-1,4.24-5.11-.39-4.68.8-8.8,4.52-11.93,1.56-1.32,3-1.25,4,.58,1.56,2.83,3.2,5.64,3.86,8.88.2,1,.75,2.14,2,1.79s1-1.58.61-2.52a11,11,0,0,1-.89-5.3c.82-6.45,5.73-9.72,11.63-6.93,3.49,1.64,6.2,2.43,9.3-.39,1-.93,2.69-.82,4.12-.52s2.49-.37,3.65-1.43c2.86-2.63,4.34-2.6,6.33.38a12.93,12.93,0,0,0,6.91,5.36c2.78,1,4.88,3.62,6.58,6.12,1.2,1.75,1.56,3.09-1,5.24-3.34,2.77-5.55,7.3-7.34,11.46-1.7,3.95,1.09,7.34,3.27,10.51,1,1.47,3,2.68,2.17,4.7a36.32,36.32,0,0,1-4,7.39c-.93,1.33-2.61.52-3.91-.08-2.82-1.31-5.56-2.25-8.67-.52-2.48,1.38-4.3-2.06-7.12-1.31,0,1.69,1.59,2.64,2,4.07.78,2.36,2.25,3.65,4.93,3.56s4.47,1.14,5.78,3.63c1.66,3.18,4.34,5.54,8.2,5.06a14.61,14.61,0,0,0,10.89-6.94c.7-1.11.1-2.37,0-3.56-.62-5.23-.48-10.13,2.81-14.85,1.61-2.33,2.18-5.52,4-8,.92-1.29.76-2.83-.05-4.54-1.49-3.12-.93-4.17,2.35-4.26,4.16-.12,8.85-1.82,11.42,4,.71,1.62,4.4,3.5,7,2,3.73-2.18,6.89-.53,9.73,1.13,3.74,2.19,7.58,4.55,9.71,8.68a7.81,7.81,0,0,0,4.28,4.12c3.63,1.19,4.78,4,5.58,7.28.69,2.83.77,6.15,4.4,7.55.13-1.47.15-2.86.4-4.2.45-2.44,1.44-4.28,4.49-3.44a4.48,4.48,0,0,0,3.56-.24c6.94-4.32,14.35-3.19,21.78-2a19.42,19.42,0,0,0,2.42.19c2.58.1,3.32-.89,2.12-3.33-1-2.11-2.66-4.45,1.18-5.75.82-.28.42-1.47,0-2.13-1.47-2.16-2.69-4.55-5.16-5.85a46.11,46.11,0,0,1-4.23-2.4c-3.65-2.45-4.67-4.93-3.41-8,2.09-5.16,3-5.74,8.48-4.91,2.34.35,3.5-1,2.55-2.58-1.82-3.09-.41-7.81-4.84-9.56-1.11-.44-1-1.61-.92-2.64a5.12,5.12,0,0,0-1.56-3.82c-1.88-2.28-4.74-4.19-2.67-7.86.18-.31-.21-1.28-.61-1.55-3.42-2.26-3.9-6.67-6.71-9.25a13.27,13.27,0,0,1-3.73-13.14c1-3.88,5-7.11,8-10.29.85-.89,2.71.09,3.83,1.08,4.27,3.78,9.43,6.06,14.31,8.88,8.35,4.82,16.26,10.4,24.33,15.69a6.1,6.1,0,0,1,2.45,4.08c1.14,5.7,4.84,8.11,10.36,8.22,1.84,0,3.64,0,5.07,1.51,1.69,1.74,3.7,3.22,2.16,6.21-1.27,2.45.21,4,2.51,4.37,3.54.54,6.79,1.16,8.28,5.05.21.57,1.26,1,2,1.16,1.68.27,2.59,1,2.36,2.8-.49,3.84,1.63,5.08,5.06,5,.4,0,.81-.06,1.21-.07,1.07,0,2.09.14,2.43,1.3a1.87,1.87,0,0,1-.91,2.1c-3.39,2-2.72,4.5-1,7.17,1,1.58.65,3.78,1.62,5.14,3.53,4.91,7.47,9.51,11,14.45,1.56,2.17,4,1.36,5.92-.25,1.58-1.32,3-1.11,4.13.53,4.42,6.4,10.53,11.68,12.36,19.82.46,2,1.46,3.49-.29,5.38s-.72,4,1.52,3.63c5-.71,7,2.65,8.64,5.93a30.09,30.09,0,0,0,7.34,9.53c6.2,5.39,9.77,12.84,14.87,19.09a5.39,5.39,0,0,1,.9,4.65c-.8,3.53-2,6.93-2.55,10.56-.48,3.19-4.67,4.82-7.85,3.14-2.81-1.48-6-2.49-8-5.31-1.14-1.61-2.63-1.67-4.21-.47a2.4,2.4,0,0,0-.69,3.65,9.64,9.64,0,0,1,1.16,2.79c1,4-.53,5.5-5.65,5.1.61,4.05.29,7.84-3,10.85-2,1.82-1.14,4.09,0,6.15,1.42,2.68,2.85,5.35,4.26,8,2.42,4.64-.25,9.14-5.6,9.65-4.34.42-8.34-1.27-12.53-1.77-2.17-.26-4.24-.35-5.7,1.13-2.81,2.83-6,3.42-9.78,2.93-1.55-.2-3.2.29-5.24.52.3,2.83.56,5.62-2.07,7.64-.85.65-1.14,2.1-1.55,3.23-.34.94-.62,2,.23,2.85s1.83.36,2.73-.17a8.21,8.21,0,0,1,2.16-1.07c3-.69,5.15.35,6.5,3.49.7,1.64,1.48,2.61,3.05,1.53,1.9-1.29,3.66-2.8,6-1.42,2.75,1.61,6.19,2.53,7.47,5.88,1.08,2.84,2.57,4.9,5.76,5.6,1,.23,2.62,1.37,2.69,2.21.45,5.26,4.64,4.45,7.84,5,4.3.68,4.39.54,3.7,4.62-.21,1.23-.63,2.41.09,3.51,1.51,2.3.62,4.2-1.15,6,1.75,1.34,4.84-.5,5.21,2.26s1,5.63.13,8.41c-.33,1-1.48,1.25-2.46,1.57-4.15,1.36-8.22,3.13-12.69,1.58-.7,2.33,1.27,2.6,1.95,3.66.92,1.44,1.76,2.83.39,4.39a3.78,3.78,0,0,1-4.42,1.13,17.8,17.8,0,0,1-6.14-3.83c-3-2.95-2.88-4,.81-6.38,1-.66,2.18-1.11,2.81-2.22,1-1.84,1.92-4,.08-5.55s-3.36,0-4.53,1.46a16.41,16.41,0,0,1-6.75,5c-1.3.51-3.21-.48-2.71-1.29,2.28-3.71-.49-6.7-1.14-10-4.46.12-6.2,3-7,7.2-.59,3.14-1.65,3.51-3.94,1.23s-6.07-2.41-8-5.25a2,2,0,0,0-2.24-.57c-4.36,1.44-9.12,2-12.43,5.78-3,3.45-2.79,4.71,1.5,6.35a3.35,3.35,0,0,1,2.54,2.16c-2.36.92-2.38,4.62-6,4.67-1.68,0-2.21,1.67-2.22,3.15a5,5,0,0,0,.72,2.86c2,2.57,4.86,5.18,2.66,8.54s-6.5,3.82-10.15,4.87c-1.27.37-2.78-.08-4.3-.16-1.15,2.9-2.28,5.68-.47,8.69A2.72,2.72,0,0,1,769,774c-1.66,2.51-1.28,5.34-1.78,8-.73,3.93-3.93,6.54-7.88,7.59a74.59,74.59,0,0,1-8,1.25c1.15,2.83,3.31,4.31,5.31,5.94,4.49,3.66,4.64,4.78.83,9a3.67,3.67,0,0,0-1,3.25c.48,4,.76,7.93,3.31,11.47a24.74,24.74,0,0,1,4.47,11.18c.39,2.86-.8,5.18-1.73,7.55-.85,2.16-4,3-6.28,1.46s-5-1.6-7-3.45a2.32,2.32,0,0,0-3.3,0c-1.27,1.08-1.22,2.46-.55,3.86a2.89,2.89,0,0,0,.72,1c4.69,3.86,1.53,8.17.14,11.85s-4.84,6.26-6.24,9.79c-2.56,6.42-5.07,13-4.3,20.22a11.08,11.08,0,0,1-9.93,11.94c-1.85.15-3.68.18-5.16,1.43-2.15,1.81-4.22,2.19-6.48.17a2,2,0,0,0-2.76,0c-.87.7-2,1.1-2.77.31-3.59-3.62-9.19-3.1-12.92-6.49-2-1.78-4-1.63-5.71.67-4.27,5.78-10.4,9.42-15.92,13.76-.81.64-1.73,1.16-2,2.18-.71,2.55-2.07,2.84-4.54,2.11-3-.88-5.44.83-7.56,2.9-1.73,1.69-3.06,3.94-5.42,4.78-4,1.42-7.39,2.59-12-.66-4.43-3.12-9.87-5.16-14.48-8.42-3.71-2.62-4.27-3.59-3.13-8,1.1-4.29.82-5.46-3-7.09-2.28-1-3.46-1.71-2.18-4.35s.28-5.18-.41-7.71c-.36-1.35-1.46-2.75-.87-4.07,2.2-5-1.18-7.41-4.54-9-2.78-1.3-3.37-2.61-2.3-5.05,2.22-5.1,1.15-9.91-1.13-14.63-1.83-3.81-3.13-7.88-5.73-11.33-1.87-2.48-1.41-5.42-.74-8.21.6-2.44.37-4.42-2.17-5.58a1.16,1.16,0,0,1-.49-.35,201.38,201.38,0,0,0-15.67-18.38,10.93,10.93,0,0,1-3-8.4,5.78,5.78,0,0,0-.62-3.52c-3-4.41-1.88-7.94,2.75-11.13-3-1.42-4.86.06-6.75.77-5.66,2.12-9.5,1.09-12.19-4.2a16.69,16.69,0,0,0-10.79-9c-1.59-.45-3.45-.91-3.3-2.94.52-7-4.66-10.35-9-14.19a56.37,56.37,0,0,0-5.94-4.16,7.88,7.88,0,0,0-6.33-1.47c-4.13,1-8.29,1.86-12.34,3.09a41.78,41.78,0,0,1-11.26,2.14c-5.64.14-9.85,1.91-11.62,8.33-1.27,4.62-2.12,10.18-7.69,12.45-.34.14-.84.57-.82.83.4,5.5-4.27,4.6-6.94,4.73-5.67.28-11.21.7-16.3-4.13-3.51-3.34-7.88-6.79-13.44-7.64-2.91-.45-5.76-2-8.39-3.47-5.69-3.2-11-2.18-15.94,1.29-2.53,1.79-4.75,2.89-7.78,1.79a3.35,3.35,0,0,0-3.47.53c-4.32,4.23-8.23,1-11.28-1.34-3.53-2.67-6.83-5.6-10.75-7.76a11.67,11.67,0,0,1-3.16-2.8c-2-2.42-3.68-4.41-7.35-2-2.87,1.92-5.49-1.71-8.6-1.72-3.88,0-4.12-3.18-4.14-6.14a2.53,2.53,0,0,0-.91-2.15c-3-2.18-2.4-5.31-2.2-8.3.27-4-2.43-7.23-5.95-5.75-4.88,2.07-7.32-.83-9.94-3.42-2.18-2.15-4-4.33-7.26-5.09-2.64-.62-4.07-3.24-6-5s-3.25-2.4-4.62.37a9.34,9.34,0,0,1-1.37,2c-3.66,4.23-8.11,3.79-10.8-1-2.37-4.25-2.37-4.24-6.87-2.33-.53.22-1.38.65-1.63.44-4.07-3.42-8.77,2.26-13-1-1.61-1.26-3-2.71-4.49-4-2.57-2.24-1.66-6.22-4.24-8.47a.63.63,0,0,1,0-.58c2.89-3.36,1.53-8.18,3.91-11.63a6.07,6.07,0,0,0,.73-6.24c-1.28-3.28-.86-7.12-3.62-10a4.75,4.75,0,0,1-.76-4.08c1-4.58-1.19-8.51-3.43-11.89-2-3-2.3-5.82-2.07-9.11.22-3.07.37-6.37,2-8.79,2.4-3.5,1.93-7.18,1.8-10.81-.18-5.08,1.8-7.56,6.79-7.48,1,0,2.1.43,3,.16,3.67-1.09,6.35-.11,7.74,3.58,1-.71.82-1.45.47-1.82-4.05-4.18-1.91-9.14-1.54-13.73.22-2.67,2.66-4.12,5.37-3.93,5.57.38,8.87-3.36,12.5-6.52a4.36,4.36,0,0,0,1.56-3.81,10.09,10.09,0,0,1,1.23-5.78c2-4.14.27-8.63-4.15-11.65-1.65,1,.23,1.52.31,2.27.3,3.07-1.88,4.61-5.18,3.41a26.88,26.88,0,0,1-8.81-5.74c-1.5,2.36-1.14,5.06-3.19,6.73-2.52,2.06-4.08,2.47-6.28.14-3.6-3.81-7.53-7.68-4.82-13.71-1.5-1.11-2.5,0-3.35.66-2.63,1.91-4.62,2-6.34-1.2-1.18-2.14-3.19-2.3-5.27-1.22-2.25,1.17-2.43,3-1.63,5.18.21.56.62,1,.87,1.6a1.37,1.37,0,0,1-.19,1.66,1.64,1.64,0,0,1-2.2,0,9.65,9.65,0,0,1-4.44-9.93c.35-2.64.55-5.3-.9-7.69-.9-1.49-2-3-3.18,0-.75,1.9-2.28,1.2-3.62.89-1.18-.27-2.36-.59-3.52-1-3.64-1.19-3.78-1.51-2.38-5.1.35-.91,1.08-1.73.42-2.79-4.38,3.24-4.38,3.24-8.11-1.92-1.65-2.27-2.94-2.45-4.78-.18-2.05,2.55-3.85,5.26-7.72,4.69,0,2.53,2,4,1.8,6.1-.09,1.32-.39,2.44-1.72,2.88a2,2,0,0,1-2.49-1.27c-1.32-3.07-3.65-5.3-5.94-7.58-2.47-2.45-1.66-6.56-3.29-8.64-1.78-2.28-5.18-3.64-6.69-6.59a20,20,0,0,1-2-5.72c-.54-3.38-.35-6.85-3.78-9.12-1.38-.91-.85-2.72.19-3.78,1.2-1.23,2.08.1,3,.76a19,19,0,0,0,3.17,1.72c1,.45,2,.32,2.35-1,.42-1.59.77-3.54,2.77-3.46s4.68-.94,6.36.9c2.22,2.43,3.28,1.49,4.32-.9a12.32,12.32,0,0,1,1.3-2c1.32-1.94,2.1-3.64-1.25-4.31-1.22-.25-2.63-1.32-2.61-2.31.11-4.06-4.85-5.39-4.74-9.42,0-1.34-1.45-.91-2.4-1.11-3.82-.79-4.81-2.63-3-5.84a22,22,0,0,1,3.72-4.77c2.23-2.19,5-2.34,7,0a11.61,11.61,0,0,0,5.25,3.83c1.54.52,2.07,1.83,2.12,3.36a5,5,0,0,0,2.05,3.59c1,.88,2.12,2.44,3.56,1.05,1.09-1.05,1.05-3.3.05-3.89-6-3.56-3.09-6.47.39-9.48a1.43,1.43,0,0,0,.34-.5c1-2.18,1.28-5.12,4.14-5.52s6-.83,8.86.88c1.2.72,2.76.86,3.91,1.64,5.64,3.82,11.22,1.33,16.82,0a2.78,2.78,0,0,0,2.34-3.59C282,472.94,274.74,469,268.8,472c-3,1.55-5.42.78-8-.58a78.68,78.68,0,0,0-7.49-3.94c-4.53-1.82-8.68-.49-10.54,4.05-1.56,3.78-5.13,3.54-7.69,5.24-.46.3-1.6-.08-2.25-.46-2.38-1.42-5.33-8.35-4.35-11.14,1.14-3.27.11-5.23-2.94-6.05-3.93-1-6.59-3.78-9.54-6.26-2.61-2.19-2.31-4.6-2-7.61s-4.66-2.32-4.86-5.51c-.12-2,1.67-4,.32-5.88-1.52-2.13-3.8-.07-5.69-.57a4.12,4.12,0,0,1-2.8-2.14,26.54,26.54,0,0,1-3-7.91,4.19,4.19,0,0,1,1.1-3.87c4.19-4.46,5.45-9.46,5.15-15.83s-2-12.29-3.49-18.28c-1.28-5.12,1.08-9.39,6.18-8.12,4.27,1.06,5.91-.37,8.25-3.31C218.74,369.41,222.85,370,227.3,375.33ZM698.37,586.62c3.49-.71,6.2-2.09,9.22-1.79,1.67.17,2.41-1.31,2-2.93s-.15-3.73-2.23-4.58c-.31-.13-1-.08-1.09.12C704.36,580.68,699.63,581.25,698.37,586.62Z"/><path class="cls-1" d="M1396.58,385.72c-1.19-.9-2.4,0-3.58-.27-4.8-1-5.42-1.7-4.27-6.7a3,3,0,0,0-2-3.87c-4.48-1.62-7.87-4.5-11-8-3.76-4.16-8.91-5.22-14.35-5.41-5.88-.21-6.59-1.18-5.75-7.06.18-1.19.61-2.35.86-3.53.53-2.41.28-4.5-2.46-5.4-3-1-3.57-3-3.65-6.06-.14-5.55-.5-11-6.08-14.91a14.34,14.34,0,0,1-5.92-10.22c-.31-2.84.29-4.45,3-5.79s5.77-1.84,8.62-2.86c6.75-2.43,13-6.46,20.6-6.29,2.64.06,4.38-1.71,5.87-3.8,4-5.59,9.18-8.75,16.4-8.63a36.72,36.72,0,0,0,16.36-3.2c1.84-.86,2.78-.07,3.38,1.29,1,2.35,1.24,4.81-1.17,6.51-2.71,1.92-1.88,3.11.6,4.16a5.44,5.44,0,0,0,1.71.59c5.45.21,9.47,4.1,14.42,5.53,2.47.7,3.23,2.94,4.59,4.63,2,2.51,4,4.09,7.71,3.4,6.07-1.14,11.17.74,14.58,6.28,1.32,2.14,3.65,3.18,5.65,4.54,1.84,1.25,3.8,2.33,5.58,3.66s4.15,2.5,3.78,5.08c-.41,2.87-3.17,2.64-5.31,3a4,4,0,0,0-2.68,1.27c-1.64,2.17-4,2-6.12,1.55-5.54-1.14-11.24-2.35-15.25-6.71a14.94,14.94,0,0,0-11.92-5c-1.24,1.16-.39,2.22.38,3.11a14.87,14.87,0,0,1,3.36,6.32c1.08,4.25,3.21,4.74,6.31,1.77,1-.93,1.48-2.71,3.3-1.8,1.24.61,1.26,2,1.3,3.2.06,1.6,0,3.21,0,5.12,6.33-.37,12.09,1.34,17.71,3.59,1.93.78,3.72,1.57,2.79,4.42-.83,2.55,1.49,2.91,3.16,3.48,1.86.64,4.24.68,4.73-1.32,1.16-4.81,4.15-5.16,8.09-4.34.48.1,1.08-.43,1.6-.65-.25-4-3.92-7.69-.29-12.23-3.44-.18-7.34.51-6.82-5,.13-1.38-2.41-3-3.75-4.52a24.57,24.57,0,0,1-2.85-3.12c-1.1-1.79-1.54-3.84-.17-5.72,1.54-2.14,3.73-1.63,5.45-.54,6.13,3.88,12.5,2.1,18.61.59,4.65-1.15,8.84.27,13.16.9,2.48.36,3.78,6.89,2.21,9.61a8.45,8.45,0,0,1-.75.95c-5,6.41-4.86,8.43,1.71,13.63a33.49,33.49,0,0,1,9.11,11c-3.23,0-4.3-2-5.7-3.51a2.06,2.06,0,0,0-2.15-.75c-1.19.37-1.35,1.42-1.35,2.45,0,2.67,4.64,9,7.47,8.6,4.59-.69,4.32,2.81,4.41,4.58.16,3.11,1.09,4.37,4,5.54a20.71,20.71,0,0,1,8.39,5.84c.92,1.14,1.93,2.12,3.52,2a3.1,3.1,0,0,0,2.49-1.52c.92-1.42-.53-1.5-1.14-2.16-2.74-3-2.82-7.31-5.26-10.55-2.18-2.88-4.69-5.92-6-9-2.83-6.38-8.19-10.76-11.3-16.77-1.17-2.25-1.12-3.86,1.59-4.66a9.56,9.56,0,0,0,3.71-2,12.66,12.66,0,0,1,12.54-2.44c6.39,1.92,12.35,2.59,18.84-.47,3.72-1.76,8.18.76,12.09,2,1.79.55,3.56,1.8,5.51,2.31a15.85,15.85,0,0,1,9.71,6.64c2.19-2.91,2.56-6.36,4.86-8.59s4.71-4.44,7-6.68a13,13,0,0,0,3.65-7.47c.92-5.07,3-9.38,9.33-9.16a4.63,4.63,0,0,0,4.23-2c2.17-3.68,6-6.08,8-9.69,3.93-7.37,7.84-6.17,14.31-4.4,1.94.53,3.72,1.69,5.67,2.1,3.3.68,5-1.3,4.12-4.6-1.35-5.36-2.76-6.33-8.66-6-1,0-2,.58-3.14-.49.52-4.24.87-8.59,6.51-9.83a5.91,5.91,0,0,0,2.88-2.16c2.06-2.57,4.73-2.84,7.68-2.44,6,.82,12.08,1.37,17.81,3.54a8.76,8.76,0,0,0,7.53-.15,8.69,8.69,0,0,1,8.2-.16,6.63,6.63,0,0,0,4.14.57c2.05-.29,3.48.87,4.69,2.29,2.17,2.54,2.73,6.23,6.19,7.93.94.46,1,2.64.54,4-1.54,4.15,0,7.37,2.54,10.61s2.44,4-1.29,6.44c-1.18.78-1.84,1.47-1.69,2.84.44,3.85-1.71,6.42-4.16,9-1.14,1.2-4.32,2.15-1.72,4.66,2,2,3.32-.09,4.41-1.4,1.6-1.93,3.68-2.86,5.91-2.29,3.54.92,4.19-1.15,4.77-3.68-.4-.24-.75-.62-1-.57-1.4.31-2.33,3.19-4,1.32s.62-2.86,1.85-3.7c2.13-1.46,3.76-3,3.54-5.89-.21-2.67,1.88-3.87,3.59-5.25.44-.35,1.31-.77,1.62-.58a32.34,32.34,0,0,0,7.13,3.43c2.11.73,2.25,4,2.86,6.39,1.84,7.06,2.12,14.35,3.47,21.47a8.18,8.18,0,0,0,.41,2.38c3,5.44,1.76,9.29-2.71,13.85-3.47,3.55-6.55,9-1.88,14.68,1.17,1.43.9,3.95,1.74,5.75,1.33,2.84,1.88,5.14-1.16,7.39-2.85,2.11-5.42,2.51-8.26.29a1.83,1.83,0,0,0-2.08-.38c-1.16.6-.79,2.23-1,3.52-.33,2.22-2.84,2.75-3.34,4.86-1,4.21-2.83-.05-4.32.26-2.16.45-4,1.26-4.67,3.3s.88,3.84,2.21,5.34c.58.66,1.45,0,2.21-.27,5.19-1.67,9-.7,11.36,3.62,2.55,4.62,5.32,8.78,9.7,12,4.64,3.4,5.58,8.64,5.27,14.11a6.39,6.39,0,0,1-4.38,6c-1.29.51-2.84,0-4.26,1.32,1.7.09,3.09.1,4.48.24,3.51.33,6.13,1.9,7.41,5.36.43,1.13.71,2.56,1.55,3.25,5.18,4.24,7.11,10.68,11,15.75,2.06,2.69,2.19,4.45-.41,6.51-.4.32-.46,1.06-.93,2.27,5.67-.95,7.61,3.43,10.28,6.67,4.37,5.29,2.68,11.36-4,13.22-3.1.87-5,1.55-3.68,5.15.58,1.58-.85,2.57-1.38,3.84-1.6,3.81-.45,6.69,3.6,8,2.43.77,4.29,3.18,7.33,2.35,1.14-.3,2.2.79,3,1.82,3.76,5.19,4.54,11.53,6.62,17.35.68,1.9-1.13,3.43-2.45,4.6-1.61,1.44-2.75,3-2.71,5.16.06,2.91.61,5.82-3.94,5.59-1.39-.06-1.67,1.72-1.73,2.87-.2,3.9-2.73,5.32-5.94,6.74-3.55,1.57-6.7,3.33-10.9,2.15-2.54-.72-5,1.11-7.43,2.16-2.74,1.18-5.61,2.69-8.41-.1-1.61-1.62-3.37-.79-5.07,0-4,1.74-7.84,4.27-12.57,3.77-.35,0-1,.12-1.06.32-1.53,5.17-5.12,3.19-8.35,2.44a4.84,4.84,0,0,0-4,.78c-3.26,2.38-7.08,2.83-10.89,3.41-3,.45-9.37,6.89-9.58,9.81a6.94,6.94,0,0,0,2.25,6c1.91,1.73,4.34,3.9,2.28,6.72-1.82,2.49-4.87,4.24-8,3.35-5.07-1.45-10.8-1.25-14.49-6.56-2.32-3.34-6.31-3.81-10.47-2.37-6.39,2.21-10.94,6.48-13.08,12.59a31.65,31.65,0,0,1-6.83,11.31c-3.08,3.29-3.21,6.5-2.52,10.56,1.16,6.79,3.73,13.13,5.59,19.7a18.91,18.91,0,0,1-.93,13,69.84,69.84,0,0,0-3.49,10.34,17.19,17.19,0,0,1-8.31,10.76,40.22,40.22,0,0,0-7.58,6.05c-2.83,2.74-2.66,4.76,0,7.82,5.39,6.24,5.32,7.16,1,14.2-2.88,4.64-5.34,9.54-7.94,14.34a12.75,12.75,0,0,0-1.12,5.92c-.06,2.23.18,4.53-.31,6.66-1.23,5.31-.54,9.88,3.31,14.06,2.16,2.34,1.29,3.92-2.12,4-5.43.08-10.87,1.42-16.32-.19a6,6,0,0,0-4.14.09,7.71,7.71,0,0,1-7.49.1,6.64,6.64,0,0,0-6.9.92,15.56,15.56,0,0,1-7.94,2.66,13.92,13.92,0,0,0-8.26,3.28c-2.41,2.11-5.86,2.72-9,3.34s-5.91,1.33-7.88,4a4,4,0,0,1-3.06,1.77c-1.86.09-3.72-.63-2.46-2.68,1.49-2.42.39-4.22-.28-6.27-.41-1.26-1.11-2.23-2.62-1.92-3,.61-4.29-1.6-5.78-3.53-1.73-2.23-3.46-4.33-6.23-5.58-6.24-2.82-6.49-4.12-2.73-9.8a6.31,6.31,0,0,0,.42-1.47c-3-1.94-6.07-1.57-9,.19-1.77,1.08-3.21,1.44-5,.1a4.56,4.56,0,0,0-2.74-1.16c-8,.61-16-.22-23.72,3.18-6.53,2.87-10.8,9.11-17.62,11.25-7.4,2.31-10.67,9.58-16.78,13.41-1.19.74-2.18,1.79-3.59,2.21-2.78.84-4.79-.25-6.13-2.6s-.81-4.51,1.47-5.76c2.92-1.61,5-4.13,7.33-6.32,3.16-2.95,2.84-5.17-.59-7.77a12.84,12.84,0,0,1-3.81-5.18c-3.85-8.19-15.21-9.66-19.77-3.84-2.61,3.35-6.22,5.59-9.93,7.82-5.16,3.11-9.88,7-13,12.48-2.14,3.75-2.13,3.45,1.28,5.93,5.76,4.21,11,8.89,12.07,16.61.7,5-1.78,8.84-6.62,9.58-4.67.72-9.29,2.46-14-.82-2.09-1.47-5.14-.65-7.76-.36-1.38.15-2.89.87-4-.39-.89-1-1.4-2.14-2.19,0-.64,1.74-2.3,2.17-3.93,2.45-2.8.47-4.86,1.5-5.38,4.78-.29,1.88-2.14,2.82-3.92,3.47-7.09,2.58-11.5,7.73-14,14.68-.14.38,0,1-.3,1.16-5.48,4.46-5.73,11.36-8,17.3a7.73,7.73,0,0,1-6.84,5.19c-5.14.56-9.89,2.81-15.28,2.64-2.5-.09-5.29,2.69-6.61,5.53-1.7,3.64-4.48,6.77-5,11a5.1,5.1,0,0,1-1.66,3.16c-3.68,2.87-4.11,7.3-5.76,11.15a4.93,4.93,0,0,0,1.75,6.45c3.95,2.87,5.74,7.24,8.24,11.14,1.9,3,1.32,5.23-1.12,7.49-3.41,3.14-6.7,6.27-8.76,10.68-1.23,2.66-4.12,3.74-7.29,2.11-4-2-7.21-1.12-10.19,2.33-6.94,8-16.35,13.07-24.51,19.64a2.87,2.87,0,0,1-1,.64c-8.45,2-13.32,8.53-18.73,14.48-4.08,4.48-9.74,6-14.65,3.18-4.18-2.43-9.4-2.5-13-6.27-1.25-1.32-3.41-1.09-5.25-.88a6.62,6.62,0,0,1-5.13-1.38c-1.44-1.14-2.3-2.6-.79-4.1,2.43-2.43,3-5.67,4.3-8.61,1.59-3.61,2.7-4,6.57-2.94a13.07,13.07,0,0,0,2.91.68c1.78.07,3.78-1,5.27.35,1.31,1.22,0,3.12.47,4.68.54,2,2.38,2.5,4.27.81,2.42-2.16,4.63-4.53,7.94-5.14.45-2.19-2.41-2.25-2.13-4.11.22-1.51,1.3-2.48,2.06-3.65,1-1.55,2-3.13,1.18-5.09-1.18-2.89.41-4.57,2.55-6.07q5.73-4,11.41-8c2.68-1.9,5.38-3.79,5-7.68a1.2,1.2,0,0,1,.11-.59c1.52-2.65,3-5.32,2.31-8.55-.83-3.8-4.72-3.32-7.09-5-1.19-.83-2.57-1.75-2.8-3.08-.74-4.1-3.68-6-6.87-7.92-1.56-.93-3.12-2.25-3.31-4.17-.45-4.58-3.38-8.15-4.92-12.28-2.08-5.58-7.17-8.6-12.89-10.09a65.19,65.19,0,0,0-10.68-2.07c-3.09-.27-6.09-.31-9.22,1.59-5.34,3.23-11.21,5.58-16.94,8.14-3.52,1.58-5.79.53-7.19-3.11a13.28,13.28,0,0,1,.63-11.14c3.49-7.21,1.33-13.27-5.83-17.1-2-1-4-2-6-2.84-3-1.31-5.94-2.72-6.46-6.54-.25-1.84-1.64-2.7-3.2-3.34a185.86,185.86,0,0,1-30.38-16.1,14.39,14.39,0,0,0-5.78-1.7c-2.31-.36-4.92-1.32-4.93-3.75,0-3.9-2.76-5-5.2-6.65-.84-.57-1.78-1-2.62-1.53-1.77-1.18-5.19-1-5.11-3.59a10.14,10.14,0,0,1,4.38-8.27c1.5-1,3.13-2.22,4.81-2.44,2.77-.36,3.2-1.57,3-4-.54-5.38-.25-5.42,4.56-7.7,6.4-3,13.09-1.84,19.72-1.72,2.17,0,3.64,1.46,2.88,3.63-2.73,7.81,3,10.33,8.07,13.27,2.26,1.32,4.87,2,7.12,3.38,3.11,1.85,6.22,3.78,8.39,6.87,1,1.47,2.07,3.08,4.06,3.45,1.75.32,3.45.17,3.56-2.08.16-3.22,1.69-6.2,1-9.52,3.19-.44,4.64,1.33,6.06,3,4.5,5.17,9.46,9.15,16.85,9.6,3.86.24,7.35,2.26,8.4,6.76a9.57,9.57,0,0,0,3.88,5.3c2.14,1.62,3.93,3.46,4.42,6.23a2.86,2.86,0,0,0,1.88-3c.18-3.81,2.27-5.9,5.68-7,.58-.19,1.34-.34,1.64-.76,3.83-5.6,9.91-9.29,13.33-15.12-.94-1.18-1.7-.68-2.41-.4-2.36,1-3.7-.18-5-2.06s-1.47-3.64.42-5.29c.72-.64,1.73-1.35.7-2.46a2.29,2.29,0,0,0-2.27-.51c-4.51,1-5.39.82-7.25-2.84-1.65-3.24-3.19-6.58-3.48-10.31s.34-5.35,3.93-6.47c4-1.26,6.94-3.07,7.53-7.64a4.3,4.3,0,0,1,3.81-3.5c4.42-.69,7.38-3.49,9.51-6.92,3.92-6.34,10.07-8.37,16.73-9.72A12.31,12.31,0,0,1,1237,692c7.07-.35,12.25-3.6,15.66-10.52-2.83.07-5.13,1.09-7.42,1.93-1.53.55-3,1.37-4.63,1.33a10.28,10.28,0,0,0-8.08,3.52,6.81,6.81,0,0,1-7.71,2c-3.36-1.15-6.28,0-9.09,2-3.94,2.8-8,5.3-11,9.33-2.17,2.86-5.65,4.61-9.67,2.51-3-1.59-5.69-.83-8.51,1a19.74,19.74,0,0,1-10.9,3.19c-3.09,0-4-1.43-2.85-4.29a9.77,9.77,0,0,1,1.19-2.11c1.85-2.51.9-4.55-1-6.42a21,21,0,0,1-2.68-2.45c-1.8-2.49-1.12-5.14,1.55-6.58A4.53,4.53,0,0,1,1173,686c8.42-1.82,9.36-5.39,4.1-14.57-.1-.18-.25-.32-.36-.49-1-1.44-3.1-2.47-2.06-4.64,1.13-2.39,3.54-2.52,5.77-2.51,3.82,0,7.77-.39,11.06,2.26,1.63,1.31,3.22.84,5.11.47a69,69,0,0,0,22.43-8.93c3-1.8,5.58-2.4,9.08-1.21,4.65,1.58,6.46.36,7.1-4.25.41-3,2-4.14,4.48-5a40.14,40.14,0,0,0,14.47-8.7c2.59-2.52,4.06-4.88,2.79-9.06-2-6.51,2.29-11.56,9.24-11.7a36.71,36.71,0,0,0,8.92-1.39c8-2.19,11.57-7.6,10.26-15.83-.38-2.37-.12-4.87-1.5-7.06-2.42-3.86-6.21-5.61-10.86-4.28-2.33.68-3.79.07-5.47-1.31a19.4,19.4,0,0,0-8.1-3.93c-5.73-1.34-17.12-10.62-19.82-16a11.13,11.13,0,0,0-3.83-4.56c-4.22-2.79-6.49-7.54-10.57-9.94a2.5,2.5,0,0,1,1.67-2.28,4.53,4.53,0,0,0,2.7-5.49,4.63,4.63,0,0,0-4.27-3.74c-3.86-.41-6.28-2.39-6.8-6.44a5,5,0,0,0-1.12-2.14,39.71,39.71,0,0,1-7-15.7c-.88-3.84-.59-6,3.32-6.78,3.35-.69,6-1.43,7.78-4.72,1.11-2,3.33-1.14,4.63.39,2.21,2.62,4.19,5.35,4.92,8.91.66,3.25,6.08,7.52,9.25,7.74a3.63,3.63,0,0,0,1.68-.44c5.54-2.79,5.53-2.8,10.21,3-.52-5.19-2.39-8.78-5.55-11-5-3.53-6.8-9.35-11-13.54-2.63-2.64-.82-7.48,1.71-10.61,2.22-2.76,5.4-4.67,5.35-9,0-1.91,2.08-2.34,3.8-1.59,5.29,2.32,10,1.38,15-1.39,3.52-2,7.69-2.82,11.39.34,1.64,1.4,3.25.68,4.32-.54,4.5-5.11,9.43-3.09,14.39-1.11a11.41,11.41,0,0,1,3.24,1.66c5.43,4.66,12,4.38,18.44,4.13a7.83,7.83,0,0,1,5.1,1c6.74,4.35,13.92,2.79,21,1.06,3.72-.92,6.37-4.3,10.25-5.14a2.15,2.15,0,0,0,1.79-2.17c0-1.39-1.08-2.72-2.14-2.54-5.37.92-9.15-4.79-15-3.07-2.6.76-5.63-2-8-3.79-3.4-2.57-5.87-6.15-8.14-9.73-1.68-2.63-.77-4.49,2.17-5.71,6.36-2.64,6.33-2.64,5-9.47a13.5,13.5,0,0,1-.13-3.59c.48-5.38,1.93-6.07,6.3-2.74a87.19,87.19,0,0,0,17.84,10.15c4,1.76,7.3,1.61,9.92-2.42,2.37-3.64,5.84-4.49,10.07-3.73,1.94.34,3,1,3.25,2.83.12.8.13,1.61.19,2.42.39,4.91-.26,5.76-5.31,5.42-3.68-.25-7.24-.31-11.16,1.32,2.56,2.21,5.41,3.84,6.79,6.84,1.16,2.5,2.84,1.86,4.37.47,2.69-2.46,5.28-5,7.91-7.55.88-.85,1.69-1.76,2.62-2.54a1.71,1.71,0,0,1,2.22-.09,1.94,1.94,0,0,1,.54,2.21c-.42,1.77-2,2.39-3.28,3.37-4.36,3.36-4.17,5.71.09,9.21a29.79,29.79,0,0,1,7.23,8.89c2.38,4.36,3,4.33,6.23.32a82.16,82.16,0,0,0,5.52-7.23c2.09-3.29,1.77-4.15-1.48-6.25-4.45-2.88-4.74-3.66-.91-7.06,2.15-1.91,2.52-4.05,2.62-6.44.11-2.71-1.79-4.77-4-4-3.88,1.23-4.75-1.47-5.91-3.58-1.6-2.88-2-6.2-6.94-5.72-1.93.19-4.09-3-6.3-4.39s-3.9-3.72-7-2.11c-1.51.78-2.71-.35-3.55-1.58-1.49-2.17-4.12-2.45-6.15-3.71-2.59-1.6-4.5.63-6.28,2.22-.55.49-.61,1.52-1.63,1.56-2.81-5.3-2.74-5.64,2.62-7.52,3.44-1.19,7-2,10-4.16a18.32,18.32,0,0,0,5.68-6.12c1.5-2.61,2.2-4.11-.64-6.51s-2.5-4.95-.05-8c1.41-1.73,2.5-3.49,1.47-5.48-2.42-4.72-4.46-10-9.78-12.27a20.44,20.44,0,0,1-8.41-6.75c-1.11-1.49-1.76-3.29-.5-5.08s3.21-1.58,4.91-.77a20.22,20.22,0,0,0,5.14,1.78c3.28.58,5.34,2.81,6.8,5.56,1,1.81,1.82,3.71,3.52,4.87a30.31,30.31,0,0,1,9,9.67,17.57,17.57,0,0,0,3.35,3.5c1.62,1.51,3.21,2.73,4.67-.32,1-2.16,3-2.42,5.19-2C1393.54,386.74,1395.22,387.17,1396.58,385.72Zm115.19,270.62c-6.21-5.35-6.48-11.94-.68-18.05.84-.87,1.91-1.54,2.09-2.86a3.08,3.08,0,0,1,3.37-2.83c4.63-.1,7.24-3.06,9.61-6.49,4.48-6.48,9-12.91,14.81-18.34,2-1.84,3.18-2.39,5.63-1.16,1.67.84,3.42,2.69,5.59,1.59a36.14,36.14,0,0,1,13.34-3.8c1.88-.17,3.27-1.6,2.5-3.33-1.09-2.46.49-5.15-.46-7-2.5-4.95-.26-7.75,3.11-10.94,2.74-2.59,2.45-4.44-.63-7-2.22-1.82-3-4.26-4-6.68-1.24-3.18-.87-4.43,2.33-4.69,4.74-.38,6.43-3.8,8.37-7s.31-6.32-3.49-6.06c-3.28.23-7-.47-9.63,2.56-1.16,1.31-2.87,1.37-4.53.9-4.13-1.17-8,1-12,1.07-2,0-2.72,1.66-2.4,3.49a7.1,7.1,0,0,0,3,5.08c1.08.7,2.72,1.15,2.42,3.24a2.63,2.63,0,0,1-3.26-.52c-4.11-4.71-10.82-5.55-15-10.15-1.34-1.5-4.26-.74-4.87-3.16-.53-2.13,1.44-3.72,1.64-5.73,0-.3-.35-.65-.87-1.52-3.68,3-7.13,1.06-10.53-.91-1.49-.86-2.25-.89-3.31.86-1.77,2.93-2.83,2.81-4.4,0-.86-1.56-1-3.61-3-4.38-4.12-1.6-6.86-4.32-7.45-9.25.58,3.14-1.05,4.47-3.28,5.43s-1.82,2.24-.81,3.91a7.18,7.18,0,0,0,4.78,3.42,9,9,0,0,1,5.14,3,16,16,0,0,0,5.74,4.34c2.68,1.29,4.64,3.44,4.56,6.58,0,1.89-4.37,3.37-7.93,3-.4,0-.78-.25-1.18-.29a20.1,20.1,0,0,1-9.51-3.68c-.83-.58-1.86-1-2.78-.21s-.67,1.83.13,2.61c1.46,1.43.9,3.48,1.68,5.12.5,1.07,0,2.5-1,2.32-4.77-.8-7.58,2.81-11.35,4.29,2.57,5.19,4.05,10.63,9.31,13.76a48.21,48.21,0,0,1,5.51,3.7,16,16,0,0,1,3.23,2.69,3.72,3.72,0,0,1-.54,5c-1.45,1.47-2.45-.1-3.55-1-.82-.63-1.12-2.37-2.85-1.44a5.22,5.22,0,0,0-.38,1.7c.85,6.6.93,6.9-5.14,8.18-3.44.73-4.31,2.36-4.07,5.43.12,1.5,1.38,3.64-.61,4.39-3.93,1.47-3.72,5.46-5.55,8.17-.9,1.34-1.21,3.25.48,4.37,3.36,2.21,1.83,4.41.14,6.58-1.14,1.48-2.49,2.8-4.12,4.6,2.58-.93,4.6-1.8,6.7-2.38,5-1.38,6.21-.47,6,4.71-.11,2.68-.48,6.1,1.87,7.26,5.81,2.87,5.45,8.58,7.27,13.31.85,2.21-.09,3.48-2.29,4-.91.21-2.08-.23-2.61,1.08.84,1,1,3.53,3.31,1.52a6.2,6.2,0,0,1,4.57-1.3c2,.12,3.17-.73,4.48-2.33C1506.87,662.16,1508.73,658.74,1511.77,656.34Zm-88.36-19.58c-1.2-1.92-2.48-3.38-4.05-3.24-3.71.32-7.61-.61-11,2.12a34.23,34.23,0,0,1-9.39,5.5,4.64,4.64,0,0,0-3.29,5.22c.33,2.64-1.07,4.13-3,5.51a27.16,27.16,0,0,0-4.23,3.44c-2,2.23-4.29,3.54-7.45,3.17-2.65-.32-4.69,1-6.21,3.07-.59.82-1,2.05-2.22,1.34-4.45-2.54-9.35-.76-14-1.56-3.27-.57-3.67.32-3.21,3.73.39,2.92,2.84,4.34,4.09,6.59,1.39,2.5,1.06,5-.93,5.8-2.43,1-3.29-.9-3.87-2.66-.7-2.16-1.93-2.37-3.67-1.35-1,.59-2,1.3-3.15,2.09,3.55.69,4.32,1,4.42,1.63.28,1.85-.93,3-2,4.17a7.77,7.77,0,0,1-3.54,2.2c-4.41,1.33-4.4,1.39-4.18,6,.06,1.27.16,2.54.29,4.6a8.85,8.85,0,0,0,1-5.61,2.75,2.75,0,0,1,1.22-2.62c2-1.33,8.62-.4,10.52,1.42,3.21,3.09,8.72,1.81,9.07-2.58s3.08-6.32,6.07-8.36c1.67-1.13,3.64-1.88,5.16-3.17,3.8-3.19,8.15-4,13-4.2,5.83-.23,11.64-1.07,17.44-1.75,1.13-.13,2.55-.41,2.77-1.89.17-1.19-.89-1.57-1.77-2.13-3.87-2.45-4-3.93-.56-6.54a37.06,37.06,0,0,1,5.74-3.4,13.66,13.66,0,0,0,5.56-5.41c.92-1.5,1.5-2.9.19-4.42-2.16-2.51-.9-4,1.53-5.08C1420.82,637.87,1421.93,637.41,1423.41,636.76Zm232.8-196.59c2.58-.65,5.16-1,6.27,2.86.79,2.73,3.49,2.43,5.65,1.7s2.41-2.48,2.09-4.47c-.23-1.38-1-3.06-.43-4.11,2.67-5.54-1-8.12-4.64-10.78-1.14-.84-2.36-1.55-3.54-2.32-4.5-2.88-5.83-3.11-9.42.62-2.51,2.61-5.11,5.76-4.42,9.91.26,1.57,1.36,3.33,3.21,1.11.93-1.11,1.66-2.48,3.35-1.82,1.89.74,1.88,2.4,1.59,4.08C1655.75,437.91,1655.22,438.87,1656.21,440.17ZM1456.6,616l1.36,0c2.21-3.78,3.55-8,5.1-12a3,3,0,0,0-1-3.76c-3.11-2.42-6.25-4.81-9.38-7.21l-1.1.63Q1454.09,604.87,1456.6,616Z"/><path class="cls-1" d="M700,255c2,2.87,2,5-1.4,5.86-1.23.31-2,1.4-3.12,1.79-4.08,1.47-8.27,5.7-12.19-.79-1-1.75-4-2.25-6-3.83-2.58-2.12-2.37-3.95-.79-6.23.69-1,1.6-1.81,2.3-2.79s1.27-2,2.09-3.38c-2.35-1.57-4.53-3.29-7.29-4-2.23-.6-4.7-2.27-5.58,1.79-.31,1.47-2,1.59-3,1-5-3-11.1-3.84-15.44-8.2-1.8-1.82-2.81-3.68-1.77-5.91,1.66-3.57.18-6.26-1.88-8.89-1.07-1.36-2.18-2.68-.26-4.08,3.4-2.49,6-5.38,5-10.76,7.1,3.87,6,9.64,5.71,14.73-.27,4.78.22,6.32,4.9,6.88,3.36.4,6.78.79,9.22-2.78,1.45-2.12,4.12-2.46,6.61-2.4,1.41,0,2.82.53,4.21.48,3.29-.13,6.51,3.51,9.13,1.72s5.83-2.77,8.29-4.75,4.75-1.93,7.4-1.23a20.92,20.92,0,0,0,8.45.15,15,15,0,0,0,2.36-.56c2.28-.7,1.88-3.42,3.54-4.7,1.91-1.48,4.06,1.76,5.6-.35,1.17-1.61,2.45-1.36,4.12-1.49,4.54-.35,5.83-2.55,4.31-6.82a10.44,10.44,0,0,1,0-7c1.53-5,.93-10.4,2.88-15.34.29-.74.06-1.87.54-2.3,4.2-3.75,4.68-9.27,6.88-14,1.73-3.72,4.12-7,8.11-8.69a10.74,10.74,0,0,0,4.85-3.47,7.6,7.6,0,0,1,4.57-2.83,14,14,0,0,0,7.55-4.77c3-3.26,4.29-3.55,6.51-1.74,2.49,2,1.32,3.79.22,6.29-1.85,4.18-4.62,7.43-8.16,11.06,3.21.51,5.74,1.44,7.73,3.95,1.83,2.3,4.6,1.34,4.57-1.52a11.54,11.54,0,0,1,4.34-9.52,5.05,5.05,0,0,0,1.38-2.67c1.19-5.62,5.86-9,8.67-13.58a2.4,2.4,0,0,1,2.52-1.36c4.94,1.26,9-1,13.12-3.11,1.72-.87,3.09-1,4.13.84,1.52,2.61,3.64,2.44,5.67,1,3.93-2.83,7.7-5.88,11.54-8.85.32-.25.59-.56.91-.8,1.69-1.22,1.16-4.06,3.39-4.82,2.52-.87,3.44,2.68,5.07,2.46,4.76-.65,10.1,4.11,14.43-2,1.89-2.67,5.63-2.11,8.34-.23a9.22,9.22,0,0,0,6.89,1.61c3-.47,4.12-2.66,4.92-5.44,1.06-3.68,2.68-4.32,5.7-2a9.81,9.81,0,0,0,9,2,11.56,11.56,0,0,1,7.12.9c3.8,1.62,7.31,4.19,12,2.33,1.83-.73,3.64,1,2.36,3.38-2.24,4.08-.38,7.08,2.38,9.71a16.6,16.6,0,0,1,4.85,9.5c.55,3,1.22,6.06-2.7,7.63-.78.32-1.33,1.48-1.74,2.37-2.13,4.6-5.31,7.79-10.37,9.27-2.9.85-4.49,4.61-3.22,7.47,1.93,4.34,2.4,9.47,6.42,12.77a2.77,2.77,0,0,1,.72,1c1.65,3.56,1.89,4.23,4.65,4.45,3.68.31,5.48,2.28,6.15,5.53.61,3,1.54,5.34,5.15,5.67,1.07.09,2.13,1.1,3,1.89,2.14,1.86,4.31,2.94,7.16,1.44a2.84,2.84,0,0,1,4.15,1.23c1,1.79,0,3.2-1.3,4.23-3.25,2.54-5.12,6.62-9.77,7.7-2.49.57-3.87,3.46-5.51,5.49A27,27,0,0,0,920,253.12c.7,1.23,1.14,2.61,1.89,3.79,4.34,6.78,12.25,8.48,18.85,3.75,2.56-1.83,4.58-1.84,7.2-.46,2.25,1.2,4.29,2.86,7.26,2.65,2.26-.16,3.46,1.94,4,4,.63,2.22-.26,3.95-2.3,5.08a18.23,18.23,0,0,0-2.1,1.22c-1.21.89-1.42,1.88-.12,2.92,5.33,4.26,12.65,5,18.12,1.84,7.34-4.24,8.69-3.81,12.21,4,.36-.57,1-1.1.92-1.54-.8-6.7,4.1-10.31,8.55-12.75,8.41-4.62,9.72-11.91,9.37-20-.15-3.62.88-6,3.73-7.54,4.58-2.54,8.08-6.73,13.16-8.49,1-.33,2.06-.69,2.41-1.7,1-2.8,3.18-3.3,5.72-3.64a10.59,10.59,0,0,0,6-2.79,5.2,5.2,0,0,1,6.74-.57c4.41,2.77,9,5.24,8.75,11.86-.16,4.44,3.54,6.3,7.73,4.35a29.21,29.21,0,0,0,8.57-5.56c3.5-3.46,4.87-3,7.23,1.31,1,1.78,1.67,3.77,3.49,4.88,3.18,1.94,4.75,4.29,4.55,8.42s3.66,6,7.53,4.49q3.39-1.32,6.77-2.68a2.57,2.57,0,0,1,2.85.15c1.15,1,.78,2.16.22,3.31-.09.18-.22.34-.3.53-1.83,4.74.53,8.31,5.75,7.72,2.6-.29,3.84.2,4.69,2.36,1,2.47,3.19,3.54,5.2,4.9,2.32,1.55,4.54,1.62,6.74-.06,2.89-2.2,6.22-4.08,8.46-6.83s5.79-2.85,7.52-5.81a3,3,0,0,1,2.81-.52c3.66,1.94,8.47,2.76,9.87,7.33a10.46,10.46,0,0,0,6,6.46c5.52,2.5,10,7,16.06,8.39,2.23.51,3.28,2.39,3.66,4.44.49,2.59-1.54,3.41-3.44,4.28-3.12,1.42-4.17,3.64-4,7.27.23,5.16-.85,10.31.53,15.54.33,1.24-.15,2,1.41,2.87a11.68,11.68,0,0,1,5.38,14c-2.3,6.93-6.09,9.63-13.07,9.13,2.76,4.09-.11,6.95-2.4,9.44-3.05,3.31-6,6.52-7.48,10.88-1,2.9-2.05,5.47,2.29,6.39,1,.22,1.39,1.29,1.75,2.29,2.29,6.35,5.45,12.41,4.09,19.66-.35,1.82-.38,2.63-2.13,3.46-4,1.88-4.39,8-.45,10a8.25,8.25,0,0,1,4.55,6c1.65,6.78,4.65,13.29,3,20.71-.67,3-.9,5.45-4.36,6.31-1.55.39-2.68,1.75-1.11,3.11,2.87,2.5.69,3.09-1.22,3.28-3.34.33-6.62,1-10.08-.52s-5.82.52-8.82,3.16c-4.82,4.24-5,8-1.74,13.29,2.12,3.37,1.36,4.75-2.5,6.63-2.77,1.35-4.93,2.63-4.51,6.2.15,1.28-1.11,2.1-1.89,3a4.64,4.64,0,0,0-.85,4.52c.52,2.11,1.81,4.39.26,6.44a21.7,21.7,0,0,1-7,6.51c-3.74,1.95-4.62,6.81-1.5,9.32,5.94,4.79,6.52,8.8,2.29,15.15-.85,1.27-1.62,2.5-3.32,1.76s-1.5-2.13-.59-3.5c.33-.49.66-1-.37-1.71-5.13,1.46-1.51,6.23-3,9-1.73,3.22.55,7.08-2.18,10.53,4.21-.55,3.69-3.9,5-6.12,3.08,1.67,1.87,4,1.09,5.8a45.66,45.66,0,0,1-3.81,6.14c-.53.84-1.74,2-1.52,2.47,1.85,4.3-2.19,4.34-4.23,5.92-.4,2.42,1.4,4.14,2.15,6.12,1.3,3.44,1.11,6.27-1.61,8.86-1.31,1.24-3.51,2.7-3.47,4,.17,5.15-4.8,8.86-3.5,14.25.45,1.9,0,4-.17,6.06s-.63,3.6-2.87,4.07-3.41,1.63-2.85,4.31c.41,1.94-.47,3.61-3,3.46-2.27-.13-3.09,1.64-3.94,3.25-2,3.75-5,5.76-9.34,5.39-2.28-.21-3.79,1.25-5.58,2.08-2.65,1.23-5.12,1.27-7.31-.81-1-1-2-2.25-1.57-3.74s2-.92,3.14-1.11c6-1,7.18-2.17,7.2-8.27,0-4.35,2.36-7,5.84-8.88,3-1.6,4.81-3.89,3.8-7.1-1.11-3.53-.5-5.74,2.59-7.67a2.54,2.54,0,0,0,.5-4.2c-2.58-2.19-1.87-4.44-1.1-7.1,1.09-3.79,1.16-7.66-1.28-11.08-1.46-2-1.32-4.21-.89-6.4.58-2.91-.41-4-3.42-4.15-3.66-.22-4-1.34-1.76-4.43.35-.49,1-.8,1.24-1.32,1.25-2.91,3.69-5.21.72-9.13-2-2.65-4.12-6.7-1.6-11.17a8.32,8.32,0,0,0-5.23,2.21c-1.73,1.33-3.11,1-5,.23-2.18-.87-2.7-1.86-2.1-4.07.39-1.41-.84-2.64-1.52-3.86-2.3-4.18-.25-8.74-1-13.11-.23-1.25,2.35-3.05,3.72-4.53,3.85-4.14,4.77-8.23,1.42-12.54-2.78-3.58-3.55-6.37,1.32-10.49-10.09,1.38-13.88-3.22-14.69-11.5-1.09,2.86-.94,5.75-3.75,7.34-1.53.87-2.7,1.51-4.44.66a46.55,46.55,0,0,0-6.16-2.52c-3.08-1-6.07-3.58-9.54-.84-.32.26-1.22,0-1.71-.21-4.64-2.43-7.64.42-10.61,3.27-3.83,3.67-4.29,3.78-8.9,1.18-2.1-1.19-4.27-2.28-5.89-4.22a9.1,9.1,0,0,0-2.91-2.12c-1.21-.6-2.26-1.76-4.27-1.35.84,3.43,4.51,5.87,3.48,10-.56,1.08-1.64.49-2.43.06-2.31-1.22-6.34,4.41-7.06-1.34-.37-3-3.73-4.84-2.28-8.44,1-2.44-.41-5.29-1.62-7.48-2.07-3.72-1.17-6.88.36-10.37,2.66-6.11,3.82-12.56,2.34-19.14a17.56,17.56,0,0,0-6.36-10.09c-2.39-1.87-4.15-1.93-5.52.58-3.22,5.87-8.53,7.6-14.59,8a9.39,9.39,0,0,0-5.66,1.81c-2.71,2.19-5.47,2.2-8.41.37-2.19-1.37-5.13-1.21-6.95-3.5a2.38,2.38,0,0,0-3.32-.28,2.67,2.67,0,0,0-.86,3.26,10.58,10.58,0,0,1,.45,2.36c.09,1.7-.67,2.68-2.48,2.7-1.21,0-2.43.22-3.63.11-3.73-.33-6.78.69-8.92,3.94a5.12,5.12,0,0,1-4.58,2.52c-3.59-.12-6.65,1.54-10.41,3,2.1.46,3.7.87,5.32,1.16,3.26.59,6.13,1.43,4.71,5.8,3,5.25,1.58,10.88,1.48,16.42a10.1,10.1,0,0,0,2.06,6.28c3.38,4.32,1.82,8.88,1,13.4a5.34,5.34,0,0,1-3.93,4.29A24.92,24.92,0,0,0,912.36,480c1.17-6.57-2.86-10.48-5-15.11a1.6,1.6,0,0,0-2.56-.63c-3.13,2.67-7.63,3.58-9.59,7.77-1.2,2.55-3.09,4.71-4,7.48-.78,2.44-2.44,2.86-4.76,1.52-6.17-3.58-6.41-3.63-3.2-10.09,2.42-4.87-1.54-7.5-3.32-10.75-1.62-3-4.71-2.61-7.58-1.54-3.14,1.17-6.54,1.73-6.5,6.49,0,2.13-2.87,2.51-3.86.3-1.56-3.51-3.28-3.72-6.55-2.19-5.83,2.73-10.91-1.19-16.17-2.74-2-.59-3.52-2.68-5.87-3-.37,0-1-.38-1-.54.39-4.67-5.71-7.25-3.95-12.33.72-2.09.11-3.8-1.08-5.66a9,9,0,0,1-.49-9.73c1.48-2.81.86-6.76,5.32-7.67,1.12-.24,1.48-2.07.15-3a5.15,5.15,0,0,1-2.38-6.23c.78-3,1.59-6.3,4.8-7.27,6.33-1.92,5.72-7.8,7.32-12.25.79-2.2-.83-4.81-3.05-6.19-3.18-2-5.44-4.78-7.88-8.28-1.72,2.92-3.89,4.56-7.25,2.67-1.33-.75-2.71.33-4.07.68-6.72,1.72-11.49-2.37-10.1-9.09.67-3.3.28-5.11-3.16-5.63-3-.46-4.94-3.08-8-3.86-2.71-.7-2.44-5.31.21-6.94,1.18-.73,2.72-.9,3.88-1.65,1.62-1.06,2.82-2.65,1.44-4.59s-2.13-3.84-.73-6.12c1.08-1.73-.49-3.07-.93-4.54-1.5-5-3-10.1-7.85-13.24a5.8,5.8,0,0,1-2.6-4,1.38,1.38,0,0,0-1.67-1.32c-1.19.2-1.93,1.18-1.48,2.19,1.87,4.21-.08,5.44-3.94,6.64-5.62,1.75-8,5.72-7.41,11.69.45,4.26-1.29,9.08,2.53,12.33-.17,1.64-1.23,2-2.12,2.36-3.13,1.3-6.16,5.15-9.68,2.48-6.15-4.67-7.89-10.68-5.78-16.49a25.37,25.37,0,0,1,1.5-3.32c1.66-3.15,1.72-5.85-.82-8.87s-1.56-4.45,2.39-4.8c1.4-.13,2.88.2,4-.91a3.64,3.64,0,0,0,.54-1.06c-.53-1.74-2-1.07-3-.92-3.81.57-5.39-3.66-8.79-4-.19,0-.5-1.09-.4-1.6,1.18-5.64,8-8,11.76-3.62,3.13,3.66,7.82,5.05,10.76,8.76a4.4,4.4,0,0,0,2.74,1.06c1.63.18,2.31-.81,1.67-2.25-.84-1.88-2.2-3.8-4-4.43-6-2.07-8.75-7.55-13-11.45-.43-.4-.64-1.15-1.12-1.37-1.24-.58-2.89-1.54-2.75,1.15.07,1.18.74,2.67-1.15,2.74s-3-1.14-3-3.1a5.62,5.62,0,0,1,.46-2.34c1.17-2.35.94-4.33-1.32-5.82s-4.2-.64-6.08.89a6,6,0,0,1-2.58,1.49c-2.74.43-5.35,1-7.82-1.6-2-2.14-4.92-3.65-8.18-1.6-1.67,1-3.22.31-4.38-.92a21.24,21.24,0,0,0-7.64-4.79c-5.62-2.33-6.12-7.65-7-12.54-.3-1.67.9-3.61,2.37-4.74,2.37-1.8,1.69-3.53,0-5a7,7,0,0,1-2.66-5.72c-.22-6.49-4.2-9.15-10.64-7.51C703.16,254.2,702,254.47,700,255Z"/><path class="cls-1" d="M672.16,403.29c-3.93,3.18-7.37,4.64-8.26,9.44-1.68-2.54-3.22-4.07-2.81-6.21a16.87,16.87,0,0,1,3.19-7.13c1.11-1.45,2.94-1.25,4.52-.86,1.36.33,2.58,1.17,3.94,1.54,3.63,1,5.34-.4,5.16-4.15-.1-2-.28-4-.45-6,0-.14-.28-.26-.77-.7-2.41,2.19-5.33,2.86-9,1.51,1.28-2.68,3.13-4.34,5.88-4.3,6.84.09,13.1-1.12,18.24-6.12,1.52-1.47,3.1-.4,4.11,1,1.93,2.72,4.92,4.18,7.33,6.33,2.08,1.85,4.32,2.29,6.1-.54a3.88,3.88,0,0,1,3.45-2.07c5.32-.06,11.7,6.69,11.4,12.74,2.16,0,4.34.09,6.5,0a5.11,5.11,0,0,1,4.39,1.6c1.78,2,3.48,3.65,5.58.32a1,1,0,0,1,1.55,0c.31.44.6,1.31.39,1.63-2,2.95,0,4.9,1.6,7,2.85,3.7,4.28,8.74,9.73,10,1.67.38.92,2.47,1.72,3.64,1.75,2.55,2.75,2.79,5.24.84.31-.25.54-.61.87-.85,4.82-3.42,4.76-3.19,7.74,1.64,1.49,2.41,1.21,6,5.24,6.27.54,2.84,2.34,5,3.85,7.34.58.92-.48,1.88-1.56,2.12a6.58,6.58,0,0,1-6.24-1.33c-5-4.44-11.26-6.72-17-9.73-2.44-1.26-6-.65-8.72.94a4.23,4.23,0,0,1-4.5,0c-4.83-2.38-8.15-.94-9.84,4a15.21,15.21,0,0,0-.47,1.76c-.33,1.54-.11,3.43-2.08,4s-3.42-.68-4.58-2.19c-.37-.48-.78-.93-1.17-1.4-4-4.66-5.32-4.59-8.94.31a2.51,2.51,0,0,0-.56,2.75c.34.73.86,1.4,1.12,2.15.61,1.78.93,3.61-.81,5-1.54,1.25-3.1.54-4.53-.25-3.89-2.16-7.74-4.4-11.59-6.62-.88-.5-1.71-1.52-2.58-1.53-7.36-.11-8.07-6.18-9.33-11-1-4-3-6.52-6.49-8.12-2.43-1.11-4.14-2.51-3.74-5.48C675.39,409.16,671.68,407.49,672.16,403.29Z"/><path class="cls-1" d="M597.06,201.58c.49-1.72-.65-3.27.58-4.44,2.69-2.56,1.88-5.61,1.07-8.49-.86-3-2.32-5.7-6.27-5.36-.9.08-1.43-.65-1.64-1.51-.52-2.15-2-2-3.13-.89-3.18,3.23-6.35,3.06-9.64.38-1.28-1.05-2.57-.62-4-.58-2.79.08-4.81-1.06-4.09-4.36.25-1.14.26-2-.8-2.57-1.71-.9-1.93.57-2.51,1.6-1,1.81-2.67,2.88-4.48,1.51-2.12-1.62-1.22-3.52.32-5.21a7.75,7.75,0,0,1,3.38-2.17c-.49-2.08-1.69-1.73-2.9-1.47-1,.21-2.65.13-2.15-1.06,1.8-4.27-1.18-3.64-3-2.71-2.79,1.44-4,.18-5.42-1.76a1.36,1.36,0,0,0-2.11-.19,2.16,2.16,0,0,0-.38,1.63c.11.79.61,1.51.74,2.3.34,2-.76,2.6-2.49,2.16a7.31,7.31,0,0,1-2.09-1.19c-1.14-.78-2.25-.93-3.21.22a2.7,2.7,0,0,0,0,3.87c3.38,3.36,5.7,7.76,10.53,9.73,4.27,1.74,8.57,3.75,10.82,8.31a7.94,7.94,0,0,1,1.25,3.36c0,2.23-1.6,3.45-3.6,2.48a23.63,23.63,0,0,1-5.13-3.17c-2.46-2.12-5-3.26-8.3-2.49-1.77.41-3.06-.67-4.17-2a7.37,7.37,0,0,1-2.18-4.27c-.19-6-4.24-9.86-7.78-13.87-1.34-1.52-1.9-2.32-.59-3.94a3.81,3.81,0,0,0,.95-2.14c0-2-1.93-4.15.84-6,3.08-2,6-4.32,10.51-3-.23-2.76-2.6-5.55,1.56-7.23s5.24-2,8.33,1.55c.79.92,1.42,2,2.28,2.83,1.57,1.54,1.05,4.6,3.67,5.26,2.17.55,3.71-1.39,5.65-1.86s3.08.48,2.6,2.65c-.21,1-.88,1.82-1.15,2.79A2.1,2.1,0,0,0,570,163c1.35.67,1.62-.64,2.18-1.41,1.64-2.3,3.29-4.59,5-6.86,1-1.29,1.78-2.91,3.41-3.35,4.09-1.1,8.16.67,12.35.48,2.52-.11,5.21,3,7,6.07,4.79,8.38,11.17,14,22.1,11.62,6.1-1.33,14.59,8.62,13.36,14.75-.49,2.42-1.49,3.77-4.18,4.36-5.45,1.18-7.5,4.32-6.07,9.39.91,3.24-.65,5.46-1.9,7.93-.46.91-1.57,1.91-2.44,1.26-2.87-2.12-3.62-.22-4.69,1.94-.93,1.87-3.15,2.46-4.62,3.83-2.67,2.49-3,4-.84,6.72s3.12,5,0,7.77c-2.31,2.08-.14,3,1.5,3.88.74.39,1.48.83,1.26,1.82a2.11,2.11,0,0,1-2.18,1.75c-4.54-.21-9.91,1.73-12.26-4.49-5.59-2.79-6.34-9.64-11.15-13.21-2.15-1.6-1.34-4.08,1.22-5.25.71-.33,1.62-.21,2.35-.5,2.87-1.13,3.35-2.52,1.87-5.07-.1-.17-.25-.32-.36-.49-.83-1.26-2.72-2.13-1.73-4.12C591.74,200.64,593,200.61,597.06,201.58Z"/><path class="cls-1" d="M190,426c0,3.45-3,5.3-2.91,8.31,0,1.15-1.29,1.19-2.32,1.41-6.37,1.4-7.66,3.4-4.94,9.16,1.41,3,1.56,5.16-.53,7.7a3.26,3.26,0,0,1-4.15,1.23c-4.81-1.57-8.77-4.77-13.37-6.78-2.6-1.13-4.36-3.84-3.16-7.64a18.2,18.2,0,0,0,.23-9.56,5.19,5.19,0,0,1,2.45-6.22c2.89-1.86,3.95-6,8.34-6.26,1.37-.07,1.83-2.07,1.1-3.55a15.43,15.43,0,0,0-1.79-2.42c-3-3.91-3.06-3.93.29-7.28,2.59-2.59,3.95-6.79,6.82-8.29s6.76-1.24,9.82-3.2c1.34-.86,2.85-1.95,4.34-.31,1.16,1.27,2,3.26,1,4.48-4.69,5.81-1.33,13.66-5.22,19.59,1.31,4.8-2,7.9-4.2,11.41-.55.87-.95,1.92.27,2.56a1.8,1.8,0,0,0,2.15-.69C185.69,428,186.76,425.87,190,426Z"/><path class="cls-1" d="M446.66,203.5a7.66,7.66,0,0,1,1.65-7.18c1.45-1.88,1.86-3.42,0-5.3s-1.59-3.38.61-5c3.24-2.4,4-6.92,7.66-9.18,2.91-1.8,5.29-4.59,8.83-3.21,1.43-1.55.57-2.77.6-3.93.06-1.78.67-3.25,2.41-3.84s3,.5,4,1.91a4.57,4.57,0,0,1,.57,5.12c-.47.9-1.16.84-2,.29-2.26-1.52-2.5-.09-1.91,1.56,1.23,3.49,3,3.89,5.82,1.33,4.66-4.29,10.55-6.59,15.82-9.89,1.81-1.13,3,.14,4,1.59,1.28,2,2.41,4,5,1.3a2,2,0,0,1,2.79,0,2.38,2.38,0,0,1,.51,3.28c-2.48,4.18-3.46,9.23-9.54,10.89-3.1.85-6.62,3.86-5.66,8.74a12.49,12.49,0,0,1-.44,5.38c-.76,2.83-3.38,3.59-5.45,1.53-1-1-1.74-2.29-3.37-2.12-2.48.26-3.58-1-4.35-3.21-1.23-3.65-5.16-4.23-7.9-6.13-1.5-1-3.09.34-4.07,1.72-1.09,1.54-.37,2.61,1.14,3.39s2.35,1.79,1.3,3.39c-.91,1.39-2.1.89-3.11,0-1.39-1.18-2.56-.45-3.87.22a27.81,27.81,0,0,0-6.91,4.88C449.76,202.13,449,203.87,446.66,203.5Z"/><path class="cls-1" d="M402.41,249.05a8.94,8.94,0,0,1,4.44-7.19c3.83-2.4,5.49-6.93,9.59-9.08,1.12-.59,1.34-2.83,2-4.28,1.26-2.6-1.38-2.26-2.34-3.19a1.76,1.76,0,0,1-.35-2.23c2.15-3.5,2.76-7.59,4.46-11.25a11.77,11.77,0,0,1,3.44-4.17c1.26-1,2.45-2.44,4.21-2s1,2.38,1.45,3.61c1.23,3.42,2.06,4,5.19,2.1,2.19-1.3,3.85-1.87,5.81.29,3.48,3.83,4.07,5.28,2.25,8.32a9.33,9.33,0,0,0-1.44,3.85,15.33,15.33,0,0,1-7.2,11.34c-1.25.81-2.55,1.52-2.46,3.13.34,5.8-4.24,8.5-7.79,11.38-1.95,1.59-3.69,2.7-4.28,5.27a10.5,10.5,0,0,1-1.91,3.73c-.93,1.24-2.1,1.15-2.8-.32-.77-1.65-1.28-3.41-2.08-5-1.46-3-2.22-3.2-5-1.39-.34.22-.6.56-.93.78-2.67,1.76-3.35,1.5-4-1.53C402.62,250.58,402.56,250,402.41,249.05Z"/><path class="cls-1" d="M790.93,407.85c8.19,1.87,12.48,7.47,12.18,16.28-5.91,0-6-6.55-10.18-8.88-.27,2.09,2.57,4.22.3,5.6s-3.86-1.24-5-2.35c-2.67-2.62-6-4-8.91-6.1-1.73-1.21-3-1.37-3.76.75-1.18,3.44-3,1.73-4.6.64-2.3-1.59-.77-3.26.31-4.62,1.49-1.87,4.1-2.42,5.43-4.71,1.15-2,2.75-3.54.71-5.87a2.9,2.9,0,0,1-.15-3.91c1.06-1.35,2.45-1,3.89-.68,4.45,1,8.74,1.9,10.07,7.31C791.78,403.61,790.33,405.66,790.93,407.85Z"/><path class="cls-1" d="M1047.06,507.94c-.43-6.54,2.15-12.09,5.76-17.25.93-1.32,2.12-2.42,2.28-4.16a3.13,3.13,0,0,1,2.72-2.86c1.79-.4,3.82-.73,5.15.75s1.23,3.86.58,5.76c-2,5.72-2,6.24-.09,11.35a3.87,3.87,0,0,1-.77,4,18.64,18.64,0,0,0-4.54,8.38c-.3,1.21-1.7,2.19-2.7,3.18s-2,1.36-2.72-.4a1.86,1.86,0,0,0-1.3-1c-5,.18-5-2.95-4.38-6.49A8.15,8.15,0,0,0,1047.06,507.94Z"/><path class="cls-1" d="M818.19,811.06c-.35,3.25-.59,6.53-2.85,9.13-3.56,4.11-7,8.38-11.44,11.61a6.54,6.54,0,0,1-3.24,1.5c-2.5.22-4.25-1.23-3.49-3.56,1.21-3.68,1.56-8.1,6.09-9.76.56-.2,1.56-.61,1.2-1-2.57-2.55.93-5,0-7.37-2.07-5.22,2.27-7.36,5-9.94,2.07-2,6.8.26,7.75,3.39A47.55,47.55,0,0,1,818.19,811.06Z"/><path class="cls-1" d="M468.54,154.73a1.23,1.23,0,0,1,1.68.21c1.15,1,2.31,1.86,3.55.18.84-1.13,1.8-2.29.86-3.82a23.42,23.42,0,0,1-1.33-2,1.91,1.91,0,0,1,.73-2.63,1.55,1.55,0,0,1,2.44.9c.95,3.44,2.92,2.58,5.58,2.1,4.32-.78,8.32-3,12.92-2.68,2.41.15,3.27.9,3.07,3.24-.23,2.62-.17,5.26-.42,7.87-.34,3.5-1.79,4.33-4.67,2.46-1.36-.88-2.06-1.83-3.24.08s-3.47,1.92-5.17,3-2.66,1.11-3.38-1.43c-.59-2.09-3.34-1.61-5.27-1.95C472.54,159.61,469.06,159.11,468.54,154.73Z"/><path class="cls-1" d="M891.54,630.9a5.69,5.69,0,0,1-1.24,4.59c-1.77,2.22-.68,5.25,1.1,7.82,1.27,1.83.25,3-2,2.75a4.25,4.25,0,0,1-3.82-2.52c-1.63-3.6-3.74-5.85-8.38-4.3-3,1-5.25-1.2-4.77-4.41a29.16,29.16,0,0,0,.11-9,3.49,3.49,0,0,1,2.36-3.83c1.9-.82,2.43.51,3.09,1.86.75,1.52,2.24,1.66,3.68,1.37a16.46,16.46,0,0,1,6,0C892,626,892,626,891.54,630.9Z"/><path class="cls-1" d="M699.2,506.11c4.68,5.46,7.09-1,10.68-2.48,1-.42,2.41-1,3.3.25a2.46,2.46,0,0,1-.39,2.85c-2.23,2.81-2.2,5.37.14,8.17,1.18,1.41,1.91,2.66-1.14,3.72-2.34.82-1.47,4.15,1.49,6.7,2,1.73,1.92,2.91-.36,3.84-1.31.54-2.77,1.1-4.13.49-3.65-1.64-6.91-4-10.78-5.36-2.16-.75-1.67-4.35.44-5.84,3.28-2.32,3.29-2.33.92-5.31a20.23,20.23,0,0,1-2.6-3.31A2.68,2.68,0,0,1,699.2,506.11Z"/><path class="cls-1" d="M786.18,384.35c-.21,2.15-1.88,3.16-3.59,3.54-2.94.65-6.05.54-9,1.29-2.47.65-4.27.79-5.46-1.87-.5-1.13-1.6-1.59-2.78-2.09-3.93-1.67-4-2.15-2-5.54.72-1.21,1.35-2.46,2.08-3.66.46-.75,1.19-1.21,2-.63,2.47,1.8,5.53.66,8.11,1.69,1.82.73,4.63-.45,5.26,2.7.51,2.52,3.72,1.54,4.73,3.49C785.76,383.62,786,384,786.18,384.35Z"/><path class="cls-1" d="M539,130.24c2,4.1,4.13,3.54,6.55,2.61a29.26,29.26,0,0,1,7-1.68c3.65-.43,5.51,1.43,5,5.25-.24,1.66.63,2.63.91,3.93.64,3-1.34,4.9-4.06,3.7-2.55-1.12-5.59-1.21-7.62-3.49s-3.93-1.28-5.72.38c-1,1-1.86,2.19-3.3,2.57s-2.9.62-3.83-.82.23-2.25,1-3.11A13.29,13.29,0,0,0,539,130.24Z"/><path class="cls-1" d="M517.15,191.17a4,4,0,0,1,.08-1.21A122.42,122.42,0,0,0,522,175.19a4,4,0,0,1,2.39-2.62,3.11,3.11,0,0,1,3.4.54,1.93,1.93,0,0,1,.41,2.72c-2.24,3-2.52,5.13,2.08,5.55,1.24.12,1.56,1.14,1.66,2.21s-.36,2-1.57,2.13c-2.14.23-3.16,1.64-3.84,3.43-.77,2-2.47,3.14-4.05,4.4-1.08.85-1.92,2.45-3.54,1.79S517.17,192.83,517.15,191.17Z"/><path class="cls-1" d="M1024.26,481.2c-.36-3.32,1.73-5,2.55-7.69-1.91-.45-3.73,1-5.63.17-2.48-1.1-3.27-2.43-1.61-4.54,2.11-2.67,4.51-5.11,6.84-7.59a3.14,3.14,0,0,1,3.28-1c1.5.45,1.67,1.69,1.31,2.9-.68,2.33.87,3.65,1.92,5.36,2.16,3.53,1.66,5.5-1.6,8.19C1029.33,478.65,1027.39,480.4,1024.26,481.2Z"/><path class="cls-1" d="M667.86,194.76c-2.14-.12-3.05-1.26-4-2.25-1.82-1.88-3.56-3.58-6.24-4.5-3.42-1.19-3.47-3-.84-5.8,1.23-1.33,2.37-2.74,3.61-4.06,1.9-2,4.2-2.09,5.47.14C668.82,183.49,669.21,189,667.86,194.76Z"/><path class="cls-1" d="M531.76,500.24c0,3.9-.92,6.16-3.9,7.13-1.58.52-3.43,1-4.26-.87-.94-2.11-4.58-3.26-3-6.05,1.27-2.22,1.4-4.61,2.31-6.81s3-3,4.22-1.33C529.15,495,531.53,497.59,531.76,500.24Z"/><path class="cls-1" d="M450.06,176.75c-2.54,5-7.51,6.86-10.29,11-.53.79-1.41.51-2.15.14a46.16,46.16,0,0,1-4.23-2.25c-1.21-.79-2.19-2-1.81-3.52s2-1,3-1.29c2.8-.83,5.82-.75,7.94-3.59C444.53,174.58,447.43,177.86,450.06,176.75Z"/><path class="cls-1" d="M458.46,145.48c-3-7.25-1.11-11.75,2.49-16a5,5,0,0,1,4.64-2c3.5.28,4.93,2.79,3.12,5.75a4.13,4.13,0,0,1-1.17,1.35C463.81,137.05,460,139.48,458.46,145.48Z"/><path class="cls-1" d="M518.35,127.65c1.78-.56,4.21,1.33,5.69-1.41.63-1.17,2.4-.62,3,.52,1.39,2.67,2.46,5.53,1.88,8.61-.38,2-1.66,3.17-3.94,2.39-2.71-.92-5.5-1.86-5.62-5.37C519.3,130.78,517.65,129.6,518.35,127.65Z"/><path class="cls-1" d="M726.64,446.24c-1.63,2.67,2.85,5.29-.19,7.81-2-.7-2.06-2.84-3.19-4.16-1.63-1.92-.84-4.75-.25-6.75.53-1.77,2.85.32,4.31.12,3.22-.45,5.93-.53,7.18,3.37.59,1.84.51,3.19-1.09,4.18s-2.6-.18-3.44-1.39S728.7,446.43,726.64,446.24Z"/><path class="cls-1" d="M672.89,958.69c-.24,2.24-5.14,6.31-7.4,6.15-3-.22-4.22-2.51-2.56-5.07.75-1.16,2-2.07,2.57-3.3s.11-3.53,2.73-2.89C670.22,954.06,673.05,957.21,672.89,958.69Z"/><path class="cls-1" d="M1043.3,555.81a10.25,10.25,0,0,1,4.64-8.87c1.29-.92,2.23-.51,2.85.81,1.8,3.82-1,10.47-5,12.16C1043.87,560.71,1043.06,559.72,1043.3,555.81Z"/><path class="cls-1" d="M639.7,314.63c-1.43-.62-1.93-2-2.36-3.28-.65-2,0-4.09,1.77-4.6,3.41-1,6.89-1.64,10.11-3.23a1.83,1.83,0,0,1,1.58.55c.63.73.23,1.51-.46,2-3.4,2.48-6.92,4.81-9.51,8.23C640.64,314.56,640.1,314.53,639.7,314.63Z"/><path class="cls-1" d="M482.83,229.67c-4-3-3.81-7.38-4-11.49a2.73,2.73,0,0,1,2.2-2.62c1.75-.37,1.69,1.26,2.11,2.31a7,7,0,0,0,1,2.18C487.4,223.63,485.87,226.54,482.83,229.67Z"/><path class="cls-1" d="M933.53,672.43c-2-1-4.55-.74-4.88-3.43a1.54,1.54,0,0,1,1.24-1.81c2.53-.42,5.2-1.51,7.39.87,1.34,1.45,2,3.17.91,5-1.28,2.14-3,3.88-5.75,3.74a1.79,1.79,0,0,1-1.21-1.14C930.82,674.07,932.38,673.71,933.53,672.43Z"/><path class="cls-1" d="M387.11,603.69c.72-3.64.27-6.52-3.39-8a1.92,1.92,0,0,1-.85-.82c-.81-1.48-3-2.9-1.42-4.67s3.78-.85,5.5.33c2.44,1.66,2.52,4.37,2.9,7S390.27,602.25,387.11,603.69Z"/><path class="cls-1" d="M901.27,654.08c-1.29-3.11-.09-5.6-1.16-8-1-2.13.79-3,2.44-3.25,2.39-.42,6.61,4.77,6,7.19a1.76,1.76,0,0,1-1.69,1.46C904.8,651.67,903.27,653.15,901.27,654.08Z"/><path class="cls-1" d="M768.41,465.22c-2.27-.41-3.83-.74-5.41-1-2.43-.35-3.92-1.91-5.18-3.82a2.59,2.59,0,0,1,.21-3.34,2.78,2.78,0,0,1,3.79-.73c1.88,1.09,3.37,2.66,5.56,3.49C769.19,460.53,767.9,463.07,768.41,465.22Z"/><path class="cls-1" d="M814.42,768a13.2,13.2,0,0,1-3.59,5.67,1.84,1.84,0,0,1-2.26.11,2.77,2.77,0,0,1-1.75-2.91,36.25,36.25,0,0,1,1.7-4.47c.48-1.36.83-3,2.76-2.38A4.8,4.8,0,0,1,814.42,768Z"/><path class="cls-1" d="M791.89,364.12c4.08,2.66,5.94,7.85,4.62,11.12a1.86,1.86,0,0,1-2.89,1.07c-1.81-.92-2.9-2.7-2-4.45C792.89,369.48,791.86,367.21,791.89,364.12Z"/><path class="cls-1" d="M596.86,388.15c2.06-5.36,1.44-11.91,7.24-15.77,1.39,1.89-.18,3.11-.58,4.45-.61,2.06-2.49,3.67-2,6.13C602.14,386.33,599.8,387.44,596.86,388.15Z"/><path class="cls-1" d="M647.23,486.64a66.1,66.1,0,0,0,9.08-9.17c1.19-1.5,2.54-.1,3.13,1.35a2.59,2.59,0,0,1-.86,3.28C655.14,484.28,651.65,486.49,647.23,486.64Z"/><path class="cls-1" d="M810.57,431.53c6.4,1.21,8.29,5.6,11,10.52C816,440.25,812.4,437.59,810.57,431.53Z"/><path class="cls-1" d="M849.32,471.47c-2.61-.15-4.74-.73-6.08-2.75-.88-1.34-.8-2.74.71-3.64,1.83-1.09,7.63,2.22,7.59,4.36C851.51,471,850.24,471.26,849.32,471.47Z"/><path class="cls-1" d="M996,603.68a1.84,1.84,0,0,1-1.27,1.81,3.92,3.92,0,0,1-4.36-1,5,5,0,0,1-1.56-4.86,1.77,1.77,0,0,1,1.28-1C992,598.42,996.06,602,996,603.68Z"/><path class="cls-1" d="M727.08,533.74c-.2.73-.63,1.2-1.26,1.23a9.78,9.78,0,0,1-3.59-.09c-2.14-.75-2.49-3-3.36-4.8-.26-.54.26-1.13.89-1.33,1.84-.58,3.11.55,4.31,1.62S727.13,531.77,727.08,533.74Z"/><path class="cls-1" d="M453.14,552.24c.49,3.89-3.93,6.34-1.91,10.56C445,558.92,445.46,557.08,453.14,552.24Z"/><path class="cls-1" d="M808,425.38c-.78-2.79-1.43-5.17-2.19-7.89,2.93-.51,5.27,0,6.09,2.56C812.84,423,810.45,424.06,808,425.38Z"/><path class="cls-1" d="M383.94,139.18c-.19,1.88-2.56,4-4.11,3.67a2.64,2.64,0,0,1-2.18-3.08,3.74,3.74,0,0,1,3.78-3.16A2.33,2.33,0,0,1,383.94,139.18Z"/><path class="cls-1" d="M646.54,203.94c-2.61,1.3-5.27,2.31-6.73.06-1.3-2,1.11-3.75,2.55-5.89Z"/><path class="cls-1" d="M635.9,436.56c-2.86-2.73-2.44-5.5-2.76-7.94A2.38,2.38,0,0,1,635.7,426a1.91,1.91,0,0,1,1.65,3C636.13,431.12,636.92,433.61,635.9,436.56Z"/><path class="cls-1" d="M673,368.74c-1.13-1.55-4.73,1.35-4.49-2,.1-1.32,2.5-3.3,4.57-3.32,2.42,0,2.47,2.35,2.55,4S674.46,369.3,673,368.74Z"/><path class="cls-1" d="M200.56,703.17c1.43-.39,2,.73,3,.88.75.12,1.59.08,2.12.83-2,4-3.77,5.28-5.64,3.76C197.39,706.48,200.33,704.91,200.56,703.17Z"/><path class="cls-1" d="M1181.09,418.54c4.57,3.46,5.17,5,3.13,7.2a2.12,2.12,0,0,1-2.66.7,2,2,0,0,1-1.11-1.95C1180.6,422.73,1180.82,421,1181.09,418.54Z"/><path class="cls-1" d="M507.47,154.53a2.06,2.06,0,0,1-1.9-2.57c.27-1.64.95-3.38,3-3.09,1.43.2,3.4.44,3.59,2.5C512.26,152.72,509.18,154.68,507.47,154.53Z"/><path class="cls-1" d="M873.17,470.91c-6.07-1.4-6.07-1.4-4-7.07C872.11,466.17,872.11,466.17,873.17,470.91Z"/><path class="cls-1" d="M656.17,936.12a2.63,2.63,0,0,1-3,2.28c-1.92,0-3.64-.61-3.77-2.86-.1-1.83,1.28-2.35,2.79-2.14C653.93,933.64,655.79,933.89,656.17,936.12Z"/></svg>