<svg id="레이어_1" data-name="레이어 1" xmlns="http://www.w3.org/2000/svg" viewBox="0 0 1887 924.21"><defs><style>.cls-1{fill:#bfbfbf;}</style></defs><path class="cls-1" d="M699.59,894.49c-11.09,1-22.8-2.44-24.73-16.89-1.6-12-8.82-18.43-20-20.4-14.87-2.64-23.24-16.19-36.9-21-4.16-1.47-6.18-7.33-4.07-12.9,2.24-5.92.83-6.91-5.68-5.45s-14.55,5.1-20.3,1.23c-8.5-5.71-17.28-8.87-27.12-10.8-9.55-1.87-10.09-5.82-4.21-13.66,7.53-10,18.21-12.65,30.16-14.14-12.48-8.53-25.84-10.06-39.11-5.85C536.41,778.17,526,784.29,515,789c-5.7,2.42-8.56,5.67-7.27,12.27,1.56,7.92,0,13.5-10.12,14.15-7.31.47-12.82,3.91-4.44,11.49,3.48,3.14,2.91,6.31.67,9.87s-5.29,6.93-5.82,10.71c-2,14.22-10.21,23.76-21.48,31.48-3.44,2.36-6.92,5.27-5.35,10.11,4.31,13.24,7.24,28.22,19.38,36.2,17,11.16,23,26.39,24.13,45.48.72,12.25,24.95,36.89,36.69,36.16,11.07-.7,13.38,4.88,14.93,13.14s4.28,16,12.5,20.17a15.36,15.36,0,0,0,14.27.26c3.58-1.84,2.54-5.29,2.24-8.71-1.41-15.93,10.31-26.09,25.64-20.06,13.27,5.23,20.34-1.62,25.46-10.2,7.64-12.79,19-16.08,32.16-19.11,16.21-3.72,31.81,1.57,47.73.74,10.89-.56,18.92-4,23.07-14.91,3.05-8,6.87-15.54,14.38-21,5.06-3.69,9.07-11.13,3.66-16.08C740.49,915.58,728.87,891.77,699.59,894.49Z" transform="translate(-16 -117.86)"/><path class="cls-1" d="M545.09,711.52c4.11,3.61,8.58-.31,10.24-5.14,1.49-4.35-12.16-21.83-18.9-22.3-3.9,5.41-15.73,6.84-16,14.77C520,716.36,537.58,704.94,545.09,711.52Z" transform="translate(-16 -117.86)"/><path class="cls-1" d="M1088.46,721.17c1.28-8-1.14-15.44-4-22.79-2.61-6.57-4.5-13.07-1.14-20.23,6.34-13.49,2.67-20-12.34-22.17-6.92-1-14-1.21-20.67,1.71-12,5.24-25.63-7.62-37.21,3.26-.29.27-1.76-.2-2.25-.72-5.68-6.07-11.24-11.27-20.85-11.18-3.87,0-1.53-5.83.25-8.14,9.75-12.65,17.64-28.32,38.54-24.53-1.09-6.64-1-12.64-3.13-17.76-4-9.84-.92-16.59,6.89-22.47,4.21-3.16,9.06-6,9.18-12.35.16-7.71,6-10.4,11.86-12.44,8.34-2.86,18.55-3,16.9-16.53-.43-3.57,4.77-3.77,7.55-5.32,5.27-2.94,13.35-4,15-9.62,3.35-11.47,12.26-14.61,21.36-18.46,4.89-2.08,12.51-3.73,12.8-8.58.73-12.16,8.24-9.34,15.29-9.16,5.07.13,12-.08,7.56-7.56-4.73-7.91-4.67-16.45-6.62-24.72-.92-3.89.29-9.22-6.13-8.23-4.45.69-8.41,4.87-7,8.72,5,14.1-4.47,10.52-11.76,10.91-11.45.62-17.92-3.47-18.6-15.74-.26-4.62-2.46-8.74-2.21-14,.27-5.87-2.24-12.32-10.73-15.2-16.84-5.72-36.28,1.15-51.64-11.28-1.55-1.26-6-.41-8.24.9-8.68,5-17.57,5.29-27.21,3.8-4.62-.71-9.74,1-14.49,2.18-7.18,1.78-9.82,4.74-2.08,10,2.41,1.64,6.83,3.38,4.37,7.39-1.68,2.74-5.42,1.34-8.08.54-10.82-3.25-18.82-1.08-27.4,7.61-7,7.09-18.33,13.12-28.77,10.33s-20.1-9.34-29.19-15.58c-10.16-7-19.3-8.09-29.16-.16-5.23,4.21-10.56,7.56-17.74,3-2.91-1.85-8.4.36-7.85,3.36,2.48,13.76-8.21,19.17-16.48,28.38,9.87-6.22,11.33,8.28,19.91,5.57,6.61-2.09,12.44,1.7,16.45,6.35a36.22,36.22,0,0,0,17.44,11.1c12.58,3.66,17.81,10.78,18.14,24,.16,6.35,4.63,13,8.4,18.72,3.07,4.65,7.36-.89,11.26-.7,7.35.34,13,5.39,12.91,11-.16,13.83-2,29-10.27,39.6-7.51,9.61-18.17,18.09-32.09,20.91-9,1.82-14.17-.08-15.67-8.24-2.16-11.72-8.61-12.07-16.85-7.46-12.48,7-26.18,9.43-39.88,12.09-7.89,1.53-16.7,3.71-19.6,11.27-9.28,24.2-34,30.1-51,45-3.18,2.79-6.35,1.39-8.81-1-3.09-3-1.47-6.7.83-8.79,6.66-6,11.29-14.35,19.73-18.36,4.25-2,6.47-5.18,6.38-9.65-.14-6.64,2.41-11.41,7.27-16.11,6.51-6.29,5.9-19.77-.84-24.26,1.49,14.39-9.88,24-12,37.31-.89,5.68-8.2,8.74-14,.87-4.35-5.91-26.89-10.16-29.15-5.72-4.53,8.94-2.22,17.5,5.07,24.53.3.29.58.59.86.9,2.61,2.89,4.77,6,2.08,9.87-2.85,4.08-7.25,4.52-10.94,2.14-6.27-4-12.32-2.76-18.92-1.48-17.48,3.4-37-19-30.5-35.85,3.36-8.78,4.83-16.26-.62-24.29-2.27-3.35,0-5.76,1.52-8.83,7.49-15.48,21.65-18.68,36.54-20.9,9.62-1.43,15.25-6,12.9-16.71-1.81-8.2.87-15.07,7.73-19.19s13-9.46,23.31-2.66c7,4.65,15.88,6.5,22.36,13.47a15.31,15.31,0,0,0,18.28,3.29c4.14-2,8.62-2.28,13-3.18,12.93-2.61,22.57,6.71,34.24,8.5,8.38,1.29,18.33,3.76,21.25-5.94,2.63-8.75-7.27-12.49-13.74-16.64a5.71,5.71,0,0,0-2.27-.95c-16.33-1.57-30.62-11.48-47.59-11.15-8.43.17-29.55-19.08-26.55-24,8.76-14.52-1.39-35.69,17.11-46.16,4.31-2.44,4-7.48,5.46-11.75,7-21.19,1.84-39.62-10.15-57.53-10.75-16.05-16-18.31-35-12.1a29.56,29.56,0,0,1-19.41-.2c-3.85-1.38-8.15-2.83-8.68-7.75-.55-5.15,2.67-7.72,6.85-10.47,10.28-6.75,20.24-14.06,29.87-21.72,6-4.77,7.89-10.18,3-18.14S738.56,281,733.78,273c-6.73-11.33-14.8-21.79-17.42-36-3-16.06-10.47-32.66-25.16-41-15.3-8.7-26-21-37-33.67-8.66-9.94-20.1-16-32.06-19.83-10.33-3.3-23.91.34-26.64,10-5.36,18.92-22.71,20.95-34.54,30.55-2.59,2.1-7.83,3.48-8.52-.17-2.42-12.86-12-12-21.2-13.07-4-.48-7.62-2.89-10.35-6.27a33.11,33.11,0,0,0-17.52-11c-17.41-4.72-34.87-9.19-51.74-15.76-17.37-6.77-35.65-5-53.71-4.89-4.6,0-9.72.54-12,4.92-2.8,5.43,2.48,8.42,5.76,10.88,13.51,10.13,20.28,23.71,22.9,40.06,1.26,7.82.36,14.33-7.63,17.28-7.65,2.82-13.1-1.74-15.18-8.33-2.27-7.21-5.81-6.72-11.06-4.33-4.52,2.06-9.09,4-14.08,1.1-8.87-5.22-18.05-10-26.59-15.67-9.18-6.14-8.19-14.92,1.72-20,2-1,5.05-.48,5.75-3.64-15.22-5.5-24.73-.71-29.28,13.94-2.48,8-.82,15.44,1.15,23,1.43,5.45,2.27,10.66-3.86,14-3.68,2-11.72,3.61-8.22,7.93,4.85,6,.36,18,12.56,18.79,20.64,1.35,13.28,27.44,29,33.3a1.74,1.74,0,0,1-.11,1.17c-6.85,11.37,7.75,25.76-6.09,36.55,12.19-3.68,17.36-12.81,18-23,1.17-17.27,5.41-24.42,21.29-29.43,7.82-2.47,15.55-5.24,23.2-8.18,4.47-1.72,8.83-2.39,13.07,0,5,2.84,9.46,2.75,15.11.72,8.73-3.14,19.63,5,17.29,13.11-2.61,9.1,1,9.53,8,10.14,5.74.49,12.56,2.29,6.7,10.56C457,288.5,458,293,471.13,298.7c5.66,2.45,11.09,4.28,13.24,11.49,4.53,15.19,16.65,21.34,32.55,17.17,21.83-5.73,42.1-2.62,61,9.83,4.8,3.16,9.63,6.46,14.87,8.75,17,7.41,24.91,20.33,22.37,37.89-1,6.66-4.06,11.77-11.38,6.77-10.35-7.08-22.94-5.94-33.92-10.47-4.45-1.84-7.44-.49-6.86,4.91.43,4-2,7-3.1,10.49-1.87,5.7-7,11.44,2.09,16.6,2.46,1.4,5.18,9.41.47,11.86-8.51,4.43-15.42,12.67-26.56,11.74-6.45-.54-14.45-1.21-17.4,6.09-3.16,7.81,5.3,11,9.15,15.88a8.7,8.7,0,0,0,1.81,1.67c7.46,5.24,5,9.29-1.69,12.4-10.58,4.89-22,6.4-33.42,7.89-3.75.49-7.67-.23-9.56-4.14-1.72-3.54.17-6.32,2.94-8.55s3.79-4.3.88-7.15c-4.22-4.12-30.78-3.57-35,.8-9.4,9.63-18.7,9.74-25.64-2.18-6.44-11.06-15.31-14.54-26.77-15.64,1.89,8.72,10.59,10.2,15.46,15.65,5.89,6.59,2.48,15.14,7,20.63,6.36,7.8,3.64,11.53-3.9,14.84-3.06,1.34-7.69,3.68-5.45,6.72,7.88,10.67.87,14.39-10.24,18.33,10.92,3,25,1.52,10.73,14.93-3.08,2.89-.61,6.62,2.48,5.71,8-2.33,15.35,4.07,22.93.89,8.78-3.69,11.85,1,14,8.36,5,16.78,10,19,25.71,10.53a75.63,75.63,0,0,1,30.51-8.87c8.31-.66,14,4.91,20,8.61,5.31,3.3-.59,8.78-1.76,13.2a16.6,16.6,0,0,0,.58,9.66c1.39,4.31-.33,7.18-4.15,9.06-9.46,4.65-20,4.3-30,5.94-3.16.52-6.65-.72-8.75,2.54-2.31,3.57-1.83,7.33,1.42,10,6.17,5.08,6.43,10.13,2.6,17.19-4.19,7.71-.48,12.9,8.18,13.36,20.85,1.11,40.34-6.08,60.24-10.63,4.91-1.12,7-5.56,8.56-9.86,3.08-8.19,8.52-7.86,14.77-4.17,12.16,7.2,13.66,13.46,6.41,25.88-10.16,17.39-2.15,46.13,14.27,50.38,5.5,1.42,12.27,5.51,15.75,4.84,18.76-3.64,20.22,11.32,28.74,21.1,12.05,13.85,29,23.66,48,27.88,2.09.47,4.52.64,5.7-1.23,7.76-12.23,23.28-17.37,28.83-31.46,2.35-6,6-6.67,11.7-5.18,15.42,4,31.95-.85,47.25,5.88,2.76,1.22,8.06,0,10.52-2,8.84-7.39,18.66-5,27.83-3,9,2,20.18,2.52,25.77,10.07,11.74,15.86,26.38,28.57,40.36,42.06,2.66,2.56,6.31,5,5.86,9-2.12,18.91,1,36.84,8.24,54.35,5,12.06,3.59,26.12,15.13,36.48,5.66,5.09,9.26,15.86,7.49,24.29-1.66,7.92-1.7,13.57,3.81,19.7,2.19,2.44,2.48,6.86,3,10.46,1.77,12.26,15.34,26.13,27.6,27.65,7.19.89,12.8-.46,10.69-9.79-1.28-5.67.5-10.68,3.26-15.31,4.28-7.17,3.33-13.1-2.88-18.61-4.16-3.68-7.73-7.84-3.72-13.84,5.91-8.83,8.14-17.55-.06-26.42-1.63-1.75-3-4.47-1.5-6.8,1.89-3,5-2.31,7.8-1.19,5.31,2.16,9-.27,8.23-5.16-1.59-9.87,3.79-10.47,11.19-11.45,14.84-2,18-7.56,13.92-22.63-1.75-6.56-.59-10.85,7.46-9.69,8.77,1.26,13.78-3.28,17.57-10.51,2.85-5.45,6.86-10.32,9.46-15.87,6.84-14.6,18.15-29.14,2.72-45.18a15.72,15.72,0,0,1-1.87-3.19c-2.13-3.8-1.3-7.18,1.68-10s6.36-3,10.23-1.42c4.6,1.92,6.89,5.68,9,9.73,2.37,4.6,5,8.94,11.22,7.33C1084.35,731.09,1087.54,727,1088.46,721.17Z" transform="translate(-16 -117.86)"/><path class="cls-1" d="M1740.58,490.14c2.66.73,3.22-1.56,4.15-3.43a13.42,13.42,0,0,1,3.54-4.84c2.46-1.8,4.46-5.55,8.35-3.7,3.66,1.73,1.77,4.45,1.11,7.3-1.21,5.28,2.52,5.48,6,4.16,6.93-2.65,6.83-7.88,5.13-14.18-3.78-14-1.82-16.89,13.06-18.94,6-.82,10.36-2.41,10.49-9.33,0-2.55-.27-5.3-2.52-6.61-8.39-4.85-18.3-2.5-27.32-5.46-5.2-1.71-4.8,5.22-6.55,8.59a4.16,4.16,0,0,1-5.09,2.32c-6.13-1.57-8.26,3.66-7.26,7,3.52,11.72,3.73,22.33-4.79,32.13A3.23,3.23,0,0,0,1740.58,490.14Z" transform="translate(-16 -117.86)"/><path class="cls-1" d="M1105.67,775.4c-6.09,13-19.15,21.39-22.43,35.92-2.22,9.82,2.71,15.77,13.72,15.55,6.58.77,10.6-3.88,14.31-9,4.1-5.64,8-11.48,14.41-14.83,11.74-6.18,12.45-9,4.54-19.56C1124.52,775.91,1108.13,770.16,1105.67,775.4Z" transform="translate(-16 -117.86)"/><path class="cls-1" d="M53.5,355.48c7.9.21,17-8.61,16.91-16.46-.06-7.51-14.1-26-20-26.44-4.6-.32-15.21,13.8-15.33,20.39C34.83,344.44,43.66,355.2,53.5,355.48Z" transform="translate(-16 -117.86)"/><path class="cls-1" d="M359.39,710.25c-8.75-10-18-18.46-32.12-21.18-10.45-2-11.93-10.19-5-18.4,2.92-3.44,6.08-6.75,8.43-10.55s5.63-8,1.61-12.31c-3.43-3.73-7.43-.87-11.42-.18-13.12,2.27-26.92,5.77-39.58,2.57-11.85-3-23-8.17-35.67-7.41-3.53.22-6.54-1.45-6.69-5.64-.11-3,.24-6.18,3.78-6.9,16.82-3.4,3.11-7.29,0-10.39-2.26-2.27-5.7-3.31-8.19-5.4-5.8-4.87-6.79-9.18,1.76-12.37,6.36-2.39,12.92-2.07,19.47-2.38,3.15-.15,9.16-.47,7.59-3.62-6.76-13.5,4.65-19.29,10.34-27.3,6.36-9,14-16.09,26.65-12.38,3,.87,7.35,2.39,8.33-2s-3.52-4.79-6.63-5.62a27.55,27.55,0,0,0-7.25-1.42c-10.8.15-16.6-5.13-18.69-15.6-1.59-8-7.8-12.39-14.64-15.62-4.18-2-8.09-3.89-10.26-8.25-3.58-7.2-7.94-9.8-15.33-3.87-6.23,5-13.31,2.42-17.64-2.53-7.29-8.32-3.1-30.3,6-37.27,8.57-6.56,14.7-14,18.28-25.14,4.18-13,11.51-26.71,24.71-32.62,18-8.06,29.45-18.61,26.52-39.77a2.89,2.89,0,0,1,.24-1.2c2.67-8.57-1.92-15-9-16.23-12.52-2.26-23.88-7.81-36.33-10.23-23.55-4.6-47.24,2-70.72-2.06-4.22-.73-9.78-1.28-12.08,3.73-2,4.29,2.94,6.24,5.1,8.95a22.83,22.83,0,0,1,4.85,14.92c0,4.13-.2,8.55,2.68,11.8,8.72,9.84,3.35,16.9-5,22.13-8.68,5.45-16.08,11-17.17,22.16-.76,7.82-14.59,13.6-3.48,23.53,1.33,1.2.06,5.2-2.1,6.57-10,6.34-14.73,20.51-29.63,19.66-2-.11-5,1.62-6.24,3.38-5.81,8-11.38,15.15-20.67,1.2-.24,7.8,8.45,13,1.26,18.64-10,7.88-19.27,17.62-30.6,22.6-19.57,8.62-32.74,23.1-44.07,39.92C10.18,572,17.91,588.73,36.45,590.75c10.48,1.15,19.77,4.35,28.42,10.7,8.26,6,17.3,11.32,28.3,10.78,13-.63,26.34-3.46,37.19,7.34,1,1,4.09.68,5.77-.05,5.34-2.32,8.81-1.4,12.52,3.57s4.71,9.13.92,14.3c-4.39,6-3.77,11.53,2.43,16,3.48,2.5,7.8,2.23,11.69,3.33,19.48,5.47,42.46,5.12,50.3,30.51,1.65,5.33,7.82,9,13.17,10.55,12.44,3.63,21.55,15.33,35.91,14.34,2.37-.16,5.49,2.12,7.34,4.13,15,16.34,35.58,18.74,55.65,23,19.28,4.12,39.3,2.57,58.3,8.76,12.62,4.12,23.16-.42,32.85-11.48-11.61-4.3-20.89-10-31.54-11.57C374.86,723.4,366.38,718.27,359.39,710.25Z" transform="translate(-16 -117.86)"/><path class="cls-1" d="M401.75,818c-4.2,1.72-8.39,3.15-13.09,2.41-4.9-.76-12.44-4.63-13.32,2.84-1,8.08,7.93,7.36,13.63,8.58,1.57.33,3.26.05,8.53.05a51.07,51.07,0,0,0,8.47-1.45c4.55-1.29,9-3.86,7.07-9.51S406.24,816.14,401.75,818Z" transform="translate(-16 -117.86)"/><path class="cls-1" d="M1651.63,503.23c-7.17-5.46-15.61-9.87-4-19.12,1-.78.2-3.84.17-5.83-.2-14,7-28-.43-42-.84-1.58,1-4.64,1.7-7,5.51-17.89,4.42-33.94-11.48-46.78-9.68-7.81-14.49-17.42-9.23-30.42a24,24,0,0,0,.88-14.56c-4.53-16-1.31-29.88,8.59-42.86,4.93-6.47,4.62-12.63-2.06-18.36-8.77-7.54-16.15-16.43-23-25.75-6.34-8.65-14.25-10.86-23.59-5.4-6.67,3.9-13.7,4.88-21.26,5.13-17.1.54-33.54,2.7-44.88,18.27a22.18,22.18,0,0,1-20.95,8.64c-21.29-3-43.86,1.13-63.69-10.75-2.43-1.46-6.85-4.75-7.83.65-1.46,8.14-7.9,9.73-13.45,13-3.83,2.25-8.77,4.74-8.32,9.69.44,4.72,6,2.91,9.19,4.31,1.26.56,2.55,1.12,3.81,1.73a15.67,15.67,0,0,0-3-2.55c-2.56-1.73,7.57-3.65,12.57-5l19.07,3.15c3,.5,6.67,2.29,6.46,4.81-.65,8,5,10.35,10.09,13.73,5.83,3.87,4.89,6.56-.73,10.84-14,10.62-27.24,6.43-40.61-.32-3.05-1.54-5.93-3.36-7.17-6.28-10.23.34-24.54-4.94-29.31-11.76-7.3-10.45-15-12.55-26.1-6.26-17.16,9.76-24.71,1.89-28.35-11.55-.21-.76-1.85-1.13-3.93-2.3-.2,7.27-.92,16.91-9.26,13.82-12.15-4.49-27.35-3.43-35.65-16.71-5-8.07-15-13.69-21.91-10-10,5.31-20.34,5.46-30.44,7.2-15.81,2.73-28.64,12.22-43.48,16.75-13,4-16.22.54-14.66-12.88.36-3.11-.65-6.52-1.62-9.6-1.56-5-.84-9.81,3.49-12,12.84-6.61,23.34-18.71,39.66-17.5,5.24.38,10.14-.29,11.64-6.5,1.43-5.91-2-9.66-6.76-11.75-18.66-8.14-30.74-27.63-52.58-30.35-2.16-.27-4.21-2.46-6.06-4.06-12.73-11-33.68-13.2-47.94-5-4,2.31-8.92,4.76-7.57,9.93,1.39,5.36,6.78,3.19,10.64,2.82,5.58-.53,10.37-.75,8.47,7.33-5.54,23.6-15.55,30.37-37.6,25.22-1.92,5,6.17,11.31-2.17,13.14-10.33,2.25-20.2,7.27-31.28,6.05-4.89-.55-10.43.38-12.78-5.25s-1.85-11.13,3.21-15.72,6.75-10.17,3.19-16.63c-3.26-5.93,2.48-16-8.85-18.5-1.76-.38-.19-3.61,1.21-5.2,7.92-9,14.3-19.43,29.37-18.26,5.24.41,17.31,1.85,16.41-4.94-1.1-8.27-11.33-3.5-18-3-5.3.4-12.8,0-14.13-4.54-1.39-4.79-2.27-11.88,4-16.71,3.71-2.87,6.11-7.65,8.48-11.92a6.33,6.33,0,0,0-1.33-8c-1.64-1.52-4.16-2.38-5.59-.78-12.09,13.53-31,14.57-44.84,24.63-4.23,3.06-8.14,6.16-5.51,13.26,3.64,9.82-2.52,17-12.84,15.66-5.43-.71-10.53-1.36-15.68,1-5.32,2.43-13-.21-15.78,1.09-11,5.14-24-16.55-32.73,2.93-.32.73-2.24,1-3.42,1-7.58,0-13.38,3.39-18,9.14-5.54,6.84-11.39,5.28-18.35,1.68-9.66-5-13.58-14.78-20.53-22-2-2-3.79-4.84-7.22-3a4.36,4.36,0,0,0-2,5.35c4.24,14.4-6,11.79-13.15,10.27-8.54-1.81-15.2-1.53-19.8,7.54,6.87.08,12,2.11,13.54,8.86,1.64,7.29-3.07,9.83-8.85,12.51-8.87,4.11-8.71,12.68-6.86,20.37,2.63,10.95-1,18.19-10.19,23.89-5.18,3.2-10.36,6.77-12.27,13.29-6.28,21.52,13.53,56.8,35.29,62.73,6,1.65,12.15,2.14,13.93-5.38,1.13-4.84,0-11.08,7.6-8.92,6.52,1.85,6.23,7.9,5.2,13.38-2.76,14.65,6.54,27,21.46,26.2,7-.36,18.18.18,18.7-9.54a180.23,180.23,0,0,1,3.15-22.88c1.41-7.85-1.31-12.77-7.31-16.68-3.44-2.24-7.37-3.76-10.66-6.19-3.76-2.78-10.31-5.55-7.39-11,2.8-5.28,7.94.38,12.07.85a26.7,26.7,0,0,1,8.35,2.15c13,6.22,26.28,11.82,27.84,29.51,1,11.58,9.67,16.84,20.62,17.41,8.4.45,16.09,1.22,22.68,7.54,4.46,4.27,9.6,2.66,15.76,1.07,8.67-2.24,18.5-23,28.13-.55.39.9,6.84-.63,10.42-1.29,5.28-1,9.69-6.67,16.26-3-3.3,10.7-13.6,16.08-19.33,25.77,8.83,2.67,17.68,2.95,24.38,9.13a5.49,5.49,0,0,0,7.84-.76,7,7,0,0,0,1.48-7.94c-1.43-3.67-5.18-8-1.47-11.36a53,53,0,0,1,23.75-12.41c6.3-1.4,7.55,6.26,10.86,10.19a48.42,48.42,0,0,0,9.38,7.93c3.47,2.42,7.3,7.5,11.64,2.85,4.15-4.46-1-8.19-3.28-11.77-3.21-5-13.7-8.8-7.16-15.45,7.67-7.81,12.54,4.89,19.4,6.49.57.14.76,1.47,1.35,2,10.33,9.2,18.08,21.66,34.08,23.35,5.54.59,10.87,3.25,16.71,1.49,5.38-1.61,9.66-.34,12.66,4.71a14.15,14.15,0,0,0,16.89,6.44c5.83-1.87,9.91-3,15.92.12,6.22,3.21,4.94,8.27,5.08,13.22,4-1.17,5.35-3.08,5.13-5.88-.48-6.34,2.78-9.41,8.7-9.13,6.68.3,7.52,5.51,7.3,10.72-.19,4.49-1.05,8.94-1.53,13.42s-3,8.23-.87,13.14c8.36,18.79,8.28,19.07-6.83,32.87-9.82,9-15.23,20.07-18.33,32.81-1.49,6.12.33,10.74,4.51,14.36,5.22,4.52,11.57,7.5,15.94,13.32,2.75,3.68,3.82.41,6.6-2,9.81-8.62,17.47-20.07,30.47-24.9,6.73-2.5,8.52-.57,10.71,6.39,3.17,10.11-9.35,14.67-7.49,19.55,2.64,6.94,8.68,12.95,7.58,21.16-.64,4.77-3.59,9.18-4.83,13.92-.79,3-1.9,7.54,1.81,8.8,4.48,1.51,5.2-3.64,5.65-6.26,2-12,6.37-24.61,4.42-36.06-2.91-17,1.29-31.47,7.33-46.49,3.15-7.84,4.88-15.81,15.91-9,1,.64,3.89.3,4.38-.5,4.2-6.91,13.53-10,13.27-20.47-.24-9.75,5.45-12.05,14-7,5,2.93,10.3,4.62,17.06,1.61-3.9-2.21-6.81-4.86-10.12-5.53-6.46-1.31-7.39-4.35-6.48-10.49,1-6.62,3.7-9.14,10.23-9.32,9.1-.24,16.27,2.06,19.5,11.45,2.26,6.56,6.9,10,13.3,6.86,12.14-5.88,20.52,1.49,29,7.51,4.5,3.19,9.94,8.05.6,12.92-3.91,2-1.38,4.56,0,7.19,6.25,12.47,16.54,17.33,30,16.47,5.39-.34,11.06-1.07,14.47,4.38,3.6,5.77,3.18,11.67-.61,17.41-1.56,2.39-2.7,5.06-4,7.59-3.17,6-5.64,11.94-.51,18.25,3.13,3.85,1.13,6.64-2.13,9.32-7.44,6.12-15,9.61-24.81,4.82-6.55-3.18-13.17-3.33-14.79,6.4-.87,5.26-4.45,8.09-9.25,8.51-12.23,1.05-22,9.11-33.77,11.4-4.24.83-13.33,18.84-10.76,20.56,12.81,8.61,11.26,26.67,25.41,35.38,8.13,5,13.49,9.44,22.66,4.61,5.82-3.06,11.66-5.67,16.5-10.53,9.64-9.7,29.67-11.4,39.47-1.87,8.84,8.6,18.46,9.51,29.36,8.94,7.42-.39,15.57-1.27,20.79,5.14,6.86,8.44,16.72,12,25.92,12.81,12.58,1.07,16.59,8.36,20.05,17.89,2.13,5.86,4.16,11.66,11.32,13.47,3.81,1,9,1.65,8.38,7.11-.54,4.62-5,6.14-9.17,7.08s-8.1,1.43-12,2.57c-4.34,1.26-10.75,3.12-9.8,7.78,1.78,8.73-4.63,14.53-5.68,22.94,4.64-2.91,8.9-1.73,13.25-.92,4.57.86,9-.28,13.23-2.07,1.65-.7,2.87.25,4,1.79,1.29,1.78-1.92,7.44,3.79,5.22,3.6-1.4,6.56-5.34,4.19-9-5.49-8.41,2.05-13.23,5-18.59s9.26-6.62,12,.91c2.28,6.2,6.62,10.51,10.94,14.67,7.86,7.58,24.64,4,30.75-7.18,4.76-8.73-3.58-12.44-9.59-15.48-5.66-2.86-6.21-5.82-2.73-10.53s.66-6.93-3.75-7.32c-14.49-1.31-20.92-8.13-22.08-23.5-.68-8.86.39-15.73,6-21.1,6.9-6.66,8.76,4.22,13.59,5.33,3.65.84,8.09,7.58,11.08,0,1.69-4.25,8.57-8.44.06-14.38-9.81-6.86-17.72-16.08-11.52-30,1.24-2.79-.95-5.24-1.74-7.9-4.13-13.78-16-21.92-23.75-32.93-5.52-7.81-6-12.76.4-19,1.82-1.79,6.28-2.86,3.26-6.45a6.84,6.84,0,0,0-8-1.59c-10.27,4.72-17.51-2-21.82-8.65-5-7.68,6.08-8.79,9.44-13.15,5.49-7.13,11.41-7.86,15.12,2.45.92,2.55,1.25,9.32,6.81,3.54,5.76-6,11.8-4.48,15.94.71,3.83,4.77,10.44,10.84,1.78,17.56-1.49,1.15-2.24,3.22-.66,4.17a43.34,43.34,0,0,1,12.09,10.45c2.21,2.77,7-4,10.78-6.19C1660,514.42,1660.15,509.72,1651.63,503.23ZM1557.2,370c-6.25-3-12.33-6.31-18.41-9.62-2.64-1.43-5.7-4.74-4.27-6.65,6.07-8.1.39-14.31-2.14-21.19-1.6-4.34-2.25-8.93,1.68-12.52s8.47-3.77,13.72-2.64c11,2.35,27.94,24.12,28.42,39.85C1576.26,365.12,1564.26,373.32,1557.2,370Z" transform="translate(-16 -117.86)"/><path class="cls-1" d="M1828.41,875.85c-11.27-4-22.63.23-34-.32-2.81-.14-6.4.2-6.83,3.7-.46,3.75,3.36,3.79,5.89,4.94,11,5,22.72-3.52,32.11,2.17,4.69-.27,8.88.61,9.71-3.53C1836.3,878,1831.85,877.08,1828.41,875.85Z" transform="translate(-16 -117.86)"/><path class="cls-1" d="M1143.17,541.75c-6.8-.37-13,.67-18.77,4.52-6.35,4.22-12.92,6.39-20.9,3.37-6.37-2.4-13.48-.1-16,5.88-5.64,13.15-15.8,22.22-26.39,31.83,6.89,3.73,12.33,4.67,19.41,2.24,10.14-3.47,21.15-5.86,26.3,8.74,1.46,4.15,5.41,7.19,11.61,7.25-2.16-20.59,4.64-30.29,24.29-35.68a33.69,33.69,0,0,0,5.78-2.06c6.78-3.29,9.66-9.12,8.42-16.21S1150.07,542.13,1143.17,541.75Z" transform="translate(-16 -117.86)"/><path class="cls-1" d="M1901.67,790.23c-2.94-7.18-8.38-15.29-7.05-21.86,2.92-14.43-5.91-15.72-15.21-18.08-11.11-2.81-17.25-12.45-20.14-21.11-1.8-5.4,7.16-12.53,15.15-15,1.75-.55,2.78-3,4.5-4,8.74-4.86,3.65-6.93-1.74-8.74-2.69-.9-5.81-2.26-8.32-1.65-13.1,3.17-25.11-.87-37.28-4.6-6.29-1.92-11.72-1.93-15.73,5.18-2.38,4.22-7.34,7.26-12.73,5-15.59-6.48-30.54-13.77-33.15-33.32-.43-3.24-.78-6.84-2.43-9.49-4.16-6.72-10.07-13.53-18.11-12.28-4.76.74-12.68,6.07-10.85,13,3.88,14.63-6.21,16-15.36,17.86-7.51,1.52-14.23,3.85-19.63,9.36-11.93,12.15-15.94,27.61-17.84,38.07-2.23,22.53,6.28,36.36,14,49.7,3.78,6.49,9.48,14.32,17.8,16.28a340.08,340.08,0,0,0,41.24,7c10.37,1.11,15.26-5.29,13.5-16.09-1.12-6.82.92-12.54,7.92-12.2,5.4.26,12.9,5.35,12,10.48-1.62,9.36,8.52,20.69-4.17,28.16-.35.2-.77.53-1.12.48-12.85-1.57-24.66,5.44-37.55,4.29-15.94-1.42-32.07-1-47.32-7.28-3.32-1.36-7.52-1.17-9.93,2.68-1.91,3.06-.28,5.68,1.88,7.69,9.21,8.58,20.58,18.06,32.19,16,15.63-2.82,30.08,1.95,44.89,1,19.51-1.22,38.43-6.67,57-12.79,1.88-.62,3.41-2.25,5.15-3.34,12-7.59,16.24-20,20.42-32.53,1.32-4,3.83-11.07,8.41-5.1,7.77,10.15,15,18.83,29.29,17.89,2.89-.2,5.21,6.82,9.12,2.2C1903.61,799.45,1903.59,794.94,1901.67,790.23Z" transform="translate(-16 -117.86)"/><path class="cls-1" d="M1276.86,559.59c-5.95-2.51-12.21-5.51-18.45-5.81-5.28-.25-2.23,7.05-4.89,10a37.77,37.77,0,0,1-3.47,3.46c-10.61,9.1-24.34,14.42-32.2,26.91-.91,1.45-3.5,1.83-6.93,3.49,14.72,1.69,24.32-.09,36.82-6.17,2.21-1.07,4.63-1.74,6.75-3a82.56,82.56,0,0,0,23-19.92C1279.78,565.74,1282.12,561.81,1276.86,559.59Z" transform="translate(-16 -117.86)"/><path class="cls-1" d="M1554.85,658.35c1.07-3.76-3.2-5.13-6-6.75-14.84-8.58-31.1-12.81-49.55-15.78,14.66,11.71,28.54,21.78,46.09,24.95C1549,661.41,1553.48,663.14,1554.85,658.35Z" transform="translate(-16 -117.86)"/><path class="cls-1" d="M1426.69,298.66a24.75,24.75,0,0,0-4.82-2.87c4.63,5.18-2.69,8.35-3.64,12.23a9.46,9.46,0,0,0,.27,6.12,18.25,18.25,0,0,0,6.19-1.15C1433.31,309.49,1434.1,304.61,1426.69,298.66Z" transform="translate(-16 -117.86)"/><path class="cls-1" d="M381.66,549.11c-7.44-11.21-16.91-18.86-28.21-23.35,2.52-6.71,7.25-12.6,8.6-19.73,1.19-6.35-6.87-12.61-1.81-18.28,5.34-6,12.93,3.66,20.75-1.58-4.32-5.33-3.61-15.17-10.51-15.44-8.05-.31-16.89-.16-23.23,9.41-5.64,8.5-6,20-13.86,26.17-9.64,7.64-12.52,18.6-17.87,28.41-2,3.72-1.39,6.26,3.16,6.89a18.28,18.28,0,0,0,7.1-.48c1.69.2,3.46.3,5.09.54,8.77,1.27,15.9,6.19,23.34,10.5,5.65,3.27,11.43,6.38,17.37,9.08,3.89,1.77,7.12-.38,9.75-3.31S383.83,552.39,381.66,549.11Z" transform="translate(-16 -117.86)"/></svg>