<svg id="레이어_1" data-name="레이어 1" xmlns="http://www.w3.org/2000/svg" viewBox="0 0 1920 1080"><defs><style>.cls-1{fill:#bfbfbf;}</style></defs><path class="cls-1" d="M659.59,704.22c4.92,3.07,10.65,1.86,16,1.51,26.93-1.74,52.19-7.14,77.13-13.24,4.21-1,9.33-3.66,13.2-1.16,4.67,3-.72,6-2.88,8.72-5.55,7-12.68,12.48-27.35,9.48-1.17-.24-3.15-.35-3.79.07-13,8.36-32.59,4.89-47.28,10.1-11.33,4-23.79,4.75-36.45,4.12-12-.59-20,1.85-23.72,9.33-3,6.09-10.49,8.15-20.11,8-16.9-.3-33.8-.53-50.69-.9a75.36,75.36,0,0,1-36.21-10.11c-13-7.29-26.15-14.59-40.11-21.15-16.83-7.9-30.09-7.8-47-.63-6.43,2.74-10.84,1.23-16-1.66-11.63-6.55-26.9-7.43-42.41-11.8,2.52,6.86,8.69,9.28,15,11.64,3.34,1.25,7.17,2.25,9.72,4,3.27,2.23,5.18,5.16,3.22,8.3-1.05,1.66-3.52,2.32-6.32,2.22-5-.18-8.26-2.11-9.5-4.88-3.1-6.94-10.5-7.61-20.24-6.76-9,.78-17.88,1-24.83-4.59-4.91-3.92-11.42-2.23-15.91.62C309.51,714,294.71,722,288.24,734.06c-8.9,16.56-22.08,32.55-15.23,51.14.46,1.26-.13,2.71-.57,4-4.35,12.77-4.39,12.79,13.75,20.65,15.71,6.81,24.73,16.84,33.26,27.07,1.71,2,1.75,3.91-1.95,5.63-12.22,5.69-13.27,8.7-5.42,17.15,7.06,7.6,16.5,14.14,25.87,20.66,16.39,11.42,32.53,23,46.86,35.44a123,123,0,0,1,14.05,13.86c7.34,8.91,2.8,14.79-12.82,16.5A122.52,122.52,0,0,1,350,945c-13.52-2.56-21.7-7.63-25.62-16.74-9.88-23-21.34-45.64-32.27-68.42-.81-1.69-.56-4.33-4.52-4.42-3.52-.07-4.55,2.28-5.6,4-3.79,6-7.38,12.12-10.89,18.23-2.84,4.94-6.2,5.29-11.35.89-14.72-12.59-30.68-24.75-30.15-41.61.06-1.92,0-4.85-4.34-5.39-3.36-.42-4.71,2-6.78,3.27-3.26,2-6.09,5.28-11.67,3.59-4.51-1.36-4.25-4.63-4.08-7.32.85-13.3,1.8-26.6,3-39.88a8.48,8.48,0,0,1,3.18-6.08c11.25-8.14,8.21-15.56-.12-24.32-12.53-13.18-21.22-27.56-28.78-42.2-8-15.59-8.61-30.91-2.22-46.62,6.88-16.89,17.44-32.87,27.52-49,5.31-8.49,6.13-16.55,0-25.23-15.46-21.8-11.33-44.17-6.2-66.66,3.17-13.9,2.77-28.22,17-40.19a8.19,8.19,0,0,0,2.71-8.85c-6.18,0-6.61,3.23-8.53,5.26-2.76,2.91-5.76,5.59-11.69,5.57-12.14,0-15,4.4-15.24,11.09-.14,4.26,3.69,10.54-5.44,12.11-8,1.38-12.53-4.23-17-7.69-16.54-12.68-21.19-26.73-11.56-42.06a107.13,107.13,0,0,1,7.46-11.23c10.69-13.18,11.85-26.94,6.16-41.25-1.21-3-3.37-6.14-.67-11,9.45,7,20.4,9.84,33.31,10.91,8.73.72,10.14,6.94,13.59,11.28,1.45,1.82,1.64,4.9,6.19,4.49,4.13-.37,4-3.28,4.53-5.3,1.58-6.28,1.86-12.48-5.28-17.9-4.59-3.48-6.23-7.67-7.81-12-2.24-6.17-7-6.92-14.53-2.82-10,5.41-13.84,5.3-20.93-1.7C165,383.56,159,377,164.78,369.18c2.32-3.12-1-5.09-4.13-7.08-25.36-16-34.15-35-28.09-57,2.72-9.86,2.92-20,4.82-30,.68-3.55.41-8.72,8.36-8.77,7.52-.05,9,4.7,9.79,8.47,3.22,16.09-1.74,32-2.67,47.94-.41,7.21-2.62,14.36-.21,21.91,15.09-7.47,20.85-6,25.57,5.57,1.61,4,1.41,9.44,11.56,9.11,8.9-.28,22.32-8.16,20.5-12.45-2.15-5.08-1.64-11.78-15.32-11.89-16.63-.13-17.6-2.36-20.08-12.7-3.48-14.52-7.89-28.9-8.33-43.64-.25-8.73-1.56-17,6.87-25,6.16-5.81,5.6-13.53,8.29-20.36,3.19-8.14,6.3-9.13,17.41-4.5,8.49,3.55,15.54,2.83,22.17-1.21,4.92-3,9.21-6.4,14.08-9.44,8.9-5.55,17.07-4.73,22.37,2.6,3.95,5.47,6.82,11.25,9.86,16.95,4.69,8.82,9.11,17.35,21.17,24,10.4,5.76,9.54,13.37-.73,19.19-8.7,4.93-14,10.77-17,17.73a22.55,22.55,0,0,1-4.25,6.78c-3.71,3.9-8,9.29-15.46,8.5-7.22-.76-5.13-6.82-6.16-10.65-3.51-13.12-5.7-16.13-18.07-22.31,0,4.14,4,6.88,5.68,10.07.92,1.77,2.92,3.7-.14,5.24-2.32,1.16-4.94.21-7.34-.4-.81-.2-1.56-.51-2.38-.68-5.89-1.24-12.3-5.76-17.72-2.31-6.13,3.9,1.06,8.49,2.8,12.82,5.74,14.32,28.19,22,36,35.5,1.76,3.06,6.72,3.58,10.85,1.51,8-4.05,10.14-1.05,11.49,3.55,1.66,5.62,3.51,10.71,12.62,14.44,6.59,2.7,6.13,8.44-1.31,10.91-11.63,3.86-10.77,9.69-8.42,16,2.18,5.87,6,11.41,10.72,16.7,8.58,9.55,2-23.4,10.52-13.83,5.17,5.8-8.59-40.61,3.58-41.73,17.67-1.64,17.21,40.43,19.71,31.79,1.7-5.87,32-4.12,34.05-9.94,3.56-10.28,24.77,26.83,41.52,28.41a165.39,165.39,0,0,0,19.38,1c8.67-.22,10.7-2.93,4.92-7.39a12.84,12.84,0,0,0-3.7-2.32c-21.67-7.32-32.3-20.38-43.58-33-5.49-6.16-13.53-8.83-23.8-7.13-11.63,1.93-21.24-.06-30.54-4.2-.71-.31-1.52-.54-2.3-.79-42.44-13.85-33-10.48-26.71-37.35,2.26-9.61,15.81-17.55,32.52-19.72,11.84-1.55,13.15-5.11,9.29-10.87-2.85-4.26-6.94-8.21-10.44-12.31-4.2-4.94,13.8-57.79,22.69-57.23,22.17,1.38,36,19.22,48.38,7.95,3.58-3.27-4.49-57.76,1.8-57.63,44.41-47.09,57.4,8.74,62.72,15.9,6.6,8.9,30.33,28.95,39.42,25.83,5.44-1.87,15.54,17.25,21.5,19.87,20.14,8.85,66.66,73.68-17.92,45.71-8.83-2.93-29-21.09-32.25-9.94-5.31-5-12.19,12.85-15.9,9.92-4.26-3.36-9.05-8.05-16.83-5.17s-4,7.76-.68,11.64c3.5,4.09,7.83,7.91,11.87,11.82a30.41,30.41,0,0,1,7.17,9.62c2.33,5.5,1.58,9.83-8.95,11-7.18.83-10.36,3.62-9.57,8.11.91,5.24,2.56,10.48,10.74,13.33,4.28,1.49,6.38-.5,6.86-3,1.4-7.4,1.69-15.19,19.39-13.7,3.45.29,5.34-2.42,6.67-4.47,2.48-3.81,2.94-7.87,3.54-11.94.53-3.53-2.3-8.79,5.49-9.69,7.09-.83,9.31,4.3,12.39,7.38,10.93,10.95,17,22.77,15.53,35.76-.36,3.3-.5,6.85-4.62,9.06-8.65,4.64-5.18,9.23.16,13.56,8.55,6.94,18,13.42,26.51,20.39,14.1,11.57,25.93,24.08,37.62,36.63,4.64,5,9.17,10.33,17.42,13.14,30.15,10.23,48.35,27.31,66.34,44.58,16.57,15.9,25.34,17.91,52.33,8.8,18.63-6.28,37-10.47,58.84-9.94,18.79.46,30.28-7.62,35.29-18.2,5.81-12.25,14-23.85,21-35.75,5-8.42,7.93-17.12,8.35-26.21.24-5.4.64-11,5.74-15.62a10.7,10.7,0,0,1,11.08-2.41c4.1,1.35,2.57,3.59,1.92,5.76-8.22,27.48-10.6,55.43-14.86,83.24-.49,3.24-.29,6.56-1.29,9.72-2.53,8-7.59,9.81-20.18,7.55-14.9-2.67-18-1.45-21.48,8-2.83,7.7-.5,15.82-4.38,23.41-1.29,2.53-1.64,5.95-6.91,6.13s-6.87-3.09-8.19-5.62a176.67,176.67,0,0,1-8-17.31c-1.25-3.24-2.53-6.39-6.2-8.89-4.31-2.94-9.13-4.13-11.9.54-7.64,12.85-22.55,17.55-43.75,16.22-10-.63-14.42,4.16-18.06,8.83-8.63,11.1-10,22.89-6,35a91,91,0,0,1,4.34,25.13c1,24.71,46.77,49.7,87,47.71a216.47,216.47,0,0,0,49.89-8.11c19.63-5.71,23.86-16.41,10.25-27.25-5.36-4.26-12.21-7.82-18.64-11.51-11-6.32-18.58-13.83-21.12-23.07-1-3.62-.21-7.31,4.92-9.54,4.65-2,9.38-.13,13.3,1.47,9.87,4,19.39,8.4,29.14,12.55,11.67,5,16.37,4.2,21-4.2a63.87,63.87,0,0,0,6.07-16.59c1.37-5.9,6.9-7.86,15.31-7.31,8.18.54,16.29,1.61,24.43,2.45,20.28,2.1,33.9-6.16,39.4-18.52,7.8-17.52-.67-30.42-20.7-42.28-20.63-12.23-23.37-26.2-9.15-41.36,3.26-3.48,5.18-7.46,8.42-10.94,9-9.7,11-19.7,4.53-30.5-2.12-3.55-2.85-7.43-3.91-11.18-2.26-8,2.58-13.81,14.16-17.23a142.79,142.79,0,0,1,16.66-4.37c18.44-3.1,29.13-10.66,34.49-21.9,2.71-5.7,6.68-11.14,9.92-16.73,9.13-15.79,26.34-25.83,53.12-28.43,13.11-1.26,19.43-5.33,21-13.62,1.91-9.79,6.92-18.93,17.71-26.54,8-5.63,7.74-12.89,7.94-20,.26-9.08.22-18.37,18.38-21.5,4.19-.72,4.51-3.6,5.22-6.06a104.28,104.28,0,0,1,4.64-13.48c2.09-4.74,7-8.66,14.72-9.33,19.91-1.73,39.92-2.44,56.28,7.59,5,3.06,10.35,6,14.75,9.36,17.25,13.3,39.36,17.08,65.29,14.89,23.64-2,45.46,3.2,66.67,9a27.31,27.31,0,0,1,17.35,13.95c5.23,9.57,9.6,19.3,14.57,28.92,6.35,12.3,13.92,16.54,34.23,15.73,32-1.27,55.32,11.54,81.38,19.48,11.87,3.62,12.27,13.28,13.27,21.29.35,2.81-2.35,6.58,2.91,8.18,4.43,1.35,7.41-2,11.06-3.25s7.24-2.94,11.14-4.05c11.71-3.33,19.65-1.67,26.1,5.55,7.73,8.66,13.8,17.15,27.94,23.91,9.41,4.5,10.9,13.53,27.43,6.89,4.51-1.81,10.84,3.69,16,6.1,14.27,6.62,23.88,10,35.59-2.82,5.52-6.06,14.17-7.42,24.47-3.87,9.72,3.35,19,3.13,28-1a31.89,31.89,0,0,1,9.18-2.88c14.16-1.74,20.87-7.63,24.37-15.87,2.24-5.28,7-9.91,12.65-14,8.7-6.27,18.12-5.79,23.41,1.74,6.77,9.66,9.14,20,6.11,30.38-2.48,8.46-9.31,11.19-23.29,10.24-6-.4-11.86-1.59-17.78-2.47-4.57-.67-8.68-.51-6.42,3.31,2.42,4.1-.88,6.68-4,9.65-9.4,9-18.45,18.22-27.89,27.25-9.15,8.74-21.94,13.43-39.14,13-3.42-.08-7.64-.39-10.16.65-10.82,4.5-22.25,3.07-33.89,1.94-9.45-.92-18.08-.94-21.84,6.42-2.18,4.27-9.08,4.52-15.32,4.4-12.77-.26-24.75.93-36.19,4.85-9.79,3.35-21,3.09-31.75,1.56a91.47,91.47,0,0,0-28.28.23c-34,5.7-68.59,3.88-103.26,2.33-22-1-44.18-1.43-66.25-1.43-20.27,0-35.78,7.05-42.66,18-14.21,22.58-37.91,36.77-75.58,43.32-23,4-40.9,14.71-59.28,24-10.36,5.23-19.74,6.76-31.44,1.42a32.47,32.47,0,0,0-27.75-.13c-7.61,3.47-15.45,2.53-23-.57a71.9,71.9,0,0,1-18.24-10.54c-16.93-13.66-40.31-15.09-64.82-13.76-8.77.48-11.39,4.85-9.6,9.62,3.55,9.48.25,17-12.12,23-7.06,3.46-8.73,9.18-11.59,14.26-4.34,7.72-11.92,12.86-25.55,14.16-15.45,1.48-24.44,6.85-25.79,17.22-1.25,9.65-10.51,16.58-23.15,21.3-10.36,3.87-13.63,8.8-8.9,15.63,7.69,11.1,2.84,20.64-7.15,29.86-10.38,9.6-20.59,19.27-27.63,30.14-5.17,8-15.69,11-28.48,8.66-19.26-3.49-34.11-1.17-47.26,8.58-9.6,7.12-24.89,9.37-38.39,12.85s-27.45,6.43-41.07,9.79C668,699.66,662.23,700.41,659.59,704.22Z"/><path class="cls-1" d="M1175,654.32c2.55-6,5.83-11.63,7.45-17.9,1.84-7.14,11.09-6.42,25.33-.72a196.08,196.08,0,0,0,37.84,11c19,3.44,31.47,1.51,37.85-5.2,5.7-6,2-10.52-14.74-17.82-5.51-2.4-11.32-4.6-17.06-6.5-19.53-6.49-37-15.18-54.1-24.4-8.65-4.66-13.48-8.94-12.39-13.39,1.16-4.78,5.9-7.28,17.21-4.84,24.53,5.28,47.89,7.9,72.88,14.11,40.12,10,78.12,16.12,113.6,17.09,57.84,1.58,104,19,149.76,55.46a797.53,797.53,0,0,1,83.66,77c11.8,12.51,25.74,23.66,50.66,30.91,10.48,3,18,8.54,24.83,14.12,12.75,10.48,18.23,20.52,25.19,30.64,4.3,6.25,5.56,11.44-8.11,9.67-12.31-1.59-28.51-9.49-32.58-15.66a7.38,7.38,0,0,1-.47-.93c-2.29-4.72-.29-10.35-11.55-14.15-12.29-4.16-10.13,3.06-13.64,5.71a5.37,5.37,0,0,1-4.18,1.2c-19.62-4.87-28.9-1.31-37.72,3.41-3.85,2.06-13.77-2-21.24-4.45-15.86-5.13-27.58-6.34-29.88,1.27-.77,2.56-2.81,3.37-9.5,1.8-29.66-7-38.23-4.86-37.27,9.48.9,13.34,2.42,26.86,4.15,40.42,3.09,24.31,5.32,48.41,16.82,74.79,2.89,6.61,1,10.82-15,6.25-2.27-.64-5.09-1.39-6.69-1.25-22,1.89-39.79-9-57.39-20.65C1432.3,893.2,1402.34,882,1370,874.82l-6.86-1.5c-49-10.67-61-19.08-60.34-42.18.46-17-4.43-35-26-56A195,195,0,0,0,1244,749.74c-26.25-16.37-35.72-30.91-31.83-44.15,2-6.86-1-12.73-18.56-20.15-13.06-5.51-18.81-12.64-19-19-.11-4.1,1.2-7.79,1.88-11.66Z"/><path class="cls-1" d="M990.05,798.67c-3.79.52-10.64,1.31-17.45,2.39-10,1.59-19.45,1.51-29.09-3.49-9.15-4.76-18.91-2.94-24.81,7.11-7.9,13.45-20.77,12.15-31.45,17.13-5.07,2.37-8.31-3.41-7.88-8.56,2-23.63,1.19-48.14,13-69.16,5-8.93,12-14.36,21.37-12.21,10,2.3,19.23,6.67,22.91,19.65,1.21,4.24,1.34,9.39,4.93,11.88,4.92,3.42,6.5,14,12.33,12.38,6.19-1.68,4.26-11.5,6.11-17.66,1.25-4.13,1.36-9.81,6.19-10.18,5.27-.41,6.86,5.22,8.12,9.82,1.87,6.85,3.12,14,4.46,21,1.3,6.79,4.12,8.72,9.94,6.23,9.07-3.88,19-4.4,20.38-20.67.79-9.53,9.86-11.66,17.43-5.5,7.92,6.45,14.45,14.86,20,24.11,6.36,10.64,13.49,12.89,22,4,12.26-12.76,25.35-12.18,39.57-5.09,16.07,8,30.69,18.44,42.79,33.32,8.24,10.13,17.07,13.27,28.94,9.09,14.21-5,29.26-6.66,41.1-19,3.2-3.35,8.07-4.31,11.53.08,4,5,1.91,10.44-1.35,14.57a223.27,223.27,0,0,1-15,16.68c-13.29,13.63-21.81,29.15-15.66,51.11.78,2.78,2.6,6.41-.47,8.55-2.65,1.85-5.09-.8-7.34-2.39-10.23-7.21-19.44-16.05-28.29-25.38-11.5-12.13-16.74-12.38-28.46-.56-17.39,17.54-17.43,17.61-36.34,2.6-9.34-7.41-19.77-11.68-30.28-16s-11.06-8.74-3.43-18.14c2.81-3.47,7.81-6.18,6.27-11.88-1.62-6-7-6.43-11.58-6.85-14.59-1.36-28.62-4.36-41.75-13C1011.06,799.7,1002.07,798.29,990.05,798.67Z"/><path class="cls-1" d="M829,909.73c-.65-14.92.13-15.6,17-17,8-.66,14.68-2.94,19.86-6.91,9.53-7.3,18.72-14.78,28.13-22.15,7.67-6,15.37-6.27,22.87-.26,8.67,7,13.81,15.14,9.58,24.1-3,6.32-3.06,12,1.19,17.72,3.76,5.11,2.89,9.16-4.76,12.44-9.26,4-12.94,10.49-16,17.15-5.83,12.57-7,12.95-26.95,10.72-8.64-1-17.41-1.58-26.15-1.93-11.51-.46-18.76-3.89-20.37-11.76C831.59,923.28,830,914.69,829,909.73Z"/><path class="cls-1" d="M1529.84,593.05c-.06,3.19-4.64,5.78-12.49,4.63-15.4-2.24-29.58-6.82-43.77-11.25-4.72-1.48-4.67-4-3.19-7.14,5.15-10.84,3.54-19.95-8.83-29.47-11.82-9.09-17.29-21.52-21.58-33.39-2.33-6.46,4.86-11.78,11.88-15.66,5.23-2.89,8.07,1.15,9.93,3.82,5.06,7.26,6.65,15.17,8.37,23,1.23,5.62,5.22,8.92,12.81,11.56C1512.92,549.53,1529.41,568.05,1529.84,593.05Z"/><path class="cls-1" d="M788.52,311c-4.25,12.35-2,24.3.26,36.47,2,10.76-3.86,18.38-10.89,24.38-26,22.24-57.12,31.65-88.09,40.51-11.8,3.38-19.39-6.92-24.3-17.81C654.91,371.09,651.19,345.23,646,320c-2.76-13.48,6.41-18.48,16.38-19.33,12.86-1.11,25.83-.6,38.76-.71,23.39-.2,46.8,1,70.09-3C780.6,295.35,788.81,297.25,788.52,311Z"/><path class="cls-1" d="M769.44,832.7c-22.48,18.75-44.06,36.89-65.73,54.76-8.2,6.77-14,1.83-17.73-10.49-5-16.23-11-17.48-15.82-.87-6,20.63-16.14,23.38-28.31,19.15-15.27-5.31-29.62-14.43-42.35-28.84-11.47-13-11-23.94,2-32,28.91-17.82,59.33-22.42,90-18.88,22.22,2.57,44.3,8.16,66.67,8.33C761.76,823.87,765.6,823.94,769.44,832.7Z"/><path class="cls-1" d="M1081.88,700.92c7,.64-57.11-67.85-50.18-66.72a37.56,37.56,0,0,0,23.09-3.16c25.13-12.06,48-4.12,70.48,6.72,4.45,2.15,4.43,5-.33,6.75a29.68,29.68,0,0,1-10.31,2c-26.82-.4-52.67,5.6-78.87,9.26-9.19,1.28,53,71.46,46.74,62-3.26-4.92-11.25-4-16.63-6.7-3-1.49-7.8-2.12-7.31-5.93.53-4.08,5.33-3.41,8.67-3.59,4.85-.25,9.73-.06,14.6-.06C1081.85,701.32,1081.87,701.12,1081.88,700.92Z"/><path class="cls-1" d="M1449.54,462.94c-1.46,3,.41,8.21-8.07,8.87-6,.46-14.48-7-14.57-12.18-.08-4.8,3.37-7.76,10.68-8.14C1444.65,451.12,1449.59,455.74,1449.54,462.94Z"/><path class="cls-1" d="M920.71,251.3c4.81,5.54,5,12.67-3.25,15.26-16.13,5.08-34.81,5.41-53.28,6-6.14.2-10-4.24-13.51-10.47-12.26-21.72-27.47-36.53-52.19-45.78-23.59-8.83-47.05-27.12-68.67-45.14-11.76-9.79-13.93-23.18-14-33.95-.08-8,8.41-2.71,14,.82,15.24,9.6,28.61,22.35,41.92,34.84,9.59,9,17.91,12.38,28.19,12.52C840.44,186,882.28,208.37,920.71,251.3Z"/></svg>