<?xml version="1.0" encoding="utf-8"?>
<!-- Generator: Adobe Illustrator 22.0.1, SVG Export Plug-In . SVG Version: 6.00 Build 0)  -->
<svg version="1.1" id="레이어_1" xmlns="http://www.w3.org/2000/svg" xmlns:xlink="http://www.w3.org/1999/xlink" x="0px"
	 y="0px" viewBox="0 0 1920 1080" style="enable-background:new 0 0 1920 1080;" xml:space="preserve">
<style type="text/css">
	.st0{fill:#BFBFBF;}
</style>
<path class="st0" d="M599.5,679.6c2.5-11.1,9-16.5,21.2-16.7c0-2.5,0.1-4.8,0.1-7.1c-0.5-0.1-1-0.2-1.5-0.3c0.5,0.1,1,0.2,1.5,0.3
	c-1.9-2.2-3.1-5.5-6-6.4c-4.5-1.4-10-1.6-15.2-1.7c-6.4-0.2-8.1-2.4-5.2-7.1c9.1-0.4,17.9-0.8,27.4-1.2c0.8-1.7,1.7-3.5,2.6-5.3
	c3.8-1.9,7.7-5,11.5-5.5c10.6-1.6,22.3-10.4,21.2-18.3c-0.8-6.1,3.1-9.9,7.8-14.3c3.6-0.5,7.3-1.1,10.9-1.6
	c-0.8,2.1-1.7,4.2-2.5,6.3c-0.6,0.5-1.2,0.9-1.8,1.4c5.4,3.1,10.5,6.6,16.4,9.2c3.9,1.7,8.8,2.1,13.3,3.1c3,0.1,5.9,0.1,8.9,0.2
	c-3-0.1-5.9-0.1-8.9-0.2c-3.2,6,0.9,7.2,6.5,7.5c3.5,9.2,3.7,9.2,16.2,3.8c1.7-0.7,3.6-1.4,5.3-1.5c5.6-0.5,9.5-3,12-7.3
	c3.9-2.1,7.8-4.1,11.6-6.2c0,0,0,0,0,0c1.9-2.3,3.8-4.5,5.7-6.8c-2.3-0.6-4.5-1.4-6.9-1.8c-1.9-0.3-4.1,0-6.1,0
	c-0.3,0.6-0.7,1.2-1,1.7c0.3-0.6,0.7-1.2,1-1.7c-4.2-1.9-8-4.5-12.6-5.5c-4.6-1-6.4-3.1-6.7-6.7c-2.1-3.5-4.1-7-6.2-10.4
	c10.5-10.5,9.8-14.5-2.9-15.5c-8.9,1.8-17.8,3.7-26.7,5.5c-3.2,0.5-6.6,0.8-9.8,1.7c-3.5,0.9-7,2.4-10.4,3.6
	c-0.3-1.6-1.5-3.5-0.7-4.8c3.7-6.2,1.7-11-1.2-15.5c-5-7.9-4.4-10.4,4.8-18.2c-7.8-0.5-10.9-4.1-12.1-8.8c1.3,4.7,4.3,8.3,12.1,8.8
	c2.7,0.5,5.6,0.8,8,1.7c5.6,2.1,8.8,1,11.1-4.5c1.5-3.5,2.6-7,3.9-10.6c6.2,0.4,12.3,0.9,18.5,1.3c4.2,8.6,12.5,13.5,24.1,15.4
	c2.1,3.9,6.7,4,11.6,2.1c2.8-1.1,5.1-3.6,7.6-5.5c-0.4-0.5-0.8-1-1.1-1.5c-4.8,0.2-9.7,0.4-14.5,0.7c-1.8-5.8-6.9-10.6-2.4-18
	c0.7-1.2,1.4-2.5,2-3.7c1.5-0.3,3.3-1,4.6-0.9c8.8,1.1,15.6-1.2,21.8-8.6c5.1-6,11.1-6.5,18.1-3c-4.7,6.9-4,11.1,3.9,12.6
	c-0.9-4.9-1.6-8.9-2.3-13c4-7,3-8.9-4.2-11.2c-2.8-0.9-4.4-3.4-6.5-5.2c3.4-6.5,9.4-4.4,14.7-4.8c-3.2-8.8-21.6-8.5-35.8,0
	c-4.7,0.2-9.5,0.4-14.3,0.6c0,0,0,0,0,0c-2.4-0.2-4.9-1.3-7.1-0.6c-12.8,4.1-23.9,4.1-33-1.8l0,0c0.3-1.9,0.6-3.9,1-5.8l0,0
	c3.2-0.9,6.7-2.7,9.5-2.6c6,0.2,7.2-2.1,6.7-5.7c-2.1-14.8,4.5-31.9-5.3-44.8c1.2-5-0.3-8.4-6.8-8.7c-4.5-1.2-8.9-2.4-13.9-3.7
	c-1.6,3.5-2.4,5.4-3.3,7.3c-0.6,0.3-1.2,0.5-1.9,0.8c-1.7-5.7-0.5-13.3-10-14.1c-1.1-4.2-2.3-8.3-3.4-12.5
	c2.9-6.6,7.5-12.9,5.3-19.8c-1-3.2,2.7-8.2,4.4-12.3c1-2.3,2.2-4.6,3.4-7c4.3-3.5,4.9-3.3,8.3,1.8c0.1,2.3-0.7,6.5,0.3,6.6
	c7.7,0.9,15.9,0.9,23.9,1.2v0c7.8,0.5,11.9,3.8,12.8,10c0.6,4.5,4.6,5.8,10.3,4.6c8.3-1.8,16.6-3.5,24.9-5.8c7.9-2.2,15.2-5.6,20-12
	c7.9-1.2,13.1,1.3,16.8,5.7c-1.2,1.7-3.6,3.9-3.4,5.1c1.7,7.6-4.6,13.9-9.4,20.6c-1.8,2.4-3.6,4.8-5.4,7.3c0.4,0.4,0.8,0.7,1.2,1.1
	c7.4-3.1,14.8-6.2,22.1-9.4c2.7,0,6-0.7,8.1,0.1c8.2,3.2,14.8,0,21.1-6.1c1-0.4,2.1-0.7,3.1-1.1c0.4,0.3,0.9,0.5,1.3,0.8
	c0.1-0.5,0.2-1,0.3-1.5c4.1-1.3,8.2-2.7,12.4-4c0-0.4,0.1-0.8,0.1-1.2c0,0.4-0.1,0.8-0.1,1.2c4.9-2.5,10.8-4.4,14.6-7.7
	c4.5-3.9,8.2-8.8,10.4-13.6c2.6-5.6,3.2-11.4,4.6-17.1v0c1.1-2.4,1.6-5,3.3-7.2c3.1-3.9,6.9-7.5,10.5-11.2c-2.5-0.3-4.9-0.5-7.4-0.8
	c2.5,0.3,4.9,0.5,7.4,0.8c3.2-4.9,0.7-7.8-2.8-10.4c0.7-1.2,1.5-2.3,2.2-3.5c3.1-1.6,6.1-3.4,9.3-4.9c4-1.9,6.8-1.8,8.4,1.6
	c1.2,2.5,3.9,4.4,6,6.5c3.9-2.6,7.8-5.3,11.6-7.9c-4.9,0.6-8.4-0.3-11.2-2.1c2.8,1.8,6.4,2.7,11.2,2.1c0.8-3.7,1.5-7.5,2.3-11.2
	c2.3-2.8,4.3-5.9,7.1-8.5c4-3.6,8.8-6.7,12.7-10.3c2-1.9,4.1-5.2,3.6-6.8c-0.5-1.5-4.5-1.7-7.1-2.4c-3.7-0.9-7.5-1.7-11.3-2.6
	c2.3-6.9,4.6-13.8,6.9-20.7c2.8-8.9,5.5-17.9,8.3-26.8c2.4-5.3,3.8-11,7.4-15.9c6.7-9.2,9.5-18.4,11.3-27.8
	c3.3-6.2,6.6-12.3,9.9-18.5c-2.6-0.6-5.2-1.3-7.8-1.9c2.6,0.6,5.2,1.3,7.8,1.9c3.3-6.2,7.3-12.5,2.7-18.1
	c-3.8-5.8-7.4-11.7-11.5-17.3c-1.7-2.3-4.5-3.9-6.9-5.9c-5-2.1-10.1-4.3-15.1-6.4c-2.3-1.7-4.5-3.6-7.1-5.1
	c-7.2-4.2-19.6-3.7-20.2-13.8c-1.6-4.2-3-8.5-4.9-12.5c-0.7-1.4-2.7-2.3-4.1-3.4c-0.4,0.1-0.8,0.3-1.2,0.3c-6-8.6-12-5-22.2,3
	c-2.4,1.9-6.4,3.5-9.3,3.6c-8.8,0.4-16.9,0.4-23.9-4.4c-6.9-4.6-17.8-5.7-26.9-8.4c0,0,0,0,0,0c-4.1-2-8.2-1.1-11.7,2.6
	c-3.3,3.4-6,7.1-9.4,10.5c-1.7,1.7-4.6,4.4-6.2,4.3c-12.9-0.5-22.3,8.2-33.1,12.9c-1.9,0.8-3,3.2-4.5,4.8c-4.7,2-9.3,4.1-14,5.9
	c-14.2,5.4-29.3,9.4-37.7,22.4c-5.8,3.8-9.8,1.3-13.9-0.2c-10.7-3.7-19.4-1-27.2,8.6c-3.6,3.4-7.3,5.4-12.6,4.3
	c-13.4-2.7-27.2,2.2-40.8,6.9c-6.4,3.1-12.9,6.2-19.3,9.2l0,0c-7.4,2-15,3.6-22.2,6.3c-4.4,1.6-8.4,4.9-12.5,7.4
	c-4.1,2.9-8.3,5.9-12.4,8.8c-5.4,0.1-10.4,1-13.5,6.1c0,0.3,0,0.6,0,0.9c-8.5,1.1-13.1,5.6-15.8,11.9c-2,0.9-3.9,1.8-5.9,2.8
	c-3.2,2-6.3,3.9-9.5,5.9c-5.1,3.2-9,5.8-8.2,11.7c0.7,5.6-2.7,12-9.9,16.9c-4.6,3.2-5.6,6.7-3.1,10.1c-0.8,2.5-2.8,5.5-2.1,7.4
	c1.1,3.1,3.3,6.1,6.3,7.9c1.1,0.7,5.7-1.9,8.8-3c3.9-1.3,7.9-2.5,11.8-3.8c3.5-1.2,7-2.6,10.6-4c5.8,1.5,7.3,4.5,3.8,9.8
	c-1.2,1.8-1.2,4-1.8,6c0,0,0,0,0,0c5.2,8.8,5.2,8.7,17.9,5.7c3-0.7,6-0.3,9-0.4c5.6,2.9,11.9,3.4,19.9-0.3c-4.1,4-9.2,6.5-12.4,9.9
	c-9.3,9.9-18.9,19.5-31.2,27.3c-2.2,1.4-4.5,2.8-6.7,4.2c-5.1-1.2-9.7,0.3-14.3,3.7c-2.7,2-5.9,3.5-8.8,5.2c2,3.3,4,6.7,6,10
	c-2-3.3-4-6.7-6-10c-6.2,3.5-12.3,6.9-18.5,10.4c-5.1,3.4-10.4,6.6-15.1,10.3c-2.6,2.1-4.2,5-6.3,7.5c-4.2,5.2-8.4,10.4-12.6,15.6
	c-1.1,1.8-2,3.7-3.3,5.4c-5.9,8-5.8,7.8,3.5,11c2.5,0.9,3.7,3.6,5.4,5.4c-1.6,2.2-3.6,4.4-4.4,6.6c-0.2,0.5,3.8,1.1,5.6,2
	c2,0.9,3.8,2.1,5.6,3.3c2.5,1.7,4.9,3.5,7.4,5.2c1.1,3.8,2.2,7.7,3.3,11.5c-3.8,4.6-0.4,6.9,2.3,9.3c2.8-0.3,5.6-0.6,8.4-0.9
	c-2.8,0.3-5.6,0.6-8.4,0.9c-1.1,5.3,1.9,8.3,7.4,9.7c4.2,1.5,6.6-0.4,8.3-3.9c1.3-2.6,2.8-5.3,4.2-7.9c0.6-0.2,1.2-0.4,1.8-0.5
	c2.6-9.3,5.2-18.6,7.8-27.8c-2.6,9.3-5.2,18.6-7.8,27.8c2.8,1,5.6,2,8.4,3c4.8,2.6,6,6.3,5,11.6c-0.6,3.2,1.2,6.3,1.9,9.5
	c-1.7,2.1-4,4.1-4.8,6.2c-0.5,1.3,1,4,1.8,3.9c6.9-0.8,14-1.4,20.7-3.6c3.2-1.1,5.7-5.3,8.2-8.3c2.1-2.4,3.7-5.1,5.5-7.6
	c0.8,0.1,1.6,0.3,2.5,0.4c-0.8,3.7-1.7,7.5-2.5,11.2c-5.7,7.5-6.4,13.7,2.1,17.8c1.6,0.8,2.3,2.6,3.6,3.8c6,5.8,12.1,11.5,18.2,17.3
	c4.5,4.1,10.7,4.5,18.2,2.2c6.2,0.8,12.2,3.1,18.5,2.2c15.7-2.2,17.5-1.7,15.5,10.7c5.1-1.8,9.7-1.6,14.2-1c-4.5-0.6-9-0.8-14.2,1
	c-5.9,2.9-11.8,5.8-17.7,8.8c-0.4,1.1-0.9,2.3-1.3,3.4c0.4-1.1,0.9-2.3,1.3-3.4c-2,0.6-4,1.1-6,1.7c-10.7,2.2-18.1,8.1-23.6,15.9
	c-1.7,1.6-3.4,3.2-5.1,4.8c-2.4,2.5-4.8,4.9-7.3,7.4c-4.3,4.2-8.8,8.3-12.9,12.6c-4.5,4.8-8.8,9.7-13.1,14.6
	c-4.1,3-8.1,6.1-12.2,9.1c0,0,0,0,0,0c0,0,0,0,0,0c0,0,0,0,0,0c0,0,0,0,0,0c-1.3,2.1-2.5,4.3-4.1,6.4c-1.8,2.4-4,4.6-6.1,6.9
	c2.1,2.2,4.1,4.3,6.2,6.5c-2.1-2.2-4.1-4.3-6.2-6.5c-9.2,0.8-18.2,1.9-25.8,7.4c3.7,2.9,8.4,4.8,9.2,8c0.9,3.4-1.9,8-3.4,13.4
	c2.4-2.5,4-4.5,6-6.2c2.2-1.9,5.5-5.3,6.9-5.2c2.9,0.4,5.4,2.4,7.1,4.4c1.6,1.7,1.4,4.7,3.1,6.3c2.4,2.1,6,3.4,9,5
	c2,0.6,3.9,1.3,5.9,1.9c-3,9-5.9,17.9-9.2,26.9c-1.6,4.2-3.5,8.6-6.2,12.6c-4.4,6.6-11.6,12.6-10.7,20.1c-0.5,0.2-0.9,0.4-1.4,0.6
	c-3.6-3-8.1-2.6-11.6,1.6c-1.6,2-2.1,6.3-0.6,7.3c4.1,2.5,9.6,3.8,14.5,5.6c5.9,2.3,12.4,1.3,14.6-3.1c3.5-7,8.9-7.3,15.2-6.8
	c3.7,4.4,7.3,8.9,11.1,13.5c6.1-3.8,13.4-8.2,20.6-12.7c5.7,1,11.5,1.9,17,3.1C594.8,691.4,597.1,690.2,599.5,679.6z M741.1,327.3
	c-0.1,0.4-0.1,0.8-0.2,1.2C740.9,328.1,741,327.7,741.1,327.3L741.1,327.3z M550.6,212.4c2.8-0.3,5.6-0.7,8.4-1
	c0.2-0.6,0.4-1.2,0.6-1.9c-0.2,0.6-0.4,1.3-0.6,1.9C556.2,211.7,553.4,212.1,550.6,212.4z M606.5,244.9c-0.6,0.2-1.2,0.5-1.8,0.8
	C605.3,245.4,605.9,245.1,606.5,244.9c5,0.2,9.9,0.4,14.9,0.6C616.4,245.3,611.4,245.1,606.5,244.9z M857.1,190.8
	c-0.1-1.1-0.2-2.1-0.3-3.2C856.9,188.6,857,189.7,857.1,190.8c-2.5,1.1-5,2.1-7.5,3.2C852.1,192.9,854.6,191.8,857.1,190.8z
	 M551.6,407.5c1.6,1,3.2,2.1,4.9,3.1v0C554.8,409.5,553.2,408.5,551.6,407.5z"/>
<path class="st0" d="M1164.2,290.2c-2.1-4.7-0.2-6.8,6-9.1c4.9-1.8,7.1-5.2,3.4-8.4c-1.5-8-9.5-11.5-21.9-9.8
	c-8.5-2.1-15.4-5.7-18.3-12.8c-1.5-3.1-2.8-6.3-4.6-9.2c-1.4-2.2-3.4-4-5.2-5.9l0,0c-0.2-3.4-0.3-6.7-0.5-10.1c0,0,0,0,0,0
	c1.7-3.3,3.8-6.5,5-9.8c1.8-4.8,3.8-9.2,10.1-12c13.5,0.4,24-5.6,33.4-14.6c-3.3-1.3-6.2-2.4-9.1-3.6c0.2-3.4-1-7,0.9-10
	c6.9-11.1,6.4-12.1-7.7-10.6c-1,0.1-2.1,0.2-3.1,0.3c-2.3-1.2-4.5-2.3-6.8-3.5c-7.2-1.7-14.4-3.3-21.6-5c-5.9-2.8-12.1-3.3-20.1,0.4
	c-3.6,1.7-9.4,2.2-12.5,1.1c-9.1-3.4-16.6-1.1-24.2,5.9c-1.3,1.2-3,2.2-4.5,3.3c0,0,0,0,0,0c-5.2,4.1-10.8,8-15.5,12.4
	c-4.1,3.9-7.3,8.5-10.8,12.8c-8.3,4-17.7,16.7-17.9,24.1c-3,3.6-7.5,7.1-8.8,10.7c-3,8.3-4.5,16.7-6.6,25.1c-0.4,0.7-0.8,1.3-1.2,2
	c-5.2,7.7-8,15.6-7.1,23.4c0.2,1.6,2.1,2.7,3.2,4.1c1.5,10.7,7.3,19.3,15,27c0,0,0,0,0,0c2.2,9.1,10.3,14.2,18.6,19.1
	c4.7,2.2,8.9,5.5,14.3,6.2c3.7,0.5,9.9-1.6,13.6-4.1c7-4.7,12.9-10.5,19.3-15.8c-0.7-1.8-1.4-3.5-2-5.3c0.7,1.8,1.4,3.5,2,5.3
	c4-3.3,7.9-6.6,11.9-9.9c4.5-3.2,9-6.4,13.5-9.7c-5.7-2.1-4.8-6.9-5.2-11.3c0.3,4.3-0.5,9.2,5.2,11.3c4-0.4,8-0.8,12-1.2
	c3.2-0.1,6.3,0.1,9.5-0.2c3.6-0.4,7.2-1.5,10.8-2c4.8-0.6,7.8,0,6.5,5c-0.4,1.5,2.5,3.8,4.6,4.1c2.9,0.3,6.6-0.9,10-1.5
	C1165.3,297.6,1165.6,293.3,1164.2,290.2z"/>
<path class="st0" d="M1609.5,703.5c0.9-0.8,2.4-1.2,3.6-1.8c7.5-4,15.1-5.1,23-5.1c3.3,0,9.1-1.6,10.6-3.6c1.9-2.5,2-7.2,0.1-9
	c-3.2-3-8.6-4.5-13.1-6.6c0,0,0,0,0,0c-7.6-2.3-14.9-5.5-24.8-2c-5.3,1.8-10.6,3.5-15.9,5.2c-5.1-2.1-10.3-4.2-15.4-6.3
	c-1-3.8-1.9-7.6-2.9-11.4c-2.4-9.1-3.1-19.4-18.9-19.3c-5.3-1.2-10.5-2.4-15.8-3.7c0,0,0,0,0,0c-3.8-1.6-7.5-3.3-11.5-4.7
	c-2.8-1-6-1.4-9.1-2.1c-3.3-4.1-4.2-10.2-12.9-9.8c-2.4-1.5-4.8-3-7.7-4.7c-0.3,2.3-0.4,3.8-0.8,6.6c-1.7-1.7-2.5-2.5-3.3-3.3
	c-2.2-2.9-3.3-7.5-6.7-8.4c-6.6-1.7-5.5-4.3-2-8.5c0.2-2.3,0.3-4.6,0.5-6.9l0.1-0.2c-2.5-1.1-4.7-3-7.6-3.3
	c-6.9-0.7-10.3-3.8-11.7-8.8c0.6-1.7,1.3-3.3,1.7-5c1.3-4.3,4-6,8.3-3.8c5.1,2.7,9.9,1,14.8-2.9c9.2-2.9,14.4,0.3,18.5,5.1
	c1,1.2,2.4,2.2,3.6,3.2c2.1-3.7,5-5.6,8.9-6.3c-3.8,0.7-6.8,2.6-8.9,6.3c0.3,0.7,0.7,1.5,1,2.2c-1.1,0.5-2.1,1.1-3.2,1.6
	c0.1,0.2,0.2,0.5,0.3,0.7c1.1-0.4,2.3-0.8,3.4-1.1c13.2-8.9,25.5-9.6,37.1-4.3c2,0.9,4,1.8,6.1,2.7c1.5,1.8,3,3.7,4.5,5.5
	c5.6,6.9,9,6.3,15.8-2.4c0.4-1.2,1.5-2.8,1.1-3.7c-1.7-4.3-3.8-8.5-5.8-12.8c0.4-1.4,0.4-3,1.3-4.3c4.3-6.4,1.1-8.9-5.7-9.6
	c-5.4-0.5-10.8-0.9-16.3-1.4c-14.6-4.7-19.6-16-25.8-26.4c0,0,0,0,0,0c-1.5-0.7-2.8-1.9-4.5-2.1c-4.5-0.5-6.5-2.5-5.8-6.3
	c3.1-3.3,6.2-6.6,9.8-10.6c-11.8-1.8-18,5.4-25.3,9.7c-5,2.9-7.8,6.9-6.6,11.4c3,1.3,5.9,2.7,8.9,4c-3-1.3-5.9-2.7-8.9-4
	c-1.2,2.2-2.4,4.4-3.6,6.5c-3.7,6.6-6.2,13.8-16.1,17.3c-2.1-0.5-4.2-1-6.3-1.4c0.1-3.9,0.1-7.8,0.2-11.8c-9.5,0.7-10.8,2.2-8.2,8.6
	c0.6,1.5,0.1,3.6,0.1,5.4c-2.2,0.3-4.8,1.2-6.6,0.9c-3.2-0.6-6-2-9-3.1c0,0,0,0,0,0c-4.1-1.5-6-3.8-5.1-8.3c0.4-2-2.6-3.8-4.1-5.7
	c-8.2-2.6-16.4-5.1-24.6-7.7c-4.5-2.1-8.8-4.5-13.7-6.2c-5.8-2-12.3-3.2-18.1-5.2c-4.8-1.7-8.8-3.1-14.7,1.2c-2.4,1.7-6.4,2.1-9.6,3
	l0,0c-3-0.4-6.1-0.8-9.2-1.2c-1.9-1.8-3.9-3.5-5.8-5.3c2.9-3.6,5.5-7.2,2.3-10.6c-6.6,3.2-6.6,3.2-6.8,8.5c-2,0.8-4,1.6-6,2.5
	c-0.2-4.6-0.4-9.1-0.6-13.7c2.1-4.2-0.2-5.5-4.8-5.7c-8.3-0.5-15.9,2.4-23.5,6.3c-8.1,2.5-16.2,4.7-24.1,7.4
	c-7.8,2.6-13.3,7.1-14.7,13.8c-3.9,1.9-8.5,3.2-11.5,5.7c-2.1,1.8-3.5,5.9-2.5,7.6c1.6,2.9,5.8,2.9,9.8-0.3
	c5.1-4.1,10.1-8.3,15.1-12.4c14.5-6.2,15.8-6,17.2,3c-6.1,4.9-12.2,9.7-18.2,14.6c0.3,0.6,0.7,1.2,1,1.8c6.8-1.7,13.6-3.4,20.4-5.1
	c8.9,0.2,17.8,0.3,26.7,0.5l0,0c3.8,0.6,7.6,1.1,11.5,1.7c1.4,3.2,2.7,6.4,4.5,10.6c2.1-2.4,3.4-4,4.8-5.6c3.8-0.3,7.7-0.6,11.6-0.9
	c2.3,0,4.7,0.6,6.7-0.1c11.8-4,20.9-2,28.7,2.9c0.8,1.7,1.2,3.8,2.6,5.1c4.5,4.1,4,9.6,2.6,15.3c-1.1,4.5-3.3,8.3-10.3,8.8
	c-1.3,0.1-2.9,2-4.3,3.1c0,0,0,0,0,0c0.5,1.6,0.5,4.4,1.5,4.5c9.7,0.8,19.5,1,29.3,1.4c6.3,2.6,6.2,11.2,16.4,10.3
	c0.4,0,0.6,2.4,0.6,3.7c0.1,1.6-0.1,3.2-0.2,4.8c-4.6,6.3-9.8,7.2-15.6,4c-0.5-0.3-1.4-0.2-2.1-0.3c-1.2,1.5-2.5,2.9-3.7,4.4
	c15.9-0.3,22.1,7.2,16.2,20.1c-1.7,3.8-2.2,7,2.2,8.1c4.6,1.2,7.7,6.9,15.1,1.1c0.8-2.5,1.6-5,2.4-7.4c-0.8,2.5-1.6,5-2.4,7.4
	c13.1,4,16.8,2.1,19.6-9.8c0.1-0.4,0.3-0.8,0.4-1.2c4-0.4,8-0.8,12-1.2c9.8,1.8,6.3,9,5.7,14.9c-0.6,6.1-5,8.9-12.4,8.7
	c-8-0.3-16.1-0.2-24.1-0.2c-5.5,1.5-13,1.8-16,4.8c-5.4,5.3-8.6,12.1-11.5,18.5c-0.8,1.6,2.9,3.8,4.5,5.8c2.5-1.8,7-3.9,7.1-5.3
	c0.6-9.2,5.1-16.4,16.7-21.3c20.4,2,40.9,4,61.3,6c1.1-3,2.3-6.1,3.4-9.1c-1.1,3-2.3,6.1-3.4,9.1c2,0.5,4.1,0.9,6.1,1.4
	c11.6-1.5,23.4-3.8,33.6-0.1c0,0,0,0,0,0c4.2,1.6,8.4,3.3,12.6,4.9c0.2,0.4,0.4,0.7,0.6,1.1c0.2,1.7-0.2,3.8,0.8,5.1
	c5.3,6.6,11,13,16.5,19.5c3.6,6.4,5.3,12.6-4.4,19.8c-8.4,6.2-8.5,9.4-0.6,13.6c4.3,2.3,5.3,5,4.2,9.5c-1.2,5,0.1,8.9,8.2,8.4
	c0.4-1.9,1.2-3.7,1.1-5.1C1579.6,726.2,1596.4,715.4,1609.5,703.5z M1444.4,555c0.4-0.3,0.8-0.5,1.2-0.8
	C1445.1,554.5,1444.7,554.7,1444.4,555z"/>
<path class="st0" d="M962,518.5L962,518.5c0.8-0.7,1.5-1.4,2.3-2.1c-4.3,0.9-8.1,2.4-11.7,4.1c-0.1,0.1,0.3,1.2,0.4,1.8
	c-3.1,2.5-6.3,5-9.4,7.5c-3.1-0.4-6.2-1.4-9.4-1c-16,2.2-17.8,1.7-23.3-8.6c0.4-5.3,0.3-10.5,1.5-15.8c1.7-8.2,4.3-16.4,6.6-24.6
	c-7,3.9-14.3,5.1-21.6,6c7.3-0.9,14.6-2.1,21.6-6c0.7-0.9,1.5-1.7,2.2-2.6c6-3.1,12-6.2,18-9.3c-0.2-0.8-0.4-1.6-0.5-2.4
	c-3.2,0.3-6.5,0.6-9.7,1c-4.8,0.7-9.7,1.5-14.5,2.2c-8.4-5.2-11.9-5-20.3,1.2c-1.5,1.1-3,2.1-4.5,3.1c-3-0.4-6.9,0.1-8.7-1.2
	c-5.4-4-10.4-2.2-16,2.3c-7.6-1.6-15.3-2.3-23.6,2.7c0,0,0,0,0,0c-1.3,0.1-2.5,0.1-3.8,0.3c-10,1-12.5,4.1-9.4,11
	c1.1,2.4,0.6,5.4,0.8,8.1c-1.5,6.1,2.5,6.6,8.9,5.4c2.8-0.5,6,0.2,8.1,1.3c0.7,0.4-1.6,3.9-2.8,6c-0.8,1.4-2,2.8-3,4.1
	c-2.1,2.9-3.5,5.5,1.5,6c1,1.6,1.7,3.4,3.1,4.7c10.7,10.4,16.1,21.6,0.6,33.5c-3.1,2.5-5.7,4.8-1.4,7c8.7,4.5,8,7.2-2.4,12.8
	c-2.5,1.4-5.7,4.7-5.5,6.3c0.3,1.8,3.8,3,6.4,3.7c5.2,1.5,11.2,1.8,15.9,3.9c13.1,5.7,20.8,3.8,29.8-8c1.3-1.8,2.4-3.6,3.8-5.3
	c6.5-8,11.4-17.6,25.7-17.4c0,0,0,0,0,0c3.2-0.2,6.7,0.4,9.7-0.7c10.1-3.5,19.3-3.4,28.9-3.1c5.7,0.2,12.3-2.4,18.4-3.7
	c11-2.4,17.2-7,20.3-14.9c0.3-0.6,0.7-1.2,1-1.9c-1-0.4-2.1-1.3-3.1-1.1c-7.6,1.7-10.4-1.2-12.7-5.8c-1.1-2.3-5.6-3.1-8.5-4.6
	c0.7,1.4,1.4,2.8,2.1,4.1c-0.7-1.4-1.4-2.8-2.1-4.1C968.4,522.4,965.2,520.4,962,518.5z"/>
<path class="st0" d="M474.5,998c0.3-0.5-0.8-1.3-1.3-1.9c-4.9-7.2-15.8-5.4-24.5-6.5c-2-0.3-7.9,3.2-8.1,4.6
	c-0.7,5.1-1.8,11.4,1,14.9c9.5,11.7,25.9,2.5,40.4-0.6C477,1006.2,470,1005.4,474.5,998z"/>
<path class="st0" d="M1541.7,187c-4.1,4.2-8.2,8.4-12.3,12.6l0,0C1533.5,195.4,1537.6,191.2,1541.7,187c-2.2,1.2-4.5,2.5-6.7,3.7
	c-7.4,2.7-14.9,5.4-22.3,8.2c-5.5,3.5-11,6.9-17.7,11.2c8.8,1.7,15.9,3.1,23.1,4.5c-3.1,3.3-6.2,6.7-9.8,10.6
	c9.8,1.9,16.8-1.2,23.2-7c10.8-1.2,20.4-5.3,28.6-12.4c5.7-4.9,11.3-9.8,17-14.6c7.4-0.6,14.8-1.6,22.1-1.6c4,0,7.6,1.7,11.5,2.3
	c4.3,0.6,8.9,2,13.3,1.1c11.9-2.5,19.3-11,27.2-18.1c2.1-1.9,3.1-6,2.1-7.9c-1-2-4.8-3.4-7.8-3.5c-3.6-0.1-7.7,1.4-11.6,2.3
	c-5.4,1.2-10.8,2.6-16.2,3.8c-12.1,2.7-24.8,3.3-35.6,11.6c-5.2-0.8-10.3-1.7-15.5-2.5c-7.3-0.4-14.2,0.7-20.2,6.3
	C1544.7,185.6,1543.2,186.3,1541.7,187z"/>
<path class="st0" d="M509.4,1046.8c0.7-2.1-1.6-5.8-4-6.4c-8.5-1.9-14.6-6-20.4-10.6c-4.2-1.2-8.5-2.4-13.2-3.7
	c-4.1,4.2-9.3,9.3-14.1,14.5c-3.4,3.8-6.7,7.8-9.3,11.8c-0.9,1.4-0.3,3.9,0.8,5c2.5,2.4,6.4,3.8,8.7,6.3c5.9,6.3,19.1,7,29.1,1.2
	c3-0.5,6.3-0.5,9-1.7C504.8,1059.6,507.4,1052.9,509.4,1046.8z"/>
<path class="st0" d="M343.6,914.6c-1.9-2.2-2.9-5.2-3.6-8c-0.5-1.7,0.3-3.8,0.5-6c-10.5,2.9-5.2,9.2-9.3,13.5c-6.2-1.6-5.1-6.1-4-10
	c1.1-4.1,3.7-8.1,6.2-13.4c-8.9,1.6-15.2,2.7-24.3,4.4c7.4,11.2,13.4,21,20.2,30.4c2.4,3.3,9.4,1.4,15.6-3.9
	C349.1,918,345.4,916.8,343.6,914.6z"/>
<path class="st0" d="M1530.1,142.1c1-0.3,2.1-0.4,3.1-0.6c9.2,9.4,9.4,9.4,19.1-3c0.1-0.2,0.3-0.4,0.5-0.6c3.6-1.3,7.3-2.6,10.9-4.1
	c2-0.8,3.9-2,5.9-3c-1.5-1.1-2.7-2.4-4.4-3.2c-1.1-0.5-2.8-0.4-4.2-0.5c-2.3-1.3-5.1-2.2-6.7-3.9c-3.6-4.1-8.6-4.5-15.2-2.5
	c-7,2-14,3.8-21.1,5.6c0.1,3.3,0.3,6.6,0.4,9.9C1517.6,143,1522.4,144.1,1530.1,142.1z"/>
<path class="st0" d="M293.9,455c0,0.6,0.1,1.2,0.2,1.8c1.1,4.8,4.1,8.3,11,7.7c7.1-0.6,11-4.7,13.3-10c2.5-5.8,3.4-12.9,15.2-12.1
	c-0.3-7.2-1.4-7.6-8.3-5.5c-2.1,0.7-4.5,0.7-6.6,0.6C313.7,437.3,294.2,450.8,293.9,455z"/>
<path class="st0" d="M1117.2,362.2c16.3-2.6,21.3-5.7,25.4-15.8c0,0,0,0,0,0c0.9-2.1,1.7-4.2,2.6-6.3c5.9-13.4-3.1-20.4-20.6-15.7
	c-10.5,4.6-21,9.2-31.5,13.8c0,0,0,0,0,0c-7.3,4.2-14.8,8.2-21.9,12.6c-1.5,0.9-1.7,3.4-2.5,5.1c-9.7,4.1-15.9,10.6-21,17.9
	c1.8,3.1,3.7,6.2,5.5,9.3c6.1-2.6,12.2-5.3,18.3-7.9c0.1-0.3,0.2-0.6,0.2-1c-0.1,0.3-0.1,0.6-0.2,1c4.1-1.8,8.2-3.6,12.3-5.4
	c4.6,0.3,9.4,1.8,13.8,0.7C1104.3,368.7,1110.7,365,1117.2,362.2z"/>
<path class="st0" d="M1396.1,607.8c-0.8,0.3-1.6,0.5-2.3,0.6c-9.4,1.9-14.8,6.4-16.7,14c-0.9,3.7,0.7,6.2,5.5,4.3
	c7.9-3.1,15.5-7.1,23.2-10.8c1.2-1.5,2.5-2.9,3.7-4.4C1407,603.9,1407,603.9,1396.1,607.8z"/>
<path class="st0" d="M910.5,403.3c0.3-1.8,4.3-4.1,6.8-5.9c2.8-2,5.9-3.8,8.8-5.6c0-2,0.8-4.3,0-5.8c-1.7-3.1-5-5.4-6.4-8.5
	c-2.1-4.7-5.5-5.9-12.2-3.5c-7,2.5-8.5,6.2-7.1,10.8c-1.6,1.9-3.4,3.7-4.6,5.6c-1.2,2-3.1,5-2.3,6c1.6,1.9,4.8,2.9,7.8,3.7
	c1.1,0.3,3.2-0.9,6.1-1.7c-2.8,3.9-4.8,6.8-7.4,10.5C905.7,408.3,909.6,408.8,910.5,403.3z"/>
<path class="st0" d="M553.5,944.3c0.3,4.6,0.5,9.2,0.8,13.8c0,7.7,4.6,9.1,17.5,5.6c1-0.9,1.9-1.7,2.9-2.6
	c1.6-11.9,0.3-22.8-6.7-32.1c5-8.3,4.6-11.3-3.6-16.8c-1.7,6.1-3.1,11.4-4.6,16.7C557.7,934,555.6,939.1,553.5,944.3z"/>
<path class="st0" d="M966.5,780.8c0.6-2.1,1.6-4.2,2.4-6.3c-3.2,0.2-7-0.6-9.4,0.7c-7,4-13.5,8.8-20.2,13.2c0,0.9,0.1,1.7,0.1,2.6
	c6.1,1.4,11.9,3.4,18.3,4c5.9,0.5,8.6-3,7.6-7.8C964.9,785.4,965.9,783,966.5,780.8z"/>
<path class="st0" d="M429.2,677.6c-4.2-3.2-5.7-7-4.7-12c3.3-3.1,6.3-7.7,10.1-8.9c10.2-3.4,19.9-11.3,31.2-8.6
	c0.9,0.2,3.5-2.1,5.3-3.3c0.2-6.8-7-7.1-12.5-8.9c-1.8-1.2-3.9-2.1-5.2-3.5c-4.3-4.4-9.7-3.8-16.1,0.2c-1.8,1.1-3.7,2.2-5.4,3.5
	c-4.6,3.3-8.7,4-12.3,1c0,0,0,0,0,0c-0.5-2.8-0.9-5.6-1.4-8.5c0,0,0,0,0,0c0.9-2.9,1.4-5.9,2.8-8.7c3.3-6.4,0.7-9-6.7-8.9
	c-2-0.5-4-0.9-6-1.4c-2.1-0.8-4.2-1.6-6.3-2.4c-0.7-2.1-2.7-5.4-1.8-6c3.3-2.4,7.6-4,13.1-6.7c-4.4-4.2-9.1-8.7-13.8-13.2
	c-3.2-0.6-7.4-2.7-9.2-1.6c-2.8,1.7-4.8,5.6-5.2,8.4c-0.2,1.1,4.8,1.8,7.5,2.5c1.1,0.2,2.5-0.2,3.8-0.3c3.3,2.4,3.4,5.5,0.7,9.4
	c-2.2,3.1-4.8,6.4-5.9,9.7c-3.2,9.5-7.2,19.2-1.8,27.4c1.1,4.6,0.6,10.2,3.7,13.5c4.3,4.5,4.8,9,2.6,15c-0.9,2.4-0.5,5.7,1.1,7.2
	c3.5,3,8.3,5,12.6,7.4c7,2.6,14,5.2,21,7.8c0.8-0.7,1.6-1.3,2.3-2C431.6,682.8,431.4,679.3,429.2,677.6z"/>
<path class="st0" d="M526.2,814.2c0.9-7.2-3.7-10.7-11.6-11.8c-9.2-2.8-16.6,4.5-24.7,7.3c-0.3,0.1-0.5,3.2,0.4,3.7
	c1.8,1,4.4,1.1,6.7,1.6c6.4,2.1,12.4,4.7,19.2,6.1C522.3,822.5,525.6,819.8,526.2,814.2z"/>
<path class="st0" d="M612.7,798.7c1.5-0.6,3.7-4.2,3.1-5c-2.6-3.3-5.6-6.4-9.4-8.7c-1.7-1-6-0.4-8.5,0.7c-4,1.7-7.6,4.5-11.4,6.8
	C591.8,799.3,603.3,802.2,612.7,798.7z"/>
<path class="st0" d="M1037,645.7c-3.9,2.1-9.4,3.8-11.3,6.6c-1.6,2.4,0.3,6.3,1.7,9c0.8,1.5,3.7,2,5.6,2.9c1.4-0.6,2.8-1.2,4.2-1.8
	c-1.4,0.6-2.8,1.2-4.2,1.8c0.3,3.5,0.4,7.1,0.9,10.5c0.3,1.8,0.5,4.6,1.9,4.9c2,0.4,5-1.2,7.5-2l0,0c2.2,0.3,4.3,0.6,6.5,0.9
	c11.3,1.5,15.8-1.3,18-11.1c5.9-3.8,11.9-7.5,17.8-11.3c1.7,0.1,3.4,0.4,5.2,0.3c11-0.5,18.5,5.8,16.2,14.6c-1.6,6-4.7,12-7.2,17.9
	c-4.3,3.5-9.6,6.7-7.6,11.8c-1.3,1.4-2.6,2.8-3.9,4.2c-1,0.2-2.1,0.2-3.1,0.6c-12.4,4.7-24.9,9.3-37.2,14.3
	c-3.2,1.3-7.4,3.3-4.9,6.9c5.9,1.4,11.8,2.8,17.6,4.2c-0.2,1.4-0.3,2.9-0.6,4.3c-1.6,8.4-0.4,9.3,10.1,8.3c3.3-0.3,6.5-0.2,9.8-0.3
	c0.2-0.5,0.4-1,0.6-1.6c0.4-1,0.8-2.1,1.2-3.1c0.4-1,0.7-2.1,1-3.1c-0.3,1-0.7,2.1-1,3.1c-0.4,1-0.8,2.1-1.2,3.1
	c-0.2,0.5-0.4,1-0.6,1.6c1.9,3,3.7,6,5.6,9c1.7-0.2,3.4-0.4,5.1-0.6c-1.7,0.2-3.4,0.4-5.1,0.6c-0.3,0.2-0.7,0.4-1.1,0.6
	c-0.5,0.8-0.9,1.5-1.4,2.3c-2,10.2-2,10.2,11,10.1c1.3,0,2.6-0.1,3.9-0.2c5.2,0.7,10.5,1.5,15.7,2.2c0.4-0.7,0.8-1.4,1.2-2
	c-2-1.5-4-3.1-6-4.6c2.9-5.1,5.9-10.2,8.8-15.2c-0.2-0.2-0.4-0.5-0.5-0.7c0.2,0.2,0.3,0.5,0.5,0.7c1.5-1.1,3-2.1,4.5-3.2
	c5.7-2.7,12.4-4.7,16.7-8.4c3.9-3.3,6.5-3.6,10.2-3.1c11.1,3,19.9,1.2,22.4-4.1c-3.9-2.4-7.6-4.7-11.3-7c-4.1,1.3-8.2,2.6-12.3,3.9
	c4.1-1.3,8.2-2.6,12.3-3.9c-3.4-5-6.7-10-10.1-15.1c-1.3-1-2.3-2.6-4-2.8c-6-0.6-7.3-3.5-5.5-8.1c2.2-5.5,4.8-10.9,7.2-16.4
	c5.4-5.8,11.5-8.2,19.5-7.2c2.3,0.3,6-2.5,9.1-3.9c1.1-0.4,2.1-0.7,3.2-1.1c3.7,4.4,7.5,8.8,11.2,13.2c-0.3,2.8-1.2,5.8-0.8,8.5
	c0.2,1.2,2.9,1.7,4.5,2.5c1.3-1.6,3.9-3.6,3.6-4.6c-0.8-2.8-2.9-5.1-4.5-7.6c-1.7-5.7-3.5-11.3-5.2-17c2.1-6.2,5.5-12.6,0.1-17.6
	c-0.8-0.7,0.6-3.1,1-4.7c11.9,2.5,13-8.4,20.8-12.3c0.1,2.4,0.1,5-1.6,7c-3.8,4.4-1.3,4.9,3,5.2c2-3.5,3.6-6.8,5.7-10
	c2.8-4.1,1.7-6.2-2.7-7.5c-4.4-1.3-8.7-2.9-12.9-4.6c-7.4-2.9-13.9-6.4-9.5-15.6c0.5-1.1-0.1-3-1.2-3.4c-1.2-0.5-4.5,0-4.9,0.6
	c-1.6,2.3-2.5,4.8-3.3,7.2c-0.8,2.2-0.7,4.6-1.9,6.7c-2,3.6-4.8,7-7.3,10.5c0,0,0,0,0,0c-5.5,4.8-10.9,9.7-16.4,14.5
	c-5,5.3-6,10.3-2.9,15.1c5.8-1.7,9.2-0.7,11.1,1.9c-1.9-2.6-5.3-3.6-11.1-1.9c-4.3,7.9-12.7,12.9-20.7,18.2
	c-6.5,0.1-13,0.1-19.5,0.2c-1.5-4.3-3.2-8.6-4.5-13c-1.3-4.5-1.6-9.3-3.4-13.6c-2-5.1-7.7-6.2-14.6-3.6c-4.8,1.8-9.4,4-14.1,6.1l0,0
	c-4.4-1.2-8.5-3-13.2-3.4c-5.2-0.5-10.9,0.3-16.4,0.5c3.1,4.6,6.2,9.2,9.3,13.9c-3.1-4.6-6.2-9.2-9.3-13.9
	C1044.5,643.6,1040.7,644.7,1037,645.7z M1083.9,731c-0.1,1-0.2,1.9-0.5,3C1083.7,732.9,1083.8,731.9,1083.9,731z M1115.7,741
	L1115.7,741c0.2,0.6,0.4,1.1,0.6,1.7C1116,742.2,1115.8,741.6,1115.7,741z M1117.2,744.5c-0.4-0.6-0.7-1.1-0.9-1.7
	C1116.5,743.3,1116.8,743.9,1117.2,744.5z"/>
<path class="st0" d="M412,915.8c-5.2,4.2-9.6,8.1-14.4,11.6c-10.9,7.9-7.4,9.1,2.5,12.1c1.2,0.4,4.9-1.2,6-2.5
	C411.6,930.4,414.7,923.5,412,915.8z"/>
<path class="st0" d="M1247.9,398.8c9.1,6.6,24.8-4.8,35.2-17.7C1273.5,382.2,1254.2,391.9,1247.9,398.8z"/>
<path class="st0" d="M1758,625.7c5.4,2.3,4.6,6.5,2.8,11c-0.5,0.7-0.9,1.4-1.4,2.1c0,0,0,0,0,0c-3.5,2.3-6.9,4.5-10.4,6.8
	c0.2,0.6,0.5,1.2,0.7,1.9c4,0.5,8,1,12.1,1.5c5,3.8,10.1,3.3,15.3-2.6c1-1.1,2.4-2,3.6-3c-0.5-1.4-1.1-2.8-1.6-4.2
	c0.5,1.4,1.1,2.8,1.6,4.2c2.5-1.1,5.2-1.9,7.4-3.3c10.3-6.8,21.1-9,32.2-8.1c-2.7-2.3-5.4-4.6-8-6.9c2.7,2.3,5.4,4.6,8,6.9
	c2.2,0.8,4.4,1.7,6.6,2.5c4.6,5.6,9.1,11.2,14.1,17.3c2-1.9,4.4-4.2,6.9-6.6c4.2-4,3.9-6.2-1.4-7.8c-4.6-1.4-8.4-3.9-12.5-6
	c0.1-1.3,0.3-2.6,0.4-4c0.7-0.8,1.2-1.6,2-2.3c5-4.8,4.7-7.2-2.2-8.5c-4.1-0.8-7.4-3.6-10.3-6.1c-2.8-2.5-5-2-9.1,0.3
	c-3.5,2-8.1,2.9-12.1,3.4c-3.8,0.4-7.3-0.5-11-0.8c-2.8,0.8-5.6,1.7-8.4,2.5l0,0c-5.2,0.5-10.4,0.8-15.7,1.7
	c-3.3,0.6-6.8,2.1-9.9,3.7C1757,621.6,1757,625.3,1758,625.7z"/>
<path class="st0" d="M1338.1,447.6c-3.9,7.3-0.8,16.2,6.7,18.5c2,0.6,4.9,0.1,7.3,0.1c0.5-1.9,0.9-3.8,1.6-5.7
	c1.1-2.8,2.4-5.6,3.7-8.4c9.5-5.2,13.1-12.9,18.3-20c-0.4-0.7-0.8-1.3-1.2-2c-5.9,1.1-11.8,2.1-17.8,3.2
	C1344.9,434,1340.4,437.4,1338.1,447.6z"/>
<path class="st0" d="M1208.6,667.1c-1.7,1.6-0.9,5.3-0.1,7.5c0.3,0.8,4.8,1,6.2,0.1c4-2.4,7.7-5.5,11.2-8.5c3.6-3.2,3.7-5.1-1.8-5.6
	c-3.2-0.3-5.8-2.3-8.5-3.6c-1.3-0.7-2.3-1.7-3.5-2.6c-0.8,0.4-1.6,0.8-2.3,1.2C1214.2,659.1,1213.2,662.6,1208.6,667.1z"/>
<path class="st0" d="M554.6,994.1c3.9-4.8,5.5-8.8-1.1-10.6c-3.6,2.8-6.9,5.3-10.2,7.8c-4.3,6.8,0,13.4,8.9,13.8
	c1.5,1.7,3.1,3.4,4.6,5.1c0.9-0.5,1.8-1,2.7-1.4C557.9,1003.9,565.4,996.2,554.6,994.1z"/>
<path class="st0" d="M351.4,513.4c-5.1-5.9-10.6-11.4-15.9-17.1c-4.3-4.5-8.5-9.1-13.1-13.4c-0.9-0.9-3.5-0.5-5.3-0.8
	c-5.2-1.2-10.3-2.4-15.5-3.7c-5.1-3.9-10.6-2.4-15.6,4.2c-3.4,4.9-7.7,9.6-10,14.6c-1.4,3.1,0.2,6.6,0.5,9.9
	c0.8,2.6,1.2,5.4,2.4,7.9c1.8,3.7,4.3,7.1,6,10.8c1,2.3,0.9,5,1.5,9c7.8-7.9,14.8-10,22.8-8.3c1.7,0.4,5.4-0.6,6.3-1.6
	c1.2-1.5,1.4-4.2,0.4-5.4c-2.1-2.8-4.6-5.6-7.9-7.4c-4-2.1-5.6-5.1-2.5-8.6c3.6-4.1,8.9-7.4,13.5-11c0.7,0.1,1.5,0.1,2.2,0.2
	c-0.5,6-0.5,11.8,8.8,11.1c4.4,4.6,8.7,9.3,13.5,13.6c0.9,0.8,4,0.8,5.3,0.1C350.1,516.9,351.9,514,351.4,513.4z"/>
<path class="st0" d="M1176.8,445.5c10.7,1,8.2,6,6.6,10.9c-1,3.1-0.7,6.2-0.9,9.2c-3.7,8.4-7.5,16.7-19.2,21.2
	c0,1.1,0.3,2.3,0.3,3.5c0,0.5-0.1,0.9-0.2,1.3c0.1-0.4,0.2-0.9,0.2-1.3c0-1.1-0.3-2.3-0.3-3.5c-10.8,1.1-16.7,8.6-24.1,14.3
	c-4.6,1.6-9.1,3.1-13.7,4.7c-5.1,1.8-6.1,4.2-2.4,6.3c6.4,3.7,13.2,7,19.8,10.4c3.9,3.9,7.9,7.8,5.4,14.3c-0.2,0.5,0.9,1.2,1.4,1.8
	c-2.9,3.2-1.1,4.2,2.4,4.3c6.8,0.2,18.8-6.3,22.7-12.2c-0.1-7.3,3.5-12.8,13.4-16.4c4.1-1.5,7.8-4.6,11.7-6.9
	c7.3-3.4,14.8-6.6,21.8-10.4c5.5-3,10.3-7,15.5-10.5c7.5-0.8,8.8-2.5,7-9.8c-1.1-0.7-2.1-1.4-3.2-2.1c0.5-0.6,1-1.2,1.5-1.7
	c3,1.2,6.1,2.4,9.1,3.6c2.2,0.3,4.6,1.5,6.5,0.8c5.8-2,11.4-4.6,17.1-7c3.9-3.6,7.8-7.2,11.9-10.9c6.6,7.7,17.9,7.8,30.4,5.2
	c2.2-0.5,6-2.5,6.3-3.7c1.5-5.3,1.9-10.6,2.7-15.9c1.7-3.9,3-7.8,5.3-11.5c1.8-2.9,4.3-6.6,7.4-7.9c7.1-3.1,14.7-5,22.1-7.3
	c2.3-0.2,4.6-0.2,6.9-0.8c2-0.6,3.8-1.9,5.7-3c-1-1-1.7-2.7-3.1-3c-4.1-0.9-8.5-1.2-12.7-1.7c-8.1-2.2-16.2-4.3-24.3-6.5
	c0,0,0,0,0,0c-7.2-1.1-11.5,3.3-16.3,7.5c-3.4,2.9-7.2,5.8-11.3,8c-5.6,2.9-11.7,5.1-17.5,7.6l0,0c-3.3,1.8-6.7,3.7-10,5.5
	c-1.9,2.2-4.2,4.3-5.7,6.7c-8,12.6-24.3,21.1-41,21.1c-0.6,0.7-1,1.4-1.3,1.9c0.3-0.6,0.7-1.2,1.3-1.9c-2.4-0.9-4.8-1.8-7.2-2.7v0
	c-7.6-3.8-8.2-10.8-8.8-17.8c3.1-3,6.4-5.9,9.4-8.9c2.9-2.9,2.6-4.9-1.8-4.8c-2.5,0-5.4,0.1-7.6,1.2c-9.9,4.6-19.6,9.6-29.3,14.4
	C1184,442.1,1181.6,443.2,1176.8,445.5z M1229.9,462.6C1229.9,462.6,1229.9,462.6,1229.9,462.6c0-0.2,0.1-0.3,0.2-0.5
	C1230,462.3,1230,462.4,1229.9,462.6z"/>
<path class="st0" d="M419.4,881.6c0.3,1,2.4,1.4,3.7,2.1c6.1,1.8,11.6,0,14.1-4.6c0.1-10.6-9.1-14.6-19.6-8.5
	C418.1,874.2,418.4,878,419.4,881.6z"/>
<path class="st0" d="M525.5,915.3c-6,1.4-11.7,3.1-17.3,0.9c-3.9-1.5-6.3,2-7.2,5.2c-0.7,0.9-2.2,2.2-2,2.5c3,3.4,6.1,6.7,9.7,9.7
	c0.5,0.5,3.8-0.5,5-1.4c1.8-1.4,2.8-3.3,4.2-5c9.5-1.4,8.4-6.9,9.3-11.6C526.6,915.4,526.1,915.4,525.5,915.3z"/>
<path class="st0" d="M995.2,195c-0.1,2.3,4.1,4.3,7.2,5.5c1.5,0.6,6.8-1.3,6.8-1.5c0.1-4-0.1-8.1-0.7-12c-0.1-0.8-1.9-1.2-3.1-1.6
	c-0.5-0.1-1.4,0.6-2.2,0.9c-0.4-0.1-0.8-0.3-1.2-0.4C999.6,189,995.4,192.3,995.2,195z"/>
<path class="st0" d="M419.8,976.1c2.5,5.9,4.3,10.3,6.4,15.2c5-1.7,11.1-3.9,17.2-6c0.2-0.9,0.4-1.8,0.6-2.6
	C436.5,980.6,429.1,978.6,419.8,976.1z"/>
<path class="st0" d="M1011.6,364.8c6.7-4.4,15.6-8.4,14.8-16.6c-2.6-5.5-24.4-17.6-34.6-19c-3.8-8.8-18.4-5.9-24.9-12.1
	c0,2,0,4.3,1.5,5.3c6,3.7,8.5,9,9.5,15.2c0.2,1.4,1.9,2.5,2.9,3.7c0.7,4,1.3,8.1,2.2,12.1c0.3,1.2,1,2.7,2.2,3.2
	c5.7,2.4,11.7,4.6,17.5,6.8C1005.8,363.9,1010.1,365.8,1011.6,364.8z"/>
<path class="st0" d="M359.9,689c6.4-3.2,16.3-3,16.6-12c2.1-5.7,4-11.5,6.4-17.2c1.9-4.6,0.3-7-4.7-8c-1.2-1.3-2.5-2.6-3.6-4
	c-4.8-5.5-9.6-11.1-14.4-16.6c-1.8-0.1-3.6-0.2-5.4-0.3c-4.7-0.2-9.4-0.4-14.1-0.5c4.4-3.1,8.5-6.7,13.3-9.2
	c6.2-3.3,6.3-5.8,2.5-8.7c-2.9-2.2-5.8-4.5-8.7-6.8l0,0c-2.7-2.1-4.8-5.8-8.1-5.9c-9.1-0.2-8.9,0.5-5.8-7.2
	c4.2-10.5,2-14.9-6.7-15.6c-0.5,0.8-1,1.5-1.5,2.2c0.6-0.7,1.1-1.4,1.5-2.2c-7.7-1.4-15.4-2.9-23.1-4.3c-2.8,2.4-8.3,6.6-8,6.9
	c2.9,3.1,4.9,7.9,12.7,5.3c0.4,0.3,0.8,0.5,1.1,0.8c2.8,1.2,5.5,2.6,8.5,3.5c7.2,2.1,7.6,4.8,1.1,10.5c-1.2,1-2.5,1.9-3.7,2.9
	c-6.6,5.8-10,14.4-7.4,18.3c3.7,1.4,7.5,2.7,11.1,4.1c2.9,1.2,5.6,2.5,8.9,4.1c-10.1,5.8-29.3,6.7-36.2,1.5c-5.2-3.9-11.1-5-18.7-4
	c-2.1-0.9-4.2-1.7-6.3-2.5c1.8-2.8,3.2-5.9,5.5-8.4c2.1-2.3,5.2-4,7.8-6c7.6-0.3,13.2-6,13.9-14.5c-2.9,0.2-6,0.4-9,0.7
	c-3.7,0.5-8.1,0.2-11.1,1.8c-13.3,7.3-17.8,15.3-16.1,26.4c-2.2,1.8-4.3,3.7-6.5,5.5c-9.4,6.9-9.3,6.9-4.9,15.1c0.7,1.4,1,3.7,0,5
	c-1,1.2-4,1.6-6.1,2.3c-2.8,0.9-5.6,1.7-8.4,2.6c-11.1,5.3-22,10.7-33.2,15.8c-4.8,2.2-9.4,2.8-13.2-0.2c-1.6-1.3-5.3-0.9-8-1.2
	c-3.5,5.7-7,11.3-10.5,17c3.5-5.7,7-11.3,10.5-17c-5.1,3.6-10.7,7-15,11c-3.3,3.1-5.1,7.2-7.6,10.9c3.1-1.2,6.1-2.4,9.2-3.7
	c-3.1,1.2-6.1,2.4-9.2,3.7c-2.4,5.4-4.9,10.8-7.3,16.2l0,0c-3.6,1.2-7.3,2.4-10.9,3.6c0,0,0,0,0,0c-4.7,1.8-5.5,4.7-3.7,7.2
	c2.9,4.1,6.5,7.7,9.8,11.6c-2.7,5.3,5,20.7,11.2,21.2c1.8,0.2,4.8-1.6,6.9-3c2.1-1.4,3.6-3.4,5.4-5.1c8.4-0.8,16.8-1.7,25.2-2.2
	c7.6-0.5,10-3.8,11-9.3c1-5.7,3.2-11.4,4.8-17.1c3.2-4.8,6.5-9.5,9.7-14.3c0.1,0.2,0.3,0.4,0.4,0.6c0.4,0.3,0.8,0.7,1.2,1
	c0.2-0.5,0.4-1,0.6-1.5c0.5-0.1,1.1-0.2,1.6-0.4c8,4.4,16.2,7.5,28.2,2c3.6-1.6,8.3-2.1,12-1.8c4.6,0.3,6.9-1.1,8.5-4.5
	c1.1-2.4,2-4.9,2.9-7.4c3.5-3.8,7.4-6.2,12.5-4.2c0,0,0,0,0,0c9.3,3,18.5,6.1,28,8.7c1.8,0.5,6.8-1.1,7.4-2.2
	c2.9-5.1,7.6-5.8,12.6-6.4c9.6,1.4,16.7,4.5,15.1,14.2c-0.2,1.4,2.2,2.7,3.4,4c1.4-1.7,3.1-3.3,4.2-5.1
	C357.6,694.2,358.7,691.5,359.9,689z M322.9,581.7c0.7-0.5,1.3-1,1.9-1.6C324.1,580.7,323.5,581.2,322.9,581.7z M318.6,583.9
	c0.8-0.3,1.5-0.6,2.2-1C320.1,583.3,319.3,583.7,318.6,583.9z M147.8,727.5L147.8,727.5c-0.5,0.2-1,0.4-1.5,0.6
	C146.8,727.9,147.3,727.7,147.8,727.5z"/>
<path class="st0" d="M451.5,263.4c-21,13.3-23.2,13.7-22.8,30.8c0.1,5.3,6.7,8.2,14,6.4c4.4-2.5,9-4.7,13.3-7.4
	c3.4-2.1,3.3-4.4-0.4-4.9c-6.9-1-5.8-3.6-1.1-7.6c1.3-1.1,1.8-2.8,2.7-4.2c1.5-4.2,3.5-8.4,4.4-12.6c0.6-2.8-0.2-5.6-0.4-8.3
	c-3,2.2-5.9,4.4-8.9,6.7C451.9,262.5,451.7,263,451.5,263.4z"/>
<path class="st0" d="M378.4,414.3c-2.4,2.7-5.4,6-5.4,8.6c0,1.6,4.9,2.4,7.5,3.5c2.1-2.7,4.9-5.4,6.1-8.2c0.8-1.7-0.8-3.7-1.3-5.6
	c1.3-0.8,2.7-1.6,4-2.4c-0.3-0.4-0.7-0.8-1-1.1c-1.6,1.3-3.1,2.6-4.7,3.9C381.8,413.4,379.1,413.5,378.4,414.3z"/>
<path class="st0" d="M374.7,1020.3c-1.3-0.9-5.1,0.4-7.8,0.6c0.4,2-0.2,4.8,1.2,5.7c3.8,2.3,8.5,3.8,12.9,5.6c1.1-1,2.2-2,3.4-2.9
	C381.2,1026.3,378.4,1022.8,374.7,1020.3z"/>
<path class="st0" d="M581.2,888.6c-1.3,1.2-3,2.4-3.8,3.8c-1.8,3-5.3,7.2-4.3,9c2.1,3.6,6.4,6.5,13.3,4.6c0.7-0.2,1.3-0.8,2.3-1.4
	c-0.7-1.5-1.3-3-2.2-5.2c8.2,1.1,12.2-1.5,12.5-7.9c0-0.6,1.3-1.5,2-2.2c3.1-0.1,6.3-0.1,9.4-0.2c-0.1-2.7,0-5.5-0.5-8.1
	c-0.4-2.3-2.1-4.4-2.1-6.7c0-2.3,0.8-4.9,2.1-7.3c2.4-4.3,5.7-8.4,8-12.7c3-5.7-1.3-13.6-9.8-13.7c-4.2-0.1-10.2,5.6-15.2,8.8
	c-0.6,0.4-0.9,2.1-0.5,2.8c2.9,4.8,0.9,9.6-3.4,14.8c-1.8,2.1-2.2,4.8-3.2,7.3C582.2,878.9,577.1,883.6,581.2,888.6z"/>
<path class="st0" d="M365.1,917.9c-1.9-1.8-6.5-1.6-10-2.3c-1.1,2.2-3.9,5.7-3.1,6.5c2.4,2.3,6.3,3.5,9.7,5.1
	c0.9-0.5,1.7-0.9,2.6-1.4C364.7,923,366.6,919.2,365.1,917.9z"/>
<path class="st0" d="M899.4,48c1.3,2.1,4.9,2.9,9,4.9c2.5-4.5,4.2-7.3,5.8-10.1c-3.3-0.5-6.7-1.8-9.8-1.1
	C902.4,42.3,898.8,47,899.4,48z"/>
<path class="st0" d="M214.6,512.7c-2.6-2.4-5.6-4.5-8.4-6.7c3.5-3.5,6.7-1.9,10.5-2.1c5.6-0.3,13.4-1.2,17-4.3
	c5.5-4.6-1.2-6.5-4.6-8.9c-1.6-1.1-3.2-3.8-2.4-5.4c4.1-7.3-0.7-10.5-5.2-14.4c-3.1-2.7-5-6.4-7.4-9.6c0,0,0,0,0,0
	c2.6-9.9,2.6-10-9-9.7c-1.8,0-3.6,0.2-5.4,0.3c-7.5-0.5-15.1-0.5-18.8-6.3c-3.4-5.2-7.5-10-11-15.2c-1.9-2.8,0.6-4.9,4.4-5.5
	c7.8-1.2,15.5-2.1,23.3-3.1c-1.8-3-3.7-6-5.5-9.1c1.8,3,3.7,6,5.5,9.1c2.6,0.3,5.2,0.6,7.8,0.9c2.3,12,15.4,16.8,22.9,25.3
	c0.6,0.7,2,0.8,3.1,1c6.1,1.3,12.2,2.5,18.4,3.7c0.7,2.8,13.4,10.3,16.8,9.5c1.5-0.3,3.3-1.7,4.2-2.9c4.3-5.9,5.8-11.2,0.7-16
	c-2.2-2.1-1.9-6.1-2.7-9.3c3.9-0.3,7.7-0.5,11.6-0.8c3.1,0.7,6,3.4,9.9-0.7c3.4-3.6,2.4-6.2-0.7-8.4c-0.7-0.5-1.1-1.2-1.6-1.8
	c3.2-6.1,8.5-3.4,12.9-4c4.2,0.5,8.8,2.5,12.5,1.3c6.3-2.1,13.2-5.5,12.3-12.6c-0.2-1.9,0.8-4.1,1.3-6.2c2.1-1.9,3.9-4.2,6.4-5.5
	c7.5-4,11.5-8.6,8.7-15.6c3.5-0.3,5.8-0.5,8.2-0.7c1-2.9,2-5.8,3-8.8c-2.9-2.6-5.8-5.3-8.7-7.9c-0.1-0.6-0.3-1.2-0.6-1.8
	c-0.2-0.6-0.5-1.2-0.7-1.8c0.2,0.6,0.4,1.2,0.7,1.8c0.2,0.6,0.4,1.2,0.6,1.8c2.9,2.6,5.8,5.3,8.7,7.9c-1,2.9-2,5.8-3,8.8
	c3.4,3,6.7,6,11,9.9c4.5-8.8,8.4-16.7,12.4-24.5c-2.9-3.8-1.9-7.4,1.8-12.3c4.8-6.3,12-12.6,10.8-20.2c4-8.9,8-17.8,11.9-26.8
	c-1.4-3.6-2.9-7.2-4.2-10.9c-0.7-2-2.3-4.4-1.3-6.2c1-1.9,4.6-3.5,7.2-4.8c2.8-1.4,5.8-2.2,8.7-3.3c-1.4-2-2.7-4-4.1-5.9
	c1.4,2,2.7,4,4.1,5.9c1.5-1.1,3.9-2.1,4.3-3.3c1.3-3.2,1.8-6.4,2.6-9.7c1.3-1.7,2.4-4.4,4.1-5.1c7.5-2.9,7.1-7,6.4-11.3
	c4.3-7.1,4.5-14.2,0-16.2c-5.8-2.6-12.1-4.6-18.2-6.9c-6.7,3.7-13.4,7.5-20.1,11.2c6.7-3.7,13.4-7.5,20.1-11.2
	c-2.6-1.8-7.1-3.1-7.3-5.4c-0.4-5.7-5.4-5.7-10.5-6.4c-2.4-0.3-5.2-0.5-6.8-1.6c-8.7-5.9-18.8-4.2-29.7,1.8
	c-7.7-1.3-14.8,2.6-22.1,5.4c-4.3,1.7-9.1,2.2-13.6,3.2c-7.2-0.3-14.4-0.6-21.5-0.8c-3.9,1-7.9,2-11.8,3.1c0.4,3,0.5,6.1,1.3,9
	c0.7,2.6,3.8,5.1,2.8,7.4c-3.5,8.2,1.5,11.7,8,14.7c-1.1,4.4-2.2,8.7-3.3,13.1c-5.5,2.6-11.2,4.9-16.4,8c-3.5,2.1-6.2,5.3-9.3,8
	c-2.9,2.6-5.8,5.3-8.7,7.9c0,0,0,0,0,0c-5.5,3.6-11.1,7-16.4,10.7c-2.5,1.7-4.3,4.1-6.4,6.2c-1.3,1.8-2.3,3.6-3.8,5.3
	c-9.9,11.1-14.6,24.6-29.7,33.3c-5.3,5.3-10.7,10.7-16,16c-7.2,0.7-11.9,4-14.6,9.7c-1.6,3.5-3.8,6.9-5.8,10.4
	c-6.1,7-12.2,14.1-18.4,21.1c-4,4.5-5.6,8,0.3,10.6c2,0.9,2.6,3.4,3.8,5.2c0,0,0,0,0,0c2.3,3.7,4.5,7.5,6.8,11.2
	c-1.4,5.1-2.2,10.2-4.4,15.2c-3,6.7-2.3,9.2,5,11.2c7.1,1.9,6.9-4.3,10.1-6.7c2.1-1.6,4-3.3,5.9-5c1.8,1.7,4.3,3.2,5.1,5.3
	c1,2.6,0.6,5.8,0.7,8.8c-0.6,2.5-1.2,4.9-1.9,7.4c4.7-1.3,8.3-1.2,10.7,0.1c-2.3-1.2-6-1.3-10.7-0.1c-1.5,3.9-5.1,8.7-3.9,11.3
	c1.9,4.2,7.2,6.8,11,10.1c3.9,4.8,7.9,9.6,11.8,14.4c7.3,3.8,7.3,13.9,20.3,12.9C218.2,516.8,216.6,514.6,214.6,512.7z M347.1,283.1
	c0.3,0.4,0.5,0.8,0.7,1.3C347.6,283.9,347.4,283.5,347.1,283.1z M348.4,287.7c0.6,0.2,1.1,0.4,1.6,0.5c0.5,0.1,1,0.2,1.6,0.3
	c-0.5-0.1-1-0.2-1.6-0.3C349.5,288,348.9,287.9,348.4,287.7L348.4,287.7z M346.7,282.5c-0.5-0.6-1.1-1-1.8-1.5
	C345.6,281.5,346.2,282,346.7,282.5z M203.3,459.1c-0.6-0.4-1.2-0.8-1.8-1.3C202.1,458.3,202.7,458.7,203.3,459.1z"/>
<path class="st0" d="M466,851.3c2.2,0.3,4.6,0.2,6.4,1c5.7,2.3,7.3-0.1,8.7-4.8c0.8-2.8,3.5-5.5,6.6-10c-3.6-1.1-8.6-2.6-13.5-4.2
	c-0.2,0.7-0.3,1.4-0.5,2c-2.1,2.2-4.1,4.5-6.2,6.7c-6.2,0.6-12.3,1.2-20,1.9C451.8,850.5,458.2,851.8,466,851.3z"/>
<path class="st0" d="M1087,481.2c-2.7,1.3-3.8,5.2-5.6,8c2.7,0.3,5.4,0.6,9.6,1c2.4-3.5,4.2-5.9,5.9-8.4
	C1093.5,481.5,1089.5,480,1087,481.2z"/>
<path class="st0" d="M668,724.7c5.2-0.6,10.3-0.7,15.5-1.8c9.5-2.1,20,1.4,28.4-7.8c6.6-2.4,13.2-4.9,19.8-7.3c4-3,7.3-6.5,13.3-7.2
	c1.6-0.2,5.6-5.4,5-6.8c-1.3-2.9-5-4.7-7.7-6.9c-3-0.7-6.3-1-8.9-2.1c-3.1-1.3-5.6-3.3-8.4-5c-0.2-8.2-9.3-7.9-16.1-9.7
	c-5.7-3.8-11.2-7.9-17.4-11.4c-2-1.1-5.6-1-8.5-0.6c-5.1,0.8-7.5-0.1-7.5-4.5c0-2.4-2.1-4.4-3.2-6.6c-2.6-6.3-12.5-11.7-21.2-10.2
	c9.5,4.9,3.9,11.8,0.2,18.4c-0.3,0.5,0.4,1.3,0,1.8c-1.3,2-2.7,4-4.1,5.9c-5.5,0.7-10.9,1-16.4,2.1c-6.8,1.4-9.7,5.1-8.1,9.3
	c2.5,6.6,2.1,7.2-7.3,10.8c-3,1.2-6.1,2.4-8.9,3.9c-1.5,0.8-3.3,2.3-3.6,3.4c-1.1,4.1-1.9,8.3-2.1,12.4c-0.1,1.5,1.3,3.7,2.8,4
	c4.4,0.7,9.3,0.7,14,0.9c0,0,0,0,0,0c1.5,0,3,0,4.5,0c10.4-0.4,10.6,0,6.5,8.7c-4,8.4-1.8,15.4,1.7,22c1.6,1.5,2.7,4.1,4.8,4.2
	c6.7,0.2,12.8-2,16.7-7.9C657.3,732.8,662.6,728.8,668,724.7z M630.3,701.8c4.7-1.8,9.8-2.8,14.4-2.5C640,699.1,635,700,630.3,701.8
	z"/>
<path class="st0" d="M1599.7,763.2c-0.6-1.8-2.2-3.7-4.2-4.3c-3.2-0.9-7.1-0.8-10.7-1.1c-0.6,0.4-1.2,0.8-1.8,1.1
	c2.3,2.3,4.3,4.8,7,6.8c1.5,1.1,4.1,1.6,6.3,1.4C1597.4,767,1600,764.1,1599.7,763.2z"/>
<path class="st0" d="M1140.8,618.6c0,1.6,1.6,4.4,2.1,4.2c3.3-0.9,6.4-2.5,8.9-3.5c-1.7-3.9-3-7-4.5-10.7
	C1140.8,611.2,1140.8,615.1,1140.8,618.6z"/>
<path class="st0" d="M1053.3,383.1c-1.8-3.1-3.7-6.2-5.5-9.3c-3.9,4.1-7.7,8.1-12.2,12.8C1042.7,387.7,1048,386.8,1053.3,383.1z"/>
<path class="st0" d="M1571.2,217.7c6.9,0.2,13.7-7,13.4-14.3C1578.2,205.1,1573.5,210.1,1571.2,217.7z"/>
<path class="st0" d="M331.3,415.8c-0.3,0.4,1.3,2,1.8,1.9c1.6-0.5,3.4-1.3,4.5-2.4c3.2-3.2,6-6.5,9-9.7c0.1-0.6,0.3-1.2,0.4-1.7
	c-3.4,1.4-7.3,2.4-9.9,4.4C334.5,410.1,333,413.2,331.3,415.8z"/>
<path class="st0" d="M1312.6,363.4c-7.1,3.3-12.4,5.8-19.5,9C1302.3,375,1307.5,372.4,1312.6,363.4z"/>
<path class="st0" d="M1435.9,79.5c-2.2,3.2-4.5,6.3-6.7,9.5c-2.7,3.7-5.8,7.3-7.9,11.1c-1,1.8-1.4,4.7-0.2,5.9
	c3.2,3.5,1.3,6.3-2.5,9.9c-3.7,3.5-6.5,7.6-9.7,11.4c-2.1,2.6-4.2,5.1-6.4,7.7c-10.8,5-23.3,6.6-32.3,15.2
	c-9.7,3.6-19.4,7.5-29.2,10.7c-6.7,2.2-8.5,4.7-5.2,8.7c-2.6,4.9-5.2,9.9-7.7,14.8c-2.4,4.5-4.8,8.9-7.1,13.4
	c-2.3,3.1-4.6,6.2-6.8,9.3c4.1-0.5,8.1-0.9,12.2-1.5c0.5-0.1,1-0.5,1.4-0.7c3.5,1.2,7,2.3,10.5,3.5c0,0,0,0,0,0c2,1.8,4,3.5,6,5.3
	c1.8,1.9,3.3,4,5.5,5.5c3.3,2.2,7.4,6.2,10.5,5.4c7.3-2.1,7.9-8.5,9.8-13.6c0.2-0.6,0.2-1.2,0.3-1.9c3.6-3.7,7.3-7.3,10.9-11
	c3.8-1.2,7.6-2.4,11.4-3.6c4.1,5.1,1.2,11.1-1.2,17.1c-0.9,4-4.2,9.6-2.2,11.8c4.3,4.8,3.8,8.8-1.6,14.1c-7,3.1-6.4,8.4-8.6,12.9
	c0,0,0,0,0,0c-0.9,1.7-1.9,3.4-2.8,5.1c-4.2,4.3-8.5,8.6-12.7,12.9c-6.3,8.1-12.9,16.1-18.7,24.3c-1.1,1.5,0.8,4,1.3,6.1
	c-1.7,7-9.4,9.7-15.5,13.5c0,0,0,0,0,0c-3.8,1.1-7.5,2.2-11.3,3.3c-7.2,2.9-14.8,7.4-21.8,4.9c-8.6-3.1-14.3,1.9-22.9,7.9
	c6.2,0.7,10.5,2.1,15,1.6c9.5-1.1,19.1-3.2,28.6-4.9c3.3,0.7,6.5,1.5,9.8,2.2c3.5-1,7-2,11-3.1c7.5,6.8-3.4,15.4-3.9,25
	c4.3-3.8,7.4-6.5,10.4-9.3c7.7-7.2,14.7-15.1,23.3-21.5c7.9-5.9,9.5-11.4,8.6-18c-0.7-5-4.3-6.2-10.7-4.5c-2.9,0.8-5.9,0.7-8.9,1
	c4.4-3.2,8.8-6.3,13.3-9.5c10.7-4.5,21.3-9,32-13.6c3.2-1.9,6.5-3.8,9.7-5.8c1.9-3.7,3.8-7.5,5.7-11.2c2.8-2.4,5.5-5,8.5-7.3
	c7-5.3,14.1-10.5,22-16.3c-6.1-1.9-10.7-3.3-15.2-4.7c0,0,0,0,0,0c1.1-2.9,2.7-5.8,3.2-8.6c0.4-2.2-0.6-4.2-0.9-6.4
	c-8.3-9.7,6.5-13.9,13.6-20.6c-3.7-1.2-6.6-2.2-9.6-3.2c-3.4-8.9-2.7-10.5,7.3-18.3c6.9-5.3,7.6-9.1,2.5-12.9c-4.9-5.1-3.5-8,5.4-11
	c1.7-0.6,3.5-0.8,5.3-1.2c3.6-0.6,7.2-1.2,10.7-1.8c-1.2,4.9-0.4,4.4,6.5,11.7c4.9,5.2,10.2,4.8,17.6,1.2c1.1-1.8,2.2-3.5,3.3-5.3
	c-1.1,1.8-2.2,3.5-3.3,5.3c3.5,0.4,6.9,1.5,10.4,1c2.1-0.3,6.5-3.7,6.3-4.4c-0.7-2.5-3-4.4-4.7-6.6c3.6-3.7,7.3-7.5,10.9-11.2
	c-0.1-3.3-0.3-6.6-0.4-9.9c-8.4,3.8-16.8,7.7-25.3,11.5c-4.1-5.4-6-12.3-15.9-13.3c-1.6-0.2-2.7-2.4-3.1-4c-0.9-3.1-1.2-6.5-1.7-9.8
	c-0.6-8.3-9.7-6.4-16.8-7.1c-2-0.4-4-0.8-6.2-1.3c1-2.3,1.9-4.3,2.8-6.2c3.9-5.9,3.1-11.1,0.3-15.8c1.6-6,3.1-11.9,5.2-19.8
	c-4.9,3.2-7.8,5.1-10.7,7C1442.9,71.5,1439.4,75.5,1435.9,79.5z M1380.8,274.3C1380.8,274.3,1380.8,274.3,1380.8,274.3
	c0.2,0.5,0.4,1,0.6,1.4C1381.2,275.3,1381,274.8,1380.8,274.3z"/>
<path class="st0" d="M708.5,388.8c1.6-1,2.7-4.8,1.8-5.9c-2.1-2.7-5.7-2.2-9.1,1.1c-0.5,0.2-0.9,0.4-1.4,0.6
	c0.1,0.4,0.2,0.8,0.4,1.2C701.9,388.2,702.5,392.5,708.5,388.8z"/>
<path class="st0" d="M532.7,876.6c0.7,1,4.6,0.2,7,0.2c-0.1-1.6,0.5-3.7-0.5-4.6c-2-1.8-4.8-3.1-9.1-5.6
	C531.1,871.1,531.1,874.3,532.7,876.6z"/>
<path class="st0" d="M402.4,1060.9c2-4.2,4.1-8.4,5.9-12.6c1.9-4.3-0.1-7.5-4.7-7.5c-3.2,0-8.9,2.4-10.4,4.6
	c-3.4,5-5.4,10.6-7.1,15.9c-0.6,1.9,1,3.8,1.6,5.8C393.5,1069.6,399.9,1066.9,402.4,1060.9z"/>
<path class="st0" d="M504.2,625c-1.9-2.7-4.7-4.9-12.2-1.2c3.9,2.1,6.9,3.8,10,5.5C502.8,627.9,504.7,625.7,504.2,625z"/>
<path class="st0" d="M355.2,932.4c-1.3,2.2-3.2,4.5-3.6,6.7c-0.2,1.2,2.3,2.1,5.2,4.5c1.1-4.3,2.2-6.7,2.1-8.9
	C358.9,933.7,356.5,933.1,355.2,932.4z"/>
<path class="st0" d="M435.7,1064.8c-2.5-1.6-5.3-2.9-8-4.3c-1.1,1.1-2.1,2.2-3.2,3.3c2.6,1.6,5.2,3.3,7.8,4.9
	C433.5,1067.3,435.8,1064.9,435.7,1064.8z"/>
<path class="st0" d="M1234.7,600.8c-5.5,0-11,0.1-16.5,0.1c-0.3,1.3-0.5,2.6-0.8,4c5.6-0.5,11.2-0.9,16.8-1.4
	C1234.3,602.5,1234.5,601.7,1234.7,600.8z"/>
<path class="st0" d="M599.7,770.3c-1.6-0.7-4.9,0.5-7.5,0.9c-0.4,0.7-0.8,1.5-1.1,2.2c2.8,1.3,5.6,2.7,8.3,4c0.9-0.7,1.8-1.3,2.7-2
	C601.4,773.6,601.3,771,599.7,770.3z"/>
<path class="st0" d="M349.1,994.7L349.1,994.7c0.9-4.5,1.8-8.9,2.7-13.4c-1.1,0-2.2-0.1-3.3-0.2c-1.1,2.1-2.6,4.2-3.2,6.2
	c-0.7,2.6-0.6,5.3-0.8,7.9c-0.5,2.6-1.2,5.2-1.4,7.7c0,0.3,2.4,0.3,3.7,0.4c0.9-2.3,1.9-4.7,2.7-7
	C349.7,995.8,349.2,995.2,349.1,994.7z"/>
<path class="st0" d="M469.1,617.6c-1.5-1.5-3-3.1-4.5-4.7c0,0,0.1-0.1,0.1-0.1c-0.3-0.7-0.6-1.2-1-1.5c-0.5-0.9-0.9-1.8-1.4-2.7
	c-2.6,1.5-5.2,3-7.7,4.5c0.7,3.1,1.4,6.2,1.9,8.2C461.6,619.7,465.1,618.7,469.1,617.6z"/>
<path class="st0" d="M254.4,531.8c-1.2,0.4-2.3,0.8-3.5,1.2l0,0c-0.1-1.8-0.2-3.6-0.3-5.5c-0.8,0.2-1.5,0.4-2.3,0.6
	c0.9,1.6,1.7,3.2,2.6,4.8c-0.7,0.5-1.4,1.1-2.1,1.6c0.2,0.3,0.5,0.6,0.7,0.9c1.8-0.9,3.6-1.8,5.5-2.6
	C254.7,532.6,254.5,532.2,254.4,531.8z"/>
<path class="st0" d="M526.3,981.9c0.9,1.3,1.8,2.6,2.7,3.9c0.7-0.5,1.5-1,2.2-1.6c-1.2-1.1-2.3-2.2-3.5-3.2
	C527.2,981.3,526.7,981.6,526.3,981.9z"/>
<path class="st0" d="M699.6,384.7c0,0,0.1-0.3,0.1-0.3C699.7,384.5,699.7,384.6,699.6,384.7z"/>
<path class="st0" d="M699.6,384.7c0.1,0,0.1-0.1,0.2-0.1c0-0.1,0-0.1-0.1-0.2C699.8,384.4,699.6,384.7,699.6,384.7z"/>
<path class="st0" d="M1490,597.3c-1.1,0.2-2.1,0.5-3.2,0.7c0,0-0.1,0.2-0.1,0.2c1,0.1,2.1,0.1,3.1,0.2
	C1489.8,598.1,1489.9,597.7,1490,597.3z"/>
<path class="st0" d="M1511.8,589.6c0.4,0,0.7,0,1.1,0c0.1-0.2,0.2-0.4,0.3-0.6c-0.4,0-0.7,0-1.1,0.1
	C1512,589.1,1511.9,589.4,1511.8,589.6z"/>
<path class="st0" d="M572.8,904.9c0.3-0.2,0.5-0.5,0.8-0.7c-0.2,0-0.5-0.2-0.6-0.1c-0.3,0.2-0.5,0.5-0.8,0.7
	C572.5,904.8,572.7,905,572.8,904.9z"/>
</svg>
