<svg id="레이어_1" data-name="레이어 1" xmlns="http://www.w3.org/2000/svg" viewBox="0 0 1920 1080"><defs><style>.cls-1{fill:#bfbfbf;}</style></defs><path class="cls-1" d="M842.8,605.62c-.32-8.86,3-13.16,11.05-13.13-.42-2-.81-3.85-1.19-5.69-.34-.06-.69-.15-1-.24.35.09.7.18,1,.24-1.66-1.78-3-4.4-5.07-5.17-3.19-1.19-6.84-1.37-10.32-1.54-4.21-.2-5.77-2-4.65-5.74l17.78-.71c.25-1.36.51-2.8.77-4.24,2.19-1.49,4.22-3.89,6.59-4.3,6.72-1.16,12.87-8.07,10.77-14.43-1.62-4.89.32-7.92,2.6-11.37l6.88-1.19-.53,5c-.31.35-.62.71-.92,1.07,4.11,2.53,8.08,5.37,12.4,7.5,2.83,1.39,6.17,1.76,9.29,2.59l5.87.21-5.87-.21c-1.09,4.74,1.87,5.75,5.59,6.07,3.91,7.4,4,7.42,11.35,3.18a8.36,8.36,0,0,1,3.23-1.18,7.09,7.09,0,0,0,6.64-5.71l6.58-4.83h0l2.54-5.37a44.58,44.58,0,0,0-4.86-1.49,22.29,22.29,0,0,0-4-.09l-.39,1.38.39-1.38c-3.08-1.56-6-3.66-9.28-4.51a7,7,0,0,1-5.59-5.42l-5.89-8.43c5.09-8.33,3.9-11.51-4.63-12.41l-16.6,4.12a39.07,39.07,0,0,0-6.17,1.27,67.57,67.57,0,0,0-6.23,2.77c-.48-1.3-1.62-2.79-1.33-3.88,1.33-5-.82-8.78-3.53-12.47-4.66-6.35-4.7-8.36-.07-14.55-5.23-.49-7.86-3.38-9.53-7.17,1.67,3.79,4.3,6.68,9.53,7.17a35.82,35.82,0,0,1,5.59,1.45c4.07,1.75,5.95.87,6.5-3.51.36-2.79.48-5.62.7-8.42l12.41,1.24c4.3,7,10.62,11,18.55,12.6,2.07,3.17,5.12,3.24,8,1.83,1.66-.83,2.71-2.87,4-4.36l-1-1.23-9.41.39c-2.19-4.63-6.41-8.58-4.76-14.47.23-1,.46-2,.7-2.95,1-.23,2-.78,2.88-.64,6,.94,10-.84,12.84-6.66,2.31-4.77,6.17-5.08,11.37-2.2-1.9,5.49-.7,8.84,4.78,10.17l-3.78-10.42c1.43-5.57.41-7.09-4.7-9-2-.75-3.47-2.77-5.19-4.21,1.11-5.16,5.44-3.43,8.85-3.68-3.61-7-15.7-7.06-23.57-.39l-9.28.33h0c-1.59-.22-3.45-1.09-4.74-.56-7.7,3.16-15,3-22-1.76h0l-.39-4.64h0c1.94-.72,3.93-2.13,5.82-2,4,.25,4.38-1.65,3.4-4.54-4-11.91-2.62-25.52-11.3-35.95-.06-4-1.67-6.69-6-7l-9.81-3.12c-.41,2.76-.64,4.27-.87,5.78l-1.09.58c-2.14-4.6-2.65-10.68-9.07-11.39l-4.44-10c.73-5.25,2.64-10.25,0-15.85-1.21-2.6.35-6.53.75-9.84.23-1.86.67-3.7,1-5.54,2.22-2.74,2.67-2.63,5.76,1.53.45,1.86.66,5.23,1.36,5.33,5.26.77,10.6.9,15.92,1.23h0c5.21.45,8.49,3.16,10.17,8.16,1.2,3.58,4,4.71,7.6,3.76,5.15-1.37,10.35-2.61,15.36-4.37,4.78-1.68,9-4.35,11-9.42,5-.86,8.84,1.13,12.08,4.72-.48,1.38-1.72,3.07-1.31,4.09,2.46,6.07-.57,11.12-2.57,16.39-.73,1.93-1.53,3.84-2.3,5.76l1,.9,12.92-7.28c1.81,0,3.86-.48,5.39.19,6,2.61,9.76.13,12.83-4.71l1.87-.85,1,.64,0-1.17,7.44-3.07c0-.32-.09-.64-.14-1,0,.32.09.64.14,1,2.81-2,6.31-3.43,8.24-6A25.6,25.6,0,0,0,971,346.32c.73-4.43.1-9.09.06-13.65h0c.27-1.91.15-4,.91-5.71,1.36-3.09,3.25-5.94,4.92-8.9l-5-.7,5,.7c1.22-3.86-.92-6.23-3.69-8.32.28-.92.56-1.85.83-2.77,1.75-1.28,3.44-2.67,5.26-3.83,2.31-1.46,4.16-1.36,5.83,1.34,1.26,2,3.35,3.54,5.07,5.28l6.27-6.21a10.64,10.64,0,0,1-7.77-1.8,10.66,10.66,0,0,0,7.78,1.8q-.23-4.46-.44-8.93c1-2.25,1.81-4.69,3.2-6.71,2-2.86,4.63-5.25,6.52-8.15,1-1.52,1.8-4.09,1.15-5.45-.57-1.2-3.26-1.44-5.06-2-2.61-.78-5.26-1.46-7.9-2.19l.93-16.5.78-21.38c.64-4.25.59-8.76,2.09-12.68,2.79-7.28,3-14.63,2.56-22.16q1.63-7.35,3.28-14.72l-5.48-1.58,5.48,1.58c1.08-5,2.64-10-1.39-14.43-3.52-4.67-6.91-9.42-10.61-13.94-1.52-1.86-3.67-3.2-5.54-4.78l-11-5.27c-1.85-1.39-3.6-2.93-5.55-4.15-5.49-3.41-13.56-3.16-15.74-11.22-1.78-3.37-3.44-6.81-5.42-10.07-.7-1.15-2.19-1.84-3.32-2.74a4.12,4.12,0,0,1-.69.27c-5.47-6.92-8.76-4.1-14.1,2.19a8.57,8.57,0,0,1-5.5,2.8c-5.73.24-11,.15-16.5-3.72s-12.69-4.76-19.15-7h0c-3.06-1.68-5.56-1-7.26,2-1.56,2.7-2.71,5.66-4.31,8.35-.81,1.37-2.29,3.46-3.34,3.39-8.6-.55-13.24,6.35-19.54,10-1.08.63-1.44,2.5-2.13,3.81-2.73,1.54-5.39,3.22-8.19,4.62-8.37,4.2-17.64,7.27-20.91,17.53-3.14,3-6.22.93-9.18-.26-7.66-3.09-12.93-1-16.4,6.63-1.79,2.72-3.87,4.25-7.51,3.35-9.28-2.29-17.5,1.46-25.66,5.14l-11.09,7.2h0c-4.53,1.56-9.23,2.77-13.52,4.82-2.63,1.26-4.64,3.83-6.93,5.8L726.35,200c-3.54,0-6.66.73-7.81,4.71.05.24.11.47.16.71-5.38.8-7.65,4.37-8.32,9.36L707,216.9l-5.23,4.64c-2.78,2.48-4.87,4.57-3.36,9.3a13.19,13.19,0,0,1-3.52,13.46c-2.5,2.49-2.5,5.31-.28,8.08-.08,2-.86,4.34-.08,5.91a17,17,0,0,0,5.52,6.41c.87.57,3.43-1.5,5.25-2.29,2.35-1,4.76-1.9,7.1-3,2.12-.95,4.17-2,6.25-3.07,4.05,1.23,5.6,3.66,4.24,7.91-.47,1.47-.1,3.21-.11,4.83h0c5,7.08,4.94,7,12.79,4.73,1.82-.52,3.89-.15,5.85-.2,4.19,2.39,8.42,2.84,13,0-2,3.17-4.92,5.08-6.42,7.78-4.38,7.85-9,15.42-15.72,21.54l-3.7,3.32c-3.54-1-6.31.12-8.76,2.79a42.7,42.7,0,0,1-4.91,4l5.69,8.11-5.69-8.11L704.6,321.2c-2.73,2.67-5.67,5.16-8.11,8.07-1.37,1.63-1.92,4-2.83,6q-2.8,6.18-5.59,12.37a42.65,42.65,0,0,1-1.2,4.33c-2.47,6.35-2.43,6.16,4.26,8.88,1.81.73,3,2.9,4.53,4.41-.65,1.75-1.59,3.48-1.73,5.28,0,.42,2.69.93,4,1.62a36.33,36.33,0,0,1,4.28,2.72c2,1.37,3.84,2.84,5.76,4.27l4.17,9.26c-1.67,3.63.92,5.48,3.13,7.49l5.36-.65-5.36.65c.23,4.26,2.71,6.64,6.59,7.83,3,1.26,4.27-.24,4.79-3,.39-2.11.93-4.18,1.41-6.27l1.1-.43.24-22.21L729.2,394l6.08,2.45c3.58,2.1,5.06,5.15,5.33,9.36.16,2.59,1.89,5.07,2.92,7.6-.75,1.64-1.88,3.24-2.09,5-.12,1,1.36,3.24,1.88,3.17,4.39-.6,9-1,13-2.72,1.91-.81,2.83-4.21,4-6.56.94-1.92,1.54-4,2.29-6l1.69.35c.1,3,.21,6,.31,9-2.42,6-1.82,10.94,4.49,14.24,1.22.64,2,2.12,3,3.12q7.49,7,15,14.05c3.69,3.29,7.84,3.75,12.34,2,4.21.73,8.6,2.62,12.58,2,10-1.63,11.21-1.15,12.07,8.71,3.08-1.36,6.12-1.16,9.15-.65-3-.51-6.07-.71-9.14.65L814,466.44l-.28,2.73c.09-.91.18-1.82.28-2.73l-3.66,1.32c-6.68,1.68-10.49,6.3-12.78,12.48L795,484c-1.17,2-2.3,3.92-3.5,5.84-2.07,3.34-4.3,6.6-6.25,10-2.15,3.77-4.07,7.69-6.09,11.54l-6.45,7.15h0a51.13,51.13,0,0,1-1.57,5.06c-.79,1.88-1.85,3.64-2.8,5.46l5.2,5.24-5.2-5.24c-5.89.52-11.68,1.31-15.65,5.66,2.92,2.4,6.35,3.92,7.46,6.46,1.18,2.73.17,6.42.11,10.73,1.16-2,1.87-3.53,2.84-4.87,1.12-1.53,2.69-4.23,3.65-4.06,2,.35,4,2,5.47,3.59,1.34,1.41,1.72,3.81,3.14,5.06,2,1.72,4.52,2.77,6.82,4.1l4.21,1.62c-.43,7.15-.75,14.31-1.36,21.45a44.29,44.29,0,0,1-1.84,10.06c-1.74,5.24-5.44,10-3.54,16l-.82.46c-2.9-2.42-5.8-2.19-7.35,1.15-.72,1.55-.25,5.06.9,5.81,3.16,2.08,7,3.16,10.51,4.63,4.26,1.9,8.37,1.17,9.05-2.33,1.06-5.56,4.55-5.75,8.81-5.29,3.19,3.59,6.38,7.18,9.7,10.9l11.33-10c3.91.88,7.87,1.64,11.75,2.66C841.82,615.07,843.12,614.1,842.8,605.62Zm31.46-280.73q0,.48.09.93-.06-.45-.09-.93ZM728.8,231l5.38-.71c0-.49,0-1,.08-1.49,0,.5-.07,1-.08,1.49Zm42.44,26.54-1,.59,1-.59,9.91.67Zm155.45-40.83c-.25-.86-.5-1.71-.76-2.57.26.86.51,1.71.76,2.57l-4.39,2.47ZM763.6,387.23l3.74,2.52h0Z"/><path class="cls-1" d="M1146.21,299.33c-2.19-3.78-1.32-5.42,2.38-7.21,2.93-1.43,3.76-4.1.78-6.72-2.41-6.39-8.27-9.34-16.11-8.08-6-1.77-11.13-4.72-14.25-10.42-1.54-2.48-2.94-5.07-4.66-7.43a51.75,51.75,0,0,0-4.47-4.8h0l-2.07-8.11h0a65.6,65.6,0,0,0,1.57-7.77c.32-3.81.9-7.33,4.56-9.48,9,.48,14.83-4.21,19.45-11.35l-6.6-3c-.45-2.69-1.87-5.66-1.18-8,2.57-8.83,2.11-9.66-6.94-8.54-.66.08-1.33.12-2,.18l-5.07-2.85-15.06-4.2c-4.4-2.34-8.51-2.78-13.12.15a9.92,9.92,0,0,1-8,.76c-6.56-2.8-11.13-1-14.89,4.51a23.8,23.8,0,0,1-2.36,2.58h0c-2.7,3.24-5.71,6.28-8,9.79-2,3.11-3.28,6.75-4.87,10.15-4.78,3.15-8.74,13.21-7.55,19.17-1.38,2.83-3.71,5.59-3.94,8.51-.52,6.64,0,13.36.08,20.06-.16.52-.32,1-.47,1.57a29.7,29.7,0,0,0-.6,18.63c.39,1.27,1.83,2.22,2.79,3.32,2.88,8.57,8.19,15.52,14.57,21.75h0c3.06,7.31,9.24,11.49,15.6,15.49,3.48,1.8,6.81,4.46,10.49,5.1,2.55.45,6.26-1.2,8.25-3.15,3.76-3.7,6.65-8.28,9.9-12.49-.75-1.43-1.51-2.85-2.26-4.27.75,1.42,1.51,2.84,2.26,4.27l6.1-7.78q3.59-3.81,7.19-7.61c-4.13-1.74-4.41-5.61-5.39-9.08,1,3.47,1.26,7.34,5.39,9.08l7.66-.83a51.4,51.4,0,0,0,6.21-.08c2.28-.29,4.49-1.11,6.76-1.46,3-.47,5.13.07,5.17,4,0,1.19,2.3,3.11,3.76,3.33,2,.31,4.18-.69,6.28-1.13C1148.24,305.31,1147.69,301.88,1146.21,299.33Z"/><path class="cls-1" d="M1511.63,634.81c.45-.64,1.39-.92,2.07-1.41,4.26-3.1,9-4,14.24-3.85,2.2.05,5.7-1.21,6.33-2.79.79-2,.06-5.77-1.48-7.19-2.66-2.46-6.44-3.7-9.75-5.45h0c-5.41-2-10.74-4.52-16.68-1.84-3.16,1.43-6.38,2.69-9.57,4l-11.24-5.21q-2-4.58-3.92-9.17c-3.15-7.34-5.43-15.56-15.79-15.61l-11-3.09h0c-2.79-1.3-5.53-2.73-8.4-3.85a58.32,58.32,0,0,0-6.35-1.76c-2.91-3.3-4.56-8.2-10.21-8l-5.87-3.87c.23,1.83.38,3,.66,5.27l-2.75-2.68c-1.93-2.35-3.45-6-5.87-6.76-4.63-1.41-4.38-3.51-2.79-6.81-.29-1.83-.59-3.66-.88-5.49l.05-.17c-1.86-.94-3.64-2.46-5.58-2.71-4.64-.6-7.43-3.13-9.21-7.17.09-1.33.24-2.67.26-4,.08-3.47,1.58-4.78,4.78-3,3.83,2.17,6.7.92,9.21-2.19,5.57-2.26,9.51.41,13.09,4.29a38.84,38.84,0,0,0,3,2.62c.71-2.92,2.32-4.44,4.73-5-2.41.53-4,2-4.73,5,.35.6.69,1.2,1,1.79l-1.81,1.29.33.58,2-.89c7.12-7,15.1-7.41,23.69-3.06,1.47.75,3,1.46,4.46,2.19,1.3,1.48,2.6,3,3.91,4.45,4.9,5.55,7,5.17,10-1.79.06-1,.5-2.2.1-2.95-1.88-3.5-4-6.87-6-10.29a12.07,12.07,0,0,1,.08-3.46c1.67-5.11-.84-7.15-5.45-7.74-3.64-.46-7.29-.85-11-1.28-10.41-3.88-15.67-13-21.61-21.38h0c-1.11-.6-2.17-1.54-3.34-1.72-3.08-.46-4.7-2-4.91-5.12l4.61-8.36c-8.08-1.55-10.92,4.17-15,7.5-2.78,2.28-3.92,5.41-2.37,9l6.54,3.32-6.54-3.32c-.41,1.73-.8,3.46-1.22,5.19-1.28,5.25-1.63,11-7.54,13.7l-4.38-1.21-2-9.43c-6.11.47-6.72,1.64-3.87,6.77.69,1.24.67,2.87,1,4.32-1.41.23-2.93.92-4.21.62a46.27,46.27,0,0,1-6.47-2.56h0c-3-1.25-4.65-3.13-4.85-6.72-.08-1.59-2.37-3.07-3.66-4.6L1352,495.43c-3.36-1.72-6.61-3.7-10.09-5.1-4.19-1.69-8.67-2.67-12.86-4.37-3.43-1.39-6.33-2.54-9.47.82-1.29,1.37-3.82,1.59-5.79,2.33h0l-6.22-1-4.76-4.31c1.27-2.86,2.37-5.7-.31-8.43-3.75,2.53-3.75,2.53-3,6.77L1296,484l-2.76-11c.67-3.38-1.07-4.37-4.14-4.65-5.56-.51-10.07,1.72-14.36,4.81-4.87,1.89-9.8,3.63-14.58,5.72s-7.51,5.52-7.25,10.94c-2.25,1.45-5,2.48-6.56,4.49-1.06,1.39-1.25,4.68-.3,6.1,1.57,2.31,4.35,2.35,6.39-.17,2.62-3.24,5.17-6.54,7.76-9.81,8.45-4.83,9.33-4.64,11.83,2.53l-9.44,11.53,1,1.49,12.5-3.92,17.62.65h0l7.84,1.45,4.79,8.5c.94-1.9,1.56-3.16,2.19-4.41l7.44-.61c1.49,0,3.19.54,4.43,0,7.07-3.08,13.37-1.4,19.41,2.63.85,1.4,1.45,3.09,2.61,4.15,3.69,3.35,4.31,7.7,4.38,12.24,0,3.58-.7,6.62-5.26,7-.83.06-1.54,1.59-2.3,2.44h0c.59,1.26,1.07,3.55,1.79,3.63,6.5.7,13,1,19.56,1.44,4.62,2.12,6,9.06,12.6,8.41.26,0,.8,1.91,1.07,3,.31,1.26.46,2.56.69,3.85-1.93,5-5.22,5.68-9.59,3.07a4.26,4.26,0,0,0-1.46-.26l-1.67,3.45c10.43-.07,15.78,6,14.17,16.3-.47,3-.24,5.59,2.88,6.53s6.3,5.62,10.15,1l.3-5.93-.3,5.93c9.31,3.3,11.44,1.84,11.21-7.66a8.24,8.24,0,0,1,.07-1l7.68-.88c6.73,1.54,5.74,7.25,6.37,12s-1.74,7.09-6.62,6.83c-5.3-.28-10.61-.3-15.92-.44-3.34,1.16-8.22,1.35-9.67,3.68-2.62,4.2-3.53,9.62-4.35,14.67-.21,1.3,2.55,3.1,3.94,4.66,1.31-1.41,3.91-3,3.71-4.2-1.25-7.36.47-13.11,7.25-16.87l41.42,5.45.63-7.27-.63,7.27,4.26,1.18c7.37-1.08,14.75-2.82,22.09.22h0l9.18,4,.56.88c.45,1.39.54,3.08,1.41,4.09,4.65,5.36,9.5,10.54,14.28,15.79,3.5,5.14,5.71,10.12.57,15.83-4.41,4.92-3.93,7.43,2,10.9,3.21,1.87,4.38,4,4.45,7.64.07,3.95,1.59,7.14,6.88,6.84a17.35,17.35,0,0,0-.18-4.11C1495.92,652.68,1505.1,644.23,1511.63,634.81ZM1376.94,514.24c.19-.22.41-.43.62-.63C1377.35,513.81,1377.13,514,1376.94,514.24Z"/><path class="cls-1" d="M1053.15,480.19h0l1.15-1.62a24,24,0,0,0-7,3.16,9.61,9.61,0,0,0,.58,1.43c-1.61,2-3.23,4-4.84,5.95-2.12-.32-4.32-1.2-6.34-.88-10.16,1.61-11.43,1.18-16.84-7.16-.63-4.21-1.62-8.41-1.81-12.64-.28-6.54,0-13.11,0-19.66-3.93,3.09-8.53,3.92-13.18,4.6,4.65-.68,9.25-1.51,13.18-4.6l1-2,10.19-7.27-.78-2c-2.07.25-4.15.42-6.21.75-3.06.49-6.11,1.09-9.17,1.64-6.4-4.23-8.73-4.09-13.11.78-.77.85-1.61,1.63-2.42,2.45-2-.32-4.53,0-5.94-1.08-4.24-3.27-7.25-1.86-10.13,1.65-5.28-1.34-10.46-2-15.08,1.9h0c-.82.05-1.65.08-2.46.17-6.42.68-7.51,3.15-4.27,8.7,1.1,1.9,1.31,4.31,1.93,6.48.07,4.9,2.77,5.29,6.81,4.4a8.15,8.15,0,0,1,5.53,1.12c.52.32-.38,3.12-.78,4.74a26.77,26.77,0,0,1-1.25,3.29c-.9,2.27-1.34,4.35,2,4.8a27.1,27.1,0,0,0,2.85,3.82c8.87,8.43,14.35,17.48,6.3,26.85-1.63,2-2.94,3.78.33,5.62,6.53,3.69,6.5,5.81.64,10.24-1.41,1.07-2.94,3.73-2.5,5,.48,1.43,3,2.42,4.88,3.05,3.66,1.25,7.72,1.58,11.14,3.26,9.6,4.71,14.37,3.29,18.2-6.15.51-1.41.93-2.87,1.55-4.24,2.85-6.34,4.46-14,13.84-13.7h0c2.11-.11,4.48.36,6.26-.45,6-2.71,12.1-2.52,18.48-2.22,3.78.18,7.66-1.77,11.49-2.77,6.84-1.85,10.11-5.42,10.75-11.73.11-.5.22-1,.32-1.49-.74-.32-1.6-1.06-2.21-.89-4.71,1.33-7-1-9.39-4.81-1.14-1.85-4.2-2.52-6.4-3.73.7,1.12,1.38,2.24,2.1,3.33-.72-1.09-1.4-2.21-2.1-3.33Z"/><path class="cls-1" d="M816.34,859.47c.11-.38-.77-1-1.17-1.54-4.46-5.82-11.32-4.47-17.29-5.45-1.36-.22-4.64,2.5-4.52,3.59.46,4.1.79,9.1,3.27,11.93,8.29,9.48,17.47,2.25,26.49,0C819.42,866,814.69,865.35,816.34,859.47Z"/><path class="cls-1" d="M1376.47,220.42l-5.88,10h0l5.88-10-3.76,2.94-13.25,6.31-9.7,8.75,16,3.86-4.58,8.35c6.77,1.62,10.84-.8,14-5.34a23.48,23.48,0,0,0,16.63-9.63q4.31-5.78,8.62-11.56c4.74-.4,9.49-1.11,14.23-1.08,2.66,0,5.28,1.43,8,1.93,3,.57,6.23,1.72,9,1,7.37-1.87,10.74-8.59,14.73-14.23,1-1.46,1-4.74,0-6.28s-3.73-2.74-5.76-2.85c-2.38-.12-4.84,1.07-7.25,1.75-3.34.95-6.66,2-10,2.92-7.5,2.07-15.72,2.41-21.37,8.9L1391.32,214c-4.85-.39-9.21.45-12.18,4.82Z"/><path class="cls-1" d="M847.87,898.85c.1-1.7-2.07-4.68-3.72-5.13-5.95-1.59-10.68-5-15.3-8.69l-9.33-3.1c-2,3.35-4.5,7.33-6.72,11.48a53.1,53.1,0,0,0-4,9.38c-.35,1.11.47,3.11,1.42,4,2.06,1.92,4.85,3.09,6.8,5.1,5,5.09,13.81,5.81,19.37,1.23,1.9-.39,4-.35,5.65-1.25C847.06,909.07,847.6,903.76,847.87,898.85Z"/><path class="cls-1" d="M715.62,791.36a23.26,23.26,0,0,1-3.79-6.45c-.61-1.38-.5-3.06-.74-4.81-6.38,2.21-1.82,7.34-3.74,10.73-4.35-1.33-4.43-5-4.41-8.06s1-6.47,1.73-10.7l-15.24,3.28c6.8,9,12.51,16.93,18.62,24.53,2.15,2.67,6.39,1.18,9.56-2.93C719.83,794.08,717.18,793.08,715.62,791.36Z"/><path class="cls-1" d="M1361,184.37c.62-.2,1.28-.31,1.93-.46,7.72,7.65,7.82,7.63,12-2.2l.21-.45c2.15-1,4.35-2,6.45-3.14a31.54,31.54,0,0,0,3.33-2.37,27.87,27.87,0,0,0-3.48-2.6,9.26,9.26,0,0,0-2.89-.47c-1.71-1.05-3.76-1.79-5.07-3.2-3.08-3.32-6.45-3.68-10.48-2.19-4.24,1.56-8.58,2.88-12.88,4.3.67,2.63,1.33,5.27,2,7.91C1353,185,1356.32,185.87,1361,184.37Z"/><path class="cls-1" d="M602.42,422.73a6.27,6.27,0,0,0,.46,1.43c1.58,3.87,4.13,6.69,8.62,6.3s6.43-3.63,7-7.87c.62-4.65,0-10.29,7.86-9.5-1.47-5.74-2.26-6.13-6.4-4.5a9.87,9.87,0,0,1-4.27.41C612.33,408.72,601.88,419.39,602.42,422.73Z"/><path class="cls-1" d="M1127.87,356.53c10.3-1.89,13.05-4.34,13.93-12.44h0c.2-1.66.36-3.33.61-5,1.56-10.69-5.65-16.37-16.29-12.82L1107.82,337h0c-4.1,3.26-8.3,6.4-12.2,9.88-.82.73-.53,2.69-.75,4.08-5.64,3.15-8.57,8.35-10.67,14.17q2.63,3.76,5.27,7.52l10.67-6.18c0-.25,0-.51,0-.77,0,.26,0,.52,0,.77l7.16-4.18c3.09.29,6.5,1.56,9.18.66C1120.54,361.63,1124.1,358.76,1127.87,356.53Z"/><path class="cls-1" d="M1354.43,556.05a7.91,7.91,0,0,1-1.42.48c-5.89,1.41-8.61,5-8.52,11.06,0,3,1.56,5,4.35,3.52,4.66-2.41,8.93-5.57,13.36-8.42l1.67-3.45C1360.93,553,1360.94,553,1354.43,556.05Z"/><path class="cls-1" d="M999.08,387.4c-.11-1.45,2.12-3.2,3.47-4.64s3.19-3,4.81-4.43c-.32-1.57-.22-3.41-1-4.64-1.66-2.46-4.22-4.35-5.69-6.9C998.46,363,996,362,992,363.86c-4.15,2-4.53,4.89-2.74,8.62a31.66,31.66,0,0,0-2.06,4.48c-.44,1.56-1.18,4-.45,4.74,1.41,1.52,3.69,2.35,5.75,3,.78.27,2-.65,3.72-1.33-1.14,3.09-2,5.39-3.06,8.31C996.77,391.35,999.43,391.81,999.08,387.4Z"/><path class="cls-1" d="M858.9,817.19l2.91,11c1.35,6.14,4.6,7.34,12.52,4.63.49-.67,1-1.35,1.46-2-1-9.49-3.81-18.29-10-25.74,1.85-6.6,1-9-5.29-13.52,0,4.88-.07,9.12-.1,13.36Q859.63,811.05,858.9,817.19Z"/><path class="cls-1" d="M1102.06,690.35c0-1.67.32-3.33.5-5-2,.12-4.73-.54-6,.5-3.93,3.11-7.33,6.89-10.94,10.41.17.69.35,1.38.52,2.08,4.23,1.16,8.4,2.82,12.71,3.34,4,.48,5.15-2.28,3.61-6.18C1101.8,694,1102,692.08,1102.06,690.35Z"/><path class="cls-1" d="M730.41,602.37a12.64,12.64,0,0,1-5.23-9.68c1.67-2.43,2.81-6.08,5.09-7.05,6.11-2.61,11.1-8.87,19-6.57.66.19,1.91-1.66,2.89-2.56-1-5.44-5.83-5.78-9.78-7.28a26.93,26.93,0,0,1-4.06-2.87c-3.59-3.6-7.06-3.15-10.59,0a38,38,0,0,0-2.94,2.73c-2.46,2.63-5,3.08-7.92.7h0c-.79-2.27-1.59-4.53-2.38-6.8h0a43.54,43.54,0,0,1,.33-7c1-5-1.09-7.18-6-7.19l-4.18-1.19-4.58-2c-.81-1.67-2.7-4.33-2.23-4.83,1.76-1.92,4.27-3.14,7.43-5.24l-11.38-10.67c-2.19-.55-5.35-2.22-6.33-1.37-1.53,1.33-2.18,4.42-2,6.64.09.88,3.46,1.53,5.4,2.09a6.8,6.8,0,0,0,2.45-.25c2.57,2,3.19,4.44,2.07,7.52-.9,2.49-2,5.07-2.16,7.67-.43,7.54-1.35,15.27,3.66,22,1.52,3.67,2.19,8.18,4.77,10.81A14,14,0,0,1,706.2,592a7.68,7.68,0,0,0,2,5.75c2.84,2.43,6.35,4.09,9.58,6.07l15.16,6.42,1.19-1.59C732.93,606.52,732.2,603.77,730.41,602.37Z"/><path class="cls-1" d="M818.19,712.72c-.7-5.79-4.31-8.58-9.72-9.54-6.54-2.37-10.11,3.41-15,5.62-.16.07.2,2.56.89,3,1.36.81,3.11,1,4.7,1.37,4.56,1.74,9,3.91,13.71,5.11C817,719.33,818.73,717.18,818.19,712.72Z"/><path class="cls-1" d="M872.39,701.16c.88-.44,1.69-3.34,1.17-3.94a35.71,35.71,0,0,0-7.7-7c-1.28-.81-4-.4-5.5.45C858,692,856.12,694.17,854,696,858.72,701.47,866.8,703.88,872.39,701.16Z"/><path class="cls-1" d="M1124.76,582.86c-2.21,1.68-5.54,3-6.28,5.14-.66,1.93,1.27,5,2.66,7.23.77,1.21,2.78,1.63,4.22,2.41l2.43-1.38-2.43,1.38c.8,2.81,1.5,5.65,2.42,8.43.49,1.45,1.14,3.72,2.1,3.94,1.35.3,3.06-1,4.61-1.54h0c1.48.27,3,.56,4.45.82,7.68,1.33,10.19-.88,9.92-8.72l9.73-8.84a28.84,28.84,0,0,0,3.45.29c7.18-.27,13.2,4.79,13.19,11.83,0,4.76-1,9.52-1.57,14.29-2.22,2.72-5.13,5.23-2.92,9.34l-1.84,3.33a8.6,8.6,0,0,0-1.93.42c-7.34,3.65-14.72,7.22-22,11.08-1.88,1-4.25,2.6-2,5.48l12.34,3.54c.14,1.15.32,2.29.39,3.44.43,6.69,1.38,7.44,8.11,6.77,2.11-.21,4.26-.1,6.4-.13,0-.42.09-.84.13-1.26.09-.83.18-1.67.25-2.5s.13-1.65.15-2.47c0,.82-.07,1.64-.15,2.47s-.16,1.67-.25,2.5c0,.42-.09.84-.13,1.26q2.64,3.62,5.27,7.25l3.22-.45-3.22.45a3.8,3.8,0,0,1-.59.47c-.17.6-.33,1.21-.5,1.81.45,8.11.45,8.11,9,8.23.84,0,1.68-.09,2.51-.14l10.74,1.94c.15-.54.29-1.08.43-1.63l-4.77-3.73q1.56-6.06,3.11-12.11c-.16-.18-.31-.36-.46-.55.15.19.3.37.47.55l2.37-2.53c3.26-2.12,7.31-3.64,9.54-6.56,2-2.6,3.61-2.81,6.14-2.34,7.83,2.49,13.3,1.13,14-3.08l-8.65-5.7-7.38,3,7.38-3q-4.62-6.09-9.26-12.16c-1-.79-2-2.13-3.09-2.27-4-.52-5.43-2.88-5-6.52.49-4.36,1.23-8.7,1.86-13.05,2.55-4.58,6.15-6.47,11.58-5.57,1.56.26,3.53-2,5.32-3.06l1.88-.87,9.69,10.65c.28,2.28.25,4.66,1,6.78.33,1,2.21,1.37,3.39,2,.58-1.24,2-2.85,1.6-3.64-1-2.22-2.81-4.1-4.28-6.12q-3.21-6.82-6.4-13.66c.27-5,1.42-10.07-3.05-14.13-.66-.6-.14-2.47-.17-3.75,8.3,2.13,7-6.64,11.54-9.64.49,1.92.94,4,.19,5.56-1.73,3.51,0,4,2.91,4.19.7-2.8,1.15-5.43,2-7.92,1.15-3.27,0-5-3.09-6s-6.23-2.43-9.27-3.8c-5.41-2.42-10.27-5.24-9-12.56a3.27,3.27,0,0,0-1.37-2.76c-.87-.38-3-.05-3.15.47a21.78,21.78,0,0,0-.92,5.72c-.13,1.79.34,3.68-.09,5.36a86.69,86.69,0,0,1-3,8.32h0q-4.12,5.73-8.26,11.44a10.31,10.31,0,0,0,.72,12.1c3.54-1.34,5.94-.46,7.65,1.63-1.71-2.09-4.11-3-7.65-1.63-1.44,6.27-6.12,10.18-10.45,14.33l-12.79,0c-1.76-3.48-3.64-6.91-5.26-10.46s-2.7-7.49-4.59-10.93c-2.24-4.07-6.14-5.06-10.27-3-2.82,1.41-5.49,3.13-8.24,4.72h0c-3.08-1-6.11-2.46-9.27-2.85-3.51-.43-7.14.12-10.72.24l8.58,11.19-8.58-11.19Zm45.8,68.75a16.69,16.69,0,0,1,.22,2.36A16.69,16.69,0,0,0,1170.56,651.61Zm22.67,8.37h0c.22.45.44.91.69,1.35C1193.67,660.89,1193.45,660.43,1193.23,660Zm1.6,2.77a12.05,12.05,0,0,1-.9-1.41A12.05,12.05,0,0,0,1194.83,662.75Z"/><path class="cls-1" d="M751.42,930.75c.05-.33-1.13-.86-2.81-2.07,1.28,6-.37,10.76-4.92,11.94-2.34.61-5.8-3.13-9.93-5.61,2.14,4.46,3.67,9.19,6.55,12.86,1.13,1.43,7.57,1.11,7.74.49A146.31,146.31,0,0,0,751.42,930.75Z"/><path class="cls-1" d="M760.82,793c-2.69,3.32-4.88,6.4-7.45,9.13-5.82,6.19-3.24,7.25,3.74,9.72.88.3,3-.92,3.5-1.94C763.13,804.66,764,799.21,760.82,793Z"/><path class="cls-1" d="M1220.32,387.16c7.14,5.41,15.5-3.57,20-13.83C1234.21,374.14,1223.23,381.71,1220.32,387.16Z"/><path class="cls-1" d="M1595.73,574c4,1.93,4.14,5.22,3.79,8.84-.18.55-.37,1.09-.56,1.64h0l-5.66,5.35.79,1.5,8.21,1.33c4,3.13,7.2,2.76,9.65-1.91a16.26,16.26,0,0,1,1.81-2.36L1612,585l1.78,3.41c1.43-.84,3.1-1.44,4.26-2.56,5.6-5.36,12.27-7,19.77-6.15l-6.49-5.58,6.49,5.58,4.79,2.06,12.31,13.95c1-1.47,2.18-3.35,3.41-5.22,2.08-3.16,1.48-5-2.32-6.28-3.26-1.13-6.18-3.23-9.26-4.9l-.42-3.18a18.71,18.71,0,0,1,.9-1.79c2.48-3.8,1.81-5.69-3-6.81-2.86-.67-5.49-3-7.82-5s-3.65-1.69-6,.12a15.41,15.41,0,0,1-7.39,2.57c-2.4.29-4.92-.46-7.39-.75l-5.1,1.91h0a97.32,97.32,0,0,0-10,1.23,16.45,16.45,0,0,0-5.87,2.86C1594.33,570.7,1594.94,573.6,1595.73,574Z"/><path class="cls-1" d="M1288.21,427.13c-1.27,5.78,2.33,13,7.68,14.87,1.45.51,3.22.13,4.84.16,0-1.51-.07-3,.08-4.53.22-2.25.61-4.48.93-6.72,5.33-4.1,6.37-10.22,8.54-15.81l-1.14-1.58L1298,415.89C1290.25,416.32,1287.92,419,1288.21,427.13Z"/><path class="cls-1" d="M1241.46,601.67c-.81,1.3.31,4.21,1.28,6,.36.67,3.32.88,4.13.18a37.66,37.66,0,0,0,5.85-6.73c1.81-2.53,1.56-4.08-2.15-4.54-2.19-.28-4.23-1.87-6.27-3a23.2,23.2,0,0,1-2.76-2.14l-1.32,1C1243.74,595.3,1243.68,598.11,1241.46,601.67Z"/><path class="cls-1" d="M868.4,857.07c1.73-3.77,2.05-7-2.55-8.48l-5.35,6.14c-1.64,5.39,2.33,10.75,8.29,11.18l4,4.12,1.53-1.13C872.24,865,875.83,858.86,868.4,857.07Z"/><path class="cls-1" d="M835.15,968.06c-2.43-2.8-4.59-5.4-8.23-2.42l-5.51-3.57-.49,1.44c.6,4.8,3.16,7.74,8,9,3.68,1,7.23,2.42,10.84,3.65l1.95-2.34C839.47,971.92,837,970.23,835.15,968.06Z"/><path class="cls-1" d="M650.45,470.05c-4.35-4.74-9-9.26-13.47-13.85-3.64-3.63-7.2-7.36-11-10.83-.77-.71-2.41-.47-3.64-.67l-10.85-3.09c-4-3.2-7.39-2.06-9.5,3.24-1.41,3.86-3.4,7.62-4,11.6-.38,2.48,1.3,5.29,2,7.95a61.68,61.68,0,0,0,3,6.32c1.81,3,4.09,5.71,5.83,8.74,1,1.82,1.44,4,2.55,7.24,3.75-6.25,8-7.82,13.52-6.39,1.17.3,3.47-.4,3.85-1.25a5,5,0,0,0-.66-4.35,24.47,24.47,0,0,0-6.5-6c-3-1.72-4.59-4.15-3.16-6.9,1.68-3.24,4.59-5.84,7-8.71l1.52.19c.74,4.81,1.7,9.41,7.71,9,3.73,3.71,7.37,7.5,11.26,11a3.66,3.66,0,0,0,3.53.12C650.2,472.83,650.89,470.53,650.45,470.05Z"/><path class="cls-1" d="M1181.72,423.89c7.25.91,6.42,4.88,6.25,8.82-.1,2.45.64,4.93,1,7.4-1,6.66-2,13.28-8.89,16.83.19.9.6,1.87.79,2.77a3.85,3.85,0,0,1,.1,1.05,3.85,3.85,0,0,0-.1-1.05c-.19-.9-.6-1.87-.79-2.77-6.94.74-9.5,6.74-13.37,11.17l-8.17,3.64c-3.07,1.39-3.31,3.3-.49,5,4.86,3,9.91,5.71,14.88,8.55,3.24,3.2,6.58,6.32,6,11.54,0,.42.81.94,1.25,1.42-1.34,2.56,0,3.37,2.31,3.48,4.47.2,11.24-4.86,12.8-9.52-1.33-5.86.06-10.25,6-13,2.46-1.16,4.33-3.59,6.47-5.45,4.18-2.68,8.57-5.1,12.49-8.13,3.07-2.37,5.57-5.5,8.32-8.29,4.82-.55,5.33-1.93,2.92-7.78l-2.48-1.7c.23-.46.45-.92.67-1.38l6.63,3c1.48.27,3.26,1.21,4.4.71,3.47-1.51,6.69-3.57,10-5.42l5.94-8.6c5.67,6.19,13.11,6.39,20.88,4.44,1.4-.34,3.51-1.91,3.52-2.93a126.06,126.06,0,0,0-1-12.69c.45-3.07.59-6.23,1.44-9.18.67-2.28,1.71-5.21,3.51-6.26,4.11-2.4,8.79-3.83,13.24-5.65a18.88,18.88,0,0,0,4.37-.59,14.05,14.05,0,0,0,3.21-2.32c-.86-.85-1.59-2.19-2.6-2.45-2.83-.75-5.77-1.05-8.67-1.53l-17.15-5.42h0c-5-1-7,2.57-9.41,5.82a29.27,29.27,0,0,1-6.07,6.25,114.65,114.65,0,0,1-10.22,5.92h0l-5.64,4.32a36.3,36.3,0,0,0-2.57,5.29c-3,10-12.28,16.66-23.28,16.5a7.74,7.74,0,0,0-.51,1.52,7.74,7.74,0,0,1,.51-1.52l-5.18-2.22h0c-5.64-3.13-7.27-8.74-8.92-14.35,1.55-2.35,3.16-4.66,4.63-7.06s.86-3.91-2-3.88c-1.62,0-3.53,0-4.81.86-5.69,3.6-11.2,7.49-16.77,11.27Zm37.93,14.22h0c0-.14,0-.28,0-.44C1219.65,437.83,1219.65,438,1219.65,438.11Z"/><path class="cls-1" d="M759.68,765.63c.35.82,1.82,1.15,2.77,1.71,4.35,1.47,7.63.11,8.51-3.52-1.8-8.48-8.54-11.78-14.4-7C757.57,759.74,758.43,762.77,759.68,765.63Z"/><path class="cls-1" d="M835.46,793.69c-3.7,1-7.14,2.35-11.25.51-2.81-1.25-3.8,1.53-3.81,4.13-.32.68-1.09,1.77-.9,2a105,105,0,0,0,8.06,7.87c.43.37,2.39-.33,3-1.07.92-1.08,1.27-2.64,1.86-4,6-1,4.29-5.45,4.06-9.22Z"/><path class="cls-1" d="M1018.34,221.44c.31,1.82,3.46,3.48,5.68,4.48,1.08.48,4.23-1,4.2-1.12a72.13,72.13,0,0,0-2.57-9.59c-.21-.63-1.44-1-2.28-1.28-.32-.1-.85.43-1.28.68l-.85-.36C1020.16,216.66,1018,219.28,1018.34,221.44Z"/><path class="cls-1" d="M776.49,841.34l6.9,12.25,10.3-4.64-.1-2.1Z"/><path class="cls-1" d="M1058.86,357.56c3.66-3.48,8.8-6.59,6.83-13.12-2.67-4.46-19.16-14.3-26.11-15.58-4-7.07-13.12-4.92-18.52-10,.36,1.63.79,3.48,1.93,4.22,4.6,3,7.19,7.26,8.92,12.3.4,1.16,1.69,2,2.58,3,1.18,3.23,2.29,6.49,3.58,9.68a5,5,0,0,0,2,2.58c4.19,2,8.48,3.77,12.74,5.62C1054.87,356.79,1058,358.38,1058.86,357.56Z"/><path class="cls-1" d="M686.83,610.79c3.64-2.51,10.2-2.28,8.84-9.46.37-4.58.6-9.18,1.17-13.73.45-3.67-1.07-5.64-4.5-6.42-1-1.08-2.08-2.14-3.09-3.23q-6.18-6.71-12.35-13.43c-1.21-.1-2.43-.22-3.64-.3l-9.4-.58c2.36-2.44,4.43-5.27,7.13-7.24,3.52-2.57,3.14-4.56.1-6.94-2.32-1.81-4.6-3.68-6.89-5.52h0c-2.12-1.68-4.19-4.71-6.37-4.79-6-.22-5.76.3-5.08-5.8,1-8.35-1.31-11.89-7.13-12.57a9.91,9.91,0,0,1-.63,1.72,9.91,9.91,0,0,0,.63-1.72l-16-3.68c-1.43,1.89-4.32,5.18-4.06,5.45,2.44,2.54,4.62,6.37,9.28,4.4l.89.62a59.71,59.71,0,0,0,6.19,2.88c5.1,1.74,5.84,4,2.53,8.39-.6.8-1.34,1.48-1.92,2.29-3.3,4.58-4.07,11.4-1.67,14.56,2.68,1.14,5.39,2.21,8,3.42,2.09,1,4.11,2.08,6.59,3.34-5.65,4.52-18.09,5.08-23.54.86A15.61,15.61,0,0,0,619,560l-4.6-2.11c.68-2.24,1.06-4.65,2.14-6.69,1-1.8,2.69-3.19,4.08-4.76,4.93-.16,7.66-4.66,6.61-11.45l-5.78.46c-2.35.4-5.28,0-7,1.33-7.46,5.73-9,12-5.94,21l-3.32,4.32c-5,5.44-4.91,5.4-.59,12,.73,1.11,1.33,3,.86,4s-2.35,1.26-3.63,1.79c-1.69.69-3.41,1.32-5.11,2-6.35,4.14-12.63,8.38-19.07,12.36-2.79,1.71-5.7,2.18-8.73-.33-1.27-1-3.63-.76-5.49-1.08l-3.91,13.48q1.95-6.74,3.91-13.49c-2.7,2.87-5.8,5.47-8,8.7-1.66,2.47-2.13,5.72-3.12,8.63l5.41-2.85-5.41,2.85q-1,6.43-2,12.87h0l-6.54,2.81h0c-2.79,1.42-2.79,3.75-1.2,5.75,2.6,3.3,5.64,6.25,8.49,9.35-.88,4.21,6.89,16.6,11.1,17.12,1.24.16,2.9-1.26,4-2.33a22,22,0,0,0,2.65-4c5.39-.52,10.78-1.18,16.19-1.51,4.91-.29,5.94-2.93,5.63-7.34s.08-9.09.17-13.63q1.95-5.68,3.89-11.37l.38.49,1,.85.13-1.17,1-.27c6,3.57,12,6.16,18.94,1.92a13.15,13.15,0,0,1,7.59-1.35c3.07.29,4.39-.78,4.78-3.53.28-1.94.44-3.91.65-5.86,1.67-3,3.81-4.87,7.48-3.25h0c6.64,2.47,13.24,5.1,20,7.27,1.26.4,4.26-.78,4.5-1.72,1-4.05,4-4.58,7.19-5,6.57,1.23,11.76,3.81,12.41,11.56.1,1.15,1.92,2.15,2.94,3.23a27.27,27.27,0,0,0,1.86-4.05C686.2,614.91,686.45,612.83,686.83,610.79ZM643.65,524.5a7.65,7.65,0,0,0,.94-1.26A7.65,7.65,0,0,1,643.65,524.5Zm-2.43,1.76a8.74,8.74,0,0,0,1.29-.76A8.74,8.74,0,0,1,641.22,526.26ZM554,639.51h0l-.88.49Z"/><path class="cls-1" d="M672.5,270.83c-11.47,10.47-12.87,10.71-9.6,24.46,1,4.27,5.84,6.6,10.34,5.26,2.49-1.92,5.12-3.7,7.44-5.81,1.84-1.69,1.42-3.51-1.12-3.95-4.71-.84-4.47-2.94-2.06-6.12.65-.87.7-2.19,1-3.3a87.55,87.55,0,0,0,.71-10.07c-.08-2.24-1.11-4.44-1.72-6.67-1.56,1.76-3.12,3.5-4.66,5.28A3.15,3.15,0,0,0,672.5,270.83Z"/><path class="cls-1" d="M847.58,975.19c-1.75-.89-3.93-1-5.92-1.37l-1.95,2.34c5.45,3.79,11.24,7.23,14,14.06a30.17,30.17,0,0,0-1.36-10.91C851.68,977.56,849.43,976.13,847.58,975.19Z"/><path class="cls-1" d="M650.84,391c-1.08,2.15-2.49,4.75-2.07,6.82.27,1.3,3.62,2,5.58,2.91.92-2.15,2.26-4.25,2.58-6.49.2-1.39-1.16-3-1.83-4.51l2.24-1.92-.89-.93L654,390C652.93,390.29,651.19,390.3,650.84,391Z"/><path class="cls-1" d="M763.5,982.9c-1.7,7.11,4.89,10.26,8.08,15.18-.19-2.43-.53-4.86-.55-7.3C771,984.08,771,984.08,763.5,982.9Z"/><path class="cls-1" d="M754.57,876.31c-1.05-.74-3.3.23-5,.42.58,1.58.69,3.86,1.82,4.6,2.91,1.91,6.27,3.13,9.45,4.63.56-.77,1.12-1.55,1.69-2.32C759.9,881.15,757.49,878.38,754.57,876.31Z"/><path class="cls-1" d="M867.36,772.85a12,12,0,0,0-1.84,3c-.66,2.41-2.22,5.74-1.22,7.19,2,2.92,5.33,5.24,9.56,3.78.42-.14.71-.63,1.25-1.13l-2.36-4.21c5.57.93,7.76-1.11,6.82-6.2-.09-.51.61-1.16.95-1.74l6.13-.06c-.57-2.18-1-4.41-1.75-6.51-.69-1.86-2.13-3.5-2.57-5.4a13,13,0,0,1,.08-5.81c.8-3.41,2.26-6.66,3-10.07,1-4.54-3.22-10.9-8.87-11.11-2.75-.1-5.71,4.37-8.45,6.91-.36.33-.22,1.67.16,2.22,2.72,3.89,2.29,7.69.33,11.78-.8,1.68-.57,3.85-.81,5.8C866.34,765.08,863.86,768.85,867.36,772.85Z"/><path class="cls-1" d="M730.34,794.17c-1.58-1.44-4.56-1.36-7-1.93-.35,1.78-1.58,4.52-.88,5.17,2,1.86,4.78,2.86,7.25,4.19l1.43-1.11C731,798.31,731.55,795.27,730.34,794.17Z"/><path class="cls-1" d="M929.54,102.76c1.2,1.66,3.74,2.35,6.81,4,.89-3.57,1.46-5.81,2-8.06-2.24-.4-4.7-1.54-6.63-.94C930.51,98.18,929,102,929.54,102.76Z"/><path class="cls-1" d="M560.31,468.17c-2.13-1.94-4.47-3.66-6.72-5.47,1.7-2.81,4.09-1.48,6.54-1.6,3.62-.17,8.58-.84,10.43-3.24,2.81-3.65-1.94-5.22-4.56-7.15-1.26-.94-2.78-3.11-2.49-4.31,1.43-5.82-2.32-8.43-5.93-11.57-2.53-2.21-4.4-5.17-6.57-7.79h0c0-7.93,0-8-7.61-7.84-1.16,0-2.32.12-3.48.19-5-.44-10-.58-13.5-5.21-3.15-4.19-6.7-8.08-9.88-12.25-1.76-2.29-.45-3.91,1.94-4.35,4.9-.9,9.85-1.51,14.78-2.24L528,388l5.22,7.3,5.27.82c3.58,9.59,13.07,13.58,19.49,20.49a4.69,4.69,0,0,0,2.23.87c4.24,1.07,8.49,2.11,12.73,3.16.93,2.21,10.61,8.35,12.72,7.77a4.09,4.09,0,0,0,2.26-2.3c1.81-4.69,1.83-8.91-2.33-12.84-1.84-1.73-2.3-4.93-3.38-7.46l7.48-.53c2.19.63,4.55,2.82,6.39-.49,1.58-2.84.48-5-2-6.72a9.59,9.59,0,0,1-1.35-1.42c1.06-4.88,5-2.63,7.79-3.11,2.86.46,6.22,2.09,8.47,1.13,3.78-1.62,7.73-4.31,5.9-9.95-.49-1.52-.19-3.29-.26-4.94,1.06-1.47,1.84-3.32,3.23-4.35,4.22-3.12,6-6.76,3-12.4l5.3-.45.42-7-7.09-6.42a16.19,16.19,0,0,0-.7-1.47c-.25-.49-.52-1-.76-1.48.24.49.51,1,.76,1.48a16.19,16.19,0,0,1,.7,1.47l7.09,6.42-.42,7,9,8c1.38-7,2.61-13.27,3.85-19.52-2.55-3.07-2.59-6-1-9.85,2.05-5,5.69-10,3.6-16.07q1.58-10.65,3.16-21.31c-1.55-2.91-3.15-5.8-4.63-8.75-.82-1.64-2.27-3.56-1.92-5s2.38-2.77,3.91-3.81a40.55,40.55,0,0,1,5.16-2.55l-3.71-4.8,3.72,4.8c.79-.87,2.16-1.68,2.27-2.63a62.25,62.25,0,0,0,0-7.73c.58-1.37.79-3.5,1.8-4,4.46-2.23,3.46-5.5,2.26-9,1.55-5.69.47-11.36-2.85-13-4.29-2.1-8.76-3.83-13.16-5.73l-11.29,8.76,11.29-8.76c-2-1.45-5.22-2.56-5.74-4.43-1.28-4.58-4.59-4.66-8-5.25-1.62-.28-3.49-.43-4.76-1.33-6.79-4.83-13.08-3.54-19.23,1.13-5.31-1.11-9.25,2-13.59,4.14-2.56,1.29-5.58,1.66-8.4,2.44l-14.32-.89-7.24,2.34c.79,2.42,1.42,4.91,2.43,7.25.9,2.09,3.37,4.15,3.13,6-.87,6.54,3,9.36,7.82,11.82l.09,10.45c-3.16,2-6.54,3.82-9.39,6.23-2,1.65-3.15,4.18-4.69,6.32l-4.33,6.25h0c-3,2.79-6.09,5.47-8.91,8.43-1.32,1.37-2.09,3.27-3.11,4.93a36.66,36.66,0,0,1-1.57,4.18c-4.57,8.8-5.3,19.6-13.69,26.41l-7.74,12.64c-4.59.51-7.12,3.05-7.89,7.62-.47,2.78-1.3,5.5-2,8.25-2.8,5.57-5.54,11.17-8.43,16.69-1.85,3.55-2.29,6.39,2.09,8.53,1.47.72,2.29,2.75,3.41,4.18h0l6.42,9.07c-.05,4.05.32,8.16-.25,12.13-.78,5.32.07,7.35,5.26,9,5,1.61,3.79-3.35,5.46-5.24,1.1-1.23,2-2.6,3-3.9,1.47,1.41,3.38,2.59,4.29,4.3,1.11,2.11,1.38,4.66,2,7,0,2,0,3.94.07,5.91,2.85-1,5.29-.86,7,.15-1.75-1-4.19-1.14-7-.15-.28,3.07-1.84,6.9-.56,9,2,3.35,5.9,5.55,9,8.23l10.3,11.64c5.45,3.09,7.26,11.22,15.65,10.55A15.11,15.11,0,0,0,560.31,468.17Zm47-182.59a7.31,7.31,0,0,1,.69,1.05A7.31,7.31,0,0,0,607.29,285.58Zm1.62,3.68c.4.15.79.29,1.16.4a9.74,9.74,0,0,0,1.07.26,9.74,9.74,0,0,1-1.07-.26c-.37-.11-.76-.25-1.16-.4Zm-2-4.15a8.74,8.74,0,0,0-1.43-1.2A8.74,8.74,0,0,1,606.89,285.11Zm-63.39,140c-.47-.32-.94-.67-1.39-1C542.56,424.46,543,424.81,543.5,425.13Z"/><path class="cls-1" d="M785,741.87a18,18,0,0,1,4.39.82c4.18,1.9,4.79,0,4.88-3.73.06-2.21,1.36-4.39,2.56-8l-9.64-3.48c0,.54,0,1.08,0,1.62-1,1.77-1.93,3.53-2.9,5.3l-12.79,1.35C775.58,741.07,780,742.17,785,741.87Z"/><path class="cls-1" d="M1128.87,451.6c-1.51,1-1.6,4.15-2.31,6.36l6.49.88,2.4-6.69C1133.2,451.88,1130.28,450.64,1128.87,451.6Z"/><path class="cls-1" d="M895.8,642.48c3.29-.4,6.68-.43,9.86-1.28,5.89-1.57,13.39,1.35,17.32-6l11.73-5.69c2.07-2.4,3.67-5.14,7.5-5.64,1-.12,2.75-4.29,2.1-5.36-1.38-2.3-4.11-3.8-6.28-5.63a37.55,37.55,0,0,1-6.21-1.77,58.13,58.13,0,0,1-6.38-4.06c-1.59-6.55-7.47-6.42-12.32-7.91-4.45-3.14-8.79-6.47-13.43-9.31-1.48-.9-3.85-.89-5.7-.57-3.24.56-4.94-.12-5.68-3.64-.4-1.91-2.12-3.55-3.25-5.31-2.78-5-10.29-9.5-15.74-8.36,7.13,4,4.64,9.45,3.36,14.74-.1.42.46,1,.34,1.41-.47,1.6-1.09,3.15-1.66,4.72a97.18,97.18,0,0,0-10.4,1.51c-4.23,1.06-5.48,4-3.67,7.38,2.82,5.3,2.63,5.79-2.88,8.58a37.39,37.39,0,0,0-5.21,3,4.18,4.18,0,0,0-1.76,2.73,59.7,59.7,0,0,0,.82,9.91c.22,1.22,1.48,3,2.54,3.2a74.17,74.17,0,0,0,9.35.87h0c1,0,2,0,3,0,6.79-.19,7,.08,5.77,7-1.15,6.65,1.49,12.29,5,17.66,1.29,1.2,2.52,3.35,3.88,3.43,4.43.27,8.07-1.48,9.57-6.15ZM867,623.77a17.21,17.21,0,0,1,9-1.89A17.21,17.21,0,0,0,867,623.77Z"/><path class="cls-1" d="M1515.65,682.54a7.19,7.19,0,0,0-3.53-3.5c-2.25-.76-4.8-.68-7.22-1l-1,.89a61.23,61.23,0,0,0,5.82,5.48,6.7,6.7,0,0,0,4.4,1.17C1514.79,685.55,1516,683.21,1515.65,682.54Z"/><path class="cls-1" d="M1188.34,562.18c.3,1.3,1.82,3.51,2.1,3.41a33.32,33.32,0,0,0,5.23-2.73l-4.83-8.59C1187,556.25,1187.69,559.33,1188.34,562.18Z"/><path class="cls-1" d="M1089.47,372.69q-2.64-3.76-5.27-7.52l-5.78,10.1C1083.32,376.24,1086.67,375.55,1089.47,372.69Z"/><path class="cls-1" d="M1401.3,245.32c4.57.21,7.75-5.51,6.29-11.32C1403.72,235.32,1401.51,239.29,1401.3,245.32Z"/><path class="cls-1" d="M620.14,391.7c-.1.36,1.24,1.63,1.52,1.52a5.38,5.38,0,0,0,2.53-1.9c1.54-2.49,2.83-5.13,4.22-7.71,0-.46,0-.92,0-1.39-2,1.11-4.36,1.84-5.78,3.43S620.76,389.6,620.14,391.7Z"/><path class="cls-1" d="M1256.68,359.42l-11.23,7C1251.94,368.65,1254.9,366.64,1256.68,359.42Z"/><path class="cls-1" d="M1288,133.26c-.92,2.51-1.83,5-2.75,7.54a75.5,75.5,0,0,0-3.27,8.82c-.36,1.46-.08,3.76.88,4.74,2.74,2.83,1.92,5,.08,7.89s-3,6-4.38,9.05l-2.85,6.09c-6.22,3.92-14.19,5.09-18.62,11.83-5.77,2.79-11.45,5.79-17.34,8.28-4,1.7-4.77,3.67-1.87,6.93q-1.25,5.9-2.5,11.79-1.17,5.34-2.35,10.68l-2.86,7.39c2.58-.35,5.16-.67,7.74-1,.29,0,.55-.37.82-.57l7.55,2.92h0l4.85,4.29a38.44,38.44,0,0,0,4.57,4.46c2.53,1.79,6,5.06,7.87,4.39,4.46-1.58,3.71-6.72,4.06-10.77a8.41,8.41,0,0,0-.14-1.48l5.27-8.7,6.86-2.75c3.6,4.11,2.75,8.94,2.24,13.72.12,3.21-1.05,7.65.61,9.4,3.69,3.86,4.06,7.11,1.45,11.28-4,2.43-2.77,6.64-3.39,10.21h0c-.32,1.36-.65,2.71-1,4.06q-3.06,5.1-6.13,10.2c-2.73,6.41-5.65,12.76-8,19.3-.45,1.23,1.21,3.22,1.89,4.86.12,5.57-4.47,7.65-7.85,10.62h0l-6.86,2.51c-4.24,2.25-8.43,5.78-13.51,3.69-6.23-2.56-9.06,1.4-13.71,6.12,4.23.64,7.29,1.78,10.15,1.4,6-.8,12-2.39,18-3.66l6.83,1.87,6.71-2.38c6.17,5.54.49,12.32,1.79,20,2.15-3,3.74-5.13,5.22-7.33,3.83-5.7,7-11.92,11.57-17,4.15-4.65,4.28-9,2.51-14.31-1.36-4-3.89-5-7.82-3.73a29.31,29.31,0,0,1-5.67.7q3.54-3.73,7.06-7.48l18.68-10.54,5.39-4.52q.87-4.49,1.76-8.95c1.44-1.92,2.76-4,4.34-5.76,3.68-4.18,7.47-8.26,11.65-12.85l-10.84-3.88h0a39.93,39.93,0,0,0,.61-6.86c-.13-1.73-1.13-3.41-1.73-5.11-7.15-7.87,1.8-11.1,5.37-16.35l-6.85-2.64c-3.77-7.19-3.64-8.4,1.61-14.55,3.6-4.21,3.42-7.19-.59-10.3-4.12-4.1-3.72-6.44,1.62-8.79a19.89,19.89,0,0,1,3.29-.87l6.74-1.37c.07,3.91.5,3.49,6.32,9.44,4.14,4.23,7.54,3.93,11.76,1.11.42-1.39.83-2.78,1.25-4.17-.42,1.39-.83,2.78-1.25,4.17,2.35.37,4.78,1.24,7,.9,1.34-.2,3.63-2.86,3.36-3.46-.9-2-2.76-3.58-4.26-5.32l5.22-8.88c-.67-2.64-1.33-5.28-2-7.91l-14.6,9c-3.63-4.33-6.13-9.91-12.8-10.84-1.06-.15-2.17-1.94-2.74-3.2-1.13-2.53-1.9-5.22-2.82-7.85-1.86-6.63-7.54-5.24-12.27-5.84l-4.28-1.06c.27-1.85.5-3.41.73-5,1.52-4.72.08-8.82-2.61-12.67,0-4.76,0-9.52,0-15.84l-5.85,5.48Q1290.45,128.51,1288,133.26Zm-2.1,155.52h0l.66,1.17Z"/><path class="cls-1" d="M863.61,373.85c.86-.76.95-3.8.15-4.74-1.83-2.14-4.15-1.78-5.81.76l-.79.49c.14.31.29.62.44.92C859.17,373.26,860.34,376.75,863.61,373.85Z"/><path class="cls-1" d="M833.35,762.78c.61.79,3,.18,4.66.2-.34-1.25-.3-2.92-1.1-3.66-1.63-1.5-3.73-2.5-7-4.55C831.38,758.39,831.93,760.92,833.35,762.78Z"/><path class="cls-1" d="M780,909.13c.57-3.36,1.21-6.7,1.69-10.07s-1.36-6-4.41-6.08c-2.08,0-5.44,1.81-6.06,3.58-1.39,4-1.67,8.42-1.9,12.7-.08,1.5,1.33,3.08,2.06,4.63C775.61,916,779.36,913.89,780,909.13Z"/><path class="cls-1" d="M770.56,561c-1.75-2.2-4-4-8.23-1.05l7.56,4.5C770.15,563.25,771,561.57,770.56,561Z"/><path class="cls-1" d="M726.38,805.71c-.47,1.77-1.35,3.57-1.22,5.29.07.93,1.89,1.72,4.21,3.63,0-3.42.29-5.34-.15-7.07C729,806.75,727.37,806.31,726.38,805.71Z"/><path class="cls-1" d="M802.51,912.55c-1.91-1.32-4-2.4-6-3.54l-1.55,2.57,6,4A22.78,22.78,0,0,0,802.51,912.55Z"/><path class="cls-1" d="M1247,548.81l-10.87-.09c.06,1,.12,2.1.17,3.15l10.78-1Z"/><path class="cls-1" d="M858.83,678.29c-1.19-.58-3.14.36-4.75.64l-.36,1.76,6.2,3.31,1.44-1.56C860.55,681,860.06,678.9,858.83,678.29Z"/><path class="cls-1" d="M733.26,855.51h0c-.19-3.57-.37-7.13-.56-10.7l-2.23-.15a24.27,24.27,0,0,0-1,5,45.79,45.79,0,0,0,.85,6.33c.1,2.06.13,4.13.43,6.16,0,.23,1.63.23,2.51.33.19-1.85.43-3.71.55-5.57C733.83,856.43,733.45,856,733.26,855.51Z"/><path class="cls-1" d="M746.18,554.7l-3.81-3.83,0-.11a3.69,3.69,0,0,0-.91-1.23c-.47-.73-.93-1.47-1.39-2.21l-4.31,3.52,2.69,6.6Z"/><path class="cls-1" d="M819,959c.67,1.59,1.3,3,1.92,4.52l.49-1.44Z"/><path class="cls-1" d="M589.82,483.87l-2.07.92h0c-.38-1.45-.76-2.91-1.15-4.36l-1.4.47,2.55,3.89-1.11,1.29.62.74,3.13-2.05Z"/><path class="cls-1" d="M847.59,847,850,850.2l1.19-1.23-2.87-2.63Z"/><path class="cls-1" d="M857,370.43l.05-.21A1.6,1.6,0,0,1,857,370.43Z"/><path class="cls-1" d="M857,370.43l.12-.07-.07-.14Z"/><path class="cls-1" d="M1414.34,548.54l-2,.56-.05.17,2.07.2Z"/><path class="cls-1" d="M1427.35,542.61h.71l.1-.45a3,3,0,0,0-.68.05C1427.4,542.23,1427.39,542.47,1427.35,542.61Z"/><path class="cls-1" d="M864.76,785.84a3.27,3.27,0,0,0,.43-.57c-.16,0-.37-.15-.43-.09a2.54,2.54,0,0,0-.41.55C864.49,785.77,864.7,785.89,864.76,785.84Z"/></svg>