<svg id="레이어_1" data-name="레이어 1" xmlns="http://www.w3.org/2000/svg" viewBox="0 0 1660.65 800.21"><defs><style>.cls-1{fill:#bfbfbf;}</style></defs><path class="cls-1" d="M1176.83,554c2.35,5.73,2.41,5.9,7.39,4.22a10,10,0,0,1,7.21.37c4.6,1.81,8.28.35,12.2-2.34,6.87-4.73,11.92-11.05,16.82-17.58a11.59,11.59,0,0,1,9.23-5c5.65-.1,11.38-1.47,17,.61a5,5,0,0,0,3.16-.36c3-1.17,5.84-2.63,8.83-3.74,4.1-1.51,7.29-.16,8.54,4.06a12.57,12.57,0,0,0,5.41,7.69c2.84,1.79,3,4.66,2.63,7.63a11.78,11.78,0,0,0,11.28,13.25c1.15,0,2.29,0,3.44.06,3.12.13,5.19,1.79,5.4,4.83.32,4.64,2.86,7.57,6.19,10.42a34.91,34.91,0,0,1,6.13,7.47c2.29,3.51.94,7.27-3,8.81-3.07,1.23-6.12,1.75-9.4.22a52.92,52.92,0,0,0-9.6-3.47,8,8,0,0,0-4.73.89c-2.68,1.22-5.06,1.38-7.5-.48a5.58,5.58,0,0,0-3-1.45c-7.47.2-15.11-3-22.4,1.12a39.76,39.76,0,0,1-4.54,1.8c2.2,4.26.58,9,3.1,13.24,1.64,2.76-1.94,7-5.4,5.79-5.65-1.91-10.83,1.55-16.2-.25.15,5.68.21,5.72,5.13,6a24.62,24.62,0,0,1,5.09.5c3.76,1,7.16,1.3,9.51-2.65a2.81,2.81,0,0,1,1.81-1.27c7.25-.57,10.9-6.88,16.38-10.25,4.36-2.69,8-2.62,9.39,1.33a7.84,7.84,0,0,1,.1,5,138.87,138.87,0,0,1-6.39,15.19,15.59,15.59,0,0,0-2,6.31c-.38,5.42-1.58,10.5-7.16,13.38a8.94,8.94,0,0,0-3.51,4.3c-1.42,3.31-4,5-7.11,6.16-2.31.88-4.6,1.79-6.87,2.78-3.83,1.66-6.34,3.76-6.89,8.71-.37,3.3-3.7,6.44-6.18,9.23-.88,1-3.28,1.26-4.77.93-4.64-1-9.09-.36-13.57.7-4.26,1-5.82,3.44-5.6,7.8.2,3.87-.11,7.78-.21,11.9,3.68-1.47,7,.49,10.14,3.4,2.09,1.91,2.56,3.63,1,5.92-2.32,3.35-3.32,7.68-7.6,9.61-1.26.57-2,2.19-3,3.33.88,3,1.77,5.81,2.57,8.69.69,2.47,1.12,5.08-1.3,6.81s-5.14,1.36-7.59.06a18.25,18.25,0,0,1-5-3.67c-3.8-4.16-8.83-5.17-14-5.49-2.91-.18-5.1-.65-6.77-3.23-.76-1.17-2.26-1.87-3.45-2.75-1.65-1.23-3.6-2.18-4.92-3.69a8.27,8.27,0,0,0-8.73-2.81,39.48,39.48,0,0,0-6.54,2,24.71,24.71,0,0,1-16.67,1.37c-3-.82-6.48-1.2-9.31,1-4.62,3.69-9.06,2.51-13-.85-3.33-2.87-7.21-4.05-11.17-5.39a4.15,4.15,0,0,0-4.66.79,49.2,49.2,0,0,1-6.7,5.32c-2.84,1.73-6,3-9.41,4.64a12.46,12.46,0,0,0,6.64,7.94c3.32,1.69,5.45,4.28,7.66,7.31,2.71,3.71,6.84,6.44,10.56,9.33.78.6,2.49.3,3.67,0,3.42-.83,6.69-1.1,10,.45a14.46,14.46,0,0,0,5,.91c4.84.35,8.12,2.77,10.39,7.49l-5.26,2.5c-.41,2.81,1.24,4.12,3.74,4.52,6.37,1,10,6,14.22,10,2.31,2.13,1.53,4.31-1.63,4.79-2.58.4-5.28,0-7.92.07-3,.06-6,.26-9,.34a65.61,65.61,0,0,1-8.41.06c-3.21-.32-6.35-1.36-9.56-1.65a10.66,10.66,0,0,0-5.39,1c-2,1-4.06,2.52-3.79,5.21.28,2.86,1.85,4.71,4.77,5.7a24.23,24.23,0,0,1,7,3.7,8,8,0,0,1,2.88,4.64c.73,5.22,1.52,10.56,1.19,15.78s.33,9.71,3.8,14a49.45,49.45,0,0,1,6.69,11.87c3.18,7.47,4.62,15-2.05,21.7-2.57,2.58-4.25,5.54-4.09,9.64s-1.94,5.76-6.14,5.91a16.69,16.69,0,0,1-6.06-1.09,106.62,106.62,0,0,1-10-4.28c-3.49-1.69-7-2.87-11-2.47-2.81.27-5.12-.86-7.31-2.63a23.21,23.21,0,0,0-6.27-3.8c-6.71-2.48-13.21-5.62-20.37-6.83a7.63,7.63,0,0,1-5.78-4.19c-2.15-4.11-5.81-6-10.17-7.6-6.7-2.44-13.66-3.26-20.52-4.58-4.33-.83-7.56-2.7-9.55-6.42a48.52,48.52,0,0,0-15.68-17.83c-5.51-3.75-7.13-9.09-6.91-15.85.23-7.12-1-14.34-2-21.45-.49-3.32-.72-6.26,1-9.33,2.06-3.67,1.49-6.67-2.26-8.61-4.93-2.57-7.48-6.52-9.8-11.34-1.66-3.46-4.84-6.3-7.69-9.05-3.42-3.3-7.27-6.15-10.85-9.31-4.29-3.79-8.45-7.72-11-13a8.34,8.34,0,0,0-2-2.8c-6-4.94-6.57-11.36-5.79-18.51.37-3.31-.47-6.78-.9-10.16-.88-7,.17-7.84,6.77-6,1.81.5,3.88.08,6.44.08l-1.64-5.85a30.06,30.06,0,0,0,2.64-1.66c.86-.66,1.61-1.46,2.42-2.21-1.53-2.56-3.22-2.38-4.7-.59-3,3.61-6.24,2.79-9.74,1-8.15-4.13-13-11.49-18.12-18.54-1.54-2.1-3.49-3.9-5-6a12.45,12.45,0,0,1-1.84-4.41c-.55-2.47-.78-5-1.14-7.51L905.1,633q-4.77,6.62-9.55,13.24c-2.65,3.69-4.1,4.1-8,1.84a29,29,0,0,1-12-12.7c-.57-1.19-1.11-2.4-1.6-3.46-.58-.15-1-.42-1.27-.29-2.19,1.14-4.68,3.06-6.75.75a11.66,11.66,0,0,1-2.89-10.06c.42-2.17,1.55-4.19,2.67-7.08-1.47-.1-2.82-.62-3.6-.17-4.44,2.53-8.29,6.08-13.58,7.09-.86.17-1.56,1.52-2.22,2.41-4.56,6.19-11.85,6.51-17.39,1.11-1.26-1.23-3.7-1.64-5.62-1.69s-3.68.8-5.49,1.38a10.09,10.09,0,0,1-8.7-1,18.56,18.56,0,0,0-8.52-2.48c-7.15-.12-14.38-.45-21.22,2.69-3.27,1.49-6.45.17-8.81-2.37-2.2-2.36-2.18-4.94-.46-7.85.7-1.2.15-3.21,0-4.84-.26-2.83-.88-5.65-.94-8.48-.07-3.41-1.86-5.71-4.77-6.34-4.75-1-7.89-4.3-11.48-7-3.27-2.43-3.59-6.17-.31-8.5s2.68-6.49,4.6-9.44c.32-.49-.21-2-.81-2.55-4.18-3.69-3-9.25-4.88-13.76-1.15-2.79.73-5.3,3.76-6.84,2.68-1.37,4.36-.53,6.4,1.63,1.53,1.61,4.16,2.51,6.46,3,6.48,1.37,7,2,7.52,8.86.1,1.36,1.49,3,2.73,3.81a23.48,23.48,0,0,0,5.8,2.3,38.24,38.24,0,0,1,12.22,6.89c5,4,10.6,8.09,18,7.36,4.94-.49,6.88-1.9,8.91-6.51a116.94,116.94,0,0,1,6.13-11.33,4.9,4.9,0,0,1,2.17-1.79c6.17-2.79,12.37-5.49,18.86-8.34-3.8-3.42-4-8.26-5.12-13-1.32-5.42-.64-11.85-5.49-16.24A6.91,6.91,0,0,1,838,519.7a13.83,13.83,0,0,0-5.06-8.57c-1.57-1.24-2-3.93-2.79-5.61-4.12,1.52-8.18,2.85-12.08,4.54A8.4,8.4,0,0,0,815,513.2a20.35,20.35,0,0,0-1.46,3.7c-3.13,7.66-7.38,9.88-15.62,8.36-2.22-.41-4.51-.44-6.75-.68-4.76-.51-8.35.36-10,5.81-.56,1.82-3.49,3.43-5.66,4.14-6.82,2.23-13.77,4.06-20.71,5.91-3.66,1-7,.95-9.76-2.61-1.14-1.47-3.37-2.22-5.23-3-2.62-1.08-3.7-3.13-2.73-5.45,1.14-2.72,2.62-5.73,4.84-7.48,4.56-3.59,6.45-8.24,7.6-13.59A114.9,114.9,0,0,1,773.56,459c1.19-1.45,2.67-3.06,3-4.77.94-5.45,3.27-10.38,5.38-15.35,1-2.24,3.22-4.09,5.25-5.65s4.4-3,3.25-5.88a5.47,5.47,0,0,0-6-3.4c-5.38.58-9.31-1.3-13-5.5-3.11-3.59-6.62-7.22-12.25-7.62-3.16-.21-4.49-2.95-4-6.48.36-2.81,1.31-5.55,1.7-8.36A97,97,0,0,0,758,384.21c.09-4.74,1-6.51,5.89-7.48a24.26,24.26,0,0,0,10.28-4.5,17.17,17.17,0,0,1,7.94-2.8c2.75-.34,4.68-.9,5.54-3.8,1.15-3.89,4.56-5.69,7.9-6.9,4.74-1.72,7.69-5.36,11-8.68,1.47-1.47,2.78-3.37,4.57-4.19,3.67-1.69,6.94-3.26,9.06-7.21,1.77-3.27,10.25-2.34,12.07,1,1.08,1.94,1.42,4.39,2.79,6s3.67,2.65,5.56,3.94l-1.11,1.26c.94.05,1.88.16,2.82.15,5.11,0,7.78,1.67,9.08,6.46a7.34,7.34,0,0,1-.94,4.79c-2.35,4.44-4.11,8.5.83,12.61,1.78,1.47.84,5.32-1.22,7.87-1.17,1.45-2.46,2.79-3.93,4.45,6.47,2.05,8,8.74,12.66,13.34a34.1,34.1,0,0,1,5.13-.32c2.67.19,4.46-.72,5.34-3.24s2.56-3.46,5.2-3.58a31.13,31.13,0,0,0,7.86-1.29c3.58-1.14,6.73-.26,10,1,4.08,1.65,4.81,3.52,2.78,7.43-2.48,4.8-2.6,7.41-.21,13.07,1.4-1.58,2.94-2.7,3.62-4.21a10.76,10.76,0,0,1,7.16-6.08c4.71-1.42,9.48-2.68,14.21-4,.32-1.6.3-3.21,1-4.46,2.38-4.58,4.06-4.74,9.66-4.2,5.45.52,11.22.83,16.46-.41,9.18-2.18,17.78-.2,26.42,1.92,3.12.76,5.72,1.76,8.42-.75.78-.73,2.09-.84,3.11-1.34,4.49-2.19,6.88-.9,7.11,4,.06,1.32.2,2.92-.43,3.94-2.94,4.74-3.28,10.88-8.24,14.58-2.69,2-2.67,3.24-.46,5.65,4.26,4.66,6.5,9.67,4.55,16.15-.46,1.55.3,3.73,1.1,5.32,1.1,2.2,2.81,4.07,4.19,6.14,2.9,4.35,2.87,4.36-.79,8-.51.52-.89,1.17-2,2.69a24.08,24.08,0,0,1,3.38,2.15c3.82,3.41,7.62,6.85,11.3,10.42a14.27,14.27,0,0,0,6.73,3.92c6.75,1.69,10.19,6.94,12.12,13.14,1.44,4.63,2.3,9.45,3.52,14.64,3.9-1.86,6.33-4.24,6.31-8.25,0-2.94.66-5.08,3.52-6.52a5.22,5.22,0,0,0,2.18-3.58c.39-3.18,2.22-4.73,5-5.5s5.51-1.34,8.24-2.1c3.48-1,6.89-2.14,10.39-3,2.92-.72,5.92-1.13,8.89-1.64,1.48-.25,3.26,0,4.41-.71,2.62-1.67,5.35-1.63,8.23-1.71a10.61,10.61,0,0,0,4.71-1.34c5.88-3.28,11.85-2.41,16.31,2.57,1.27,1.42,2.39,3.09,3.93,4.11,3.21,2.14,6.59,3.77,10.6,1.42a12.83,12.83,0,0,1,5.41-1.61,10.24,10.24,0,0,0,8.23-4.26c1-1.35,3.57-1.91,5.5-2.13,5.94-.66,8.32-2.48,8.76-8.38a11.61,11.61,0,0,1,4.86-9.19,7,7,0,0,0,2.32-4.23,10.48,10.48,0,0,1,5.75-8,23.56,23.56,0,0,0,10.16-11.2,6.22,6.22,0,0,1,2.42-3c5.86-2.82,4.81-8.92,6.63-13.62.29-.72-.31-1.78-.67-3.43-1.89,0-3.73.1-5.55,0-3.86-.26-5.46-2.79-3-5.68,6.13-7.2,11.14-15.47,19.23-20.86,4.18-2.79,7.41-1.18,7.66,3.86.15,2.85-.07,5.74.23,8.57.18,1.67,1.05,3.26,1.71,5.16,2.67-2.2,4.45-4.36,6.73-5.32,2.1-.89,4.74-.5,7.26-.68.13-.15.52-.41.58-.73,1.17-6.34,4.1-8.3,9.86-5.8,6.93,3,12.2,8.2,8.44,16.45-1.4,3.07-.09,5.67,1.56,8,1.83,2.56,2.52,5.44,1.56,8.12-1.4,3.92-.44,7,2.18,10,2.22-.4,1.54-2.5,1.94-4,.71-2.67,1.78-5,4.73-5.95,3.69-1.13,5.88.33,6.2,4.19.11,1.3.17,2.6.29,4.43,6.63-1.35,10.36,4,15.53,6.11,1.25.49,2.77,2.81,2.53,3.95-.32,1.49-2.11,3.49-3.53,3.75a35.09,35.09,0,0,1-10.08.17c-4.55-.53-5.95.17-7.12,4.89l7.58,3.77a20.39,20.39,0,0,1,2.41-.81c3.31-.71,4.62.12,4.83,3.57a85.56,85.56,0,0,1-.4,8.85,18.87,18.87,0,0,0,3-1.64c3.6-3,7.39-2.54,11.27-.78,2.24,1,3.47,3.93,1.8,5-4.45,2.75-2.44,8.09-5.16,11.86,2.35-.83,4.65-2.18,7-2.38,3-.25,4.11-2.31,5.81-4,2.86-2.89,5.73-2.9,9.2-.79a22.13,22.13,0,0,0,5.61,2.26c3.19.89,4.6,3.07,5.23,6.12s.43,5.79-2.44,7.56c-2.67,1.65-5.46,3.07-8.2,4.59l.56,1.08a23.79,23.79,0,0,0,3.51-1.93c2.32-1.8,4.43-1.7,6.77,0,5.52,4,5.55,4,12.7,5.29,2.71-4.39.91-8.92.1-13.28a5,5,0,0,0-4.87-4.1c-3.55-.27-5.7-2.54-7.3-5.64-4.62-9-4.69-8.95,2.72-15.92,1.84-1.73,2.79-3.67,1.68-6.1-1-2.14-3-2.38-4.88-1.83-3.39,1-6.35-.15-9.39-1.4-4.5-1.86-6.43-1.11-8.75,3.27-.62,1.17-1,2.51-1.67,3.63-2,3.23-5.46,3.78-8.82,1.84a14.92,14.92,0,0,0-5.15-1.76c-4.1-.61-5.28-2-4.57-6a8.05,8.05,0,0,1,4-5.92c1.59-.91,3.12-1.91,5.15-3.16-1.71-2.86-3.82-5.11-4.39-7.7-.5-2.3.71-5,1.28-8.11-1.31-1.44-3.07-3.4-4.85-5.34a6.93,6.93,0,0,0-7.14-2.37c-5.47,1.13-10.89,1.47-16-1.76-3.52-2.21-5.83-4.87-5.63-9.19.13-2.65-.47-4.82-2.88-6.37s-3.1-4-3.1-6.92c0-6.83-5.16-13.65-11.8-15.75a7.56,7.56,0,0,0-3.84.23c-2.21.53-4.36,1.3-6.59,2-2.86,5.92-5.49,6.3-10.68,2.28-2.73-2.12-6.28-1.77-9.56-.78a6.46,6.46,0,0,0-1.43,1c-6.49,4.16-11.2,2.74-14.35-4.4-.92-2.09-1.53-4.33-2.58-6.34a44.27,44.27,0,0,0-3.32-4.85c.73,6.68.33,7.36-6.3,10.56.25.16.47.42.72.44,2.76.3,5.39.93,6.32,4,.69,2.21-1.41,6-4.4,7.38s-5,3-6.27,6.14a8.08,8.08,0,0,1-10.13,4.21c-2.11-.73-4.49-1.74-5.85-3.38a16.84,16.84,0,0,0-12.53-6c-5.26-.3-8.5-2.75-10.82-7.1-.62-1.15-1.45-2.2-2.11-3.19-2.82,1.85-4.65,3.72-6.82,4.29s-4.94.18-7.38-.17c-3.87-.54-6.72.52-8.37,4.24a7.23,7.23,0,0,1-1.34,1.84c-4.12,4.52-7.4,4.14-9.85-1.52a7.19,7.19,0,0,0-5.78-4.71c-4.37-.9-6-2.82-6.23-6.28-.24-3.76,1.59-5.9,5-7.36,4.7-2,4.74-2.55,2.79-7.34-1.78-4.36-1-6.67,2.93-9.07,1.82-1.1,3.62-2.24,5.74-3.55-3.27-1.62-6.07-2.41-8-4.15a19.12,19.12,0,0,1-4.27-6.69c-.78-1.8-1.43-4.19-.89-5.93,1.63-5.23,3.85-10.28,5.9-15.37,1.2-3,2.63-5.88,3.77-8.88,1.55-4.11,3.62-7.48,8.41-8.47,1.34-.27,2.34-1.89,3.69-2.45a18.62,18.62,0,0,1,6.3-1.75c1,0,2.73,1.57,3,2.68,1,4.55,1.57,9.2,2.43,14.63,4.85-3.76,9.23-2.81,13.41-.13,2.83-2.14,2.73-4.76,2.18-7.42-.31-1.48-.9-2.91-1.36-4.36a8.79,8.79,0,0,1,3.05-10.22c4.51-3.7,8-8.74,13.91-10.65.84-.27,1.48-1.62,1.9-2.61s.32-2.28.72-3.33c1.19-3.13,4-4.61,6.77-3.72,2.59.83,4,3.19,3.37,6.42-1.39,7.42-1.54,15.16-6.11,21.76-.69,1-.33,3.39.43,4.56,1.17,1.82,3.22,1,4.54-.11,4.26-3.59,9.63-6.21,10.38-12.86.34-3,1.7-5.85,2.88-8.65,2-4.84,4.92-6.14,9.49-3.88,3,1.5,5.6,2,8.54.16a7.54,7.54,0,0,1,7.13-.46c.88.35,1.8.6,2.71.87,7.42,2.24,10.55,1.21,14.8-5.67a29.5,29.5,0,0,1,10.23-9.68c3.62-2.2,7.4-4.15,11.93-6.65-2.17-.76-3.27-1.05-4.29-1.52a5.43,5.43,0,0,1-3.35-5.49c.09-2.49,1.92-3.56,4-4.24,6.7-2.17,13.18-4.79,18.95-8.93a4.62,4.62,0,0,0,1.75-2.23c-5.65,2.44-11.35,3-16.65,1.33-.83.76-1.28,1-1.35,1.26-1.13,4.87-2.4,6.29-6.19,6.89-4.09.65-5.65-2-7.17-5.1-.88-1.82-2.62-3.22-3.85-4.89-2.2-3-1.9-4.19,1-6.61a21.71,21.71,0,0,0,3.16-3.77c1.13-1.5,2-3.28,3.29-4.57,2.43-2.36,3.45-4.8,2.12-8.16a9.18,9.18,0,0,1,.75-8.23c2.75-4.8,4.1-5.44,10.13-4a49.18,49.18,0,0,1,3.1-4.45,20.71,20.71,0,0,1,4.45-4.28c3.61-2.24,5.44-1.91,8.57,1.09a4.4,4.4,0,0,1,1,1.64c4.51-1.1,8.08-3,11.24-2.46s6,3.47,9.41,5.65c-.17.07.53,0,.81-.37,4.14-5.45,9.63-9.07,15.85-11.66,2.06-.86,4.21-1.52,6.32-2.23,1.26-.43,2.81-.45,3.75-1.23,3.93-3.26,7.73-6.69,11.5-10.16a60.12,60.12,0,0,0,4.24-4.63c2.47-2.79,5.13-4.37,9-2.53,2,.94,3.89.15,5.71-1.4,3.94-3.36,6.13-3.1,9.94.16a13.35,13.35,0,0,1,4.79,12.78c-.72,4.73.84,7.43,5.31,9.24,3.56,1.43,6.91,3.94,6.71,8.39-.22,4.8-3.14,8-7.48,10-1.2.54-2.45,1-4,1.61-.58,6.78-4.66,10.3-11.71,11.05l-3.18-3.58c-1.84.22-3,.89-2.33,2.93.37,1.07,1.1,2,1.36,3.12.9,3.64-.45,6.35-4,7.76a16.29,16.29,0,0,1-6,1.6c-7.6-.14-13,2.36-14.13,11.43a36.62,36.62,0,0,0,4.66,4.73,7.58,7.58,0,0,0,4.71,1.33c9.46-.76,18.89-1.82,28.35-2.63,1.66-.14,3.36.5,5.06.62a61.16,61.16,0,0,0,7.41.24c3.68-.19,6.73-1.3,7.2-5.76.13-1.23,1-2.38,1.51-3.44-.3-.55-.4-1-.68-1.2-1.75-1.4-4.08-2.5-3.15-5.41a6.6,6.6,0,0,1,5.91-4.74c4-.33,8.14-.79,11.88.16,6.08,1.54,10.82-.26,15.41-3.77,6.09-4.67,12-4.75,17.42.35,2.54,2.38,4.44,2.42,6.83.34-.11-.4-.08-.88-.31-1.08-4.63-4.3-4.71-6.57.49-10.2,2.74-1.92,6.09-3,9.25-4.26,2.27-.9,4.67-1.43,6.56-2,.17-3.29.32-6.13.46-9l.68,0c-.16-.33-.23-.79-.49-1-5.83-3.87-5.92-5-.8-9.67,3.22-2.92,6.55-5.23,11.29-3.81a4.26,4.26,0,0,0,3.18-.81c2.78-2,5.81-2.52,9.17-2.5,4.67,0,8.32-1.77,10.51-6.35,3-6.2,8.69-8.57,15-8.47a11.93,11.93,0,0,0,8.8-2.95c4.5-4,9.6-6,15.73-5.16a12.18,12.18,0,0,0,3.93-.48c5.07-1,9.64-.56,14.09,2.69,1.85,1.35,5.19,1.73,7.51,1.17,5.39-1.31,10.27-1.4,15.5,1,2.53,1.15,6,.63,8.94.43,5.83-.39,10.53,1,13.15,6.78a5.18,5.18,0,0,0,2.8,2.46c6.29,2.13,7.82,8,10.2,13,1.06,2.24-1.09,5.26-4.3,5.55-4.19.38-8.08,1.72-12.07,2.49-3.12.6-6.83-1.57-10.22-2.67a65.07,65.07,0,0,1-6.08-2.87c1.34,5.75,2.19,10.08,3.38,14.33,1.38,4.95-.74,7.34-5.89,6.14-2.38-.56-4.69-1.46-7.19-2.26-3.24,2.81-5.3,7.36-10.32,7.44-4.74.09-8.23-2.49-11.11-5.92-3.67,2.76-4,4.44-1.2,7.81,2.5,3,5,5.83,5.35,9.85.22,2.63.56,5.38,0,7.9-.65,3.12.38,4.43,3.11,5.65a28.85,28.85,0,0,1,7.5,4.89c1.07.95,2,3.47,1.49,4.52-2.55,5.16,1,7.12,4.31,9.81.77-1,1.36-1.71,1.87-2.45,4.51-6.5,11.89-6.63,16.47-.21,1.72,2.4,3.17,5,4.63,7.34,3.51-1.09,2.8-3.27,2.38-5-1.2-4.92-.23-8.89,3.83-12.25,1.29-1.07,1.86-3.21,2.39-5,.66-2.17.86-4.48,1.39-6.7a6.52,6.52,0,0,1,6-5.32c7.19-.81,11.13-5.27,13-11.75,1.06-3.62,2.8-6.12,6.67-6.94,4.41-.93,7.85,1.1,9.18,5.4,1.49,4.86,3.09,9.69,4.86,14.45a4,4,0,0,0,2.6,1.89c3.94.87,7.56,2,10.62,5,1.4,1.41,4.23,1.39,6.41,2,4.07,1.17,4.43,1.71,4.29,6-.07,2,0,4.07,0,6.83,2.18-.53,3.6-.79,5-1.23a50.22,50.22,0,0,0,6.93-2.52,6.71,6.71,0,0,0,3-3c2.22-5.07,4.81-7.88,9.67-6.63,7.48,1.91,11.58-2.54,16.72-6.37-.51-1.12-.93-2.14-1.42-3.12-1.16-2.3-.57-4.17.75-6.35,4.2-7,10.79-7.7,17.88-7.32,1.13.06,2.23.5,3.35.66,5.62.82,5.63.81,6.54,6.47.57,3.54,1.29,4.54,4.81,4a58.48,58.48,0,0,0,12.53-3.38c4.74-1.86,9.21-4.4,13.88-6.69,2.76,1.55,2.63,4.44,3.15,6.95,1.24,6,1.43,6.57,7.52,7.38A12,12,0,0,1,1754,223c1.14,1.51,2.63,2.75,3.91,4.16a16.49,16.49,0,0,1,4.39,10.86c.15,3.38-1,5.29-4.07,6.65-5.13,2.3-6.82,10.72-2.75,14.53,4.92,4.6,5.44,10.18,3.34,15.73-2.36,6.22-2.5,12.62-3.2,19-.54,5-2.43,6.47-7,4.42a12.59,12.59,0,0,1-5.26-4.06c-3.66-5.58-9.43-4.93-14.72-5.24-3-.18-4.53,2.94-4.13,6.17a43.29,43.29,0,0,0,6.56,18.56c3.23,5,2.76,10-.08,15.13-1.53,2.78-2.23,6-3.41,9-1,2.61-2.29,5.12-3.27,7.74-1.19,3.2-2.32,6.43-3.22,9.72-1.18,4.25-3.25,7.51-7.42,9.56a11.68,11.68,0,0,0-4.68,4.79,14.68,14.68,0,0,1-11.15,8,19.08,19.08,0,0,0-2.77.71,7,7,0,0,0-5.12,6.17c-.66,4.62-2.49,5.45-6.46,3.26-1.33-.73-2.53-1.69-3.76-2.53-2.63.73-2.1,2.83-2.34,4.65a38.16,38.16,0,0,1-1.42,7.81c-1.16,3.2-3.61,4.08-6.91,3.13-4.81-1.39-6.26-.49-7.48,4.42-.59,2.37-1,4.89-2.19,7-2.34,4.2-4.32,4.78-9,3.52a26.17,26.17,0,0,0-3.28-1,5.43,5.43,0,0,0-5.83,7.32c.67,1.78,1.66,3.46,2.15,5.27,1.37,5.06-.32,8.4-5.13,10.48s-9.47,4-14.18,6.05-5.57,5.1-5.43,10.3c.2,7.4,4.42,12.58,8,18.19,2.61,4.05,2,6.24-2.58,7.48-1.22.33-2.49.47-4.25.78l4.84,9.94,7.37,2.39c1.26.4,2.75.52,3.72,1.29a6,6,0,0,1,2.3,3.53c.08.78-1.51,1.87-2.51,2.59a10.57,10.57,0,0,1-2.63,1c-.84,2.87-1.62,5.59-2.29,7.89l8.24,9.75c1.6,1.9,1.51,3.66-.09,5.62-1.44,1.76-2.45,3.87-3.85,5.66-2.73,3.47-6,3-7.93-1-.85-1.77-1.64-3.57-2.16-4.71-4.36.78-7.82,1.73-11.3,1.86a6.41,6.41,0,0,1-4.71-2.45c-1.32-1.94.71-3.35,2.08-4.67,3.58-3.45,3.26-4.5-1.24-6.71-5.4-2.66-11.57-4-15.64-9-.12-.14-.71.09-1.54.22.2,4.31.26,8.44,5.13,10.75a11.84,11.84,0,0,1,4.14,3.77,5,5,0,0,1-.36,6.81c-1.16,1.25-2.54,2.3-3.72,3.53-2.08,2.17-3.67,4.58-2,7.67,2.86,5.28,1,10.89,1.13,16.33.08,3.34-2.56,5.7-6.28,5.09-6-1-11.28-1-16.12,3.48-1.5,1.37-4.28,1.42-6.51,1.9-3.24.69-6.28-.25-7.12-2.24-1.3-3.1,1.06-4.46,3.09-5.91.45-.33.85-.71,1.45-1.22a27.63,27.63,0,0,1-1.09-3.13c-.78-3.52.07-5,3.44-6a37.67,37.67,0,0,0,5.94-1.87c2.17-1.1,2.55-3.24.56-4.58-4-2.67-4.68-6.51-5.44-10.75a19.53,19.53,0,0,0-3.6-7.66c-2.48-3.41-5.25-3.4-8.13-.4-1,1.09-1.8,2.46-2.74,3.65-2,2.53-1.65,4.75.41,7.14a16.73,16.73,0,0,1,3.19,5.36c.52,1.53.18,3.36.15,5.06,0,2-.5,4.1-.18,6.07,1.06,6.59.27,8.22-6,10.94-1.37,3-2.11,5.87-.43,9.24,1.31,2.63.13,4.77-2.59,6a10.18,10.18,0,0,1-4.38,1c-5.55-.16-10.92,0-16.13,2.55-2.92,1.44-6.18-.27-7.39-3.41-1-2.56-2-4.68-4.61-6.12-1-.57-1.81-3-1.46-4.32a42.17,42.17,0,0,1,3.59-8.23c1.35-2.61,3.87-4.65,4-8.8-1.38,1-2.51,1.34-2.89,2.1-1.71,3.4-3.19,6.91-4.76,10.38a33.79,33.79,0,0,1-1.44,3.11c-3.11,5.34-6.34,5.77-13.24,1.52-1.73,1-3.59,2.27-5.58,3.26-4.89,2.41-8.08.53-7.64-4.9.27-3.33,1.61-6.61,2.68-9.83,1.44-4.35,3.32-8.6,1.21-13.24a30.75,30.75,0,0,0-1.59-2.72c-2.5,1.13-4.91,2.14-7.24,3.31s-4.34,1-6.22-.9a5.57,5.57,0,0,1-1.15-6.8,2.46,2.46,0,0,1,.28-.5c3.34-4,2.7-8,.34-12.1a11.79,11.79,0,0,1-.66-1.87c-.86,0-1.75,0-2.65,0-4-.13-6.31-2.25-5.7-6a39.66,39.66,0,0,1,3.14-9.07,4.64,4.64,0,0,1,5.15-2.84c4.48.61,7.73-1.6,10.69-4.4,3.32-3.14,6.39-6.46,10.93-8.05a4.91,4.91,0,0,0,3.11-6.55c-1.88-4.68-1.67-8.84,1-13,.15-.23-.11-.72-.25-1.5l-9.12-2.85c-1.08,3.12-1.53,6.23-3.14,8.52s-4.26,3.43-6.39,5.55c6.55-1.4,5.49,5,9.05,7-1.53,1.71-2.44,2.88-3.5,3.89-2.19,2.07-4.65,3.46-7.72,2-2.21-1.07-4.81-6.44-3.82-8.84,1.13-2.75.17-4.15-2.43-6-.67,2.22-1.17,4-1.73,5.7-1.4,4.33-2.34,8.88-5.71,12.31-2,2-4.26,3.59-7.07,2-4.46-2.55-7.8,0-10.84,2.41-3.69,3-6.9,6.55-10.35,9.82-2.48,2.35-3.39,5.2-3.83,8.6a108.65,108.65,0,0,1-3.31,15.53c-1.57,5.55-5.64,8.39-11.34,8.93-.93.09-1.86.23-2.59.32-.43.49-.81.73-.91,1-2.14,7.53-6.71,12.58-14.37,14.88-1.37.41-2.27,2.3-3.45,3.45a60.61,60.61,0,0,1-6.6,6.14c-2.59,1.84-4,1.26-5.19-1.79a17.32,17.32,0,0,1-1-5.54c-.09-2.8-.42-5-3.44-6.51s-3.75-4.67-4.26-7.73c-.28-1.68-.31-3.4-.47-5.35-.93-.51-1.87-1.12-2.88-1.56-2.63-1.15-4.31-3.51-3.39-5.9,1.92-5-.06-9.44-.94-14.17-6,2.52-11.54,5.6-14.68,11.76a9.75,9.75,0,0,1-3,3.37,18.1,18.1,0,0,0-7,8.78,4.37,4.37,0,0,1-1.22,1.92c-1.28,1-3,2.76-4,2.43-1.45-.51-2.59-2.4-3.48-3.93a18.69,18.69,0,0,1-1.92-5.1c-.49-2.13-1.14-4.43-.82-6.52.69-4.46-.1-8.12-3.5-11.29-3.66-3.42-2.83-8.48,1.7-10.62a5.78,5.78,0,0,1,3.72,0,41.38,41.38,0,0,1,5,2c5.62-5.83,6-8.75,2-14.87-.82-1.28-2.06-2.36-2.6-3.74a11.21,11.21,0,0,1-.76-4.82c.14-1.87,1.07-3.67,1.29-5.54.67-5.67,3.11-9.94,8.41-12.63a9.83,9.83,0,0,0,4.09-4.52c2.43-5.35,6.77-7.2,12.17-8.08a107.14,107.14,0,0,0,13.74-3.48c2.63-.8,4.74-2.53,5.15-5.56.44-3.26-1.3-5.35-3.76-7.16-3.22-2.37-6.33-4.87-9.44-7.38-3.82-3.08-6-7.22-7.91-11.67a55.54,55.54,0,0,0-6.37-11.37c-4.21-5.59-8.37-6.25-14.48-3.05-1.64.86-3.15,2-5.06,3.2,1.83,2.21,3.89,3.9,2.46,7.11-.53,1.16.9,3.55,2,5,2.34,3.25,4.34,6.38,1.32,10.21,2.52,2,4.35.6,6.24-.06,4.59-1.59,6-.84,7.56,3.87a52.08,52.08,0,0,0,2,5.92c2.73,6,1.54,10.24-3.43,14.49a136.18,136.18,0,0,0-12.54,12.31,10.5,10.5,0,0,0-2.4,6.17,24.77,24.77,0,0,1-2.71,9.8c-1.37,2.89-2,6.2-3.7,8.86-2.88,4.54-5.33,9.76-12.08,10-2.78.1-5.53,1.28-8.67,2.06-.77,3.26-2.57,5.9-6.32,6.85a5.81,5.81,0,0,0-2.6,2.13c-3.91,4.88-9.52,6.06-15.2,7-2.16.36-4,.13-4.46-2.93s-6.5-6.39-9.48-5.28a14.74,14.74,0,0,0-4.4,2.57c-7.2,6.14-15.63,7.21-24.57,6.08a61.12,61.12,0,0,1-7.21-1.77c-.92-.24-1.92-.84-2.76-.67-8.15,1.63-16.49.29-24.66,1.61-2.38.39-3.42,1.87-3.95,4.21-1.25,5.53-3.23,6.46-8.49,4.41-3.36-1.32-6.64-3-10.11-3.82-4.57-1.13-8.88,3.32-8.22,8q.89,6.21,1.67,12.43C1182.4,550.74,1182.15,551.14,1176.83,554Zm-76.49,121.14c.06-5.53,4.26-10.91,1.76-17.19-.46-1.15-.12-2.64-.07-4,.14-3.75,1.59-5,5.31-4.73,1.7.15,3.38.65,5.06.64,3.91,0,6.35-1.54,7.18-5.13s3-7.86-1.57-10.77c-5.61-3.58-11.53-6.48-18.33-6.83-1.88-.1-3.84.67-5.66.4-4.48-.67-8.38-.89-9.43,5-.18,1-1.43,1.73-2.13,2.63-6.67,8.58-7.53,14.6-1.45,23.41,3.46,5,4,9,.54,13.8-.15.2.08.69.17,1.22,3,1.35,5.66,3.47,9.49,2.49C1093.83,675.34,1096.65,675.43,1100.34,675.09Zm-128.08-158c-.42-.9-.82-2.69-1.89-3.87-3.78-4.15-11.13-3.87-14.26.72a9.73,9.73,0,0,1-9.68,4.61,17,17,0,0,0-3.42,0c-2.87.33-4.78,2-4.49,4.82.41,4.15-.65,7.91-1.89,11.69-.88,2.71-.34,4.92,2.09,6.44,1.64,1,2,2.37,2.31,4.21.61,4.14,3.08,6,7.26,4.77a39.19,39.19,0,0,0,12.15-5.77C969.22,538.12,971,528,972.26,517.11Zm15.31,132c3.13-2,3.09-4.44,3.1-6.89,0-2.65.18-5.1,1.81-7.55,2.71-4.11,1.38-6.44-3.59-7.5-2.76-.59-5.2-.8-6.83,2.3-.63,1.2-2.1,2-3.06,2.82Z" transform="translate(-101.64 -115.63)"/><path class="cls-1" d="M537.75,474.86c-2,.56-4,1.16-6,1.66s-4,.94-6,1.33a26,26,0,0,1-5.55.87c-2.88-.09-5,1-7.27,2.7-2,1.48-2.6,2.86-1.9,5.31,1.71,6-1,9.54-6.79,7.68-6.68-2.15-12.52-1.36-18.72,1-4,1.54-7.25-1.23-11.51-4.16,1.95,4.8,2,8.81,5.87,11.23,2.19,1.35,2.34,3.82,1.24,6.16-.63,1.33-1.4,2.6-2.27,4.21,1.33.77,2.41,1.47,3.54,2,3.89,1.91,3.89,1.89,2.67,5.93a26.59,26.59,0,0,0-.67,2.77,6.67,6.67,0,0,0,.23,1.59c4.24-.89,8.5-5,13.42-.2a27.76,27.76,0,0,1-3.53,4c-2.28,1.78-4.55,3.24-4.58,6.71,0,1.05-1.85,2.15-3,3.11s-2.51,1.88-4.48,3.35c3.93,1.8,6.81,2.59,10.08,1.83,4.73-1.11,5.73-.23,5.63,4.66,0,.57-.09,1.14-.1,1.71-.14,5.41,0,5.1,5,6.94a17.94,17.94,0,0,1,7.27,5.05c2,2.32,3.74,3.93,6.91,4.27,4.65.49,4.47.93,4,5.76-.38,4-.56,7.93-3,11.35a3,3,0,0,0-.3,1.65c0,5.45,0,5.45-4.83,6l-7.63,8.35,4.94,7.55c7.32-1.49,11.35-8.56,17.32-13,.08-.29.32-.68.25-1-.56-2.59-.69-5.13,2.22-6.32,1.06-.44,3.11-.49,3.64.16,1.79,2.19,5.32,3.56,4.09,7.46s-1.68,7.82,2.66,10.56a4.18,4.18,0,0,1,1.22,3,45,45,0,0,1-.21,8,6.92,6.92,0,0,1-2,3.94c-6.32,5.7-12.77,11.27-19.26,16.78a18.18,18.18,0,0,1-4,2c-1,.49-2.27.72-3,1.46-2.53,2.48-4.89,5.15-7.53,8-.14,2.32,1.84,3.12,3.73,4.09,5.13,2.62,5.31,3.13,3.56,8.88-1.38,4.51-2.59,9.07-4.19,13.49-.61,1.71-2.08,3.11-3.17,4.64-2.63,3.71-4.87,7.79-8,11-2.29,2.34-5.62,3.88-8.74,5.12-4.06,1.6-8.34,2.44-11.73,5.59-2.11,2-4.49,1.84-6.23-1.36,2.37-3.55,4.75-7.11,7.51-11.26-5.06,1-9.7.53-14.1,2.88-2,1.07-4.85,1.07-7.21.77a8.16,8.16,0,0,0-7.26,2.21c-2.84,2.63-6.07,3.86-9.43,1.52V685.06l-11.89,1.62c.84,1.65,1.24,2.64,1.81,3.53,2.45,3.89,2.23,5-1.59,7.18a27.5,27.5,0,0,1-2.9,1.23c2.69,4.11,2.08,9.11,5.18,13.06,1.18,1.5.19,4.71.19,7.48a23.26,23.26,0,0,0,3.57,1c2.82.38,5,1.2,6.06,4.31.53,1.54,2.42,2.6,4,4.24-3.46,2.41-4,7.19-9.1,8.32-3.67.81-3.74,5.11-.5,7.27,2.4,1.59,5.13,2.83,4.07,6.6-.12.41.73,1.37,1.33,1.65,4.46,2.06,5.43,5.47,3.69,9.93,2.14,1.61,4.07,3.13,6.07,4.54,2.27,1.61,3.43,3.82,2.54,6.43-1.38,4.06-.43,7.9.42,11.81.25,1.12.59,2.22.74,3.35.78,5.85.25,11-6.22,13.73-4.38,1.88-8.2,4.61-10.68,9.08-.75,1.36-3.07,2.06-4.81,2.64-7.22,2.39-14.49,4.66-21.76,6.9-1.62.49-3.67,1.45-4.95.88-4.71-2.1-9.68-1.07-14.47-1.78-5.6-.84-10,.46-13.18,5.62-2.16,3.47-4.38,7.2-8.89,8.46-.93.25-2.24,1.47-2.25,2.26-.06,3.49-3.58,5.71-3.09,9.5.15,1.14-1.57,3-2.89,3.75-1.74.92-3-.46-4.11-2-2.89-4-4.23-4.28-8.63-2.72a75.08,75.08,0,0,1-7.6,2.37c-2.28.56-4.58.61-6.33-2,4.25-7.12-3-9.47-5.54-13.39-4.87-.3-9.22-.58-13.56-.83-3.43-.21-4.59,1.23-3.33,4.43.77,1.93,2.2,3.61,2.91,5.55.62,1.69,1.5,4.06.8,5.3a51.85,51.85,0,0,1-7.15,9.5,2.7,2.7,0,0,1-4.41-.79A122.76,122.76,0,0,1,298.57,844c-1.33-3.08-1.85-3.64-5-2.42a40.65,40.65,0,0,0-8.2,4.22c1.83,0,3.65,0,5.47,0,4.18.05,6.65,2.43,8.11,6.1.84,2.09,1.59,4.23,2.45,6.32,1.53,3.7.29,5.8-3.7,6.09-2.47.18-5,.78-7.41.36-7.83-1.41-14.29,2.76-21.84,4.53l2.57,4.29c-2.6,4.11-5,8.58-8.07,12.44-1.55,1.93-4.39,2.93-6.8,4-3.88,1.76-7.67,3.44-9,8.07a4,4,0,0,1-1.79,2.16c-4.36,2.47-4.61,6.57-4.52,10.84a10.85,10.85,0,0,1,.06,2.27c-.51,2.53-2.83,3.42-4.66,1.58-2.13-2.14-3.93-4.62-6.71-8,.13-3.35.33-8.39.53-13.43.09-2.51-.45-4.55-3.43-5a15.87,15.87,0,0,1-3.3-.92,6,6,0,0,1-2.42-1.4c-.68-.82-1.63-2.21-1.35-2.93,1.66-4.29-4.64-8.68.06-12.71,4-3.4,4.21-8.41,6.38-12.84-6.93-6-4.57-12,1.26-19-3.73,1.47-6.53,3.74-8,.22-1.68-3.9,2.79-4.24,4.56-6.62l-2.41-4c-.12,2.73-.66,4.57-3.29,4.24a3.7,3.7,0,0,1-3.59-3.73c-.06-.88-.14-2.15-.7-2.53-2.91-2-2.27-4.38-1.49-7.09.68-2.32,0-4.17-2.37-4.43-2.2,1.56-4.18,2.81-6,4.29a9.67,9.67,0,0,0-1.93,2.7c-1.08,1.86-2.28,4.12-4.62,3.49-1.64-.44-2.88-2.37-5.26-4.49-3.07.25-5.23-3.31-7.8-6.54-.85.6-1.79.89-2,1.44-1.19,3.57-3,5.89-7.33,5.68-1.13,0-2.48,1.6-3.51,2.68-5.32,5.56-8.06,5.6-13.78-.08,1.68-2.34,4.31-4.53,4.83-7.14s-1-5.71-1.75-9.1a11.87,11.87,0,0,0-2.48,2c-.51.73-.41,1.87-.86,2.67-1.35,2.39-4.09,3.78-5.63,2.77-2-1.33-2.19-3.19-1.4-5.51a6.44,6.44,0,0,0-.43-4.16c-2.28-5.57,1.16-15.19,6.39-18.1a9.7,9.7,0,0,1,7.69-1.06c3.11.9,5.54-.07,7.86-2.08a17.24,17.24,0,0,1,9-4.34c5.87-.91,9.63-5.79,14-9.37a3,3,0,0,0,.3-2.68c-1-2.56-2.32-5-4.08-8.72a15.91,15.91,0,0,1,2.3-4.1c1.8-2,4.18-3.45,3-6.71a1.12,1.12,0,0,1,.4-1c5.24-1.9,6.78-9.06,13.67-9A13,13,0,0,0,222,731.9c2.12-3.28,4.46-7.29,9.58-6.7-.79-5.31-4.38-7.77-9.18-6.51s-9.51,2.66-14.27,3.95c-4.3,1.17-8.48,1.23-11.4-2.79-3.9-5.38-9.41-4.77-14.87-4.29-2.24.2-4.42,1.25-6.66,1.36a5.24,5.24,0,0,1-3.75-1.7c-.4-.48.39-2.91,1.2-3.3,4.71-2.25,4.75-6.24,4.79-10.57a9.72,9.72,0,0,1,2-5.23c3-4.08,2.14-7.7-.57-11.43-2.94-4.05-2.87-4.07.66-7.15.85-.74,2.14-1.5,2.31-2.42.58-3.27,3.07-4.43,5.41-6.09a6.72,6.72,0,0,0,2.45-4.66c.08-2.27.4-4.17,2.14-5.59,3.68-3,4-7.42,5-11.66-2.14-2.07-4.47-1.51-6.8-.4a12.52,12.52,0,0,1-10,.45,9.46,9.46,0,0,1-3.34-1.94c-1.38-1.35-2.64-3.1-1.22-5.05s3.29-1.12,5.11-.24c3.78,1.83,3.8,1.77,5.44-2.27-3.1-1.14-6.9,2.06-9.69-1.58l3.15-4.62-.69-.5c-2.29,2.3-4.42,4.8-6.91,6.86-3.82,3.15-7.27,2.11-10-2.9,2.26-2.15,4.53-4.41,6.91-6.54.68-.6,1.79-1.31,2.53-1.16,4.67,1,8-2.51,12.18-3.24,2.63-.46,3.77-1.66,4.22-4.43,1.27-8,7.82-12.61,16-12.16A11.33,11.33,0,0,0,210,606c5.17-3.29,10.44-2.91,16.07-1.62.84,2.31,1.65,4.51,2.72,7.44,1.22-2.85,2.06-4.83,2.87-6.75-1.73-2.85-6.84-3.26-5-8.69,6.41.14,13.35-2.22,18.76,4.61a9.78,9.78,0,0,1-.19,1.91c-1,3.61-.31,4.8,3.24,5.38.93.15,2.14-.32,2.8.12,1.47,1,3.65,2.27,3.81,3.63.33,2.83,2.26,3.59,4,5a100.24,100.24,0,0,1,10,9.28c3.86,4.22,8.19,5.19,13.42,3.22,3.67-1.38,3.91-2,1.82-5.74a16.38,16.38,0,0,1-.7-1.7c1.58-3.17,4.39-3.15,7.28-2.76,6.27.84,11.85-1,17.2-4.1a28,28,0,0,1,6.71-2.93c3.09-.82,6.45-.72,7.51-4.83.15-.6,2.34-1.24,3.36-1,8.32,2.1,9.82-2.39,12.32-9,.31-.83-.37-2.07-.66-3.11-.39-1.4-1.18-2.78-1.23-4.19-.26-6.7,1-7.63,7.66-6.4a23.58,23.58,0,0,0,6.17.17c4.92-.42,9.81-1.09,14.73-1.52,2.08-.18,3.59-.85,4.57-2.81.57-1.12,1.37-2.6,2.38-2.93,7.81-2.55,14.29-8.68,23.23-8.3,2.33.11,4.75-1.27,7.09-2.07,2.52-.86,4.4-2,3.51-5.38-.62-2.36,1.23-3.37,3.43-3.46,4-.15,8,0,12-.42,4.7-.53,9.36-1.52,14-2.46a8.08,8.08,0,0,0,3.59-1.67q6.21-5.41,12.18-11.1c1.79-1.7,3.34-3.64,5-5.47.5-.55,1.22-1,1.55-1.62,3.35-6.39,4.55-7.07,11.54-6.27,4.88.56,5.18.48,10.83-2.78a7.34,7.34,0,0,0-7.22-5.16c-3-.13-5.9-1.2-8.85-1.84-3.19-.69-4.89-3-4.81-6.63.12-5.53.13-5.56-5.12-7.81s-10-4.91-10-11.76c0-1.09-1.06-2.41-2-3.21a72.27,72.27,0,0,0-7.17-5.52,9.49,9.49,0,0,1-4.08-6.54c-1-4.67-4.39-6.53-9.08-6.3a55.68,55.68,0,0,1-11.63-1c-1.62-.26-2.44-1.67-1.52-3.53,1.48-3,.59-5.27-1.78-7.59a15.73,15.73,0,0,1-4.52-12.24L388,441.88l-2.64,4.61c-4.09.72-7.73,1.56-11.41,1.95a17.08,17.08,0,0,1-6.65-.44c-6.19-1.86-6.45-2.39-6.66-8.87-4.12,2.18-7.3,4.63-8.15,9.52-.63,3.64-1.92,7.17-3.13,11.54-1.75,0-3.86.36-5.78-.07-5.12-1.17-10.16-2.68-15.23-4.05a45.33,45.33,0,0,0-6.05-1.59c-2.76-.36-5.22,0-6.37,3.34-.88,2.54-2.84,3.59-5.88,3.22a123.16,123.16,0,0,0-13.05-.46,9.58,9.58,0,0,0-2.75.44c-4.64,1.33-8.11,0-10.34-4.19-.83-1.54-.82-3,1-3.77.85-.36,1.76-.56,2.55-.81.51-6.2-1.55-9.12-7.13-10.44a18.31,18.31,0,0,1-3.27-.95c-4.17-1.83-6-1.39-8.47,2.23a14.35,14.35,0,0,0-1.53,3.06,5.46,5.46,0,0,1-4.56,3.83c-4,.6-6.34,3.07-8,6.55-.64,1.35-1.39,3-2.57,3.67-5.43,2.86-8.09,7.48-9.76,13.15-.51,1.75-2.27,3.43-3.88,4.53-3.33,2.27-5.76,5-6.24,9.08s-2.85,6.89-5,10c-3.46,4.93-6.57,10-10.88,14.41-2.89,3-4.22,7.45-6.55,11.81,3,3.78,2.82,8.44-.06,13-1.76,2.79-.73,5.29.86,7.42,2.15,2.88,1.23,4.78-1.1,6.83-4.83,4.27-6.18,10.17-7,16.17-.22,1.68.9,3.54,1.51,5.7-2.16,1.46-4.37,2.86-6.48,4.41a22.62,22.62,0,0,0-9.56,15.32c-.57,3.66-2.31,7.18-3.89,10.6-.93,2-2.91,1.63-4.4.49-2.38-1.83-4.6-3.87-7.32-6.2,4.27-3.75,3.58-8.73,3.81-13.52a8.1,8.1,0,0,1,.72-3.29c2.67-5.08,2.48-10.59,2.79-16.07a50.6,50.6,0,0,1,1.07-6.57c-2.77-3.34-5.21-6-7.28-8.9A7.48,7.48,0,0,1,172,544c.39-4.75.73-9.11-2.55-13.41-2.68-3.52-2-4.6,1.51-7.52,1-.86,2-1.76,2.68-2.37.13-2.43-.49-5.05.54-6.48a10.23,10.23,0,0,1,6-3.65,9.45,9.45,0,0,0,7.3-5.74c2.73-5.9,7.59-10.45,10.45-16,2.78-5.38,7.53-8.85,10.34-13.93a6.42,6.42,0,0,1,1.66-2.29c6.18-4.05,8.92-10.69,12.67-16.57a8.28,8.28,0,0,0,.61-1.6c1.18-3.29.62-4.1-2.79-4a7.86,7.86,0,0,1-2.74,0c-2-.73-2.47-3.38-.84-5.24a12.18,12.18,0,0,1,3.87-3.35c4.3-1.87,7.44-5.14,10.83-8.15.7-.62,1.6-1.47,2.39-1.45,5.09.12,7.18-3.37,9.13-7.15s3.22-4.33,7.31-3.74c1.29.19,2.57.35,3.36.46l6.13-6.54c-1.28-1.55-3.2-1.06-5.11-.1-4.86,2.46-9.16,1.47-14.09-.7s-10.11-5.08-16-5.31A4.81,4.81,0,0,1,221,407c-.4-.94.49-2.83,1.35-3.85,2-2.33,4.24-4.37,6.39-6.53,4.48-4.5,7.41-10.27,7.58-16.22.22-7.74,4.93-11.52,10.36-14.43a9.92,9.92,0,0,0,5.74-8.21c1-6.95,2.91-8.55,10.06-8.68a67.28,67.28,0,0,0,6.74-.8,15.92,15.92,0,0,1,2.83-.25c4.92.33,9.87.46,14.73,1.24,2.27.36,4.4,1.93,6.47,3.16s3.62,2.79,5.64,3.74a4.33,4.33,0,0,0,3.57-.53c.5-.33.16-2,.12-3a2,2,0,0,0-.46-1c-2.16-2.84-1.62-5.25,1.43-7.16-2.14-3.4-4.66-5.36-8.62-4.61-1.63-3.53.51-5.52,2.29-7.74a97.34,97.34,0,0,0,6.31-8.67c.81-1.27,1.91-3.14-.76-4.17-.27-.1-.25-1.75.08-2.48,1.6-3.58,4.72-5.25,8.25-6.53a90.07,90.07,0,0,0,10.42-4.4c3.07-1.59,4.78-4.16,4.17-8-.65-4.1,2.5-6,5.45-7,3.33-1.19,5.84-2.4,7.82-5.77,2.77-4.73,10.8-4.34,15.52.15,1,.91,1.6,2.18,2.62,3a4.29,4.29,0,0,0,3.12.48c-4.73-3.86-4.55-11.29-10.73-13.86l.34-.11c-1.42-2.84-2.67-5.78-4.3-8.5-1.48-2.48-.41-4.35.86-6.31s2.63-2.83,5.23-2.18c5.58,1.4,8.49-1.52,7.7-7.28-.11-.75-.18-1.52-.36-2.26-1.38-5.67-.48-7.14,5.09-9.26a15.52,15.52,0,0,0,5.2-3.12,22,22,0,0,1,17-6.62,4.78,4.78,0,0,0,4.41-1.85c1.49-1.73,3.19-3.3,4.57-5.12,3-3.95,6.13-7.49,11.17-9.21,3.64-1.26,4.37-4.89,4.38-8.57,0-5.84.74-5.68,5.93-8,7.65-3.39,16.13-5.54,21.79-12.59,2.3-2.87,4.13-3,7.47-.9,2.72,1.71,5.16,2.62,8.53,1.62s5.34,2,4,5.26c-.42,1-1.34,1.87-1.78,2.9a33.68,33.68,0,0,0-2,5.76c-.92,4.25-1.6,8.55-2.4,12.82-.14.75-.66,1.5-.57,2.2,1.42,11.28-2.39,22.74,1.21,34,.41,1.25-.19,3-.68,4.34-1.19,3.38-2.6,6.68-4.1,10.47,1.27.24,2.29.5,3.32.61a9.15,9.15,0,0,1,7.11,4.21,26.8,26.8,0,0,0,2,2.76c4.24,4.92,4.3,5.34,1.15,11.33l7.79,1.72-.17-.15c2.75,4.3,5.66,8.51,8.15,12.95a7.58,7.58,0,0,1,.65,5.26c-.93,3.25-.68,5.44,2.73,7a5.13,5.13,0,0,1,2.32,3.47c.68,4.38.81,5,5.25,5.58a9.29,9.29,0,0,1,7.84,5.5c1.92,3.69,1.94,6.63.22,10.16-1.94,4-1.47,4.91,1.75,7.78,2,1.8,3.76,3.93,6.12,6.44,3.35-1.35,7.51-7.33,12.34.07,2.55-1.84,4.89-3.39,7.08-5.13,3.19-2.54,6.27-2.64,10-.9,5.9,2.72,12.09,4.81,18.15,7.16l.56-1.13c-1.3-1-2.48-2.41-3.94-2.85-3-.9-4.36-2.07-4.07-5.62.23-2.7-2.92-4-5.85-3.1a13,13,0,0,1-2.69.88c-2,.19-3.44-1.35-2.8-3.19a34.06,34.06,0,0,1,3.08-6.72,5.07,5.07,0,0,1,6-2.28,19.38,19.38,0,0,0,13.36-.5c1-.42,2.6.12,3.74.63a33.13,33.13,0,0,1,4.19,2.62l7.69-5.26c-.16-2.46-.34-5.24-.49-7.62-1.22-1.41-2.38-2.55-3.31-3.86a5.82,5.82,0,0,0-7.21-2.25,13.09,13.09,0,0,1-2.57,1.17,3,3,0,0,1-3.48-4.18,24.09,24.09,0,0,1,2.9-4.87c3.18-4.48,3.1-7.26-.37-11.47-.72-.88-1.16-2-1.9-2.85-1.59-1.84-1.2-3.29.43-4.93a27.08,27.08,0,0,0,4.62-5.66c1.73-3.12,5.46-3.55,7.39-6,1.8-2.25,2.31-5.48,3.91-7.93.8-1.24,2.7-1.86,4.21-2.53,2.07-.91,4.33-1.44,6.33-2.48a3.3,3.3,0,0,0,1.5-2.63,3.26,3.26,0,0,0-2.06-2.23c-.84-.21-1.94.59-2.92,1-.14.05-.19.32-.33.45-1.59,1.52-3.77,4.59-4.67,4.25-3.18-1.19-7.08-1.67-9.15-5.14,1.34-3.39,3-6.23,6.49-7.65,2.53-1,4.07-2.56,3-5.76-.38-1.19.21-2.92.83-4.17,2.44-4.85,2.5-4.81-1-8.73-.88-1-1.66-2.09-2.52-3.11-3.8-4.59-11.22-3.92-13.61,1.45a8.45,8.45,0,0,0,.12,5.41c1.07,3.43,2.77,6.66,3.86,10.08.39,1.24.31,3.35-.47,4.06a5,5,0,0,1-4.22.53c-1.9-.63-3.55-2-6.25-3.65.09,1.71-.25,3,.27,3.7,1.14,1.48,2.81,2.54,4.08,3.94,2.94,3.24,2.3,5.21-1.94,6.23-.92.22-1.86.32-2.93.5-.47,3.6-2.23,6.47-5.55,7.87-2.22.93-3.5,2.09-3.52,4.55a5.43,5.43,0,0,1-.53,2.2c-1.13,2.46-3.55,4-5.38,3.3-2.57-.94-1.62-3.05-1.54-4.87a9.68,9.68,0,0,0-.45-1.89c-1.52,0-3.25-.06-5-.07a41.31,41.31,0,0,1-5-.05c-2.66-.37-4.33-1.6-2.52-4.66-9,0-16.06-4.74-23.83-6.68-1-2.31-2-4.46-3.27-7.38l-3.23,7.17c1.12,4.64,7.84,6.06,6.49,12.19-4.49-.56-8.94-.81-13.22-1.79a12,12,0,0,1-5.62-3.58,32.36,32.36,0,0,1-6-8.15c-3.81-8.31-9.66-15.27-14.37-23-2.43-4-1.14-8.13.93-11.95,3.14-5.81,6-11.67,6.75-18.37a10.94,10.94,0,0,1,2.09-5.75c3.13-3.54,2.43-7.5,1.78-11.37-.22-1.33-1.84-2.63-3.11-3.54-2.6-1.85-5.55-3.24-8.07-5.19-2.11-1.63-1.73-3.78.6-5a87.37,87.37,0,0,1,9.65-4.78,30.59,30.59,0,0,1,7.75-1.58c3.21-.35,5.26-1.68,6.13-4.93,1.36-5.07,4.71-7.73,9.91-9A37.36,37.36,0,0,0,502.92,143c5-3.29,14-4.1,19.29-1.11,3.82,2.18,7.38,3.18,11.57.06a16.25,16.25,0,0,1,11.22-3c3.17.22,6.57-2.44,9.82-3.92,2.93-1.33,5.7-3.08,8.71-4.15a9.83,9.83,0,0,1,8.31.42c1.43.79,3.34.62,4.9,1.24,1.1.44,2.81,1.56,2.74,2.2a4.88,4.88,0,0,1-2.18,3.37c-2.08,1.07-4.48,1.53-7.44,2.45,2.94,3.55,5.49,6.53,2.9,11,5.89,1,7.32-4.63,11.41-6.32,4.14,2.13,7.52.65,11.64-1.95,4.69-3,10.65-3.81,16.5-3.18,2.23.24,4.68.64,6.72,0,3.33-1.05,6.38-2.13,10-.87.86.3,2.94-.91,3.49-1.94,3-5.63,7.22-6.83,13.66-6.49,5.63.3,12,1.68,17.53-2.2,2.66-1.86,5.93-2.38,8.84.54,1.3,1.3,3.23,2,4.87,2.94.32.19.71.66.94.58,4.76-1.55,9.47.7,14.19.17,1.83-.21,2.63-1.66,3.15-3.56.7-2.62.84-5.71,3.57-7.33,6.22,2.79,8.58,8.06,6.52,13.78-.76,2.09-1,4.37-1.55,6.54-.41,1.63-.56,3.53-1.53,4.76-3.37,4.29-7,8.42-10.64,12.46a8.48,8.48,0,0,0-2.11,5.33c-.76,6.18,2.11,12.37-.33,18.45a6.42,6.42,0,0,0-.17,2.84c.38,4.75-.15,9.06-4.27,12.35-1,.77-1.06,2.69-1.45,4.11-.84,3.09-1.05,6.51-2.54,9.23-2.94,5.34-2.72,10.51-.87,16,2.54,7.49,0,14.39-6.91,17.9-1.72.88-3.83,1-5.69,1.43-1.39,2.84-2.78,5.71-4.35,8.93,1.95,3.85,8.58,5.67,6.28,11.66,3,3.46,5.9,3.2,9.25,1.11,2.17-1.36,4.77-3.06,6.83.5-1.46,4.87-3,9.74-4.3,14.66-.24.91.42,2.13.86,3.12,1.94,4.35,1.58,5.94-2.09,8.64-4.48,3.29-5.24,7.91-2.33,12.94a47.58,47.58,0,0,1,2.43,5.75c-6,3.54-11,7.75-18.33,5.52-1.5-.45-3.46.6-5.12.93.62,10.46.1,11.42-8.87,17.22-.29,2.33,3.83,3.75,1.62,6.52-1.51,1.89-3.14,3.68-4.71,5.51a36.2,36.2,0,0,0-3.27,3.87c-1.51,2.35-2.78,4.85-3.61,6.33l5.37,4.92-.54.83a9.86,9.86,0,0,0-.3-2c-2-5.57-.46-10.7,5-12.32,5.06-1.5,9.06-5.3,14.82-5.48,3.52-.12,5.64-4.09,7.66-7.53L667.24,334c1.48-4,5.76-3.77,8.53-6.44-1.4-4.51.8-8.11,4.18-11.24.28-.26.53-.68.85-.75,6.46-1.25,12.38-5.58,19.49-3.21,1.71.57,4,1.21,5.4.53A41.83,41.83,0,0,0,714,307c.59-.49.52-2.19.26-3.2-1.33-5.17,1.34-8.62,5.2-11,3.65-2.31,5.93-5.13,6.78-9.35.22-1.05,1.64-2.69,2.34-2.62,1.27.14,3.29,1.22,3.46,2.18.62,3.45,2.31,6.32,3.67,9.42.76,1.73.13,4.06.13,6.76,1.73,1.69,3.65,4,2.67,7.48a2.28,2.28,0,0,0,.17,1.67c3.21,5.09,1.13,9.06-1.93,13.5-4,5.76-7.49,11.25-15.45,12.07-2,.21-4.4,3.12-5.34,5.33-2.44,5.72-6.62,9.14-12.22,11.08-2.45.85-3.4,2.44-2.94,4.79a34.51,34.51,0,0,0,2,7.1c1.59,3.65,3.7,7,3.36,11.32-.1,1.28,1.53,3,2.77,4a18.86,18.86,0,0,1,5.87,7.57c.68,1.68,2.14,3.07,3.37,4.49,1.37,1.57,2.94,3,4.31,4.54s1.33,3.41.08,5.22c-2,2.92-3.9,5.91-6.07,9.21,3.43,1.35,6.58,2.93,8.12,6.64.32.78,2.67,1.1,4,1,5.37-.35,4.9-.1,7.86,3.94,3.86,5.27,6.81,11.46,12.87,14.88a8,8,0,0,1,2.18,1.82c1.31,1.62.89,3.42-1,4.13-4,1.52-8.06,2.93-12.51,4.53.93,6.05-4.8,8.25-7.5,12.37a2.18,2.18,0,0,1-1.38.95c-5,.35-10.18,2.57-15.07.66-3.32-1.29-5.73-1-8.42.95-1.68,1.24-3.63,2.08-5.4,3.2-5.77,3.67-12.19,3.52-18.63,3.2-1.26-.07-2.51-.32-4.21-.55.24,2.65.33,4.86.68,7a5.93,5.93,0,0,0,1.32,3c2.88,3,5.91,5.82,8.89,8.71,2.2,2.13,2.76,4.9,1.33,6.58a5.71,5.71,0,0,1-7.2.78,8.38,8.38,0,0,0-8-1.52,2.23,2.23,0,0,1-1.13.13c-5.62-1.51-10,1.74-14.87,3.54-10.26,3.79-20.21,3.11-28.84-4.34-1.87-1.62-3-4.13-4.82-6.79-1.09,1.76-1.93,3.15-2.79,4.53a22.63,22.63,0,0,1-2.14,3.26c-3.58,3.95-3.62,3.92-8.7,1.17-2.54,1.93-2.46,4.06-.15,6,1.63,1.4,2.79,2.86,1.49,4.86s-3.49,2.18-5.56,1.06A38.54,38.54,0,0,0,590,499.92c-1.79-.08-3.53-1.25-5.29-1.92a84.57,84.57,0,0,0-8-3,4.83,4.83,0,0,0-5.18,1.34c-2.69,2.81-5.54,3.28-8.64,1.16-4.75-3.25-10.82-4.94-13.2-11.26-.44-1.18-3.53-1.6-5.47-1.9-3.19-.5-6.45-.48-9.63-1a3.33,3.33,0,0,1-2.35-2c-.17-.82.68-2,1.36-2.8,1.22-1.39,2.64-2.6,4-3.88a25,25,0,0,0,5-.2c2.47-.58,2.79-1.88,1.36-5.32ZM527.64,245.92l4.52-3.53c-3.81-2.17-6.81-4.09-10-5.62s-3.81-1-5.7,2.2a20,20,0,0,1-2.74,3.54c-3.46,3.58-3.25,5.67.8,8.49,2.47,1.72,4.76,3.69,7.19,5.47,1,.76,2.16,1.8,3.3,1.87,3.5.23,7.83-3.9,8.65-7.52l-5.91-5.06ZM551,421.84c2.53,1.6,4.74,3.73,7.34,4.44a7.52,7.52,0,0,1,5.37,4.49c.86,1.83,2,3.53,3,5.41a8.33,8.33,0,0,1,8.07,1.07c2.59,1.71,6,2.26,9.12,3a5.4,5.4,0,0,0,3.84-.5c4-2.62,7.88-5.51,11.35-8-2-2.55-4-4.76-5.49-7.32A75.41,75.41,0,0,1,590,416c-5,.24-9.27-.76-11-5.6,1.25-2,2.84-3.57,3.15-5.34.67-3.9.65-7.91,1-11.87a50.24,50.24,0,0,1,1-7.36c.71-2.88,3.6-3.55,5.68-1.48a6.11,6.11,0,0,1,1.2,1.91c1.55,3.67,2.92,7.41,4.65,11a8.18,8.18,0,0,0,3.22,3.56c3.51,1.84,7.23,3.28,10.84,4.86,6.62-2.8,7.73-2.4,11.16,4,.57,1.06,1.1,2.14,2,4a33.21,33.21,0,0,1,.34-4.73,23.77,23.77,0,0,1,1.5-3.66c-3.89-2.88-4-5.88-1.1-9.35.89-1.08.9-2.86,1.46-4.26,1.58-4,.36-6.94-3.21-9.05-1.65.94-3.34,1.56-4.55,2.69-1,.94-2.15,2.61-2,3.73.64,3.8-2.46,4.89-4.4,6.73-.55.53-2.23.4-3.09,0a58.85,58.85,0,0,1-5.65-3.57c-4.94-3.23-5.78-5.24-4.36-11.32-1.78-1.18-3.61-3.13-5.8-3.67-2.85-.7-4.15-2.47-5.29-4.69-.73-1.43-1.23-3-2.28-5.57-3.16,4.54-8.46,4.09-11.46,8.05-1.76,2.32-5,1.16-5.46-1.8s-.51-6.24-.68-8.57c-1.84,2.82-3.64,6.79-6.53,9.64s-6.79,4.47-10.51,6.8c2.13,3.36,3.84,6.05,5.54,8.75,2.59,4.1.79,7.47-4.14,7.7-1.33.07-2.68-.12-4,0-3.29.24-6.21,2-6.9,4.94-1.12,4.74-4.31,6.28-8.23,7.66-3.45,1.21-7,2.42-10.22,6.57,2.13-.37,3.52-.21,3.9-.75,1.61-2.29,3.78-2.94,6.39-3.08,3.7-.19,7.39-.58,11.68-.94-.26.25.05,0,.29-.27,1.29-1.58,2.25-3.82,5-2.74,2.53,1,3.22,3.17,3,5.6C552,416.66,551.44,418.88,551,421.84Zm91.51-49.06c1,2.7,2.07,5.4,3.47,9.07C647.61,377,644.29,375.16,642.46,372.78ZM310.5,358c-1.46-1-2-1.67-2.57-1.63s-1,.79-1.53,1.24c.59.52,1.12,1.32,1.8,1.49C308.71,359.2,309.43,358.52,310.5,358Z" transform="translate(-101.64 -115.63)"/><path class="cls-1" d="M1658.37,713.74c1.54-3.7,1.7-7.66-1.81-11.49-2.55-2.77-2.38-4.13.07-7a11.7,11.7,0,0,0,3.22-6.47c.21-1.66,1.69-3.2,2.71-4.72.82-1.23,2-2.24,2.68-3.54,2.71-5.43,9.4-6,13.09-.93a31,31,0,0,1,2.43,4.85l-5.18,9.51c3.17.29,5.37.46,7.56.71a30.6,30.6,0,0,1,5.61.82c3.77,1.16,4.43,2.81,3,6.37-.51,1.23-1.13,2.42-1.54,3.68-1.72,5.3-1.7,5.3,2.85,8.74,4.08,3.09,4.3,5.55,1.21,9.53a8.73,8.73,0,0,0-1.9,4.43c-.21,3.07-1.42,4.85-4.39,5.88-3.6,1.24-4.08,2.26-3.56,5.92s1.23,7.1,5.74,8.8,6.24,5.83,5.79,10.74c-.18,1.89,0,3.81-.13,5.7-.16,1.67-.11,3.72-1,4.88-1.32,1.64-3.35,3.4-5.28,3.67a5,5,0,0,1-5.51-4.1c-.6-5.9-6.59-6.35-9.34-10-.87-1.16-3.73-.92-5.52,1.06-3.53,3.9-3.77,3.93-8,1.2-2.67-1.74-5.23-1.76-8.13-1-5,1.23-7.45.27-9.83-4.35a14.35,14.35,0,0,0-5.57-6.18c-4.38-2.64-4.29-3.26-.23-6.91a6.28,6.28,0,0,0,.73-1.3c-.48-1.36-1-3-1.6-4.54-.72-1.78-.81-3.61,1-4.53a8.21,8.21,0,0,1,4.73-.75c1.56.25,3,1.35,4.91,2.29,1.12-4,3.55-7.44.72-11.66-.56.65-1.11,1-1.21,1.44-1.29,5.32-4.4,6.73-9,3.89a59,59,0,0,1-4.88-3.75c-4.09,3.77-6.23,4.53-8.39,3s-2.92-5.67-1.42-10l-4.2-2.73c-3.06,3.76-.06,6.49,1.12,9.16-1,3.6-4.17,3.12-6.46,3.53-.9,2.9.67,3.91,2.48,3.51,6.17-1.35,8.93,4,13.05,6.52,1.14.68,1.35,3.86,1.06,5.75-.8,5.2-1.06,5.27,3.44,7.87,3.5,2,6.16,4.59,6.55,8.77a42.67,42.67,0,0,1-.33,6.18c.5,0,1.14.09,1.52-.16,6.31-4.12,11.93-2.29,17.29,1.92a48.61,48.61,0,0,0,4,3.18,25.08,25.08,0,0,0,4.27,1.62c-.52-2.38-.86-3.92-1.24-5.63,1.11-1.18,2.22-2.48,3.46-3.65a4,4,0,0,1,5.19-.7c1.3.74,2.91.93,4.17,1.72,1.41.87,3,1.91,3.72,3.3a6,6,0,0,1,.09,4.71c-.46.91-2.51,1.13-3.9,1.4-.78.14-1.66-.27-3.07-.54,1.7,3.65,3.17,6.26,7.27,6,1.16-.07,2.51.87,3.56,1.63,2.75,2,2.9,3.66.56,6.08a24.5,24.5,0,0,1-3.23,2.47c.55,4.29,2.2,6.35,5.71,7.14,2.73.61,4.8,2.31,5.13,5.43.27,2.57-1.09,5.28-3.39,5-4.68-.48-7.36,2.43-10.48,4.82-1,.79-2.21,1.41-3.43,2.18.21,2.65,1.47,4,4,4,1.71,0,3.45-.19,5.14,0,5.5.65,9.23,5,7.41,9.93-1.23,3.36-.22,5.8.65,8.73-3.8,4.51-8.44,5.61-13.85,4.11a33.6,33.6,0,0,0-3.8-1.23,2.75,2.75,0,0,0-3.29,3.41c1.6,6,.46,11.65-1.44,17.29-.29.88-.5,2.2-1.13,2.49-3.19,1.49-6.24,3-8.07,6.3-.29.53-2.17.55-3.16.27-3.38-1-6.44-2.61-7.93-6-1-2.39-2.49-3.49-5.21-3.51a10.23,10.23,0,0,1-5.38-1.54c-6.93-4.65-13.63-9.65-20.57-14.29-3-2-6.33-3.4-9.49-5.1-2.59-1.39-3.94-2.63-3.79-6.49s-2.24-8.35-6.16-11c-1.26-.84-2.6-1.55-4-2.38-1.52.76-3,1.84-4.54,2.19-2.79.62-4.58,2.2-6.39,4.31-5.48,6.4-8.27,6.05-13-1.36l-10.63,3a26.31,26.31,0,0,0-1,3.3c-.82,4.43-2.45,7.72-6.74,10.48-3.39,2.19-6.16,5.41-10.32,6.55a2.12,2.12,0,0,0-1.27,1.09c-2,4.83-6.45,5.54-10.67,6.63-4.76,1.24-9.61,2.17-14.32,3.56a13.5,13.5,0,0,0-4.67,3c-4.93,4.3-7.68,4.77-12.46.48-4.93-4.41-10.2-4.49-15.85-2.63a8.9,8.9,0,0,1-7.64-.69c-4.81-2.69-3.07-7.36-3.33-11.29-.21-3.15,2.6-4,5-4.47,3.31-.7,6.68-1.09,10-1.61,1.2-4.74.85-5-3.55-5.84a23.88,23.88,0,0,1-7.71-3.1c-1.74-1.07-3-3.25-5.39-2.13a7,7,0,0,0-4.42,6.17c-.1,2.67,0,5.34,0,8,.16,5.29-1.59,7.6-6.56,9a38.94,38.94,0,0,0-6.18,2.53c-2.62,1.26-5.3,1.42-7.63-.22-4.31-3-8-6.81-7.93-12.51.07-4-1.54-5.81-5.3-6.75-3.41-.85-5.44-3.61-6.06-7-1.51-8.21-3.3-16.39-1.66-24.88.53-2.7,1.66-4.06,4.1-4.74,4.89-1.35,9.77-2.73,15.11-4.23-1.68-3.42-4.48-6.37-2.1-10.1,2.09-3.27,5-5.14,9.26-4.8.26-3.65,1.52-6.47,4.66-8.17a3.39,3.39,0,0,0,1.14-1.88,6.64,6.64,0,0,0-.2-2.07c-1.68.18-3.28.46-4.88.49-3.37.07-4.49-1.16-4.57-4.35a50.6,50.6,0,0,0-.74-6c-.08-.56-.61-1.19-.45-1.61,1.41-3.81,3.27-7.44,3.72-11.59.06-.52,1.89-.93,3-1.24,1.61-.47,3.39-.55,4.88-1.25,5.27-2.49,5.38-2.72,4.65-8.76-.58-4.78,2-8.21,5.33-10.67,1.5-1.1,4.46-.19,7.59-.19.48-1.36,1.4-3.59,2.07-5.89,1-3.37-.16-5.11-3.55-5.6-.93-.14-1.91,0-2.85-.08-3.3-.32-4.55-1.27-4.59-4.58,0-3.16-.4-6-2.51-8.48a1.5,1.5,0,0,1-.23-.53,42.68,42.68,0,0,0-8.61-15.24c-5.2-5.47-5.29-8.18-.49-14.12a24.11,24.11,0,0,0,1.31-2.13c-3.39-3.15-7-2.43-10.63-1.18-6.24,2.16-8.4,1.31-11.09-4.66-1.78-4-2.22-4.26-6.47-4-1.9.13-3.79.67-5.66.61-2.78-.09-5.24-2.2-5.29-4.37-.06-2.76,2.18-3.25,4.2-3.84.71-.21,1.45-.33,2.4-.53-.6-4.51-4.13-6.82-6.55-9.84-.57-.72-1.57-1.09-2.25-1.75-2.51-2.41-2.46-3.62.22-6a12.67,12.67,0,0,1,1.55-1.09c-1.08-3.36-2.29-6.34-3-9.44-1.07-4.88,1.11-7.39,6.1-6.82,2.93.33,5.77,1.51,9.35,2.51-.6-1.25-.77-2.19-1.34-2.67-2.16-1.81-2.4-4.11-2.29-6.71.26-6.07.2-6-5.62-5.25a7.18,7.18,0,0,1-3.39,0,7.05,7.05,0,0,1-3.48-2.46c-.33-.53.81-2.25,1.62-3.14,2.11-2.33,3.6-5.33,7.29-6,1-.19,1.48-2.46,2.39-3.62s2-2.92,3.38-3.49c3.45-1.44,7.09-3.11,10.71-3.27,2.7-.12,5.6,1.77,8.2,3.17,1.44.78,2.28,2.64,3.69,3.53a8.16,8.16,0,0,0,4.59,1.46c8.3-.71,13.37,1.95,17.19,9.84.94-1,2.41-1.85,2.39-2.67-.11-4.27,3-6.89,4.78-10.17,1.23-2.28,3.3-2.62,5.38-1.51a14.55,14.55,0,0,1,5,3.71c2.71,3.7,6.4,5.88,10.28,8,2.83,1.53,5.92,2.9,6.66,6.45,5.82,1.13,7.22.57,10-4.06a27.78,27.78,0,0,0,2.67-5c1.12-3.22,3.39-4.52,6.48-5.71,3.61-1.39,6.85-3.81,10.09-6a28.23,28.23,0,0,1,13.1-5.1c3.87-.45,7.5-3.17,11.36-3.47s7.77,1.77,11.65,1.74c4.53,0,8.49.36,12.33,3.17,2.69,2,6.15,2.92,9.33,4.18a3.33,3.33,0,0,0,2.68,0c3.27-2.67,6.39-1.27,9.57.31,2.08-2,4.07-3.91,3.83-6.82-.3-3.75,1.68-5.7,4.76-6.89,2.11-.81,3.49-1.79,3.8-4.34s2.64-3.64,5-4.12a14.37,14.37,0,0,1,12.44,2.69c3.48,2.8,6.69,5.93,10.13,9,2.41-2.68,4.77-5.07,6.81-7.72.69-.91.67-2.45.78-3.71.33-3.7,1.35-5,4.89-4.48,3.1.44,5.46-.43,8-1.94a16.46,16.46,0,0,1,6.94-2.25,6.36,6.36,0,0,1,4.77,2.15c.68.91,0,3.23-.64,4.62-1,2-2.51,3.71-4.25,6.16,6.11,3.45,8.26,10.43,15,13,5.07,1.94,5.19,5,1.25,9.09a26.19,26.19,0,0,1-3.24,3.17,22.52,22.52,0,0,1-3.88,1.77,40.94,40.94,0,0,0,1.6,4.23c1.72,3.34,2.74,6.59.7,10.26a5.34,5.34,0,0,0-.16,3.84c1.32,3.84-.11,7.14-1.68,10.42-2.18,4.54-5.86,5.3-9.58,1.89-1.36-1.24-2.27-3-3.81-5.09-4,2.07-8.39,4-13.38.75a48.88,48.88,0,0,1,3.37,5.85c.87,2.09,1.31,4,3.8,5.21,3.4,1.68,3.53,4.69.89,7.5a9.52,9.52,0,0,1-3.63,2.69c-4.8,1.57-5.71,5.05-5.18,9.43.11.93.2,1.86.25,2.31,3.52,2.41,6.76,4.39,9.71,6.75,2.76,2.2,2.58,3,.77,6.25a63.58,63.58,0,0,0-2.92,6.64c-1.71,4.05-4.42,6.61-9.15,6.31a11.84,11.84,0,0,0-2.45.43c-.72,1.9-1.44,3.8-2.14,5.67,7,4.66,3.7,11.64-1.68,15Zm-3.16,9.49.6.95c.46-.64.92-1.29,1.37-1.94Z" transform="translate(-101.64 -115.63)"/><path class="cls-1" d="M391.48,133.37c.54-2.13.45-4.36,1.38-4.94,1.8-1.12,4-.62,5.73,1,3.67,3.38,2.82,8.57.79,13.36-1.51,3.57-4,6.71-6.56,10.85,3.82-.55,7.14-.84,10.36-1.57,2.4-.55,4.77-.11,5.35,1.95a47.76,47.76,0,0,1,1.34,11.14c0,.85-1.72,1.75-2.74,2.72,4.09,4.39,4.71,9.09,3.37,15.17-1.17,5.37-3.91,9.37-6.68,13.6-2.17,3.3-2.74,3.35-6.58,1.79-1.34-.54-2.72-1-4.85-1.79.3,3.88.39,7,.82,10.08a6.44,6.44,0,0,1-2.38,6.53c-1.16,1-1.51,2.84-2.39,4.21-.65,1-1.47,2.47-2.37,2.59a4.78,4.78,0,0,1-3.4-1.54c-1-1-1.53-2.53-2.49-4.21-2.74,2.34-5.29,2.41-7.53-.87-1.43,2.63-2.93,4.63-6,4.57-2.63-.05-3.93,1.71-4,4.46a17,17,0,0,1,1.44-1.91c1.47-1.44,2.86-.77,3.93.47,2,2.34.11,9.59-2.82,10.57-2,.65-4.33,1.64-6.08,1.09-3.16-1-4.53.44-5.78,2.42.55,2.54,1.84,5.07,1.33,7.15-.45,1.84-2.91,3.18-4.8,5.06-1.05,6.64-3.23,8-8,4.78.77-3,1.6-6,2.19-9,.06-.3-1.35-.89-3-1.95,2.48,8.07-4.44,9.93-7.55,14-1.9,2.49-5.3.5-6-2.85a20.93,20.93,0,0,0-2.2-6.23c-2.15-3.73-1.55-6.81,1.45-9.63a10.22,10.22,0,0,0,2.9-3.77l-4.73,1.75c-2.4-2.52-.63-5.2-.53-8.41l5.34,1.51c-2.52-3.23-4.15-6.28-3.44-10.09A3.2,3.2,0,0,0,325,215c-5.89-4.63-11.65-9.44-19.33-11.08-1.31-.28-2.68-1.94-3.25-3.29-.22-.53,1.51-2.26,2.66-2.91,2.38-1.36,4.52-3.38,7.8-2.57,1.31.33,1.52-.33,2.56-3.93-2.09-.11-4.78.81-5.44-2.3-.56-2.65,1.14-4.86,5.64-7.16l2.87,4.32c-1.31-5.41-.55-9.78,4.5-12.8a3.31,3.31,0,0,0,1.54-2.2c.19-3.86,3-5.63,5.74-7.3,4.74-2.92,7.88-6.59,7.23-12.51-.34-3.09,1.59-5.12,3.55-6.81,6.57-5.66,15.8-8.75,23.4-3.36,3.19,2.26,5.8,3,9.8,1,4.37-2.19,9.21-3.25,12.78-7.06C388.09,133.94,390.18,133.83,391.48,133.37Z" transform="translate(-101.64 -115.63)"/><path class="cls-1" d="M1664.2,430.3c-2.81-4.45-3-7.42,0-10.39.86-.84.77-3.27.29-4.7-1.11-3.3-.16-5.86,2.56-7.37a87.89,87.89,0,0,1,11.82-5.36c2.14-.8,3.65.65,4.09,2.82a18.5,18.5,0,0,1,.15,3.42,7.56,7.56,0,0,0,3.9,7c3.55,2.12,3.74,3.76,2,7.58a17.77,17.77,0,0,0-1.65,4.75c-.28,2,.23,3.82,2.63,4.38a7.23,7.23,0,0,1,1.6.61c7,3.33,8.1,8.3,2.82,13.95-3.14,3.36-4.65,7.29-5.68,11.59s-2.21,8.45-3.24,12.69c-1.53,6.24-5.92,9.19-11.87,9.72-2.83.25-5.17.84-7.11,2.88a6.92,6.92,0,0,1-1.39,1c-4.69,3-8.42,1.5-9-3.92-.36-3.33.2-6.79.61-10.16.48-3.92-.12-5.47-3.21-6.94-7.53-3.58-9.36-7.77-6.09-15.38,1.8-4.19,3.93-8.05,3.28-12.93-.31-2.36,2.44-4.06,5.77-4.4C1658.63,431,1660.77,430.69,1664.2,430.3Z" transform="translate(-101.64 -115.63)"/><path class="cls-1" d="M752.07,244.18a53.15,53.15,0,0,1,5.5-2.74c2.76-1,8.12.78,9.78,3,1.81,2.48,2,8-.18,10.13-5.28,5.16-7.16,11.4-6.92,18.53,0,.33-.3.67-.58,1.26-4.67,2-9.83,2.15-14.87,1.7-2.18-.19-4.42-1.93-6.25-3.44-4.16-3.45-3.95-3.32-8.63-1.12a56.78,56.78,0,0,1-10.78,3.57c-5,1.21-8.76,3.63-10.38,8.7-1.27,4-3.94,5.82-8.08,5.91-1.88,0-3.76.76-5.64.73-3.06-.06-3.93-1.85-3.65-4.91.72-7.8,5.69-12,12.22-14.75,3-1.25,6.55-1.13,9.64-2.23A128.26,128.26,0,0,0,730,261.7c5.48-2.89,5.08-10.46-.12-13.9q-7.53-5-14.73-10.45c-4.21-3.2-4-5.31-.46-9.36,2.72-3.1,5.51-4.69,9.86-4.06,1.87.27,5.07-.93,5.87-2.43,1.78-3.34,5.13-4.42,7.55-6.74,1.85-1.76,4.67-2.19,6.22-.36,3,3.49,7.2,4,10.89,5.75,3.41,1.63,3.21,2.11,2.32,5.66-1.21,4.84-2.06,9.51-6.4,12.92C749.35,240,749.78,242.61,752.07,244.18Z" transform="translate(-101.64 -115.63)"/><path class="cls-1" d="M716.8,184.59l-3.53-4.29c2-3.52,4.79-5.71,8.52-6.24,2.7-.39,4.38-1.86,6.19-3.63,1.95-1.92,1.56-3.62.67-5-2.23-1-5.45-1.92-5.39-2.55.18-2.26.89-5.1,2.48-6.49,2.51-2.2,5.22-.61,8.17,3-.13-2.48.07-3.67-.33-4.61-.33-.77-1.38-1.23-2.09-1.85-3.85-3.38-3.66-4.65,1.4-8.13l5.11,3.62c1-.6,1.92-1.15,2.83-1.74,2.74-1.78,4.54-1.63,5.25,1.24,1.28,5.15,4.45,7.75,9.62,8.59l2.68,20.79c3.7,2.71,6.08,7.16,7.78,12.09a31.42,31.42,0,0,0,2,4,45,45,0,0,1,3.13,6c1.94,5.7.47,7.95-5.44,9.34-1.34.32-2.48,1.37-3.77,2a51.59,51.59,0,0,1-7.71,3.31c-2.18.61-3.61-.76-3.71-3.13-.06-1.3.13-2.62,0-3.89-.79-5.84-5.77-7.24-10.13-8.41-5.38-1.45-11.13-3.29-16.45.76a4,4,0,0,1-2.74.63c-4.46-.63-8.92-1.37-13.35-2.25-.72-.14-1.9-1.36-1.78-1.76a8.09,8.09,0,0,1,2-3.73c2.09-1.88,4.53-3.37,6.74-5.13A13.91,13.91,0,0,0,716.8,184.59Z" transform="translate(-101.64 -115.63)"/><path class="cls-1" d="M701.41,531.93c1.53,0,3.05,0,4.57,0,2,0,3.66-.24,4.79-2.3,1.42-2.63,3.65-3.81,6.7-2.53a1.56,1.56,0,0,0,1.12,0c5.28-2.69,8.54,1,12,3.81a8.67,8.67,0,0,1,3.18,8.67c-.55,3-3.46,3.77-6.09,4.45-1.47.38-3,.73-4.43,1a15.27,15.27,0,0,0-10.95,8.33c-2.74,5.39-6.37,9.3-13.11,9.36-1.82,0-3.65,1.76-5.45,2.77-3.11,1.75-4.81,1.75-6.95-1.08-2.69-3.54-5.58-6.48-9.76-8.42-3.48-1.62-3.32-4.3-.11-6.5,5.23-3.58,9.76-7.72,12.31-13.72a6.21,6.21,0,0,1,5.84-3.89c2.1-.09,4.2,0,6.29,0Z" transform="translate(-101.64 -115.63)"/><path class="cls-1" d="M801.67,567.57c-1.32-5.25-6.79-7-6.79-12.33,0-.66-1.9-1.68-3-1.89-1.84-.34-3.82.08-5.67-.23-3.34-.56-4.59-3.63-2.11-5.77a55,55,0,0,1,11.59-8c2.67-1.3,5-2.37,6.51-5a14.6,14.6,0,0,1,2.36-2.43c2.06-2.16,4.23-4.23,6.12-6.52,2.57-3.11,5.53-3.17,7,.54,1.72,4.5,4.76,6.32,9.27,7.2,2.87.56,5.6,2.22,8.17,3.76,2,1.17,2.13,4.08.12,6.63a28.47,28.47,0,0,1-6.67,6.1c-3.24,2.1-6.36,4-8,7.83a6,6,0,0,1-2.77,2.77C812.72,562.62,807.59,564.87,801.67,567.57Z" transform="translate(-101.64 -115.63)"/><path class="cls-1" d="M456.69,846.42c-2.82,1.79-5,3.1-7.11,4.56-1.2.84-2.15,2-3.34,2.88s-2.76,2.27-3.77,2c-5-1.36-7,2-8.8,5.33a16.37,16.37,0,0,0-2.14,7.43c0,5.28-.1,5.78-6.3,7.19-.7-1.81-1.56-3.63-2.12-5.54-1-3.46-3.17-5.7-6.76-6s-6.17-2.66-9-4.42c-2.56-1.6-2.39-3.63.21-5.18s5.13-2.71,7.8-.16c2.88,2.77,5.88,1.34,8.28-.43a25.37,25.37,0,0,0,5.45-6.24c2.12-3.09,3.57-3.92,7-3.15,3.86.88,4.52.42,6.24-4.61-3.66-1.24-4.7-4.41-5.18-7.88s.22-4,4-4.07a10.71,10.71,0,0,0,1.86-.41c-1.85-4.63-2.14-8.84,2.13-12.34.78-.63.63-2.44.84-3.72.24-1.48.05-3.16.72-4.4a3.9,3.9,0,0,1,3.11-1.71c2.34.24,5.41,5.51,4.63,7.88-1.1,3.3-1.28,6.12,1.65,8.73,2,1.8.75,3.64-.55,5.51a49.3,49.3,0,0,0-4.49,7.77c-1.32,2.91-1,5.51,2.31,7.21C454.4,843.19,455.06,844.52,456.69,846.42Z" transform="translate(-101.64 -115.63)"/><path class="cls-1" d="M707.13,497.2a37.78,37.78,0,0,1-3.83,0c-3.93-.4-6.43-5.09-4.34-8.48,1.1-1.79,2.64-3.13,1.55-5.59-.23-.53.88-2.06,1.71-2.53a13.13,13.13,0,0,1,4.33-1.37c6.55-1.09,12.41-4.18,18.58-6.35,4.31-1.52,8.33-.49,11.89,2.07,3,2.17,2.51,4.64-1,6.22-.66.3-1.35.56-2.28.94.18,1.06.35,2,.5,2.86.64,3.91,0,5-3.67,6.46-5.46,2.12-5.46,2.12-5.61,8.15-.19,7.42-4.81,13.93-11.52,15.71-1.2.31-2.93-.39-4.08-1.14-1.38-.9-1.48-2.35-.73-4C711.63,503.31,711.55,503.09,707.13,497.2Z" transform="translate(-101.64 -115.63)"/><path class="cls-1" d="M656.21,512.62c.16-.81.38-1.91.61-3,.16-.74.28-1.5.5-2.23.62-2.07,9.67-8.77,11.79-8.75,3.17,0,6.2,3.4,4.79,6.19-2.14,4.2-1.43,7.55.31,11.65,1.16,2.72.22,6.33.22,9.18l6,4.36a12.94,12.94,0,0,1-2,2.58c-4.47,3.18-9.22,5.88-13.26,9.78-1.92,1.85-5.57,2.09-8.52,2.62-2.09.38-3.64-1-4.28-3a4,4,0,0,1,1.92-4.9c1.76-1.12,4.68-1,4.59-4.48-2.43-.83-5.13-1.23-7.18-2.6s-3.61-3-6.16-3.65c-1.4-.38-2.74-2.51-3.22-4.12-.22-.73,1.59-2.23,2.67-3.17a27.24,27.24,0,0,1,4.49-3.29C651.36,514.66,653.44,513.87,656.21,512.62Z" transform="translate(-101.64 -115.63)"/><path class="cls-1" d="M1635.14,214.6c-1,1.22-2,3.37-3.7,4.53-2.13,1.45-3.88-.56-5.43-1.91a8.75,8.75,0,0,1-1.78-2.23c-1.59-2.7-3.83-3.85-7-4.05-5.92-.36-7.59-3.88-4.46-8.76,2.8-4.37,2.66-6.79-.19-10.8a22.42,22.42,0,0,1-2-4.56,46.4,46.4,0,0,0-2.31-5.67c-1.73-3-.78-11.32,1.77-13.77,1.79-1.71,3.7-1,5.19.11,2.9,2.16,5.69,4.11,9.48,4.74,2.86.48,3.91,2.76,3,5.77a9.38,9.38,0,0,0,.79,7.55c1,2,.71,4.81.59,7.24-.13,2.59.1,4.85,2,6.88a8.41,8.41,0,0,1,1.68,3.52c.75,2.89,1.29,5.84,1.91,8.76C1634.73,212.51,1634.84,213.07,1635.14,214.6Z" transform="translate(-101.64 -115.63)"/><path class="cls-1" d="M539,279.9c2.08,5.69,4.47,11.19,6,16.92.52,1.95-1.14,4.47-1.91,7.09a15.05,15.05,0,0,0,3.45.27c2.18-.27,4.19-.63,5.13,2.11,1,3,.29,6.09-2.11,7.61-2.23,1.42-4.52,2.74-6.84,4a3,3,0,0,1-2.16.4c-5.2-2.23-11.14-2.17-16-5.38-4.08-2.68-5.06-4.84-2.48-8.9a8.22,8.22,0,0,0,.82-8,12.83,12.83,0,0,1-.76-5c.08-1.45.47-3.78,1.37-4.15C528.53,284.7,532.08,279,539,279.9Z" transform="translate(-101.64 -115.63)"/><path class="cls-1" d="M636.81,593.83a13.83,13.83,0,0,0-1.74,1.1,10.29,10.29,0,0,1-14.12.3c-.39-.37-1-1.06-.83-1.4.91-2.7.16-5.33.06-8-.11-2.86,2.3-4.62,4.44-6.29a8,8,0,0,0,1.86-2.14c.94-1.63,2.1-2.73,4.12-2.24s2.75,1.85,2.86,3.76a7.8,7.8,0,0,0,.45,1.43c.77,0,1.66-.05,2.54,0,5.46.35,4.89.08,7.18-4.53a20.91,20.91,0,0,1,7.87-8.31c3.39-2,7.48-.27,10.88,1.56a5.17,5.17,0,0,1,1.9,3.18c1,4.4-2.35,7.28-4.22,10.61-.3.53-2.44.35-3.6,0-4-1.06-5.86-.13-5.89,3.9a7.74,7.74,0,0,1-3,6.29c-1.47,1.32-2.09,3.54-3.45,5a7.36,7.36,0,0,1-4.1,2.39c-.68.07-1.74-2-2.37-3.28A15.76,15.76,0,0,1,636.81,593.83Z" transform="translate(-101.64 -115.63)"/><path class="cls-1" d="M1673.61,646.78a46.77,46.77,0,0,1-3.79-6.2,5.58,5.58,0,0,1,.09-4.23c3.12-6.07,13.38-9.83,19.76-7.41,2.72,1,5.24,1.95,4.07,6.09-.47,1.64,2,3.93,1.94,5.92s-2.32,3.76-2.23,5.58c.42,8.37-4.78,13.91-9.47,19.64a6.29,6.29,0,0,1-5,1.65c-2.57-.36-2.59-2.89-2.58-5a30,30,0,0,1,.22-3.41,4.17,4.17,0,0,0-2.08-4.27C1669.41,651.44,1669.46,651.36,1673.61,646.78Z" transform="translate(-101.64 -115.63)"/><path class="cls-1" d="M711.19,253.21c.17,2.54-2.5,6.35-5.07,6.73a9.66,9.66,0,0,0-6.22,3.56c-1.54,1.77-3.48,1.88-5.75,1.35a22.49,22.49,0,0,0-7.72-.89c-4.16.53-5.84-2.18-7.63-4.85s-.24-4.78,1.52-7.07c2.51-3.29,5.42-6.25,7.24-10.21.93-2,4.53-3.16,7.14-4,3.46-1.17,4.68,1.37,6.34,4.06,2.14,3.45,5.42,6.2,8.21,9.24Z" transform="translate(-101.64 -115.63)"/><path class="cls-1" d="M246.2,524.69c3.82-5.67,10.12-7.56,16-9.9.95-.38,2.52,1.12,3.67.94,3.62-.54,7.43,1.54,10.92-1.14a3.54,3.54,0,0,1,5.08,1,4.94,4.94,0,0,1,0,4.11,6.92,6.92,0,0,0,.08,6.5c1,1.9,1.39,3.9-.05,5.93-2.17,3-4.26,3.41-7.09,1a34.13,34.13,0,0,1-2.73-2.9c-2.16-2.33-4.54-4-8-3.35a6.09,6.09,0,0,1-3.35-.37c-2.43-1-4.28-.31-6.35,1.07C250.39,530.3,249,529.74,246.2,524.69Z" transform="translate(-101.64 -115.63)"/><path class="cls-1" d="M180.89,718.23c5,.18,7.69,3.14,10.1,5.82,1.69,1.88.21,4.72-1.46,6.11a24.83,24.83,0,0,0-7.46,10.4c-1.17,3-2.44,3.14-5.39,1.72-2.38-1.16-4.77-2.34-7.05-3.68-3.59-2.1-4.23-3.82-2.8-7.49,1.08-2.79,2.28-5.54,3.55-8.26a3.18,3.18,0,0,1,1.59-1.52C175.13,720.15,178.35,719.1,180.89,718.23Z" transform="translate(-101.64 -115.63)"/><path class="cls-1" d="M578.17,141.13c4.41-3.58,8.51-6.8,12.49-10.17,3.12-2.64,2.79-6.36,2.76-9.94,0-1.1-.36-2.35.05-3.26,1-2.34,4.26-2.84,6.27-1.09,1,.87,1.75,2,2.75,2.86,3.55,3,3.49,2.92,1.16,7.19a8.83,8.83,0,0,0-1.07,4.26c.09,3.36-1.62,5.2-4.37,6.72a36.38,36.38,0,0,0-5.93,4.27C588.64,145.08,582.14,145,578.17,141.13Z" transform="translate(-101.64 -115.63)"/><path class="cls-1" d="M736.77,500.88c-1.7.18-3,.71-3.52.3-1.58-1.15-3.54-2.47-4.12-4.15-.75-2.17,1.46-3.2,3.34-3.77a14,14,0,0,1,2.83-.35c2.47-.23,3.78-1.48,3.75-4.06a19.45,19.45,0,0,1,.28-3.41c.71-4.21,4-6.55,8.15-5.71a3.46,3.46,0,0,1,2.27,1.48c.8,1.7,1.14,3.6,1.8,5.37.8,2.15-.25,3.51-1.57,5.05s-1.9,3.65-3.25,5.1C743.89,499.79,740.31,501.39,736.77,500.88Z" transform="translate(-101.64 -115.63)"/><path class="cls-1" d="M465.57,273.9c-3.74-5.25-7.32-10.3-10.92-15.34-.33-.46-.86-.79-1.13-1.28-.93-1.68,3.39-11.71,5.26-12.3a3.92,3.92,0,0,1,4.75,3,10.69,10.69,0,0,1,.23,2.83c0,.94-.17,1.88-.26,2.76,4.87,3.76,6.95,8.83,7.3,14.65C471,271.28,469.52,273.3,465.57,273.9Z" transform="translate(-101.64 -115.63)"/><path class="cls-1" d="M1712.3,806.63c-.18,2.26-.26,4.53-.59,6.77-.51,3.49-2.94,5.21-6.47,4.5a68,68,0,0,1-9.25-2.42c-1.43-.51-3.53-1.91-3.56-3,0-1.55,1.3-3.3,2.42-4.66.62-.76,2.08-.77,3-1.37a8.47,8.47,0,0,0,2.75-2.49c2.84-4.81,6-5.28,9.6-1.14a21.14,21.14,0,0,1,2.2,3.93Z" transform="translate(-101.64 -115.63)"/><path class="cls-1" d="M671.63,558.19c.42,2.21-2.75,5.53-5.35,5.25a11.76,11.76,0,0,0-6.94,1.62,4.27,4.27,0,0,1-4-.5c-.79-.84-1.15-3.17-.55-4.06,2.6-3.78,4.29-8.27,8.65-10.79,3.06-1.77,6.23-1.31,7.22,2A41.29,41.29,0,0,1,671.63,558.19Z" transform="translate(-101.64 -115.63)"/><path class="cls-1" d="M635.12,526.58a17.48,17.48,0,0,1,2.86,1.35c1.24.86,2.32,1.94,3.47,2.92,3.65,3.08,3.94,6.4.95,10.07-1.66,2-3.49,2.77-5.89,1.18-1.09-.72-2.51-1-3.44-1.91-1.43-1.34-3.66-3-3.59-4.5.13-3.06.79-6.43,3.82-8.41A10.1,10.1,0,0,1,635.12,526.58Z" transform="translate(-101.64 -115.63)"/><path class="cls-1" d="M243.26,557.65a6.74,6.74,0,0,1-.43,1.77c-1.17,2.44-10.38,5.17-12.78,3.82a5.3,5.3,0,0,1-1.33-1.07c-1.46-1.66-5.31-1.6-4-5.23.87-2.38,6.58-4.88,9.15-4.39a15.91,15.91,0,0,0,4.25.21C241.31,552.48,243.19,554,243.26,557.65Z" transform="translate(-101.64 -115.63)"/><path class="cls-1" d="M158.55,569.78a8.59,8.59,0,0,1-1.78-.76c-2.41-1.78-4.85-3.52-7.14-5.44s-2-4.42.64-6c1.15-.66,2.44-1,3.63-1.64,4.73-2.37,6.3-2.1,9.36,2.19a4.6,4.6,0,0,1,.71,3.68,42.44,42.44,0,0,1-3.66,7C160,569.33,159.09,569.5,158.55,569.78Z" transform="translate(-101.64 -115.63)"/><path class="cls-1" d="M168.21,721.28c-1.91,4.12-3.7,8-5.71,12.3-3.19-.56-6.24-.74-9-1.69-4.12-1.39-4.35-4.35-1-7.07,3.86-3.14,8.6-3.69,13.19-4.67C166.22,720,166.94,720.7,168.21,721.28Z" transform="translate(-101.64 -115.63)"/><path class="cls-1" d="M754.56,360c-1.15-1.25-2.07-2.16-2.88-3.17-3-3.79-3-3.79.24-7.56,1-1.14,1.65-2.72,2.86-3.47a10.53,10.53,0,0,1,5-1.56c2,0,2.74,1.64,2.93,3.53a16.27,16.27,0,0,0,.71,3.31c.92,2.9-.36,4.76-2.79,6C758.85,358.09,756.94,358.9,754.56,360Z" transform="translate(-101.64 -115.63)"/><path class="cls-1" d="M709.15,365.1c-.18-2.27.8-3.37,3.11-3.91,2.71-.64,5.25-1.92,7.92-2.76a3.73,3.73,0,0,1,2.68.15c2.31,1.4,2.22,3.83,2,6.12s-1.08,4-3.69,4.31a24.38,24.38,0,0,0-4.92,1.2C711.58,371.9,709.12,370.18,709.15,365.1Z" transform="translate(-101.64 -115.63)"/><path class="cls-1" d="M1712.41,806.8c.93-1.59,1.62-3.41,2.85-4.72,2.77-2.94,4.6-3.1,8-1a46.12,46.12,0,0,1,4.17,3.15c0,1,.14,1.42,0,1.7-5.28,8.82-8.1,8.94-15.14.69Z" transform="translate(-101.64 -115.63)"/><path class="cls-1" d="M426.51,531c-.27-2.17-.79-5.26,2.11-5.49s6.19,1,9.2,1.86c.52.16,1,2,.74,3-.81,3.35-6.95,7-10.35,6.2S426,533.26,426.51,531Z" transform="translate(-101.64 -115.63)"/><path class="cls-1" d="M137,803.86a58.5,58.5,0,0,1,.37-6.27c.36-2,1.46-3.72,3.82-3.36,2.09.33,3.65,1.89,3.28,4-.63,3.59-1.14,7,0,10.62.22.69-1.3,2.77-2,2.74-1.49-.05-3.75-.65-4.25-1.7C137.26,807.75,137.23,805.17,137,803.86Z" transform="translate(-101.64 -115.63)"/><path class="cls-1" d="M736.06,201.44s1.32.45,1.63,1.26a3.65,3.65,0,0,1-.53,3.06,55.83,55.83,0,0,1-5,5.23,4.27,4.27,0,0,1-5.74.47c-1.47-1.13-3-3.22-3-4.94-.08-2.34,1.92-4.17,4.37-4.59A80.18,80.18,0,0,1,736.06,201.44Z" transform="translate(-101.64 -115.63)"/><path class="cls-1" d="M680.64,516.92c.17-.32.55-2.21,1.67-2.91,1.63-1,3.5-.59,5.07,1.09,1.4,1.49,3.39,2.39,4.93,3.75,2.31,2,1.87,3.95-1.08,5.07a16.82,16.82,0,0,1-2.76.66C681.92,525.88,681,525.09,680.64,516.92Z" transform="translate(-101.64 -115.63)"/><path class="cls-1" d="M317.59,272.43c.47-1.74.79-2.95,1.13-4.16a55.6,55.6,0,0,0,1.66-5.86c.35-2,.07-4.54,2.75-4.92s3,2,3.8,4c1.05,2.71,2.32,5.05-.17,7.77C324.44,271.8,322.06,273.48,317.59,272.43Z" transform="translate(-101.64 -115.63)"/><path class="cls-1" d="M383.87,462.33a33.42,33.42,0,0,0,2.14,4c3.34,4.3,3.37,4.28-.6,7.3-.3.23-.63.42-.94.65-3.71,2.76-6,2.93-7.8.56-1.48-1.88-.75-3.58,2.38-6.63A71,71,0,0,0,383.87,462.33Z" transform="translate(-101.64 -115.63)"/><path class="cls-1" d="M1348.56,141c1.85,1.38,3.84,2.3,5,3.84,1.46,2-.41,3.37-1.85,4.68-4,3.6-5.54,3.84-8.77,1.08-2.31-2-2.56-3.59-.3-5.7C1344.19,143.39,1346.29,142.43,1348.56,141Z" transform="translate(-101.64 -115.63)"/><path class="cls-1" d="M694.57,211.58c1.69-2.45,3.18-4.83,4.94-7,.59-.73,2.07-1.47,2.75-1.21,1,.4,2.58,1.85,2.44,2.56a80.5,80.5,0,0,1-3.2,11.28c-.34.92-1.92,1.68-3,1.88-.45.08-1.34-1.5-1.79-2.43C695.86,215,695.23,213.21,694.57,211.58Z" transform="translate(-101.64 -115.63)"/><path class="cls-1" d="M584.74,542.31c-2.57,2.72-1.14,4.77-.38,7,.28.86-.81,3.1-1.4,3.15a8,8,0,0,1-4.65-1.11c-1.78-1.14-2.89-8.53-1.56-10.38.72-1,2.51-2.16,3.45-1.9C581.77,539.53,583.05,541,584.74,542.31Z" transform="translate(-101.64 -115.63)"/><path class="cls-1" d="M1340.43,220.61c-.87-.17-1.8-.31-2.71-.55-3.2-.82-4.83-2.7-4.3-4.9s3.67-4.18,6.25-3.69a6.83,6.83,0,0,1,3,1.41c1.79,1.49,4.89,2.56,4.19,5.38C1346.06,221.45,1342.62,219.64,1340.43,220.61Z" transform="translate(-101.64 -115.63)"/><path class="cls-1" d="M1175,844.78c-.1,1.49-.07,2.83-.28,4.13-.31,1.91-1.56,3.37-3.46,2.94a5.78,5.78,0,0,1-3.7-2.71c-.69-1.63-.51-3.72-.41-5.6.16-3.2,1.72-4.95,4.27-5,3.37-.08,3.31,2.39,3.44,4.71C1174.93,843.81,1175,844.37,1175,844.78Z" transform="translate(-101.64 -115.63)"/><path class="cls-1" d="M697.16,567.44c.69.51,2.84,1.34,3.63,2.87,1.29,2.5-1.19,3.55-3,4.62l-.5.26c-2.25,1.25-4.62,2.12-6.88.33a3.47,3.47,0,0,1-.76-3C690.45,569.63,693.16,567.55,697.16,567.44Z" transform="translate(-101.64 -115.63)"/><path class="cls-1" d="M724.17,145.68c-2.56-2-4.85-3.36-6.52-5.26a5.44,5.44,0,0,1-.88-4.48c.23-.77,2.79-1.63,3.76-1.21,2.35,1,5,2.33,6.4,4.32C728.88,141.83,726.31,143.76,724.17,145.68Z" transform="translate(-101.64 -115.63)"/><path class="cls-1" d="M443.35,721.4c-1.65-.06-2.38-1.12-2-3,.49-2.41,7.11-7.67,9.35-7.18a3,3,0,0,1,1.66,2.37C452.2,718,448.16,721.43,443.35,721.4Z" transform="translate(-101.64 -115.63)"/><path class="cls-1" d="M179.63,778.4c-1.58-.78-3.16-1.08-3.34-1.76-.28-1,.06-3.06.75-3.39a94.29,94.29,0,0,1,10.36-4.06c.39-.13,1.4.62,1.64,1.17s.19,1.8-.2,2.06C185.8,774.53,182.65,776.47,179.63,778.4Z" transform="translate(-101.64 -115.63)"/><path class="cls-1" d="M693,513.53c-3-2.24-2.18-5.45-1.44-8.17.61-2.24,2.76-3.4,5.33-2.9C698.38,509.77,697.92,511.07,693,513.53Z" transform="translate(-101.64 -115.63)"/><path class="cls-1" d="M252.67,474.78c.15-3.55,1.57-5.35,3.79-5.4s4.47,2.41,4.51,5c0,2.11-2.55,4-5.45,3.85C253,478.09,252.69,476.2,252.67,474.78Z" transform="translate(-101.64 -115.63)"/><path class="cls-1" d="M147.94,581.08c-2.43-.3-3-2-2.86-4,.15-2.77,2.51-5.31,4.87-5.15,2,.15,3.67,1,3.75,3.32C153.8,578,150.53,581.22,147.94,581.08Z" transform="translate(-101.64 -115.63)"/><path class="cls-1" d="M121.3,298.62c2.65,5.38,2.37,7.9-1.12,9.27a4.17,4.17,0,0,1-3.54-.35,3.68,3.68,0,0,1-.74-3.37C116.9,301.85,117.56,299,121.3,298.62Z" transform="translate(-101.64 -115.63)"/><path class="cls-1" d="M526.22,134.4c1.09-4.49,1.9-5.07,6.92-5.46,2.39-.19,3.56.73,3.63,3.09C529.29,135.12,529.29,135.12,526.22,134.4Z" transform="translate(-101.64 -115.63)"/><path class="cls-1" d="M1034.68,413.29c2.6-.47,4,1.1,4.43,3.24a6,6,0,0,1-.86,4.47c-.62.76-2.81.88-4,.42a3.56,3.56,0,0,1-2-4.68c.48-1.32,1.68-2.39,2.57-3.57Z" transform="translate(-101.64 -115.63)"/><path class="cls-1" d="M185.19,764c-3,3.24-7.45,3-8.46-.43a5.27,5.27,0,0,1,.88-4.09c1.09-1.4,2.69-1,3.94.34.79.82,1.71,1.52,2.47,2.36A12.75,12.75,0,0,1,185.19,764Z" transform="translate(-101.64 -115.63)"/><path class="cls-1" d="M438.91,714.07a54.81,54.81,0,0,1,1.44-5.76c1-2.57,2.4-2.88,4.79-1.24,3,2.07,3.06,4.39-.17,5.91C443.47,713.69,441.6,713.62,438.91,714.07Z" transform="translate(-101.64 -115.63)"/><path class="cls-1" d="M708.32,216c3,1.81,3.28,4.32,2.77,7-.15.77-1,1.92-1.6,2a4,4,0,0,1-2.86-1.05C704.6,221.79,705.09,219.57,708.32,216Z" transform="translate(-101.64 -115.63)"/><path class="cls-1" d="M469.59,282.9a40.6,40.6,0,0,1-2.15-5.17A2.16,2.16,0,0,1,470.3,275a5,5,0,0,1,3.69,5.1c0,2.44-1.9,2.94-4,2.71l-.56,0Z" transform="translate(-101.64 -115.63)"/><path class="cls-1" d="M1035.34,406.58c-2.19,1.24-3.43,2.45-4.77,2.57-2.1.19-3.48-1.14-3.45-3.45s1.81-4.41,3.2-3.7C1032,402.84,1033.14,404.51,1035.34,406.58Z" transform="translate(-101.64 -115.63)"/><path class="cls-1" d="M414,555.61c-.94-1.76-1.85-2.74-1.94-3.79a3.72,3.72,0,0,1,4-3.69c1.72.36,3.64,1.54,2.81,3.34C418.2,553,416.09,553.94,414,555.61Z" transform="translate(-101.64 -115.63)"/><path class="cls-1" d="M482.87,268.91c-1.94,1.57-2.86,2.89-4,3.12-2.08.42-4.57-1.67-4.39-3.29.25-2.22,2-2.68,3.7-2.37C479.5,266.61,480.68,267.68,482.87,268.91Z" transform="translate(-101.64 -115.63)"/><path class="cls-1" d="M700.52,515.09c0-2.86-1.64-5.68,1.85-7a3.22,3.22,0,0,1,4.06,2.76C706.53,513.09,704.58,514.65,700.52,515.09Z" transform="translate(-101.64 -115.63)"/><path class="cls-1" d="M726.13,377.88c-.53.33-2.13,1.61-2.32,1.42a26.22,26.22,0,0,1-4-4.93,5.89,5.89,0,0,1,2.68-2.2C724.41,371.76,726.25,374.42,726.13,377.88Z" transform="translate(-101.64 -115.63)"/><path class="cls-1" d="M391,825.63c-1.59.64-3.17,1.72-4.79,1.77-1,0-2.1-1.45-3.15-2.25.85-.81,1.66-2.23,2.57-2.31,1.68-.13,3.42.53,5.14.86C390.82,824.34,390.89,825,391,825.63Z" transform="translate(-101.64 -115.63)"/><path class="cls-1" d="M395.87,563.67c-.05-3.16.5-5.4,3.42-5.39.9,0,2.69,2.06,2.54,2.89C401.27,564.18,398.7,563.68,395.87,563.67Z" transform="translate(-101.64 -115.63)"/><path class="cls-1" d="M209.8,829.31c-.51.48-1.62,1.91-1.94,1.75a47.85,47.85,0,0,1-5.35-3.41c.65-.79,1.17-2,2-2.27C206.34,824.87,209.53,827.15,209.8,829.31Z" transform="translate(-101.64 -115.63)"/><path class="cls-1" d="M110.88,318.35l3-.86c.22,1.05.93,2.33.56,3.11-1,2.23-2.56,4.19-6.19,2.53L111,318.2Z" transform="translate(-101.64 -115.63)"/><path class="cls-1" d="M104.37,319.21c2.2,1.11,3.62,2.62,1.76,4.78-.66.77-3.37,1.07-3.73.57C100.68,322.17,102.12,320.5,104.37,319.21Z" transform="translate(-101.64 -115.63)"/><path class="cls-1" d="M349.87,274.67l-.34.11c.77,1.57,1.49,3.42-.85,3.93-.84.18-2.25-1.37-3-2.41-.29-.37.43-2.2.78-2.22A12.74,12.74,0,0,1,349.87,274.67Z" transform="translate(-101.64 -115.63)"/><path class="cls-1" d="M215.46,548.88l3-4.17c2.85.72,3.73,2.37,2.58,4.33S218,550.73,215.46,548.88Z" transform="translate(-101.64 -115.63)"/><path class="cls-1" d="M709.78,128.52c3.13.49,5.36,1,4.75,4.17a2.89,2.89,0,0,1-2.34,1.59C709.62,133.5,709,131.57,709.78,128.52Z" transform="translate(-101.64 -115.63)"/><path class="cls-1" d="M333.72,594.78c.81,1.58,1.78,2.62,1.74,3.63,0,.79-1.3,1.53-2,2.29a14.85,14.85,0,0,1-2.36-3.28C330.94,597,332.41,596,333.72,594.78Z" transform="translate(-101.64 -115.63)"/><path class="cls-1" d="M258.88,510.63c-1.29,1-2.11,2.13-3.11,2.34-.62.12-1.52-1.09-2.29-1.7l2.67-3.08Z" transform="translate(-101.64 -115.63)"/><path class="cls-1" d="M266.24,614.23a16.24,16.24,0,0,1-2.4-3.08c-.15-.35.92-1.24,1.43-1.88a30.41,30.41,0,0,1,2.55,3C267.92,612.47,267,613.3,266.24,614.23Z" transform="translate(-101.64 -115.63)"/><path class="cls-1" d="M704.44,155.68l-4.88,1.42C700.46,152.55,700.7,152.47,704.44,155.68Z" transform="translate(-101.64 -115.63)"/><path class="cls-1" d="M327.37,277.86a3.9,3.9,0,0,1,.83-5.39C330.73,276,330.73,276,327.37,277.86Z" transform="translate(-101.64 -115.63)"/><path class="cls-1" d="M340.94,267.75c3.75.42,3.75.42,3.45,4C341.92,271.52,340.88,270.2,340.94,267.75Z" transform="translate(-101.64 -115.63)"/><path class="cls-1" d="M717.14,158.81c2.06.36,2.49,1.66,1.78,3.32a2,2,0,0,1-1.8.48C715.72,161.43,715.85,160.08,717.14,158.81Z" transform="translate(-101.64 -115.63)"/><path class="cls-1" d="M111,318.2a5.77,5.77,0,0,1-2.2-.27c-.53-.29-1.19-1.44-1-1.66a4.22,4.22,0,0,1,2.08-1.5c.3-.09,1.19.81,1.32,1.38a6,6,0,0,1-.33,2.2Z" transform="translate(-101.64 -115.63)"/><path class="cls-1" d="M714.93,147.51l-.9-4c3.38.81,2.83,2.37,2.39,3.89Z" transform="translate(-101.64 -115.63)"/><path class="cls-1" d="M263.84,603.67c-.86.64-1.5,1.42-1.85,1.31a7.67,7.67,0,0,1-2-1.46c.43-.48,1-1.42,1.27-1.35A10.93,10.93,0,0,1,263.84,603.67Z" transform="translate(-101.64 -115.63)"/><path class="cls-1" d="M722.68,154a20.81,20.81,0,0,1-2-2c-.09-.11.5-.78.78-1.19l2.31,2.06Z" transform="translate(-101.64 -115.63)"/><path class="cls-1" d="M334.29,262c-.51.59-.86,1.25-1.07,1.2a7.05,7.05,0,0,1-1.74-.82l.89-1.52Z" transform="translate(-101.64 -115.63)"/><path class="cls-1" d="M1034.82,413.17l-2.22-1.67,1.23-.85c.28.88.56,1.76.85,2.64Z" transform="translate(-101.64 -115.63)"/><path class="cls-1" d="M1655.21,723.23l2-1c-.45.65-.91,1.3-1.37,1.94Z" transform="translate(-101.64 -115.63)"/></svg>