<svg width="609" height="40" viewBox="0 0 609 40" fill="none" xmlns="http://www.w3.org/2000/svg">
<line x1="48.4686" y1="19.6875" x2="94.4686" y2="19.6875" stroke="#69C7A2"/>
<path d="M21.9686 36.0207C30.9892 36.0207 38.3019 28.708 38.3019 19.6873C38.3019 10.6667 30.9892 3.354 21.9686 3.354C12.9479 3.354 5.63525 10.6667 5.63525 19.6873C5.63525 28.708 12.9479 36.0207 21.9686 36.0207Z" stroke="#69C7A2" stroke-width="1.5"/>
<path d="M33.1977 8.14767C37.8874 7.04925 41.2521 7.17583 42.0545 8.78466C43.5449 11.7777 35.6069 18.7684 24.3185 24.3932C13.0322 30.0221 2.67277 32.1556 1.18032 29.1625C0.379983 27.5578 2.29098 24.8056 5.97619 21.7309" stroke="#69C7A2" stroke-width="1.5"/>
<path d="M588.969 0C585.075 0 581.268 1.15465 578.031 3.31794C574.793 5.48123 572.27 8.556 570.78 12.1534C569.29 15.7508 568.9 19.7093 569.659 23.5283C570.419 27.3473 572.294 30.8553 575.047 33.6087C577.801 36.362 581.309 38.2371 585.128 38.9967C588.947 39.7564 592.905 39.3665 596.503 37.8764C600.1 36.3863 603.175 33.8629 605.338 30.6253C607.501 27.3877 608.656 23.5813 608.656 19.6875C608.65 14.4679 606.574 9.46375 602.883 5.77291C599.192 2.08208 594.188 0.00595508 588.969 0ZM572.122 20.2416L574.003 20.8687L576.312 24.3323V26.1366C576.312 26.5095 576.461 26.8671 576.724 27.1308L580.531 30.9375V34.2802C578.053 32.8462 575.981 30.8051 574.51 28.3491C573.038 25.893 572.217 23.1029 572.122 20.2416ZM588.969 36.5625C587.752 36.56 586.539 36.4256 585.352 36.1617L586.156 33.75L588.694 27.405C588.779 27.1932 588.811 26.9639 588.787 26.7371C588.763 26.5102 588.685 26.2925 588.558 26.1028L586.574 23.1258C586.445 22.9332 586.271 22.7754 586.067 22.6662C585.863 22.5571 585.635 22.5 585.404 22.5H578.471L576.716 19.8661L579.707 16.875H581.937V19.6875H584.75V15.8428L590.189 6.3225L587.748 4.9275L586.546 7.03125H582.69L581.164 4.74047C583.214 3.65864 585.467 3.01599 587.779 2.85353C590.092 2.69106 592.412 3.01234 594.594 3.79687V8.4375C594.594 8.81046 594.742 9.16815 595.005 9.43187C595.269 9.69559 595.627 9.84375 596 9.84375H598.06C598.291 9.84378 598.519 9.78669 598.723 9.67752C598.927 9.56836 599.101 9.41051 599.23 9.21797L600.463 7.36734C602.069 8.86537 603.369 10.6618 604.288 12.6562H598.559C598.234 12.6564 597.919 12.7692 597.668 12.9753C597.417 13.1814 597.245 13.4682 597.181 13.7869L596.164 20.0728C596.116 20.3688 596.164 20.6723 596.301 20.9392C596.437 21.2061 596.655 21.4224 596.924 21.5564L601.625 23.9062L602.588 29.61C601.027 31.761 598.98 33.5122 596.613 34.7205C594.245 35.9288 591.626 36.56 588.969 36.5625Z" fill="#69C7A2"/>
<circle cx="100.469" cy="20.1875" r="5.5" stroke="#69C7A2"/>
<line x1="106.469" y1="19.6875" x2="152.469" y2="19.6875" stroke="#69C7A2"/>
<circle cx="158.469" cy="20.1875" r="5.5" stroke="#69C7A2"/>
<line x1="164.469" y1="19.6875" x2="210.469" y2="19.6875" stroke="#69C7A2"/>
<circle cx="216.469" cy="20.1875" r="5.5" stroke="#69C7A2"/>
<line x1="222.469" y1="19.6875" x2="268.469" y2="19.6875" stroke="#69C7A2"/>
<circle cx="274.469" cy="20.1875" r="5.5" stroke="#69C7A2"/>
<line x1="280.469" y1="19.6875" x2="326.469" y2="19.6875" stroke="#69C7A2"/>
<circle cx="332.469" cy="20.1875" r="5.5" stroke="#69C7A2"/>
<line x1="338.469" y1="19.6875" x2="384.469" y2="19.6875" stroke="#69C7A2"/>
<circle cx="390.469" cy="20.1875" r="5.5" stroke="#69C7A2"/>
<line x1="396.469" y1="19.6875" x2="442.469" y2="19.6875" stroke="#69C7A2"/>
<circle cx="448.469" cy="20.1875" r="5.5" stroke="#69C7A2"/>
<line x1="454.469" y1="19.6875" x2="500.469" y2="19.6875" stroke="#69C7A2"/>
<line x1="512.469" y1="19.6875" x2="558.469" y2="19.6875" stroke="#69C7A2"/>
<circle cx="506.469" cy="20.1875" r="5.5" stroke="#69C7A2"/>
</svg>
